M48
;DRILL file {KiCad 4.0.2-stable} date 2016/04/14 22:54:09
;FORMAT={-:-/ absolute / metric / decimal}
FMAT,2
METRIC,TZ
T1C0.300
T2C0.800
T3C1.000
T4C1.300
T5C3.000
%
G90
G05
M71
T1
X5.08Y-10.16
X5.08Y-12.7
X5.08Y-15.24
X5.08Y-81.28
X5.08Y-83.82
X5.08Y-86.36
X5.08Y-88.9
X7.62Y-10.16
X7.62Y-12.7
X7.62Y-15.24
X7.62Y-81.28
X7.62Y-83.82
X7.62Y-86.36
X7.62Y-88.9
X7.62Y-91.44
X9.525Y-53.34
X10.16Y-5.08
X10.16Y-33.02
X10.16Y-45.72
X10.16Y-83.82
X10.16Y-93.98
X10.16Y-96.52
X12.7Y-5.08
X12.7Y-93.98
X12.7Y-96.52
X15.24Y-5.08
X15.24Y-10.795
X15.24Y-12.7
X15.24Y-93.98
X15.24Y-96.52
X16.51Y-37.465
X16.51Y-40.005
X17.145Y-50.8
X17.78Y-5.08
X17.78Y-10.795
X17.78Y-93.98
X17.78Y-96.52
X18.796Y-50.292
X22.86Y-38.1
X22.86Y-40.64
X22.86Y-43.18
X22.86Y-45.72
X22.86Y-48.26
X22.86Y-50.8
X22.86Y-58.42
X25.4Y-40.64
X25.4Y-45.72
X25.4Y-48.26
X25.4Y-50.8
X25.4Y-58.42
X25.4Y-66.04
X25.4Y-68.58
X25.4Y-71.12
X27.94Y-25.4
X27.94Y-58.42
X27.94Y-66.04
X27.94Y-68.58
X27.94Y-71.12
X30.48Y-7.62
X30.48Y-10.16
X30.48Y-17.78
X30.48Y-25.4
X30.48Y-66.04
X30.48Y-68.58
X30.48Y-71.12
X30.48Y-78.74
X32.385Y-56.515
X32.512Y-54.864
X33.02Y-5.08
X33.02Y-7.62
X33.02Y-10.16
X33.02Y-15.24
X33.02Y-17.78
X33.02Y-22.86
X33.02Y-25.4
X33.02Y-66.04
X33.02Y-68.58
X33.02Y-71.12
X33.02Y-76.2
X33.02Y-78.74
X33.02Y-91.44
X33.02Y-93.98
X33.02Y-96.52
X35.56Y-5.08
X35.56Y-7.62
X35.56Y-10.16
X35.56Y-17.78
X35.56Y-66.04
X35.56Y-68.58
X35.56Y-71.12
X35.56Y-76.2
X35.56Y-78.74
X35.56Y-91.44
X35.56Y-93.98
X35.56Y-96.52
X38.1Y-5.08
X38.1Y-7.62
X38.1Y-10.16
X38.1Y-17.78
X38.1Y-66.04
X38.1Y-68.58
X38.1Y-71.12
X38.1Y-76.2
X38.1Y-78.74
X38.1Y-81.28
X38.1Y-91.44
X38.1Y-93.98
X38.1Y-96.52
X40.64Y-5.08
X40.64Y-7.62
X40.64Y-10.16
X40.64Y-15.24
X40.64Y-17.78
X40.64Y-76.2
X40.64Y-78.74
X40.64Y-81.28
X40.64Y-83.82
X40.64Y-91.44
X43.18Y-33.02
X43.18Y-35.56
X43.18Y-58.42
X43.18Y-60.96
X43.18Y-76.2
X43.18Y-78.74
X43.18Y-81.28
X43.18Y-83.82
X43.18Y-86.36
X43.18Y-88.9
X45.72Y-30.48
X45.72Y-33.02
X45.72Y-35.56
X45.72Y-38.1
X45.72Y-81.28
X45.72Y-83.82
X45.72Y-86.36
X45.72Y-88.9
T2
X4.445Y-17.78
X6.985Y-17.78
X7.62Y-29.25
X7.62Y-34.25
X7.62Y-38.1
X7.62Y-40.64
X7.62Y-43.18
X8.89Y-71.755
X8.89Y-74.295
X8.89Y-76.835
X8.89Y-79.375
X10.2Y-67.945
X13.335Y-16.51
X13.335Y-19.05
X13.335Y-21.59
X13.335Y-24.13
X13.335Y-26.67
X13.335Y-29.21
X13.335Y-31.75
X13.335Y-34.29
X13.335Y-36.83
X13.335Y-39.37
X13.335Y-41.91
X13.335Y-44.45
X13.335Y-46.99
X13.335Y-49.53
X13.375Y-56.515
X15.2Y-67.945
X16.51Y-71.755
X16.51Y-74.295
X16.51Y-76.835
X16.51Y-79.375
X18.375Y-56.515
X20.955Y-16.51
X20.955Y-19.05
X20.955Y-21.59
X20.955Y-24.13
X20.955Y-26.67
X20.955Y-29.21
X20.955Y-31.75
X20.955Y-34.29
X20.955Y-36.83
X20.955Y-39.37
X20.955Y-41.91
X20.955Y-44.45
X20.955Y-46.99
X20.955Y-49.53
X29.21Y-13.335
X29.21Y-20.955
X31.75Y-28.575
X31.75Y-31.115
X31.75Y-33.655
X31.75Y-36.195
X31.75Y-38.735
X31.75Y-41.275
X31.75Y-43.815
X31.75Y-46.355
X31.75Y-48.895
X34.33Y-62.23
X36.83Y-13.335
X36.83Y-20.955
X39.33Y-62.23
X39.37Y-28.575
X39.37Y-31.115
X39.37Y-33.655
X39.37Y-36.195
X39.37Y-38.735
X39.37Y-41.275
X39.37Y-43.815
X39.37Y-46.355
X39.37Y-48.895
X44.45Y-13.335
X44.45Y-20.955
X45.085Y-71.755
X45.085Y-74.295
X45.085Y-76.835
T3
X4.445Y-46.355
X4.445Y-48.895
X4.445Y-51.435
X4.445Y-53.975
X4.445Y-56.515
X4.445Y-59.055
X5.08Y-23.495
X5.08Y-26.035
X8.89Y-61.595
X8.89Y-64.135
X10.16Y-11.43
X11.585Y-87.63
X12.7Y-11.43
X15.085Y-87.63
X17.78Y-61.595
X17.78Y-64.135
X22.225Y-80.01
X22.225Y-82.55
X27.94Y-80.01
X27.94Y-82.55
X35.08Y-87.63
X38.58Y-87.63
X40.64Y-65.405
X43.18Y-65.405
T4
X22.25Y-93.
X22.8Y-87.5
X27.2Y-87.5
X27.75Y-93.
T5
X5.Y-5.
X5.Y-95.
X45.Y-5.
X45.Y-95.
T0
M30
