G04 #@! TF.FileFunction,Soldermask,Top*
%FSLAX46Y46*%
G04 Gerber Fmt 4.6, Leading zero omitted, Abs format (unit mm)*
G04 Created by KiCad (PCBNEW 4.0.2-stable) date 2016/04/14 22:54:03*
%MOMM*%
G01*
G04 APERTURE LIST*
%ADD10C,0.100000*%
G04 APERTURE END LIST*
D10*
G36*
X5320354Y-91952029D02*
X5906276Y-92072302D01*
X6457672Y-92304088D01*
X6953551Y-92638561D01*
X7375020Y-93062984D01*
X7706025Y-93561185D01*
X7933953Y-94114183D01*
X8050065Y-94700588D01*
X8050065Y-94700598D01*
X8050131Y-94700932D01*
X8040591Y-95384116D01*
X8040515Y-95384450D01*
X8040515Y-95384462D01*
X7908079Y-95967387D01*
X7664794Y-96513813D01*
X7320010Y-97002576D01*
X6886851Y-97415066D01*
X6381833Y-97735561D01*
X5824174Y-97951863D01*
X5235128Y-98055727D01*
X4637123Y-98043202D01*
X4052933Y-97914759D01*
X3504827Y-97675297D01*
X3013669Y-97333933D01*
X2598166Y-96903667D01*
X2274153Y-96400898D01*
X2053964Y-95844764D01*
X1945988Y-95256449D01*
X1954340Y-94658373D01*
X2078698Y-94073311D01*
X2314331Y-93523540D01*
X2652258Y-93030011D01*
X3079611Y-92611514D01*
X3580109Y-92283998D01*
X4134691Y-92059932D01*
X4722230Y-91947853D01*
X5320354Y-91952029D01*
X5320354Y-91952029D01*
G37*
G36*
X45320354Y-91952029D02*
X45906276Y-92072302D01*
X46457672Y-92304088D01*
X46953551Y-92638561D01*
X47375020Y-93062984D01*
X47706025Y-93561185D01*
X47933953Y-94114183D01*
X48050065Y-94700588D01*
X48050065Y-94700598D01*
X48050131Y-94700932D01*
X48040591Y-95384116D01*
X48040515Y-95384450D01*
X48040515Y-95384462D01*
X47908079Y-95967387D01*
X47664794Y-96513813D01*
X47320010Y-97002576D01*
X46886851Y-97415066D01*
X46381833Y-97735561D01*
X45824174Y-97951863D01*
X45235128Y-98055727D01*
X44637123Y-98043202D01*
X44052933Y-97914759D01*
X43504827Y-97675297D01*
X43013669Y-97333933D01*
X42598166Y-96903667D01*
X42274153Y-96400898D01*
X42053964Y-95844764D01*
X41945988Y-95256449D01*
X41954340Y-94658373D01*
X42078698Y-94073311D01*
X42314331Y-93523540D01*
X42652258Y-93030011D01*
X43079611Y-92611514D01*
X43580109Y-92283998D01*
X44134691Y-92059932D01*
X44722230Y-91947853D01*
X45320354Y-91952029D01*
X45320354Y-91952029D01*
G37*
G36*
X27891796Y-91650897D02*
X28151139Y-91704133D01*
X28395199Y-91806726D01*
X28614686Y-91954772D01*
X28801240Y-92142633D01*
X28947751Y-92363149D01*
X29048635Y-92607915D01*
X29099992Y-92867282D01*
X29099992Y-92867292D01*
X29100058Y-92867626D01*
X29095835Y-93170019D01*
X29095759Y-93170353D01*
X29095759Y-93170365D01*
X29037184Y-93428187D01*
X28929500Y-93670049D01*
X28776891Y-93886386D01*
X28585163Y-94068966D01*
X28361632Y-94210823D01*
X28114798Y-94306564D01*
X27854074Y-94352536D01*
X27589383Y-94346992D01*
X27330806Y-94290140D01*
X27088201Y-94184148D01*
X26870804Y-94033053D01*
X26686891Y-93842607D01*
X26543477Y-93620071D01*
X26446016Y-93373913D01*
X26398223Y-93113509D01*
X26401920Y-92848787D01*
X26456963Y-92589827D01*
X26561261Y-92346484D01*
X26710835Y-92128037D01*
X26899992Y-91942800D01*
X27121523Y-91797834D01*
X27366994Y-91698657D01*
X27627050Y-91649049D01*
X27891796Y-91650897D01*
X27891796Y-91650897D01*
G37*
G36*
X22391796Y-91650897D02*
X22651139Y-91704133D01*
X22895199Y-91806726D01*
X23114686Y-91954772D01*
X23301240Y-92142633D01*
X23447751Y-92363149D01*
X23548635Y-92607915D01*
X23599992Y-92867282D01*
X23599992Y-92867292D01*
X23600058Y-92867626D01*
X23595835Y-93170019D01*
X23595759Y-93170353D01*
X23595759Y-93170365D01*
X23537184Y-93428187D01*
X23429500Y-93670049D01*
X23276891Y-93886386D01*
X23085163Y-94068966D01*
X22861632Y-94210823D01*
X22614798Y-94306564D01*
X22354074Y-94352536D01*
X22089383Y-94346992D01*
X21830806Y-94290140D01*
X21588201Y-94184148D01*
X21370804Y-94033053D01*
X21186891Y-93842607D01*
X21043477Y-93620071D01*
X20946016Y-93373913D01*
X20898223Y-93113509D01*
X20901920Y-92848787D01*
X20956963Y-92589827D01*
X21061261Y-92346484D01*
X21210835Y-92128037D01*
X21399992Y-91942800D01*
X21621523Y-91797834D01*
X21866994Y-91698657D01*
X22127050Y-91649049D01*
X22391796Y-91650897D01*
X22391796Y-91650897D01*
G37*
G36*
X22941796Y-86150897D02*
X23201139Y-86204133D01*
X23445199Y-86306726D01*
X23664686Y-86454772D01*
X23851240Y-86642633D01*
X23997751Y-86863149D01*
X24098635Y-87107915D01*
X24149992Y-87367282D01*
X24149992Y-87367292D01*
X24150058Y-87367626D01*
X24145835Y-87670019D01*
X24145759Y-87670353D01*
X24145759Y-87670365D01*
X24087184Y-87928187D01*
X23979500Y-88170049D01*
X23826891Y-88386386D01*
X23635163Y-88568966D01*
X23411632Y-88710823D01*
X23164798Y-88806564D01*
X22904074Y-88852536D01*
X22639383Y-88846992D01*
X22380806Y-88790140D01*
X22138201Y-88684148D01*
X21920804Y-88533053D01*
X21736891Y-88342607D01*
X21593477Y-88120071D01*
X21496016Y-87873913D01*
X21448223Y-87613509D01*
X21451920Y-87348787D01*
X21506963Y-87089827D01*
X21611261Y-86846484D01*
X21760835Y-86628037D01*
X21949992Y-86442800D01*
X22171523Y-86297834D01*
X22416994Y-86198657D01*
X22677050Y-86149049D01*
X22941796Y-86150897D01*
X22941796Y-86150897D01*
G37*
G36*
X27341796Y-86150897D02*
X27601139Y-86204133D01*
X27845199Y-86306726D01*
X28064686Y-86454772D01*
X28251240Y-86642633D01*
X28397751Y-86863149D01*
X28498635Y-87107915D01*
X28549992Y-87367282D01*
X28549992Y-87367292D01*
X28550058Y-87367626D01*
X28545835Y-87670019D01*
X28545759Y-87670353D01*
X28545759Y-87670365D01*
X28487184Y-87928187D01*
X28379500Y-88170049D01*
X28226891Y-88386386D01*
X28035163Y-88568966D01*
X27811632Y-88710823D01*
X27564798Y-88806564D01*
X27304074Y-88852536D01*
X27039383Y-88846992D01*
X26780806Y-88790140D01*
X26538201Y-88684148D01*
X26320804Y-88533053D01*
X26136891Y-88342607D01*
X25993477Y-88120071D01*
X25896016Y-87873913D01*
X25848223Y-87613509D01*
X25851920Y-87348787D01*
X25906963Y-87089827D01*
X26011261Y-86846484D01*
X26160835Y-86628037D01*
X26349992Y-86442800D01*
X26571523Y-86297834D01*
X26816994Y-86198657D01*
X27077050Y-86149049D01*
X27341796Y-86150897D01*
X27341796Y-86150897D01*
G37*
G36*
X38690286Y-86580698D02*
X38891998Y-86622104D01*
X39081821Y-86701898D01*
X39252534Y-86817045D01*
X39397631Y-86963159D01*
X39511583Y-87134670D01*
X39590050Y-87325046D01*
X39629979Y-87526698D01*
X39629979Y-87526703D01*
X39630046Y-87527042D01*
X39626761Y-87762237D01*
X39626684Y-87762575D01*
X39626684Y-87762583D01*
X39581144Y-87963034D01*
X39497389Y-88151149D01*
X39378693Y-88319411D01*
X39229570Y-88461419D01*
X39055714Y-88571751D01*
X38863732Y-88646217D01*
X38660947Y-88681972D01*
X38455076Y-88677661D01*
X38253958Y-88633442D01*
X38065268Y-88551005D01*
X37896181Y-88433486D01*
X37753137Y-88285360D01*
X37641594Y-88112278D01*
X37565790Y-87920822D01*
X37528618Y-87718284D01*
X37531493Y-87512390D01*
X37574304Y-87310977D01*
X37655425Y-87121710D01*
X37771760Y-86951807D01*
X37918883Y-86807733D01*
X38091185Y-86694982D01*
X38282107Y-86617844D01*
X38484372Y-86579260D01*
X38690286Y-86580698D01*
X38690286Y-86580698D01*
G37*
G36*
X11695286Y-86580698D02*
X11896998Y-86622104D01*
X12086821Y-86701898D01*
X12257534Y-86817045D01*
X12402631Y-86963159D01*
X12516583Y-87134670D01*
X12595050Y-87325046D01*
X12634979Y-87526698D01*
X12634979Y-87526703D01*
X12635046Y-87527042D01*
X12631761Y-87762237D01*
X12631684Y-87762575D01*
X12631684Y-87762583D01*
X12586144Y-87963034D01*
X12502389Y-88151149D01*
X12383693Y-88319411D01*
X12234570Y-88461419D01*
X12060714Y-88571751D01*
X11868732Y-88646217D01*
X11665947Y-88681972D01*
X11460076Y-88677661D01*
X11258958Y-88633442D01*
X11070268Y-88551005D01*
X10901181Y-88433486D01*
X10758137Y-88285360D01*
X10646594Y-88112278D01*
X10570790Y-87920822D01*
X10533618Y-87718284D01*
X10536493Y-87512390D01*
X10579304Y-87310977D01*
X10660425Y-87121710D01*
X10776760Y-86951807D01*
X10923883Y-86807733D01*
X11096185Y-86694982D01*
X11287107Y-86617844D01*
X11489372Y-86579260D01*
X11695286Y-86580698D01*
X11695286Y-86580698D01*
G37*
G36*
X15195286Y-86580698D02*
X15396998Y-86622104D01*
X15586821Y-86701898D01*
X15757534Y-86817045D01*
X15902631Y-86963159D01*
X16016583Y-87134670D01*
X16095050Y-87325046D01*
X16134979Y-87526698D01*
X16134979Y-87526703D01*
X16135046Y-87527042D01*
X16131761Y-87762237D01*
X16131684Y-87762575D01*
X16131684Y-87762583D01*
X16086144Y-87963034D01*
X16002389Y-88151149D01*
X15883693Y-88319411D01*
X15734570Y-88461419D01*
X15560714Y-88571751D01*
X15368732Y-88646217D01*
X15165947Y-88681972D01*
X14960076Y-88677661D01*
X14758958Y-88633442D01*
X14570268Y-88551005D01*
X14401181Y-88433486D01*
X14258137Y-88285360D01*
X14146594Y-88112278D01*
X14070790Y-87920822D01*
X14033618Y-87718284D01*
X14036493Y-87512390D01*
X14079304Y-87310977D01*
X14160425Y-87121710D01*
X14276760Y-86951807D01*
X14423883Y-86807733D01*
X14596185Y-86694982D01*
X14787107Y-86617844D01*
X14989372Y-86579260D01*
X15195286Y-86580698D01*
X15195286Y-86580698D01*
G37*
G36*
X35190286Y-86580698D02*
X35391998Y-86622104D01*
X35581821Y-86701898D01*
X35752534Y-86817045D01*
X35897631Y-86963159D01*
X36011583Y-87134670D01*
X36090050Y-87325046D01*
X36129979Y-87526698D01*
X36129979Y-87526703D01*
X36130046Y-87527042D01*
X36126761Y-87762237D01*
X36126684Y-87762575D01*
X36126684Y-87762583D01*
X36081144Y-87963034D01*
X35997389Y-88151149D01*
X35878693Y-88319411D01*
X35729570Y-88461419D01*
X35555714Y-88571751D01*
X35363732Y-88646217D01*
X35160947Y-88681972D01*
X34955076Y-88677661D01*
X34753958Y-88633442D01*
X34565268Y-88551005D01*
X34396181Y-88433486D01*
X34253137Y-88285360D01*
X34141594Y-88112278D01*
X34065790Y-87920822D01*
X34028618Y-87718284D01*
X34031493Y-87512390D01*
X34074304Y-87310977D01*
X34155425Y-87121710D01*
X34271760Y-86951807D01*
X34418883Y-86807733D01*
X34591185Y-86694982D01*
X34782107Y-86617844D01*
X34984372Y-86579260D01*
X35190286Y-86580698D01*
X35190286Y-86580698D01*
G37*
G36*
X28990000Y-83600000D02*
X26890000Y-83600000D01*
X26890000Y-81500000D01*
X28990000Y-81500000D01*
X28990000Y-83600000D01*
X28990000Y-83600000D01*
G37*
G36*
X23275000Y-83600000D02*
X21175000Y-83600000D01*
X21175000Y-81500000D01*
X23275000Y-81500000D01*
X23275000Y-83600000D01*
X23275000Y-83600000D01*
G37*
G36*
X22335286Y-78960698D02*
X22536998Y-79002104D01*
X22726821Y-79081898D01*
X22897534Y-79197045D01*
X23042631Y-79343159D01*
X23156583Y-79514670D01*
X23235050Y-79705046D01*
X23274979Y-79906698D01*
X23274979Y-79906703D01*
X23275046Y-79907042D01*
X23271761Y-80142237D01*
X23271684Y-80142575D01*
X23271684Y-80142583D01*
X23226144Y-80343034D01*
X23142389Y-80531149D01*
X23023693Y-80699411D01*
X22874570Y-80841419D01*
X22700714Y-80951751D01*
X22508732Y-81026217D01*
X22305947Y-81061972D01*
X22100076Y-81057661D01*
X21898958Y-81013442D01*
X21710268Y-80931005D01*
X21541181Y-80813486D01*
X21398137Y-80665360D01*
X21286594Y-80492278D01*
X21210790Y-80300822D01*
X21173618Y-80098284D01*
X21176493Y-79892390D01*
X21219304Y-79690977D01*
X21300425Y-79501710D01*
X21416760Y-79331807D01*
X21563883Y-79187733D01*
X21736185Y-79074982D01*
X21927107Y-78997844D01*
X22129372Y-78959260D01*
X22335286Y-78960698D01*
X22335286Y-78960698D01*
G37*
G36*
X28050286Y-78960698D02*
X28251998Y-79002104D01*
X28441821Y-79081898D01*
X28612534Y-79197045D01*
X28757631Y-79343159D01*
X28871583Y-79514670D01*
X28950050Y-79705046D01*
X28989979Y-79906698D01*
X28989979Y-79906703D01*
X28990046Y-79907042D01*
X28986761Y-80142237D01*
X28986684Y-80142575D01*
X28986684Y-80142583D01*
X28941144Y-80343034D01*
X28857389Y-80531149D01*
X28738693Y-80699411D01*
X28589570Y-80841419D01*
X28415714Y-80951751D01*
X28223732Y-81026217D01*
X28020947Y-81061972D01*
X27815076Y-81057661D01*
X27613958Y-81013442D01*
X27425268Y-80931005D01*
X27256181Y-80813486D01*
X27113137Y-80665360D01*
X27001594Y-80492278D01*
X26925790Y-80300822D01*
X26888618Y-80098284D01*
X26891493Y-79892390D01*
X26934304Y-79690977D01*
X27015425Y-79501710D01*
X27131760Y-79331807D01*
X27278883Y-79187733D01*
X27451185Y-79074982D01*
X27642107Y-78997844D01*
X27844372Y-78959260D01*
X28050286Y-78960698D01*
X28050286Y-78960698D01*
G37*
G36*
X8989782Y-78425631D02*
X9172284Y-78463093D01*
X9344029Y-78535288D01*
X9498483Y-78639468D01*
X9629762Y-78771667D01*
X9732862Y-78926844D01*
X9803856Y-79099089D01*
X9839975Y-79281504D01*
X9839975Y-79281514D01*
X9840041Y-79281848D01*
X9837070Y-79494643D01*
X9836994Y-79494977D01*
X9836994Y-79494989D01*
X9795798Y-79676316D01*
X9720019Y-79846516D01*
X9612628Y-79998754D01*
X9477707Y-80127237D01*
X9320408Y-80227061D01*
X9146710Y-80294435D01*
X8963238Y-80326785D01*
X8776974Y-80322884D01*
X8595011Y-80282877D01*
X8424289Y-80208290D01*
X8271306Y-80101964D01*
X8141885Y-79967946D01*
X8040965Y-79811348D01*
X7972381Y-79638125D01*
X7938748Y-79454876D01*
X7941350Y-79268591D01*
X7980084Y-79086360D01*
X8053479Y-78915118D01*
X8158735Y-78761396D01*
X8291846Y-78631043D01*
X8447738Y-78529030D01*
X8620477Y-78459239D01*
X8803479Y-78424330D01*
X8989782Y-78425631D01*
X8989782Y-78425631D01*
G37*
G36*
X17460000Y-80325000D02*
X15560000Y-80325000D01*
X15560000Y-78425000D01*
X17460000Y-78425000D01*
X17460000Y-80325000D01*
X17460000Y-80325000D01*
G37*
G36*
X8989782Y-75885631D02*
X9172284Y-75923093D01*
X9344029Y-75995288D01*
X9498483Y-76099468D01*
X9629762Y-76231667D01*
X9732862Y-76386844D01*
X9803856Y-76559089D01*
X9839975Y-76741504D01*
X9839975Y-76741514D01*
X9840041Y-76741848D01*
X9837070Y-76954643D01*
X9836994Y-76954977D01*
X9836994Y-76954989D01*
X9795798Y-77136316D01*
X9720019Y-77306516D01*
X9612628Y-77458754D01*
X9477707Y-77587237D01*
X9320408Y-77687061D01*
X9146710Y-77754435D01*
X8963238Y-77786785D01*
X8776974Y-77782884D01*
X8595011Y-77742877D01*
X8424289Y-77668290D01*
X8271306Y-77561964D01*
X8141885Y-77427946D01*
X8040965Y-77271348D01*
X7972381Y-77098125D01*
X7938748Y-76914876D01*
X7941350Y-76728591D01*
X7980084Y-76546360D01*
X8053479Y-76375118D01*
X8158735Y-76221396D01*
X8291846Y-76091043D01*
X8447738Y-75989030D01*
X8620477Y-75919239D01*
X8803479Y-75884330D01*
X8989782Y-75885631D01*
X8989782Y-75885631D01*
G37*
G36*
X16609782Y-75885631D02*
X16792284Y-75923093D01*
X16964029Y-75995288D01*
X17118483Y-76099468D01*
X17249762Y-76231667D01*
X17352862Y-76386844D01*
X17423856Y-76559089D01*
X17459975Y-76741504D01*
X17459975Y-76741514D01*
X17460041Y-76741848D01*
X17457070Y-76954643D01*
X17456994Y-76954977D01*
X17456994Y-76954989D01*
X17415798Y-77136316D01*
X17340019Y-77306516D01*
X17232628Y-77458754D01*
X17097707Y-77587237D01*
X16940408Y-77687061D01*
X16766710Y-77754435D01*
X16583238Y-77786785D01*
X16396974Y-77782884D01*
X16215011Y-77742877D01*
X16044289Y-77668290D01*
X15891306Y-77561964D01*
X15761885Y-77427946D01*
X15660965Y-77271348D01*
X15592381Y-77098125D01*
X15558748Y-76914876D01*
X15561350Y-76728591D01*
X15600084Y-76546360D01*
X15673479Y-76375118D01*
X15778735Y-76221396D01*
X15911846Y-76091043D01*
X16067738Y-75989030D01*
X16240477Y-75919239D01*
X16423479Y-75884330D01*
X16609782Y-75885631D01*
X16609782Y-75885631D01*
G37*
G36*
X45174279Y-75985564D02*
X45337570Y-76019083D01*
X45491236Y-76083678D01*
X45629433Y-76176892D01*
X45746893Y-76295176D01*
X45839140Y-76434018D01*
X45902661Y-76588132D01*
X45934971Y-76751309D01*
X45934971Y-76751319D01*
X45935037Y-76751653D01*
X45932378Y-76942049D01*
X45932302Y-76942383D01*
X45932302Y-76942395D01*
X45895451Y-77104599D01*
X45827649Y-77256883D01*
X45731562Y-77393095D01*
X45610843Y-77508054D01*
X45470102Y-77597370D01*
X45314688Y-77657653D01*
X45150529Y-77686598D01*
X44983872Y-77683107D01*
X44821062Y-77647311D01*
X44668315Y-77580577D01*
X44531429Y-77485439D01*
X44415634Y-77365530D01*
X44325337Y-77225417D01*
X44263972Y-77070428D01*
X44233880Y-76906467D01*
X44236208Y-76739791D01*
X44270864Y-76576744D01*
X44336534Y-76423527D01*
X44430710Y-76285986D01*
X44549810Y-76169354D01*
X44689292Y-76078079D01*
X44843848Y-76015635D01*
X45007586Y-75984400D01*
X45174279Y-75985564D01*
X45174279Y-75985564D01*
G37*
G36*
X8989782Y-73345631D02*
X9172284Y-73383093D01*
X9344029Y-73455288D01*
X9498483Y-73559468D01*
X9629762Y-73691667D01*
X9732862Y-73846844D01*
X9803856Y-74019089D01*
X9839975Y-74201504D01*
X9839975Y-74201514D01*
X9840041Y-74201848D01*
X9837070Y-74414643D01*
X9836994Y-74414977D01*
X9836994Y-74414989D01*
X9795798Y-74596316D01*
X9720019Y-74766516D01*
X9612628Y-74918754D01*
X9477707Y-75047237D01*
X9320408Y-75147061D01*
X9146710Y-75214435D01*
X8963238Y-75246785D01*
X8776974Y-75242884D01*
X8595011Y-75202877D01*
X8424289Y-75128290D01*
X8271306Y-75021964D01*
X8141885Y-74887946D01*
X8040965Y-74731348D01*
X7972381Y-74558125D01*
X7938748Y-74374876D01*
X7941350Y-74188591D01*
X7980084Y-74006360D01*
X8053479Y-73835118D01*
X8158735Y-73681396D01*
X8291846Y-73551043D01*
X8447738Y-73449030D01*
X8620477Y-73379239D01*
X8803479Y-73344330D01*
X8989782Y-73345631D01*
X8989782Y-73345631D01*
G37*
G36*
X16609782Y-73345631D02*
X16792284Y-73383093D01*
X16964029Y-73455288D01*
X17118483Y-73559468D01*
X17249762Y-73691667D01*
X17352862Y-73846844D01*
X17423856Y-74019089D01*
X17459975Y-74201504D01*
X17459975Y-74201514D01*
X17460041Y-74201848D01*
X17457070Y-74414643D01*
X17456994Y-74414977D01*
X17456994Y-74414989D01*
X17415798Y-74596316D01*
X17340019Y-74766516D01*
X17232628Y-74918754D01*
X17097707Y-75047237D01*
X16940408Y-75147061D01*
X16766710Y-75214435D01*
X16583238Y-75246785D01*
X16396974Y-75242884D01*
X16215011Y-75202877D01*
X16044289Y-75128290D01*
X15891306Y-75021964D01*
X15761885Y-74887946D01*
X15660965Y-74731348D01*
X15592381Y-74558125D01*
X15558748Y-74374876D01*
X15561350Y-74188591D01*
X15600084Y-74006360D01*
X15673479Y-73835118D01*
X15778735Y-73681396D01*
X15911846Y-73551043D01*
X16067738Y-73449030D01*
X16240477Y-73379239D01*
X16423479Y-73344330D01*
X16609782Y-73345631D01*
X16609782Y-73345631D01*
G37*
G36*
X45174279Y-73445564D02*
X45337570Y-73479083D01*
X45491236Y-73543678D01*
X45629433Y-73636892D01*
X45746893Y-73755176D01*
X45839140Y-73894018D01*
X45902661Y-74048132D01*
X45934971Y-74211309D01*
X45934971Y-74211319D01*
X45935037Y-74211653D01*
X45932378Y-74402049D01*
X45932302Y-74402383D01*
X45932302Y-74402395D01*
X45895451Y-74564599D01*
X45827649Y-74716883D01*
X45731562Y-74853095D01*
X45610843Y-74968054D01*
X45470102Y-75057370D01*
X45314688Y-75117653D01*
X45150529Y-75146598D01*
X44983872Y-75143107D01*
X44821062Y-75107311D01*
X44668315Y-75040577D01*
X44531429Y-74945439D01*
X44415634Y-74825530D01*
X44325337Y-74685417D01*
X44263972Y-74530428D01*
X44233880Y-74366467D01*
X44236208Y-74199791D01*
X44270864Y-74036744D01*
X44336534Y-73883527D01*
X44430710Y-73745986D01*
X44549810Y-73629354D01*
X44689292Y-73538079D01*
X44843848Y-73475635D01*
X45007586Y-73444400D01*
X45174279Y-73445564D01*
X45174279Y-73445564D01*
G37*
G36*
X8989782Y-70805631D02*
X9172284Y-70843093D01*
X9344029Y-70915288D01*
X9498483Y-71019468D01*
X9629762Y-71151667D01*
X9732862Y-71306844D01*
X9803856Y-71479089D01*
X9839975Y-71661504D01*
X9839975Y-71661514D01*
X9840041Y-71661848D01*
X9837070Y-71874643D01*
X9836994Y-71874977D01*
X9836994Y-71874989D01*
X9795798Y-72056316D01*
X9720019Y-72226516D01*
X9612628Y-72378754D01*
X9477707Y-72507237D01*
X9320408Y-72607061D01*
X9146710Y-72674435D01*
X8963238Y-72706785D01*
X8776974Y-72702884D01*
X8595011Y-72662877D01*
X8424289Y-72588290D01*
X8271306Y-72481964D01*
X8141885Y-72347946D01*
X8040965Y-72191348D01*
X7972381Y-72018125D01*
X7938748Y-71834876D01*
X7941350Y-71648591D01*
X7980084Y-71466360D01*
X8053479Y-71295118D01*
X8158735Y-71141396D01*
X8291846Y-71011043D01*
X8447738Y-70909030D01*
X8620477Y-70839239D01*
X8803479Y-70804330D01*
X8989782Y-70805631D01*
X8989782Y-70805631D01*
G37*
G36*
X16609782Y-70805631D02*
X16792284Y-70843093D01*
X16964029Y-70915288D01*
X17118483Y-71019468D01*
X17249762Y-71151667D01*
X17352862Y-71306844D01*
X17423856Y-71479089D01*
X17459975Y-71661504D01*
X17459975Y-71661514D01*
X17460041Y-71661848D01*
X17457070Y-71874643D01*
X17456994Y-71874977D01*
X17456994Y-71874989D01*
X17415798Y-72056316D01*
X17340019Y-72226516D01*
X17232628Y-72378754D01*
X17097707Y-72507237D01*
X16940408Y-72607061D01*
X16766710Y-72674435D01*
X16583238Y-72706785D01*
X16396974Y-72702884D01*
X16215011Y-72662877D01*
X16044289Y-72588290D01*
X15891306Y-72481964D01*
X15761885Y-72347946D01*
X15660965Y-72191348D01*
X15592381Y-72018125D01*
X15558748Y-71834876D01*
X15561350Y-71648591D01*
X15600084Y-71466360D01*
X15673479Y-71295118D01*
X15778735Y-71141396D01*
X15911846Y-71011043D01*
X16067738Y-70909030D01*
X16240477Y-70839239D01*
X16423479Y-70804330D01*
X16609782Y-70805631D01*
X16609782Y-70805631D01*
G37*
G36*
X45174279Y-70905564D02*
X45337570Y-70939083D01*
X45491236Y-71003678D01*
X45629433Y-71096892D01*
X45746893Y-71215176D01*
X45839140Y-71354018D01*
X45902661Y-71508132D01*
X45934971Y-71671309D01*
X45934971Y-71671319D01*
X45935037Y-71671653D01*
X45932378Y-71862049D01*
X45932302Y-71862383D01*
X45932302Y-71862395D01*
X45895451Y-72024599D01*
X45827649Y-72176883D01*
X45731562Y-72313095D01*
X45610843Y-72428054D01*
X45470102Y-72517370D01*
X45314688Y-72577653D01*
X45150529Y-72606598D01*
X44983872Y-72603107D01*
X44821062Y-72567311D01*
X44668315Y-72500577D01*
X44531429Y-72405439D01*
X44415634Y-72285530D01*
X44325337Y-72145417D01*
X44263972Y-71990428D01*
X44233880Y-71826467D01*
X44236208Y-71659791D01*
X44270864Y-71496744D01*
X44336534Y-71343527D01*
X44430710Y-71205986D01*
X44549810Y-71089354D01*
X44689292Y-70998079D01*
X44843848Y-70935635D01*
X45007586Y-70904400D01*
X45174279Y-70905564D01*
X45174279Y-70905564D01*
G37*
G36*
X10289279Y-67095564D02*
X10452570Y-67129083D01*
X10606236Y-67193678D01*
X10744433Y-67286892D01*
X10861893Y-67405176D01*
X10954140Y-67544018D01*
X11017661Y-67698132D01*
X11049971Y-67861309D01*
X11049971Y-67861319D01*
X11050037Y-67861653D01*
X11047378Y-68052049D01*
X11047302Y-68052383D01*
X11047302Y-68052395D01*
X11010451Y-68214599D01*
X10942649Y-68366883D01*
X10846562Y-68503095D01*
X10725843Y-68618054D01*
X10585102Y-68707370D01*
X10429688Y-68767653D01*
X10265529Y-68796598D01*
X10098872Y-68793107D01*
X9936062Y-68757311D01*
X9783315Y-68690577D01*
X9646429Y-68595439D01*
X9530634Y-68475530D01*
X9440337Y-68335417D01*
X9378972Y-68180428D01*
X9348880Y-68016467D01*
X9351208Y-67849791D01*
X9385864Y-67686744D01*
X9451534Y-67533527D01*
X9545710Y-67395986D01*
X9664810Y-67279354D01*
X9804292Y-67188079D01*
X9958848Y-67125635D01*
X10122586Y-67094400D01*
X10289279Y-67095564D01*
X10289279Y-67095564D01*
G37*
G36*
X15289279Y-67095564D02*
X15452570Y-67129083D01*
X15606236Y-67193678D01*
X15744433Y-67286892D01*
X15861893Y-67405176D01*
X15954140Y-67544018D01*
X16017661Y-67698132D01*
X16049971Y-67861309D01*
X16049971Y-67861319D01*
X16050037Y-67861653D01*
X16047378Y-68052049D01*
X16047302Y-68052383D01*
X16047302Y-68052395D01*
X16010451Y-68214599D01*
X15942649Y-68366883D01*
X15846562Y-68503095D01*
X15725843Y-68618054D01*
X15585102Y-68707370D01*
X15429688Y-68767653D01*
X15265529Y-68796598D01*
X15098872Y-68793107D01*
X14936062Y-68757311D01*
X14783315Y-68690577D01*
X14646429Y-68595439D01*
X14530634Y-68475530D01*
X14440337Y-68335417D01*
X14378972Y-68180428D01*
X14348880Y-68016467D01*
X14351208Y-67849791D01*
X14385864Y-67686744D01*
X14451534Y-67533527D01*
X14545710Y-67395986D01*
X14664810Y-67279354D01*
X14804292Y-67188079D01*
X14958848Y-67125635D01*
X15122586Y-67094400D01*
X15289279Y-67095564D01*
X15289279Y-67095564D01*
G37*
G36*
X43290286Y-64355698D02*
X43491998Y-64397104D01*
X43681821Y-64476898D01*
X43852534Y-64592045D01*
X43997631Y-64738159D01*
X44111583Y-64909670D01*
X44190050Y-65100046D01*
X44229979Y-65301698D01*
X44229979Y-65301703D01*
X44230046Y-65302042D01*
X44226761Y-65537237D01*
X44226684Y-65537575D01*
X44226684Y-65537583D01*
X44181144Y-65738034D01*
X44097389Y-65926149D01*
X43978693Y-66094411D01*
X43829570Y-66236419D01*
X43655714Y-66346751D01*
X43463732Y-66421217D01*
X43260947Y-66456972D01*
X43055076Y-66452661D01*
X42853958Y-66408442D01*
X42665268Y-66326005D01*
X42496181Y-66208486D01*
X42353137Y-66060360D01*
X42241594Y-65887278D01*
X42165790Y-65695822D01*
X42128618Y-65493284D01*
X42131493Y-65287390D01*
X42174304Y-65085977D01*
X42255425Y-64896710D01*
X42371760Y-64726807D01*
X42518883Y-64582733D01*
X42691185Y-64469982D01*
X42882107Y-64392844D01*
X43084372Y-64354260D01*
X43290286Y-64355698D01*
X43290286Y-64355698D01*
G37*
G36*
X41690000Y-66455000D02*
X39590000Y-66455000D01*
X39590000Y-64355000D01*
X41690000Y-64355000D01*
X41690000Y-66455000D01*
X41690000Y-66455000D01*
G37*
G36*
X9940000Y-65185000D02*
X7840000Y-65185000D01*
X7840000Y-63085000D01*
X9940000Y-63085000D01*
X9940000Y-65185000D01*
X9940000Y-65185000D01*
G37*
G36*
X18830000Y-65185000D02*
X16730000Y-65185000D01*
X16730000Y-63085000D01*
X18830000Y-63085000D01*
X18830000Y-65185000D01*
X18830000Y-65185000D01*
G37*
G36*
X39419279Y-61380564D02*
X39582570Y-61414083D01*
X39736236Y-61478678D01*
X39874433Y-61571892D01*
X39991893Y-61690176D01*
X40084140Y-61829018D01*
X40147661Y-61983132D01*
X40179971Y-62146309D01*
X40179971Y-62146319D01*
X40180037Y-62146653D01*
X40177378Y-62337049D01*
X40177302Y-62337383D01*
X40177302Y-62337395D01*
X40140451Y-62499599D01*
X40072649Y-62651883D01*
X39976562Y-62788095D01*
X39855843Y-62903054D01*
X39715102Y-62992370D01*
X39559688Y-63052653D01*
X39395529Y-63081598D01*
X39228872Y-63078107D01*
X39066062Y-63042311D01*
X38913315Y-62975577D01*
X38776429Y-62880439D01*
X38660634Y-62760530D01*
X38570337Y-62620417D01*
X38508972Y-62465428D01*
X38478880Y-62301467D01*
X38481208Y-62134791D01*
X38515864Y-61971744D01*
X38581534Y-61818527D01*
X38675710Y-61680986D01*
X38794810Y-61564354D01*
X38934292Y-61473079D01*
X39088848Y-61410635D01*
X39252586Y-61379400D01*
X39419279Y-61380564D01*
X39419279Y-61380564D01*
G37*
G36*
X34419279Y-61380564D02*
X34582570Y-61414083D01*
X34736236Y-61478678D01*
X34874433Y-61571892D01*
X34991893Y-61690176D01*
X35084140Y-61829018D01*
X35147661Y-61983132D01*
X35179971Y-62146309D01*
X35179971Y-62146319D01*
X35180037Y-62146653D01*
X35177378Y-62337049D01*
X35177302Y-62337383D01*
X35177302Y-62337395D01*
X35140451Y-62499599D01*
X35072649Y-62651883D01*
X34976562Y-62788095D01*
X34855843Y-62903054D01*
X34715102Y-62992370D01*
X34559688Y-63052653D01*
X34395529Y-63081598D01*
X34228872Y-63078107D01*
X34066062Y-63042311D01*
X33913315Y-62975577D01*
X33776429Y-62880439D01*
X33660634Y-62760530D01*
X33570337Y-62620417D01*
X33508972Y-62465428D01*
X33478880Y-62301467D01*
X33481208Y-62134791D01*
X33515864Y-61971744D01*
X33581534Y-61818527D01*
X33675710Y-61680986D01*
X33794810Y-61564354D01*
X33934292Y-61473079D01*
X34088848Y-61410635D01*
X34252586Y-61379400D01*
X34419279Y-61380564D01*
X34419279Y-61380564D01*
G37*
G36*
X17890286Y-60545698D02*
X18091998Y-60587104D01*
X18281821Y-60666898D01*
X18452534Y-60782045D01*
X18597631Y-60928159D01*
X18711583Y-61099670D01*
X18790050Y-61290046D01*
X18829979Y-61491698D01*
X18829979Y-61491703D01*
X18830046Y-61492042D01*
X18826761Y-61727237D01*
X18826684Y-61727575D01*
X18826684Y-61727583D01*
X18781144Y-61928034D01*
X18697389Y-62116149D01*
X18578693Y-62284411D01*
X18429570Y-62426419D01*
X18255714Y-62536751D01*
X18063732Y-62611217D01*
X17860947Y-62646972D01*
X17655076Y-62642661D01*
X17453958Y-62598442D01*
X17265268Y-62516005D01*
X17096181Y-62398486D01*
X16953137Y-62250360D01*
X16841594Y-62077278D01*
X16765790Y-61885822D01*
X16728618Y-61683284D01*
X16731493Y-61477390D01*
X16774304Y-61275977D01*
X16855425Y-61086710D01*
X16971760Y-60916807D01*
X17118883Y-60772733D01*
X17291185Y-60659982D01*
X17482107Y-60582844D01*
X17684372Y-60544260D01*
X17890286Y-60545698D01*
X17890286Y-60545698D01*
G37*
G36*
X9000286Y-60545698D02*
X9201998Y-60587104D01*
X9391821Y-60666898D01*
X9562534Y-60782045D01*
X9707631Y-60928159D01*
X9821583Y-61099670D01*
X9900050Y-61290046D01*
X9939979Y-61491698D01*
X9939979Y-61491703D01*
X9940046Y-61492042D01*
X9936761Y-61727237D01*
X9936684Y-61727575D01*
X9936684Y-61727583D01*
X9891144Y-61928034D01*
X9807389Y-62116149D01*
X9688693Y-62284411D01*
X9539570Y-62426419D01*
X9365714Y-62536751D01*
X9173732Y-62611217D01*
X8970947Y-62646972D01*
X8765076Y-62642661D01*
X8563958Y-62598442D01*
X8375268Y-62516005D01*
X8206181Y-62398486D01*
X8063137Y-62250360D01*
X7951594Y-62077278D01*
X7875790Y-61885822D01*
X7838618Y-61683284D01*
X7841493Y-61477390D01*
X7884304Y-61275977D01*
X7965425Y-61086710D01*
X8081760Y-60916807D01*
X8228883Y-60772733D01*
X8401185Y-60659982D01*
X8592107Y-60582844D01*
X8794372Y-60544260D01*
X9000286Y-60545698D01*
X9000286Y-60545698D01*
G37*
G36*
X5495000Y-60105000D02*
X3395000Y-60105000D01*
X3395000Y-58005000D01*
X5495000Y-58005000D01*
X5495000Y-60105000D01*
X5495000Y-60105000D01*
G37*
G36*
X4555286Y-55465698D02*
X4756998Y-55507104D01*
X4946821Y-55586898D01*
X5117534Y-55702045D01*
X5262631Y-55848159D01*
X5376583Y-56019670D01*
X5455050Y-56210046D01*
X5494979Y-56411698D01*
X5494979Y-56411703D01*
X5495046Y-56412042D01*
X5491761Y-56647237D01*
X5491684Y-56647575D01*
X5491684Y-56647583D01*
X5446144Y-56848034D01*
X5362389Y-57036149D01*
X5243693Y-57204411D01*
X5094570Y-57346419D01*
X4920714Y-57456751D01*
X4728732Y-57531217D01*
X4525947Y-57566972D01*
X4320076Y-57562661D01*
X4118958Y-57518442D01*
X3930268Y-57436005D01*
X3761181Y-57318486D01*
X3618137Y-57170360D01*
X3506594Y-56997278D01*
X3430790Y-56805822D01*
X3393618Y-56603284D01*
X3396493Y-56397390D01*
X3439304Y-56195977D01*
X3520425Y-56006710D01*
X3636760Y-55836807D01*
X3783883Y-55692733D01*
X3956185Y-55579982D01*
X4147107Y-55502844D01*
X4349372Y-55464260D01*
X4555286Y-55465698D01*
X4555286Y-55465698D01*
G37*
G36*
X18464279Y-55665564D02*
X18627570Y-55699083D01*
X18781236Y-55763678D01*
X18919433Y-55856892D01*
X19036893Y-55975176D01*
X19129140Y-56114018D01*
X19192661Y-56268132D01*
X19224971Y-56431309D01*
X19224971Y-56431319D01*
X19225037Y-56431653D01*
X19222378Y-56622049D01*
X19222302Y-56622383D01*
X19222302Y-56622395D01*
X19185451Y-56784599D01*
X19117649Y-56936883D01*
X19021562Y-57073095D01*
X18900843Y-57188054D01*
X18760102Y-57277370D01*
X18604688Y-57337653D01*
X18440529Y-57366598D01*
X18273872Y-57363107D01*
X18111062Y-57327311D01*
X17958315Y-57260577D01*
X17821429Y-57165439D01*
X17705634Y-57045530D01*
X17615337Y-56905417D01*
X17553972Y-56750428D01*
X17523880Y-56586467D01*
X17526208Y-56419791D01*
X17560864Y-56256744D01*
X17626534Y-56103527D01*
X17720710Y-55965986D01*
X17839810Y-55849354D01*
X17979292Y-55758079D01*
X18133848Y-55695635D01*
X18297586Y-55664400D01*
X18464279Y-55665564D01*
X18464279Y-55665564D01*
G37*
G36*
X13464279Y-55665564D02*
X13627570Y-55699083D01*
X13781236Y-55763678D01*
X13919433Y-55856892D01*
X14036893Y-55975176D01*
X14129140Y-56114018D01*
X14192661Y-56268132D01*
X14224971Y-56431309D01*
X14224971Y-56431319D01*
X14225037Y-56431653D01*
X14222378Y-56622049D01*
X14222302Y-56622383D01*
X14222302Y-56622395D01*
X14185451Y-56784599D01*
X14117649Y-56936883D01*
X14021562Y-57073095D01*
X13900843Y-57188054D01*
X13760102Y-57277370D01*
X13604688Y-57337653D01*
X13440529Y-57366598D01*
X13273872Y-57363107D01*
X13111062Y-57327311D01*
X12958315Y-57260577D01*
X12821429Y-57165439D01*
X12705634Y-57045530D01*
X12615337Y-56905417D01*
X12553972Y-56750428D01*
X12523880Y-56586467D01*
X12526208Y-56419791D01*
X12560864Y-56256744D01*
X12626534Y-56103527D01*
X12720710Y-55965986D01*
X12839810Y-55849354D01*
X12979292Y-55758079D01*
X13133848Y-55695635D01*
X13297586Y-55664400D01*
X13464279Y-55665564D01*
X13464279Y-55665564D01*
G37*
G36*
X4555286Y-52925698D02*
X4756998Y-52967104D01*
X4946821Y-53046898D01*
X5117534Y-53162045D01*
X5262631Y-53308159D01*
X5376583Y-53479670D01*
X5455050Y-53670046D01*
X5494979Y-53871698D01*
X5494979Y-53871703D01*
X5495046Y-53872042D01*
X5491761Y-54107237D01*
X5491684Y-54107575D01*
X5491684Y-54107583D01*
X5446144Y-54308034D01*
X5362389Y-54496149D01*
X5243693Y-54664411D01*
X5094570Y-54806419D01*
X4920714Y-54916751D01*
X4728732Y-54991217D01*
X4525947Y-55026972D01*
X4320076Y-55022661D01*
X4118958Y-54978442D01*
X3930268Y-54896005D01*
X3761181Y-54778486D01*
X3618137Y-54630360D01*
X3506594Y-54457278D01*
X3430790Y-54265822D01*
X3393618Y-54063284D01*
X3396493Y-53857390D01*
X3439304Y-53655977D01*
X3520425Y-53466710D01*
X3636760Y-53296807D01*
X3783883Y-53152733D01*
X3956185Y-53039982D01*
X4147107Y-52962844D01*
X4349372Y-52924260D01*
X4555286Y-52925698D01*
X4555286Y-52925698D01*
G37*
G36*
X4555286Y-50385698D02*
X4756998Y-50427104D01*
X4946821Y-50506898D01*
X5117534Y-50622045D01*
X5262631Y-50768159D01*
X5376583Y-50939670D01*
X5455050Y-51130046D01*
X5494979Y-51331698D01*
X5494979Y-51331703D01*
X5495046Y-51332042D01*
X5491761Y-51567237D01*
X5491684Y-51567575D01*
X5491684Y-51567583D01*
X5446144Y-51768034D01*
X5362389Y-51956149D01*
X5243693Y-52124411D01*
X5094570Y-52266419D01*
X4920714Y-52376751D01*
X4728732Y-52451217D01*
X4525947Y-52486972D01*
X4320076Y-52482661D01*
X4118958Y-52438442D01*
X3930268Y-52356005D01*
X3761181Y-52238486D01*
X3618137Y-52090360D01*
X3506594Y-51917278D01*
X3430790Y-51725822D01*
X3393618Y-51523284D01*
X3396493Y-51317390D01*
X3439304Y-51115977D01*
X3520425Y-50926710D01*
X3636760Y-50756807D01*
X3783883Y-50612733D01*
X3956185Y-50499982D01*
X4147107Y-50422844D01*
X4349372Y-50384260D01*
X4555286Y-50385698D01*
X4555286Y-50385698D01*
G37*
G36*
X13434782Y-48580631D02*
X13617284Y-48618093D01*
X13789029Y-48690288D01*
X13943483Y-48794468D01*
X14074762Y-48926667D01*
X14177862Y-49081844D01*
X14248856Y-49254089D01*
X14284975Y-49436504D01*
X14284975Y-49436514D01*
X14285041Y-49436848D01*
X14282070Y-49649643D01*
X14281994Y-49649977D01*
X14281994Y-49649989D01*
X14240798Y-49831316D01*
X14165019Y-50001516D01*
X14057628Y-50153754D01*
X13922707Y-50282237D01*
X13765408Y-50382061D01*
X13591710Y-50449435D01*
X13408238Y-50481785D01*
X13221974Y-50477884D01*
X13040011Y-50437877D01*
X12869289Y-50363290D01*
X12716306Y-50256964D01*
X12586885Y-50122946D01*
X12485965Y-49966348D01*
X12417381Y-49793125D01*
X12383748Y-49609876D01*
X12386350Y-49423591D01*
X12425084Y-49241360D01*
X12498479Y-49070118D01*
X12603735Y-48916396D01*
X12736846Y-48786043D01*
X12892738Y-48684030D01*
X13065477Y-48614239D01*
X13248479Y-48579330D01*
X13434782Y-48580631D01*
X13434782Y-48580631D01*
G37*
G36*
X21054782Y-48580631D02*
X21237284Y-48618093D01*
X21409029Y-48690288D01*
X21563483Y-48794468D01*
X21694762Y-48926667D01*
X21797862Y-49081844D01*
X21868856Y-49254089D01*
X21904975Y-49436504D01*
X21904975Y-49436514D01*
X21905041Y-49436848D01*
X21902070Y-49649643D01*
X21901994Y-49649977D01*
X21901994Y-49649989D01*
X21860798Y-49831316D01*
X21785019Y-50001516D01*
X21677628Y-50153754D01*
X21542707Y-50282237D01*
X21385408Y-50382061D01*
X21211710Y-50449435D01*
X21028238Y-50481785D01*
X20841974Y-50477884D01*
X20660011Y-50437877D01*
X20489289Y-50363290D01*
X20336306Y-50256964D01*
X20206885Y-50122946D01*
X20105965Y-49966348D01*
X20037381Y-49793125D01*
X20003748Y-49609876D01*
X20006350Y-49423591D01*
X20045084Y-49241360D01*
X20118479Y-49070118D01*
X20223735Y-48916396D01*
X20356846Y-48786043D01*
X20512738Y-48684030D01*
X20685477Y-48614239D01*
X20868479Y-48579330D01*
X21054782Y-48580631D01*
X21054782Y-48580631D01*
G37*
G36*
X4555286Y-47845698D02*
X4756998Y-47887104D01*
X4946821Y-47966898D01*
X5117534Y-48082045D01*
X5262631Y-48228159D01*
X5376583Y-48399670D01*
X5455050Y-48590046D01*
X5494979Y-48791698D01*
X5494979Y-48791703D01*
X5495046Y-48792042D01*
X5491761Y-49027237D01*
X5491684Y-49027575D01*
X5491684Y-49027583D01*
X5446144Y-49228034D01*
X5362389Y-49416149D01*
X5243693Y-49584411D01*
X5094570Y-49726419D01*
X4920714Y-49836751D01*
X4728732Y-49911217D01*
X4525947Y-49946972D01*
X4320076Y-49942661D01*
X4118958Y-49898442D01*
X3930268Y-49816005D01*
X3761181Y-49698486D01*
X3618137Y-49550360D01*
X3506594Y-49377278D01*
X3430790Y-49185822D01*
X3393618Y-48983284D01*
X3396493Y-48777390D01*
X3439304Y-48575977D01*
X3520425Y-48386710D01*
X3636760Y-48216807D01*
X3783883Y-48072733D01*
X3956185Y-47959982D01*
X4147107Y-47882844D01*
X4349372Y-47844260D01*
X4555286Y-47845698D01*
X4555286Y-47845698D01*
G37*
G36*
X31849782Y-47945631D02*
X32032284Y-47983093D01*
X32204029Y-48055288D01*
X32358483Y-48159468D01*
X32489762Y-48291667D01*
X32592862Y-48446844D01*
X32663856Y-48619089D01*
X32699975Y-48801504D01*
X32699975Y-48801514D01*
X32700041Y-48801848D01*
X32697070Y-49014643D01*
X32696994Y-49014977D01*
X32696994Y-49014989D01*
X32655798Y-49196316D01*
X32580019Y-49366516D01*
X32472628Y-49518754D01*
X32337707Y-49647237D01*
X32180408Y-49747061D01*
X32006710Y-49814435D01*
X31823238Y-49846785D01*
X31636974Y-49842884D01*
X31455011Y-49802877D01*
X31284289Y-49728290D01*
X31131306Y-49621964D01*
X31001885Y-49487946D01*
X30900965Y-49331348D01*
X30832381Y-49158125D01*
X30798748Y-48974876D01*
X30801350Y-48788591D01*
X30840084Y-48606360D01*
X30913479Y-48435118D01*
X31018735Y-48281396D01*
X31151846Y-48151043D01*
X31307738Y-48049030D01*
X31480477Y-47979239D01*
X31663479Y-47944330D01*
X31849782Y-47945631D01*
X31849782Y-47945631D01*
G37*
G36*
X40320000Y-49845000D02*
X38420000Y-49845000D01*
X38420000Y-47945000D01*
X40320000Y-47945000D01*
X40320000Y-49845000D01*
X40320000Y-49845000D01*
G37*
G36*
X21054782Y-46040631D02*
X21237284Y-46078093D01*
X21409029Y-46150288D01*
X21563483Y-46254468D01*
X21694762Y-46386667D01*
X21797862Y-46541844D01*
X21868856Y-46714089D01*
X21904975Y-46896504D01*
X21904975Y-46896514D01*
X21905041Y-46896848D01*
X21902070Y-47109643D01*
X21901994Y-47109977D01*
X21901994Y-47109989D01*
X21860798Y-47291316D01*
X21785019Y-47461516D01*
X21677628Y-47613754D01*
X21542707Y-47742237D01*
X21385408Y-47842061D01*
X21211710Y-47909435D01*
X21028238Y-47941785D01*
X20841974Y-47937884D01*
X20660011Y-47897877D01*
X20489289Y-47823290D01*
X20336306Y-47716964D01*
X20206885Y-47582946D01*
X20105965Y-47426348D01*
X20037381Y-47253125D01*
X20003748Y-47069876D01*
X20006350Y-46883591D01*
X20045084Y-46701360D01*
X20118479Y-46530118D01*
X20223735Y-46376396D01*
X20356846Y-46246043D01*
X20512738Y-46144030D01*
X20685477Y-46074239D01*
X20868479Y-46039330D01*
X21054782Y-46040631D01*
X21054782Y-46040631D01*
G37*
G36*
X13434782Y-46040631D02*
X13617284Y-46078093D01*
X13789029Y-46150288D01*
X13943483Y-46254468D01*
X14074762Y-46386667D01*
X14177862Y-46541844D01*
X14248856Y-46714089D01*
X14284975Y-46896504D01*
X14284975Y-46896514D01*
X14285041Y-46896848D01*
X14282070Y-47109643D01*
X14281994Y-47109977D01*
X14281994Y-47109989D01*
X14240798Y-47291316D01*
X14165019Y-47461516D01*
X14057628Y-47613754D01*
X13922707Y-47742237D01*
X13765408Y-47842061D01*
X13591710Y-47909435D01*
X13408238Y-47941785D01*
X13221974Y-47937884D01*
X13040011Y-47897877D01*
X12869289Y-47823290D01*
X12716306Y-47716964D01*
X12586885Y-47582946D01*
X12485965Y-47426348D01*
X12417381Y-47253125D01*
X12383748Y-47069876D01*
X12386350Y-46883591D01*
X12425084Y-46701360D01*
X12498479Y-46530118D01*
X12603735Y-46376396D01*
X12736846Y-46246043D01*
X12892738Y-46144030D01*
X13065477Y-46074239D01*
X13248479Y-46039330D01*
X13434782Y-46040631D01*
X13434782Y-46040631D01*
G37*
G36*
X4555286Y-45305698D02*
X4756998Y-45347104D01*
X4946821Y-45426898D01*
X5117534Y-45542045D01*
X5262631Y-45688159D01*
X5376583Y-45859670D01*
X5455050Y-46050046D01*
X5494979Y-46251698D01*
X5494979Y-46251703D01*
X5495046Y-46252042D01*
X5491761Y-46487237D01*
X5491684Y-46487575D01*
X5491684Y-46487583D01*
X5446144Y-46688034D01*
X5362389Y-46876149D01*
X5243693Y-47044411D01*
X5094570Y-47186419D01*
X4920714Y-47296751D01*
X4728732Y-47371217D01*
X4525947Y-47406972D01*
X4320076Y-47402661D01*
X4118958Y-47358442D01*
X3930268Y-47276005D01*
X3761181Y-47158486D01*
X3618137Y-47010360D01*
X3506594Y-46837278D01*
X3430790Y-46645822D01*
X3393618Y-46443284D01*
X3396493Y-46237390D01*
X3439304Y-46035977D01*
X3520425Y-45846710D01*
X3636760Y-45676807D01*
X3783883Y-45532733D01*
X3956185Y-45419982D01*
X4147107Y-45342844D01*
X4349372Y-45304260D01*
X4555286Y-45305698D01*
X4555286Y-45305698D01*
G37*
G36*
X39469782Y-45405631D02*
X39652284Y-45443093D01*
X39824029Y-45515288D01*
X39978483Y-45619468D01*
X40109762Y-45751667D01*
X40212862Y-45906844D01*
X40283856Y-46079089D01*
X40319975Y-46261504D01*
X40319975Y-46261514D01*
X40320041Y-46261848D01*
X40317070Y-46474643D01*
X40316994Y-46474977D01*
X40316994Y-46474989D01*
X40275798Y-46656316D01*
X40200019Y-46826516D01*
X40092628Y-46978754D01*
X39957707Y-47107237D01*
X39800408Y-47207061D01*
X39626710Y-47274435D01*
X39443238Y-47306785D01*
X39256974Y-47302884D01*
X39075011Y-47262877D01*
X38904289Y-47188290D01*
X38751306Y-47081964D01*
X38621885Y-46947946D01*
X38520965Y-46791348D01*
X38452381Y-46618125D01*
X38418748Y-46434876D01*
X38421350Y-46248591D01*
X38460084Y-46066360D01*
X38533479Y-45895118D01*
X38638735Y-45741396D01*
X38771846Y-45611043D01*
X38927738Y-45509030D01*
X39100477Y-45439239D01*
X39283479Y-45404330D01*
X39469782Y-45405631D01*
X39469782Y-45405631D01*
G37*
G36*
X31849782Y-45405631D02*
X32032284Y-45443093D01*
X32204029Y-45515288D01*
X32358483Y-45619468D01*
X32489762Y-45751667D01*
X32592862Y-45906844D01*
X32663856Y-46079089D01*
X32699975Y-46261504D01*
X32699975Y-46261514D01*
X32700041Y-46261848D01*
X32697070Y-46474643D01*
X32696994Y-46474977D01*
X32696994Y-46474989D01*
X32655798Y-46656316D01*
X32580019Y-46826516D01*
X32472628Y-46978754D01*
X32337707Y-47107237D01*
X32180408Y-47207061D01*
X32006710Y-47274435D01*
X31823238Y-47306785D01*
X31636974Y-47302884D01*
X31455011Y-47262877D01*
X31284289Y-47188290D01*
X31131306Y-47081964D01*
X31001885Y-46947946D01*
X30900965Y-46791348D01*
X30832381Y-46618125D01*
X30798748Y-46434876D01*
X30801350Y-46248591D01*
X30840084Y-46066360D01*
X30913479Y-45895118D01*
X31018735Y-45741396D01*
X31151846Y-45611043D01*
X31307738Y-45509030D01*
X31480477Y-45439239D01*
X31663479Y-45404330D01*
X31849782Y-45405631D01*
X31849782Y-45405631D01*
G37*
G36*
X13434782Y-43500631D02*
X13617284Y-43538093D01*
X13789029Y-43610288D01*
X13943483Y-43714468D01*
X14074762Y-43846667D01*
X14177862Y-44001844D01*
X14248856Y-44174089D01*
X14284975Y-44356504D01*
X14284975Y-44356514D01*
X14285041Y-44356848D01*
X14282070Y-44569643D01*
X14281994Y-44569977D01*
X14281994Y-44569989D01*
X14240798Y-44751316D01*
X14165019Y-44921516D01*
X14057628Y-45073754D01*
X13922707Y-45202237D01*
X13765408Y-45302061D01*
X13591710Y-45369435D01*
X13408238Y-45401785D01*
X13221974Y-45397884D01*
X13040011Y-45357877D01*
X12869289Y-45283290D01*
X12716306Y-45176964D01*
X12586885Y-45042946D01*
X12485965Y-44886348D01*
X12417381Y-44713125D01*
X12383748Y-44529876D01*
X12386350Y-44343591D01*
X12425084Y-44161360D01*
X12498479Y-43990118D01*
X12603735Y-43836396D01*
X12736846Y-43706043D01*
X12892738Y-43604030D01*
X13065477Y-43534239D01*
X13248479Y-43499330D01*
X13434782Y-43500631D01*
X13434782Y-43500631D01*
G37*
G36*
X21054782Y-43500631D02*
X21237284Y-43538093D01*
X21409029Y-43610288D01*
X21563483Y-43714468D01*
X21694762Y-43846667D01*
X21797862Y-44001844D01*
X21868856Y-44174089D01*
X21904975Y-44356504D01*
X21904975Y-44356514D01*
X21905041Y-44356848D01*
X21902070Y-44569643D01*
X21901994Y-44569977D01*
X21901994Y-44569989D01*
X21860798Y-44751316D01*
X21785019Y-44921516D01*
X21677628Y-45073754D01*
X21542707Y-45202237D01*
X21385408Y-45302061D01*
X21211710Y-45369435D01*
X21028238Y-45401785D01*
X20841974Y-45397884D01*
X20660011Y-45357877D01*
X20489289Y-45283290D01*
X20336306Y-45176964D01*
X20206885Y-45042946D01*
X20105965Y-44886348D01*
X20037381Y-44713125D01*
X20003748Y-44529876D01*
X20006350Y-44343591D01*
X20045084Y-44161360D01*
X20118479Y-43990118D01*
X20223735Y-43836396D01*
X20356846Y-43706043D01*
X20512738Y-43604030D01*
X20685477Y-43534239D01*
X20868479Y-43499330D01*
X21054782Y-43500631D01*
X21054782Y-43500631D01*
G37*
G36*
X31849782Y-42865631D02*
X32032284Y-42903093D01*
X32204029Y-42975288D01*
X32358483Y-43079468D01*
X32489762Y-43211667D01*
X32592862Y-43366844D01*
X32663856Y-43539089D01*
X32699975Y-43721504D01*
X32699975Y-43721514D01*
X32700041Y-43721848D01*
X32697070Y-43934643D01*
X32696994Y-43934977D01*
X32696994Y-43934989D01*
X32655798Y-44116316D01*
X32580019Y-44286516D01*
X32472628Y-44438754D01*
X32337707Y-44567237D01*
X32180408Y-44667061D01*
X32006710Y-44734435D01*
X31823238Y-44766785D01*
X31636974Y-44762884D01*
X31455011Y-44722877D01*
X31284289Y-44648290D01*
X31131306Y-44541964D01*
X31001885Y-44407946D01*
X30900965Y-44251348D01*
X30832381Y-44078125D01*
X30798748Y-43894876D01*
X30801350Y-43708591D01*
X30840084Y-43526360D01*
X30913479Y-43355118D01*
X31018735Y-43201396D01*
X31151846Y-43071043D01*
X31307738Y-42969030D01*
X31480477Y-42899239D01*
X31663479Y-42864330D01*
X31849782Y-42865631D01*
X31849782Y-42865631D01*
G37*
G36*
X39469782Y-42865631D02*
X39652284Y-42903093D01*
X39824029Y-42975288D01*
X39978483Y-43079468D01*
X40109762Y-43211667D01*
X40212862Y-43366844D01*
X40283856Y-43539089D01*
X40319975Y-43721504D01*
X40319975Y-43721514D01*
X40320041Y-43721848D01*
X40317070Y-43934643D01*
X40316994Y-43934977D01*
X40316994Y-43934989D01*
X40275798Y-44116316D01*
X40200019Y-44286516D01*
X40092628Y-44438754D01*
X39957707Y-44567237D01*
X39800408Y-44667061D01*
X39626710Y-44734435D01*
X39443238Y-44766785D01*
X39256974Y-44762884D01*
X39075011Y-44722877D01*
X38904289Y-44648290D01*
X38751306Y-44541964D01*
X38621885Y-44407946D01*
X38520965Y-44251348D01*
X38452381Y-44078125D01*
X38418748Y-43894876D01*
X38421350Y-43708591D01*
X38460084Y-43526360D01*
X38533479Y-43355118D01*
X38638735Y-43201396D01*
X38771846Y-43071043D01*
X38927738Y-42969030D01*
X39100477Y-42899239D01*
X39283479Y-42864330D01*
X39469782Y-42865631D01*
X39469782Y-42865631D01*
G37*
G36*
X7709279Y-42330564D02*
X7872570Y-42364083D01*
X8026236Y-42428678D01*
X8164433Y-42521892D01*
X8281893Y-42640176D01*
X8374140Y-42779018D01*
X8437661Y-42933132D01*
X8469971Y-43096309D01*
X8469971Y-43096319D01*
X8470037Y-43096653D01*
X8467378Y-43287049D01*
X8467302Y-43287383D01*
X8467302Y-43287395D01*
X8430451Y-43449599D01*
X8362649Y-43601883D01*
X8266562Y-43738095D01*
X8145843Y-43853054D01*
X8005102Y-43942370D01*
X7849688Y-44002653D01*
X7685529Y-44031598D01*
X7518872Y-44028107D01*
X7356062Y-43992311D01*
X7203315Y-43925577D01*
X7066429Y-43830439D01*
X6950634Y-43710530D01*
X6860337Y-43570417D01*
X6798972Y-43415428D01*
X6768880Y-43251467D01*
X6771208Y-43084791D01*
X6805864Y-42921744D01*
X6871534Y-42768527D01*
X6965710Y-42630986D01*
X7084810Y-42514354D01*
X7224292Y-42423079D01*
X7378848Y-42360635D01*
X7542586Y-42329400D01*
X7709279Y-42330564D01*
X7709279Y-42330564D01*
G37*
G36*
X13434782Y-40960631D02*
X13617284Y-40998093D01*
X13789029Y-41070288D01*
X13943483Y-41174468D01*
X14074762Y-41306667D01*
X14177862Y-41461844D01*
X14248856Y-41634089D01*
X14284975Y-41816504D01*
X14284975Y-41816514D01*
X14285041Y-41816848D01*
X14282070Y-42029643D01*
X14281994Y-42029977D01*
X14281994Y-42029989D01*
X14240798Y-42211316D01*
X14165019Y-42381516D01*
X14057628Y-42533754D01*
X13922707Y-42662237D01*
X13765408Y-42762061D01*
X13591710Y-42829435D01*
X13408238Y-42861785D01*
X13221974Y-42857884D01*
X13040011Y-42817877D01*
X12869289Y-42743290D01*
X12716306Y-42636964D01*
X12586885Y-42502946D01*
X12485965Y-42346348D01*
X12417381Y-42173125D01*
X12383748Y-41989876D01*
X12386350Y-41803591D01*
X12425084Y-41621360D01*
X12498479Y-41450118D01*
X12603735Y-41296396D01*
X12736846Y-41166043D01*
X12892738Y-41064030D01*
X13065477Y-40994239D01*
X13248479Y-40959330D01*
X13434782Y-40960631D01*
X13434782Y-40960631D01*
G37*
G36*
X21054782Y-40960631D02*
X21237284Y-40998093D01*
X21409029Y-41070288D01*
X21563483Y-41174468D01*
X21694762Y-41306667D01*
X21797862Y-41461844D01*
X21868856Y-41634089D01*
X21904975Y-41816504D01*
X21904975Y-41816514D01*
X21905041Y-41816848D01*
X21902070Y-42029643D01*
X21901994Y-42029977D01*
X21901994Y-42029989D01*
X21860798Y-42211316D01*
X21785019Y-42381516D01*
X21677628Y-42533754D01*
X21542707Y-42662237D01*
X21385408Y-42762061D01*
X21211710Y-42829435D01*
X21028238Y-42861785D01*
X20841974Y-42857884D01*
X20660011Y-42817877D01*
X20489289Y-42743290D01*
X20336306Y-42636964D01*
X20206885Y-42502946D01*
X20105965Y-42346348D01*
X20037381Y-42173125D01*
X20003748Y-41989876D01*
X20006350Y-41803591D01*
X20045084Y-41621360D01*
X20118479Y-41450118D01*
X20223735Y-41296396D01*
X20356846Y-41166043D01*
X20512738Y-41064030D01*
X20685477Y-40994239D01*
X20868479Y-40959330D01*
X21054782Y-40960631D01*
X21054782Y-40960631D01*
G37*
G36*
X31849782Y-40325631D02*
X32032284Y-40363093D01*
X32204029Y-40435288D01*
X32358483Y-40539468D01*
X32489762Y-40671667D01*
X32592862Y-40826844D01*
X32663856Y-40999089D01*
X32699975Y-41181504D01*
X32699975Y-41181514D01*
X32700041Y-41181848D01*
X32697070Y-41394643D01*
X32696994Y-41394977D01*
X32696994Y-41394989D01*
X32655798Y-41576316D01*
X32580019Y-41746516D01*
X32472628Y-41898754D01*
X32337707Y-42027237D01*
X32180408Y-42127061D01*
X32006710Y-42194435D01*
X31823238Y-42226785D01*
X31636974Y-42222884D01*
X31455011Y-42182877D01*
X31284289Y-42108290D01*
X31131306Y-42001964D01*
X31001885Y-41867946D01*
X30900965Y-41711348D01*
X30832381Y-41538125D01*
X30798748Y-41354876D01*
X30801350Y-41168591D01*
X30840084Y-40986360D01*
X30913479Y-40815118D01*
X31018735Y-40661396D01*
X31151846Y-40531043D01*
X31307738Y-40429030D01*
X31480477Y-40359239D01*
X31663479Y-40324330D01*
X31849782Y-40325631D01*
X31849782Y-40325631D01*
G37*
G36*
X39469782Y-40325631D02*
X39652284Y-40363093D01*
X39824029Y-40435288D01*
X39978483Y-40539468D01*
X40109762Y-40671667D01*
X40212862Y-40826844D01*
X40283856Y-40999089D01*
X40319975Y-41181504D01*
X40319975Y-41181514D01*
X40320041Y-41181848D01*
X40317070Y-41394643D01*
X40316994Y-41394977D01*
X40316994Y-41394989D01*
X40275798Y-41576316D01*
X40200019Y-41746516D01*
X40092628Y-41898754D01*
X39957707Y-42027237D01*
X39800408Y-42127061D01*
X39626710Y-42194435D01*
X39443238Y-42226785D01*
X39256974Y-42222884D01*
X39075011Y-42182877D01*
X38904289Y-42108290D01*
X38751306Y-42001964D01*
X38621885Y-41867946D01*
X38520965Y-41711348D01*
X38452381Y-41538125D01*
X38418748Y-41354876D01*
X38421350Y-41168591D01*
X38460084Y-40986360D01*
X38533479Y-40815118D01*
X38638735Y-40661396D01*
X38771846Y-40531043D01*
X38927738Y-40429030D01*
X39100477Y-40359239D01*
X39283479Y-40324330D01*
X39469782Y-40325631D01*
X39469782Y-40325631D01*
G37*
G36*
X7709279Y-39790564D02*
X7872570Y-39824083D01*
X8026236Y-39888678D01*
X8164433Y-39981892D01*
X8281893Y-40100176D01*
X8374140Y-40239018D01*
X8437661Y-40393132D01*
X8469971Y-40556309D01*
X8469971Y-40556319D01*
X8470037Y-40556653D01*
X8467378Y-40747049D01*
X8467302Y-40747383D01*
X8467302Y-40747395D01*
X8430451Y-40909599D01*
X8362649Y-41061883D01*
X8266562Y-41198095D01*
X8145843Y-41313054D01*
X8005102Y-41402370D01*
X7849688Y-41462653D01*
X7685529Y-41491598D01*
X7518872Y-41488107D01*
X7356062Y-41452311D01*
X7203315Y-41385577D01*
X7066429Y-41290439D01*
X6950634Y-41170530D01*
X6860337Y-41030417D01*
X6798972Y-40875428D01*
X6768880Y-40711467D01*
X6771208Y-40544791D01*
X6805864Y-40381744D01*
X6871534Y-40228527D01*
X6965710Y-40090986D01*
X7084810Y-39974354D01*
X7224292Y-39883079D01*
X7378848Y-39820635D01*
X7542586Y-39789400D01*
X7709279Y-39790564D01*
X7709279Y-39790564D01*
G37*
G36*
X21054782Y-38420631D02*
X21237284Y-38458093D01*
X21409029Y-38530288D01*
X21563483Y-38634468D01*
X21694762Y-38766667D01*
X21797862Y-38921844D01*
X21868856Y-39094089D01*
X21904975Y-39276504D01*
X21904975Y-39276514D01*
X21905041Y-39276848D01*
X21902070Y-39489643D01*
X21901994Y-39489977D01*
X21901994Y-39489989D01*
X21860798Y-39671316D01*
X21785019Y-39841516D01*
X21677628Y-39993754D01*
X21542707Y-40122237D01*
X21385408Y-40222061D01*
X21211710Y-40289435D01*
X21028238Y-40321785D01*
X20841974Y-40317884D01*
X20660011Y-40277877D01*
X20489289Y-40203290D01*
X20336306Y-40096964D01*
X20206885Y-39962946D01*
X20105965Y-39806348D01*
X20037381Y-39633125D01*
X20003748Y-39449876D01*
X20006350Y-39263591D01*
X20045084Y-39081360D01*
X20118479Y-38910118D01*
X20223735Y-38756396D01*
X20356846Y-38626043D01*
X20512738Y-38524030D01*
X20685477Y-38454239D01*
X20868479Y-38419330D01*
X21054782Y-38420631D01*
X21054782Y-38420631D01*
G37*
G36*
X13434782Y-38420631D02*
X13617284Y-38458093D01*
X13789029Y-38530288D01*
X13943483Y-38634468D01*
X14074762Y-38766667D01*
X14177862Y-38921844D01*
X14248856Y-39094089D01*
X14284975Y-39276504D01*
X14284975Y-39276514D01*
X14285041Y-39276848D01*
X14282070Y-39489643D01*
X14281994Y-39489977D01*
X14281994Y-39489989D01*
X14240798Y-39671316D01*
X14165019Y-39841516D01*
X14057628Y-39993754D01*
X13922707Y-40122237D01*
X13765408Y-40222061D01*
X13591710Y-40289435D01*
X13408238Y-40321785D01*
X13221974Y-40317884D01*
X13040011Y-40277877D01*
X12869289Y-40203290D01*
X12716306Y-40096964D01*
X12586885Y-39962946D01*
X12485965Y-39806348D01*
X12417381Y-39633125D01*
X12383748Y-39449876D01*
X12386350Y-39263591D01*
X12425084Y-39081360D01*
X12498479Y-38910118D01*
X12603735Y-38756396D01*
X12736846Y-38626043D01*
X12892738Y-38524030D01*
X13065477Y-38454239D01*
X13248479Y-38419330D01*
X13434782Y-38420631D01*
X13434782Y-38420631D01*
G37*
G36*
X31849782Y-37785631D02*
X32032284Y-37823093D01*
X32204029Y-37895288D01*
X32358483Y-37999468D01*
X32489762Y-38131667D01*
X32592862Y-38286844D01*
X32663856Y-38459089D01*
X32699975Y-38641504D01*
X32699975Y-38641514D01*
X32700041Y-38641848D01*
X32697070Y-38854643D01*
X32696994Y-38854977D01*
X32696994Y-38854989D01*
X32655798Y-39036316D01*
X32580019Y-39206516D01*
X32472628Y-39358754D01*
X32337707Y-39487237D01*
X32180408Y-39587061D01*
X32006710Y-39654435D01*
X31823238Y-39686785D01*
X31636974Y-39682884D01*
X31455011Y-39642877D01*
X31284289Y-39568290D01*
X31131306Y-39461964D01*
X31001885Y-39327946D01*
X30900965Y-39171348D01*
X30832381Y-38998125D01*
X30798748Y-38814876D01*
X30801350Y-38628591D01*
X30840084Y-38446360D01*
X30913479Y-38275118D01*
X31018735Y-38121396D01*
X31151846Y-37991043D01*
X31307738Y-37889030D01*
X31480477Y-37819239D01*
X31663479Y-37784330D01*
X31849782Y-37785631D01*
X31849782Y-37785631D01*
G37*
G36*
X39469782Y-37785631D02*
X39652284Y-37823093D01*
X39824029Y-37895288D01*
X39978483Y-37999468D01*
X40109762Y-38131667D01*
X40212862Y-38286844D01*
X40283856Y-38459089D01*
X40319975Y-38641504D01*
X40319975Y-38641514D01*
X40320041Y-38641848D01*
X40317070Y-38854643D01*
X40316994Y-38854977D01*
X40316994Y-38854989D01*
X40275798Y-39036316D01*
X40200019Y-39206516D01*
X40092628Y-39358754D01*
X39957707Y-39487237D01*
X39800408Y-39587061D01*
X39626710Y-39654435D01*
X39443238Y-39686785D01*
X39256974Y-39682884D01*
X39075011Y-39642877D01*
X38904289Y-39568290D01*
X38751306Y-39461964D01*
X38621885Y-39327946D01*
X38520965Y-39171348D01*
X38452381Y-38998125D01*
X38418748Y-38814876D01*
X38421350Y-38628591D01*
X38460084Y-38446360D01*
X38533479Y-38275118D01*
X38638735Y-38121396D01*
X38771846Y-37991043D01*
X38927738Y-37889030D01*
X39100477Y-37819239D01*
X39283479Y-37784330D01*
X39469782Y-37785631D01*
X39469782Y-37785631D01*
G37*
G36*
X8470000Y-38950000D02*
X6770000Y-38950000D01*
X6770000Y-37250000D01*
X8470000Y-37250000D01*
X8470000Y-38950000D01*
X8470000Y-38950000D01*
G37*
G36*
X13434782Y-35880631D02*
X13617284Y-35918093D01*
X13789029Y-35990288D01*
X13943483Y-36094468D01*
X14074762Y-36226667D01*
X14177862Y-36381844D01*
X14248856Y-36554089D01*
X14284975Y-36736504D01*
X14284975Y-36736514D01*
X14285041Y-36736848D01*
X14282070Y-36949643D01*
X14281994Y-36949977D01*
X14281994Y-36949989D01*
X14240798Y-37131316D01*
X14165019Y-37301516D01*
X14057628Y-37453754D01*
X13922707Y-37582237D01*
X13765408Y-37682061D01*
X13591710Y-37749435D01*
X13408238Y-37781785D01*
X13221974Y-37777884D01*
X13040011Y-37737877D01*
X12869289Y-37663290D01*
X12716306Y-37556964D01*
X12586885Y-37422946D01*
X12485965Y-37266348D01*
X12417381Y-37093125D01*
X12383748Y-36909876D01*
X12386350Y-36723591D01*
X12425084Y-36541360D01*
X12498479Y-36370118D01*
X12603735Y-36216396D01*
X12736846Y-36086043D01*
X12892738Y-35984030D01*
X13065477Y-35914239D01*
X13248479Y-35879330D01*
X13434782Y-35880631D01*
X13434782Y-35880631D01*
G37*
G36*
X21054782Y-35880631D02*
X21237284Y-35918093D01*
X21409029Y-35990288D01*
X21563483Y-36094468D01*
X21694762Y-36226667D01*
X21797862Y-36381844D01*
X21868856Y-36554089D01*
X21904975Y-36736504D01*
X21904975Y-36736514D01*
X21905041Y-36736848D01*
X21902070Y-36949643D01*
X21901994Y-36949977D01*
X21901994Y-36949989D01*
X21860798Y-37131316D01*
X21785019Y-37301516D01*
X21677628Y-37453754D01*
X21542707Y-37582237D01*
X21385408Y-37682061D01*
X21211710Y-37749435D01*
X21028238Y-37781785D01*
X20841974Y-37777884D01*
X20660011Y-37737877D01*
X20489289Y-37663290D01*
X20336306Y-37556964D01*
X20206885Y-37422946D01*
X20105965Y-37266348D01*
X20037381Y-37093125D01*
X20003748Y-36909876D01*
X20006350Y-36723591D01*
X20045084Y-36541360D01*
X20118479Y-36370118D01*
X20223735Y-36216396D01*
X20356846Y-36086043D01*
X20512738Y-35984030D01*
X20685477Y-35914239D01*
X20868479Y-35879330D01*
X21054782Y-35880631D01*
X21054782Y-35880631D01*
G37*
G36*
X39469782Y-35245631D02*
X39652284Y-35283093D01*
X39824029Y-35355288D01*
X39978483Y-35459468D01*
X40109762Y-35591667D01*
X40212862Y-35746844D01*
X40283856Y-35919089D01*
X40319975Y-36101504D01*
X40319975Y-36101514D01*
X40320041Y-36101848D01*
X40317070Y-36314643D01*
X40316994Y-36314977D01*
X40316994Y-36314989D01*
X40275798Y-36496316D01*
X40200019Y-36666516D01*
X40092628Y-36818754D01*
X39957707Y-36947237D01*
X39800408Y-37047061D01*
X39626710Y-37114435D01*
X39443238Y-37146785D01*
X39256974Y-37142884D01*
X39075011Y-37102877D01*
X38904289Y-37028290D01*
X38751306Y-36921964D01*
X38621885Y-36787946D01*
X38520965Y-36631348D01*
X38452381Y-36458125D01*
X38418748Y-36274876D01*
X38421350Y-36088591D01*
X38460084Y-35906360D01*
X38533479Y-35735118D01*
X38638735Y-35581396D01*
X38771846Y-35451043D01*
X38927738Y-35349030D01*
X39100477Y-35279239D01*
X39283479Y-35244330D01*
X39469782Y-35245631D01*
X39469782Y-35245631D01*
G37*
G36*
X31849782Y-35245631D02*
X32032284Y-35283093D01*
X32204029Y-35355288D01*
X32358483Y-35459468D01*
X32489762Y-35591667D01*
X32592862Y-35746844D01*
X32663856Y-35919089D01*
X32699975Y-36101504D01*
X32699975Y-36101514D01*
X32700041Y-36101848D01*
X32697070Y-36314643D01*
X32696994Y-36314977D01*
X32696994Y-36314989D01*
X32655798Y-36496316D01*
X32580019Y-36666516D01*
X32472628Y-36818754D01*
X32337707Y-36947237D01*
X32180408Y-37047061D01*
X32006710Y-37114435D01*
X31823238Y-37146785D01*
X31636974Y-37142884D01*
X31455011Y-37102877D01*
X31284289Y-37028290D01*
X31131306Y-36921964D01*
X31001885Y-36787946D01*
X30900965Y-36631348D01*
X30832381Y-36458125D01*
X30798748Y-36274876D01*
X30801350Y-36088591D01*
X30840084Y-35906360D01*
X30913479Y-35735118D01*
X31018735Y-35581396D01*
X31151846Y-35451043D01*
X31307738Y-35349030D01*
X31480477Y-35279239D01*
X31663479Y-35244330D01*
X31849782Y-35245631D01*
X31849782Y-35245631D01*
G37*
G36*
X21054782Y-33340631D02*
X21237284Y-33378093D01*
X21409029Y-33450288D01*
X21563483Y-33554468D01*
X21694762Y-33686667D01*
X21797862Y-33841844D01*
X21868856Y-34014089D01*
X21904975Y-34196504D01*
X21904975Y-34196514D01*
X21905041Y-34196848D01*
X21902070Y-34409643D01*
X21901994Y-34409977D01*
X21901994Y-34409989D01*
X21860798Y-34591316D01*
X21785019Y-34761516D01*
X21677628Y-34913754D01*
X21542707Y-35042237D01*
X21385408Y-35142061D01*
X21211710Y-35209435D01*
X21028238Y-35241785D01*
X20841974Y-35237884D01*
X20660011Y-35197877D01*
X20489289Y-35123290D01*
X20336306Y-35016964D01*
X20206885Y-34882946D01*
X20105965Y-34726348D01*
X20037381Y-34553125D01*
X20003748Y-34369876D01*
X20006350Y-34183591D01*
X20045084Y-34001360D01*
X20118479Y-33830118D01*
X20223735Y-33676396D01*
X20356846Y-33546043D01*
X20512738Y-33444030D01*
X20685477Y-33374239D01*
X20868479Y-33339330D01*
X21054782Y-33340631D01*
X21054782Y-33340631D01*
G37*
G36*
X13434782Y-33340631D02*
X13617284Y-33378093D01*
X13789029Y-33450288D01*
X13943483Y-33554468D01*
X14074762Y-33686667D01*
X14177862Y-33841844D01*
X14248856Y-34014089D01*
X14284975Y-34196504D01*
X14284975Y-34196514D01*
X14285041Y-34196848D01*
X14282070Y-34409643D01*
X14281994Y-34409977D01*
X14281994Y-34409989D01*
X14240798Y-34591316D01*
X14165019Y-34761516D01*
X14057628Y-34913754D01*
X13922707Y-35042237D01*
X13765408Y-35142061D01*
X13591710Y-35209435D01*
X13408238Y-35241785D01*
X13221974Y-35237884D01*
X13040011Y-35197877D01*
X12869289Y-35123290D01*
X12716306Y-35016964D01*
X12586885Y-34882946D01*
X12485965Y-34726348D01*
X12417381Y-34553125D01*
X12383748Y-34369876D01*
X12386350Y-34183591D01*
X12425084Y-34001360D01*
X12498479Y-33830118D01*
X12603735Y-33676396D01*
X12736846Y-33546043D01*
X12892738Y-33444030D01*
X13065477Y-33374239D01*
X13248479Y-33339330D01*
X13434782Y-33340631D01*
X13434782Y-33340631D01*
G37*
G36*
X7709279Y-33400564D02*
X7872570Y-33434083D01*
X8026236Y-33498678D01*
X8164433Y-33591892D01*
X8281893Y-33710176D01*
X8374140Y-33849018D01*
X8437661Y-34003132D01*
X8469971Y-34166309D01*
X8469971Y-34166319D01*
X8470037Y-34166653D01*
X8467378Y-34357049D01*
X8467302Y-34357383D01*
X8467302Y-34357395D01*
X8430451Y-34519599D01*
X8362649Y-34671883D01*
X8266562Y-34808095D01*
X8145843Y-34923054D01*
X8005102Y-35012370D01*
X7849688Y-35072653D01*
X7685529Y-35101598D01*
X7518872Y-35098107D01*
X7356062Y-35062311D01*
X7203315Y-34995577D01*
X7066429Y-34900439D01*
X6950634Y-34780530D01*
X6860337Y-34640417D01*
X6798972Y-34485428D01*
X6768880Y-34321467D01*
X6771208Y-34154791D01*
X6805864Y-33991744D01*
X6871534Y-33838527D01*
X6965710Y-33700986D01*
X7084810Y-33584354D01*
X7224292Y-33493079D01*
X7378848Y-33430635D01*
X7542586Y-33399400D01*
X7709279Y-33400564D01*
X7709279Y-33400564D01*
G37*
G36*
X39469782Y-32705631D02*
X39652284Y-32743093D01*
X39824029Y-32815288D01*
X39978483Y-32919468D01*
X40109762Y-33051667D01*
X40212862Y-33206844D01*
X40283856Y-33379089D01*
X40319975Y-33561504D01*
X40319975Y-33561514D01*
X40320041Y-33561848D01*
X40317070Y-33774643D01*
X40316994Y-33774977D01*
X40316994Y-33774989D01*
X40275798Y-33956316D01*
X40200019Y-34126516D01*
X40092628Y-34278754D01*
X39957707Y-34407237D01*
X39800408Y-34507061D01*
X39626710Y-34574435D01*
X39443238Y-34606785D01*
X39256974Y-34602884D01*
X39075011Y-34562877D01*
X38904289Y-34488290D01*
X38751306Y-34381964D01*
X38621885Y-34247946D01*
X38520965Y-34091348D01*
X38452381Y-33918125D01*
X38418748Y-33734876D01*
X38421350Y-33548591D01*
X38460084Y-33366360D01*
X38533479Y-33195118D01*
X38638735Y-33041396D01*
X38771846Y-32911043D01*
X38927738Y-32809030D01*
X39100477Y-32739239D01*
X39283479Y-32704330D01*
X39469782Y-32705631D01*
X39469782Y-32705631D01*
G37*
G36*
X31849782Y-32705631D02*
X32032284Y-32743093D01*
X32204029Y-32815288D01*
X32358483Y-32919468D01*
X32489762Y-33051667D01*
X32592862Y-33206844D01*
X32663856Y-33379089D01*
X32699975Y-33561504D01*
X32699975Y-33561514D01*
X32700041Y-33561848D01*
X32697070Y-33774643D01*
X32696994Y-33774977D01*
X32696994Y-33774989D01*
X32655798Y-33956316D01*
X32580019Y-34126516D01*
X32472628Y-34278754D01*
X32337707Y-34407237D01*
X32180408Y-34507061D01*
X32006710Y-34574435D01*
X31823238Y-34606785D01*
X31636974Y-34602884D01*
X31455011Y-34562877D01*
X31284289Y-34488290D01*
X31131306Y-34381964D01*
X31001885Y-34247946D01*
X30900965Y-34091348D01*
X30832381Y-33918125D01*
X30798748Y-33734876D01*
X30801350Y-33548591D01*
X30840084Y-33366360D01*
X30913479Y-33195118D01*
X31018735Y-33041396D01*
X31151846Y-32911043D01*
X31307738Y-32809030D01*
X31480477Y-32739239D01*
X31663479Y-32704330D01*
X31849782Y-32705631D01*
X31849782Y-32705631D01*
G37*
G36*
X13434782Y-30800631D02*
X13617284Y-30838093D01*
X13789029Y-30910288D01*
X13943483Y-31014468D01*
X14074762Y-31146667D01*
X14177862Y-31301844D01*
X14248856Y-31474089D01*
X14284975Y-31656504D01*
X14284975Y-31656514D01*
X14285041Y-31656848D01*
X14282070Y-31869643D01*
X14281994Y-31869977D01*
X14281994Y-31869989D01*
X14240798Y-32051316D01*
X14165019Y-32221516D01*
X14057628Y-32373754D01*
X13922707Y-32502237D01*
X13765408Y-32602061D01*
X13591710Y-32669435D01*
X13408238Y-32701785D01*
X13221974Y-32697884D01*
X13040011Y-32657877D01*
X12869289Y-32583290D01*
X12716306Y-32476964D01*
X12586885Y-32342946D01*
X12485965Y-32186348D01*
X12417381Y-32013125D01*
X12383748Y-31829876D01*
X12386350Y-31643591D01*
X12425084Y-31461360D01*
X12498479Y-31290118D01*
X12603735Y-31136396D01*
X12736846Y-31006043D01*
X12892738Y-30904030D01*
X13065477Y-30834239D01*
X13248479Y-30799330D01*
X13434782Y-30800631D01*
X13434782Y-30800631D01*
G37*
G36*
X21054782Y-30800631D02*
X21237284Y-30838093D01*
X21409029Y-30910288D01*
X21563483Y-31014468D01*
X21694762Y-31146667D01*
X21797862Y-31301844D01*
X21868856Y-31474089D01*
X21904975Y-31656504D01*
X21904975Y-31656514D01*
X21905041Y-31656848D01*
X21902070Y-31869643D01*
X21901994Y-31869977D01*
X21901994Y-31869989D01*
X21860798Y-32051316D01*
X21785019Y-32221516D01*
X21677628Y-32373754D01*
X21542707Y-32502237D01*
X21385408Y-32602061D01*
X21211710Y-32669435D01*
X21028238Y-32701785D01*
X20841974Y-32697884D01*
X20660011Y-32657877D01*
X20489289Y-32583290D01*
X20336306Y-32476964D01*
X20206885Y-32342946D01*
X20105965Y-32186348D01*
X20037381Y-32013125D01*
X20003748Y-31829876D01*
X20006350Y-31643591D01*
X20045084Y-31461360D01*
X20118479Y-31290118D01*
X20223735Y-31136396D01*
X20356846Y-31006043D01*
X20512738Y-30904030D01*
X20685477Y-30834239D01*
X20868479Y-30799330D01*
X21054782Y-30800631D01*
X21054782Y-30800631D01*
G37*
G36*
X39469782Y-30165631D02*
X39652284Y-30203093D01*
X39824029Y-30275288D01*
X39978483Y-30379468D01*
X40109762Y-30511667D01*
X40212862Y-30666844D01*
X40283856Y-30839089D01*
X40319975Y-31021504D01*
X40319975Y-31021514D01*
X40320041Y-31021848D01*
X40317070Y-31234643D01*
X40316994Y-31234977D01*
X40316994Y-31234989D01*
X40275798Y-31416316D01*
X40200019Y-31586516D01*
X40092628Y-31738754D01*
X39957707Y-31867237D01*
X39800408Y-31967061D01*
X39626710Y-32034435D01*
X39443238Y-32066785D01*
X39256974Y-32062884D01*
X39075011Y-32022877D01*
X38904289Y-31948290D01*
X38751306Y-31841964D01*
X38621885Y-31707946D01*
X38520965Y-31551348D01*
X38452381Y-31378125D01*
X38418748Y-31194876D01*
X38421350Y-31008591D01*
X38460084Y-30826360D01*
X38533479Y-30655118D01*
X38638735Y-30501396D01*
X38771846Y-30371043D01*
X38927738Y-30269030D01*
X39100477Y-30199239D01*
X39283479Y-30164330D01*
X39469782Y-30165631D01*
X39469782Y-30165631D01*
G37*
G36*
X31849782Y-30165631D02*
X32032284Y-30203093D01*
X32204029Y-30275288D01*
X32358483Y-30379468D01*
X32489762Y-30511667D01*
X32592862Y-30666844D01*
X32663856Y-30839089D01*
X32699975Y-31021504D01*
X32699975Y-31021514D01*
X32700041Y-31021848D01*
X32697070Y-31234643D01*
X32696994Y-31234977D01*
X32696994Y-31234989D01*
X32655798Y-31416316D01*
X32580019Y-31586516D01*
X32472628Y-31738754D01*
X32337707Y-31867237D01*
X32180408Y-31967061D01*
X32006710Y-32034435D01*
X31823238Y-32066785D01*
X31636974Y-32062884D01*
X31455011Y-32022877D01*
X31284289Y-31948290D01*
X31131306Y-31841964D01*
X31001885Y-31707946D01*
X30900965Y-31551348D01*
X30832381Y-31378125D01*
X30798748Y-31194876D01*
X30801350Y-31008591D01*
X30840084Y-30826360D01*
X30913479Y-30655118D01*
X31018735Y-30501396D01*
X31151846Y-30371043D01*
X31307738Y-30269030D01*
X31480477Y-30199239D01*
X31663479Y-30164330D01*
X31849782Y-30165631D01*
X31849782Y-30165631D01*
G37*
G36*
X21054782Y-28260631D02*
X21237284Y-28298093D01*
X21409029Y-28370288D01*
X21563483Y-28474468D01*
X21694762Y-28606667D01*
X21797862Y-28761844D01*
X21868856Y-28934089D01*
X21904975Y-29116504D01*
X21904975Y-29116514D01*
X21905041Y-29116848D01*
X21902070Y-29329643D01*
X21901994Y-29329977D01*
X21901994Y-29329989D01*
X21860798Y-29511316D01*
X21785019Y-29681516D01*
X21677628Y-29833754D01*
X21542707Y-29962237D01*
X21385408Y-30062061D01*
X21211710Y-30129435D01*
X21028238Y-30161785D01*
X20841974Y-30157884D01*
X20660011Y-30117877D01*
X20489289Y-30043290D01*
X20336306Y-29936964D01*
X20206885Y-29802946D01*
X20105965Y-29646348D01*
X20037381Y-29473125D01*
X20003748Y-29289876D01*
X20006350Y-29103591D01*
X20045084Y-28921360D01*
X20118479Y-28750118D01*
X20223735Y-28596396D01*
X20356846Y-28466043D01*
X20512738Y-28364030D01*
X20685477Y-28294239D01*
X20868479Y-28259330D01*
X21054782Y-28260631D01*
X21054782Y-28260631D01*
G37*
G36*
X13434782Y-28260631D02*
X13617284Y-28298093D01*
X13789029Y-28370288D01*
X13943483Y-28474468D01*
X14074762Y-28606667D01*
X14177862Y-28761844D01*
X14248856Y-28934089D01*
X14284975Y-29116504D01*
X14284975Y-29116514D01*
X14285041Y-29116848D01*
X14282070Y-29329643D01*
X14281994Y-29329977D01*
X14281994Y-29329989D01*
X14240798Y-29511316D01*
X14165019Y-29681516D01*
X14057628Y-29833754D01*
X13922707Y-29962237D01*
X13765408Y-30062061D01*
X13591710Y-30129435D01*
X13408238Y-30161785D01*
X13221974Y-30157884D01*
X13040011Y-30117877D01*
X12869289Y-30043290D01*
X12716306Y-29936964D01*
X12586885Y-29802946D01*
X12485965Y-29646348D01*
X12417381Y-29473125D01*
X12383748Y-29289876D01*
X12386350Y-29103591D01*
X12425084Y-28921360D01*
X12498479Y-28750118D01*
X12603735Y-28596396D01*
X12736846Y-28466043D01*
X12892738Y-28364030D01*
X13065477Y-28294239D01*
X13248479Y-28259330D01*
X13434782Y-28260631D01*
X13434782Y-28260631D01*
G37*
G36*
X7709279Y-28400564D02*
X7872570Y-28434083D01*
X8026236Y-28498678D01*
X8164433Y-28591892D01*
X8281893Y-28710176D01*
X8374140Y-28849018D01*
X8437661Y-29003132D01*
X8469971Y-29166309D01*
X8469971Y-29166319D01*
X8470037Y-29166653D01*
X8467378Y-29357049D01*
X8467302Y-29357383D01*
X8467302Y-29357395D01*
X8430451Y-29519599D01*
X8362649Y-29671883D01*
X8266562Y-29808095D01*
X8145843Y-29923054D01*
X8005102Y-30012370D01*
X7849688Y-30072653D01*
X7685529Y-30101598D01*
X7518872Y-30098107D01*
X7356062Y-30062311D01*
X7203315Y-29995577D01*
X7066429Y-29900439D01*
X6950634Y-29780530D01*
X6860337Y-29640417D01*
X6798972Y-29485428D01*
X6768880Y-29321467D01*
X6771208Y-29154791D01*
X6805864Y-28991744D01*
X6871534Y-28838527D01*
X6965710Y-28700986D01*
X7084810Y-28584354D01*
X7224292Y-28493079D01*
X7378848Y-28430635D01*
X7542586Y-28399400D01*
X7709279Y-28400564D01*
X7709279Y-28400564D01*
G37*
G36*
X39469782Y-27625631D02*
X39652284Y-27663093D01*
X39824029Y-27735288D01*
X39978483Y-27839468D01*
X40109762Y-27971667D01*
X40212862Y-28126844D01*
X40283856Y-28299089D01*
X40319975Y-28481504D01*
X40319975Y-28481514D01*
X40320041Y-28481848D01*
X40317070Y-28694643D01*
X40316994Y-28694977D01*
X40316994Y-28694989D01*
X40275798Y-28876316D01*
X40200019Y-29046516D01*
X40092628Y-29198754D01*
X39957707Y-29327237D01*
X39800408Y-29427061D01*
X39626710Y-29494435D01*
X39443238Y-29526785D01*
X39256974Y-29522884D01*
X39075011Y-29482877D01*
X38904289Y-29408290D01*
X38751306Y-29301964D01*
X38621885Y-29167946D01*
X38520965Y-29011348D01*
X38452381Y-28838125D01*
X38418748Y-28654876D01*
X38421350Y-28468591D01*
X38460084Y-28286360D01*
X38533479Y-28115118D01*
X38638735Y-27961396D01*
X38771846Y-27831043D01*
X38927738Y-27729030D01*
X39100477Y-27659239D01*
X39283479Y-27624330D01*
X39469782Y-27625631D01*
X39469782Y-27625631D01*
G37*
G36*
X31849782Y-27625631D02*
X32032284Y-27663093D01*
X32204029Y-27735288D01*
X32358483Y-27839468D01*
X32489762Y-27971667D01*
X32592862Y-28126844D01*
X32663856Y-28299089D01*
X32699975Y-28481504D01*
X32699975Y-28481514D01*
X32700041Y-28481848D01*
X32697070Y-28694643D01*
X32696994Y-28694977D01*
X32696994Y-28694989D01*
X32655798Y-28876316D01*
X32580019Y-29046516D01*
X32472628Y-29198754D01*
X32337707Y-29327237D01*
X32180408Y-29427061D01*
X32006710Y-29494435D01*
X31823238Y-29526785D01*
X31636974Y-29522884D01*
X31455011Y-29482877D01*
X31284289Y-29408290D01*
X31131306Y-29301964D01*
X31001885Y-29167946D01*
X30900965Y-29011348D01*
X30832381Y-28838125D01*
X30798748Y-28654876D01*
X30801350Y-28468591D01*
X30840084Y-28286360D01*
X30913479Y-28115118D01*
X31018735Y-27961396D01*
X31151846Y-27831043D01*
X31307738Y-27729030D01*
X31480477Y-27659239D01*
X31663479Y-27624330D01*
X31849782Y-27625631D01*
X31849782Y-27625631D01*
G37*
G36*
X13434782Y-25720631D02*
X13617284Y-25758093D01*
X13789029Y-25830288D01*
X13943483Y-25934468D01*
X14074762Y-26066667D01*
X14177862Y-26221844D01*
X14248856Y-26394089D01*
X14284975Y-26576504D01*
X14284975Y-26576514D01*
X14285041Y-26576848D01*
X14282070Y-26789643D01*
X14281994Y-26789977D01*
X14281994Y-26789989D01*
X14240798Y-26971316D01*
X14165019Y-27141516D01*
X14057628Y-27293754D01*
X13922707Y-27422237D01*
X13765408Y-27522061D01*
X13591710Y-27589435D01*
X13408238Y-27621785D01*
X13221974Y-27617884D01*
X13040011Y-27577877D01*
X12869289Y-27503290D01*
X12716306Y-27396964D01*
X12586885Y-27262946D01*
X12485965Y-27106348D01*
X12417381Y-26933125D01*
X12383748Y-26749876D01*
X12386350Y-26563591D01*
X12425084Y-26381360D01*
X12498479Y-26210118D01*
X12603735Y-26056396D01*
X12736846Y-25926043D01*
X12892738Y-25824030D01*
X13065477Y-25754239D01*
X13248479Y-25719330D01*
X13434782Y-25720631D01*
X13434782Y-25720631D01*
G37*
G36*
X21054782Y-25720631D02*
X21237284Y-25758093D01*
X21409029Y-25830288D01*
X21563483Y-25934468D01*
X21694762Y-26066667D01*
X21797862Y-26221844D01*
X21868856Y-26394089D01*
X21904975Y-26576504D01*
X21904975Y-26576514D01*
X21905041Y-26576848D01*
X21902070Y-26789643D01*
X21901994Y-26789977D01*
X21901994Y-26789989D01*
X21860798Y-26971316D01*
X21785019Y-27141516D01*
X21677628Y-27293754D01*
X21542707Y-27422237D01*
X21385408Y-27522061D01*
X21211710Y-27589435D01*
X21028238Y-27621785D01*
X20841974Y-27617884D01*
X20660011Y-27577877D01*
X20489289Y-27503290D01*
X20336306Y-27396964D01*
X20206885Y-27262946D01*
X20105965Y-27106348D01*
X20037381Y-26933125D01*
X20003748Y-26749876D01*
X20006350Y-26563591D01*
X20045084Y-26381360D01*
X20118479Y-26210118D01*
X20223735Y-26056396D01*
X20356846Y-25926043D01*
X20512738Y-25824030D01*
X20685477Y-25754239D01*
X20868479Y-25719330D01*
X21054782Y-25720631D01*
X21054782Y-25720631D01*
G37*
G36*
X5190286Y-24985698D02*
X5391998Y-25027104D01*
X5581821Y-25106898D01*
X5752534Y-25222045D01*
X5897631Y-25368159D01*
X6011583Y-25539670D01*
X6090050Y-25730046D01*
X6129979Y-25931698D01*
X6129979Y-25931703D01*
X6130046Y-25932042D01*
X6126761Y-26167237D01*
X6126684Y-26167575D01*
X6126684Y-26167583D01*
X6081144Y-26368034D01*
X5997389Y-26556149D01*
X5878693Y-26724411D01*
X5729570Y-26866419D01*
X5555714Y-26976751D01*
X5363732Y-27051217D01*
X5160947Y-27086972D01*
X4955076Y-27082661D01*
X4753958Y-27038442D01*
X4565268Y-26956005D01*
X4396181Y-26838486D01*
X4253137Y-26690360D01*
X4141594Y-26517278D01*
X4065790Y-26325822D01*
X4028618Y-26123284D01*
X4031493Y-25917390D01*
X4074304Y-25715977D01*
X4155425Y-25526710D01*
X4271760Y-25356807D01*
X4418883Y-25212733D01*
X4591185Y-25099982D01*
X4782107Y-25022844D01*
X4984372Y-24984260D01*
X5190286Y-24985698D01*
X5190286Y-24985698D01*
G37*
G36*
X13434782Y-23180631D02*
X13617284Y-23218093D01*
X13789029Y-23290288D01*
X13943483Y-23394468D01*
X14074762Y-23526667D01*
X14177862Y-23681844D01*
X14248856Y-23854089D01*
X14284975Y-24036504D01*
X14284975Y-24036514D01*
X14285041Y-24036848D01*
X14282070Y-24249643D01*
X14281994Y-24249977D01*
X14281994Y-24249989D01*
X14240798Y-24431316D01*
X14165019Y-24601516D01*
X14057628Y-24753754D01*
X13922707Y-24882237D01*
X13765408Y-24982061D01*
X13591710Y-25049435D01*
X13408238Y-25081785D01*
X13221974Y-25077884D01*
X13040011Y-25037877D01*
X12869289Y-24963290D01*
X12716306Y-24856964D01*
X12586885Y-24722946D01*
X12485965Y-24566348D01*
X12417381Y-24393125D01*
X12383748Y-24209876D01*
X12386350Y-24023591D01*
X12425084Y-23841360D01*
X12498479Y-23670118D01*
X12603735Y-23516396D01*
X12736846Y-23386043D01*
X12892738Y-23284030D01*
X13065477Y-23214239D01*
X13248479Y-23179330D01*
X13434782Y-23180631D01*
X13434782Y-23180631D01*
G37*
G36*
X21054782Y-23180631D02*
X21237284Y-23218093D01*
X21409029Y-23290288D01*
X21563483Y-23394468D01*
X21694762Y-23526667D01*
X21797862Y-23681844D01*
X21868856Y-23854089D01*
X21904975Y-24036504D01*
X21904975Y-24036514D01*
X21905041Y-24036848D01*
X21902070Y-24249643D01*
X21901994Y-24249977D01*
X21901994Y-24249989D01*
X21860798Y-24431316D01*
X21785019Y-24601516D01*
X21677628Y-24753754D01*
X21542707Y-24882237D01*
X21385408Y-24982061D01*
X21211710Y-25049435D01*
X21028238Y-25081785D01*
X20841974Y-25077884D01*
X20660011Y-25037877D01*
X20489289Y-24963290D01*
X20336306Y-24856964D01*
X20206885Y-24722946D01*
X20105965Y-24566348D01*
X20037381Y-24393125D01*
X20003748Y-24209876D01*
X20006350Y-24023591D01*
X20045084Y-23841360D01*
X20118479Y-23670118D01*
X20223735Y-23516396D01*
X20356846Y-23386043D01*
X20512738Y-23284030D01*
X20685477Y-23214239D01*
X20868479Y-23179330D01*
X21054782Y-23180631D01*
X21054782Y-23180631D01*
G37*
G36*
X6130000Y-24545000D02*
X4030000Y-24545000D01*
X4030000Y-22445000D01*
X6130000Y-22445000D01*
X6130000Y-24545000D01*
X6130000Y-24545000D01*
G37*
G36*
X21054782Y-20640631D02*
X21237284Y-20678093D01*
X21409029Y-20750288D01*
X21563483Y-20854468D01*
X21694762Y-20986667D01*
X21797862Y-21141844D01*
X21868856Y-21314089D01*
X21904975Y-21496504D01*
X21904975Y-21496514D01*
X21905041Y-21496848D01*
X21902070Y-21709643D01*
X21901994Y-21709977D01*
X21901994Y-21709989D01*
X21860798Y-21891316D01*
X21785019Y-22061516D01*
X21677628Y-22213754D01*
X21542707Y-22342237D01*
X21385408Y-22442061D01*
X21211710Y-22509435D01*
X21028238Y-22541785D01*
X20841974Y-22537884D01*
X20660011Y-22497877D01*
X20489289Y-22423290D01*
X20336306Y-22316964D01*
X20206885Y-22182946D01*
X20105965Y-22026348D01*
X20037381Y-21853125D01*
X20003748Y-21669876D01*
X20006350Y-21483591D01*
X20045084Y-21301360D01*
X20118479Y-21130118D01*
X20223735Y-20976396D01*
X20356846Y-20846043D01*
X20512738Y-20744030D01*
X20685477Y-20674239D01*
X20868479Y-20639330D01*
X21054782Y-20640631D01*
X21054782Y-20640631D01*
G37*
G36*
X13434782Y-20640631D02*
X13617284Y-20678093D01*
X13789029Y-20750288D01*
X13943483Y-20854468D01*
X14074762Y-20986667D01*
X14177862Y-21141844D01*
X14248856Y-21314089D01*
X14284975Y-21496504D01*
X14284975Y-21496514D01*
X14285041Y-21496848D01*
X14282070Y-21709643D01*
X14281994Y-21709977D01*
X14281994Y-21709989D01*
X14240798Y-21891316D01*
X14165019Y-22061516D01*
X14057628Y-22213754D01*
X13922707Y-22342237D01*
X13765408Y-22442061D01*
X13591710Y-22509435D01*
X13408238Y-22541785D01*
X13221974Y-22537884D01*
X13040011Y-22497877D01*
X12869289Y-22423290D01*
X12716306Y-22316964D01*
X12586885Y-22182946D01*
X12485965Y-22026348D01*
X12417381Y-21853125D01*
X12383748Y-21669876D01*
X12386350Y-21483591D01*
X12425084Y-21301360D01*
X12498479Y-21130118D01*
X12603735Y-20976396D01*
X12736846Y-20846043D01*
X12892738Y-20744030D01*
X13065477Y-20674239D01*
X13248479Y-20639330D01*
X13434782Y-20640631D01*
X13434782Y-20640631D01*
G37*
G36*
X29299279Y-20105564D02*
X29462570Y-20139083D01*
X29616236Y-20203678D01*
X29754433Y-20296892D01*
X29871893Y-20415176D01*
X29964140Y-20554018D01*
X30027661Y-20708132D01*
X30059971Y-20871309D01*
X30059971Y-20871319D01*
X30060037Y-20871653D01*
X30057378Y-21062049D01*
X30057302Y-21062383D01*
X30057302Y-21062395D01*
X30020451Y-21224599D01*
X29952649Y-21376883D01*
X29856562Y-21513095D01*
X29735843Y-21628054D01*
X29595102Y-21717370D01*
X29439688Y-21777653D01*
X29275529Y-21806598D01*
X29108872Y-21803107D01*
X28946062Y-21767311D01*
X28793315Y-21700577D01*
X28656429Y-21605439D01*
X28540634Y-21485530D01*
X28450337Y-21345417D01*
X28388972Y-21190428D01*
X28358880Y-21026467D01*
X28361208Y-20859791D01*
X28395864Y-20696744D01*
X28461534Y-20543527D01*
X28555710Y-20405986D01*
X28674810Y-20289354D01*
X28814292Y-20198079D01*
X28968848Y-20135635D01*
X29132586Y-20104400D01*
X29299279Y-20105564D01*
X29299279Y-20105564D01*
G37*
G36*
X36919279Y-20105564D02*
X37082570Y-20139083D01*
X37236236Y-20203678D01*
X37374433Y-20296892D01*
X37491893Y-20415176D01*
X37584140Y-20554018D01*
X37647661Y-20708132D01*
X37679971Y-20871309D01*
X37679971Y-20871319D01*
X37680037Y-20871653D01*
X37677378Y-21062049D01*
X37677302Y-21062383D01*
X37677302Y-21062395D01*
X37640451Y-21224599D01*
X37572649Y-21376883D01*
X37476562Y-21513095D01*
X37355843Y-21628054D01*
X37215102Y-21717370D01*
X37059688Y-21777653D01*
X36895529Y-21806598D01*
X36728872Y-21803107D01*
X36566062Y-21767311D01*
X36413315Y-21700577D01*
X36276429Y-21605439D01*
X36160634Y-21485530D01*
X36070337Y-21345417D01*
X36008972Y-21190428D01*
X35978880Y-21026467D01*
X35981208Y-20859791D01*
X36015864Y-20696744D01*
X36081534Y-20543527D01*
X36175710Y-20405986D01*
X36294810Y-20289354D01*
X36434292Y-20198079D01*
X36588848Y-20135635D01*
X36752586Y-20104400D01*
X36919279Y-20105564D01*
X36919279Y-20105564D01*
G37*
G36*
X44539279Y-20105564D02*
X44702570Y-20139083D01*
X44856236Y-20203678D01*
X44994433Y-20296892D01*
X45111893Y-20415176D01*
X45204140Y-20554018D01*
X45267661Y-20708132D01*
X45299971Y-20871309D01*
X45299971Y-20871319D01*
X45300037Y-20871653D01*
X45297378Y-21062049D01*
X45297302Y-21062383D01*
X45297302Y-21062395D01*
X45260451Y-21224599D01*
X45192649Y-21376883D01*
X45096562Y-21513095D01*
X44975843Y-21628054D01*
X44835102Y-21717370D01*
X44679688Y-21777653D01*
X44515529Y-21806598D01*
X44348872Y-21803107D01*
X44186062Y-21767311D01*
X44033315Y-21700577D01*
X43896429Y-21605439D01*
X43780634Y-21485530D01*
X43690337Y-21345417D01*
X43628972Y-21190428D01*
X43598880Y-21026467D01*
X43601208Y-20859791D01*
X43635864Y-20696744D01*
X43701534Y-20543527D01*
X43795710Y-20405986D01*
X43914810Y-20289354D01*
X44054292Y-20198079D01*
X44208848Y-20135635D01*
X44372586Y-20104400D01*
X44539279Y-20105564D01*
X44539279Y-20105564D01*
G37*
G36*
X21054782Y-18100631D02*
X21237284Y-18138093D01*
X21409029Y-18210288D01*
X21563483Y-18314468D01*
X21694762Y-18446667D01*
X21797862Y-18601844D01*
X21868856Y-18774089D01*
X21904975Y-18956504D01*
X21904975Y-18956514D01*
X21905041Y-18956848D01*
X21902070Y-19169643D01*
X21901994Y-19169977D01*
X21901994Y-19169989D01*
X21860798Y-19351316D01*
X21785019Y-19521516D01*
X21677628Y-19673754D01*
X21542707Y-19802237D01*
X21385408Y-19902061D01*
X21211710Y-19969435D01*
X21028238Y-20001785D01*
X20841974Y-19997884D01*
X20660011Y-19957877D01*
X20489289Y-19883290D01*
X20336306Y-19776964D01*
X20206885Y-19642946D01*
X20105965Y-19486348D01*
X20037381Y-19313125D01*
X20003748Y-19129876D01*
X20006350Y-18943591D01*
X20045084Y-18761360D01*
X20118479Y-18590118D01*
X20223735Y-18436396D01*
X20356846Y-18306043D01*
X20512738Y-18204030D01*
X20685477Y-18134239D01*
X20868479Y-18099330D01*
X21054782Y-18100631D01*
X21054782Y-18100631D01*
G37*
G36*
X13434782Y-18100631D02*
X13617284Y-18138093D01*
X13789029Y-18210288D01*
X13943483Y-18314468D01*
X14074762Y-18446667D01*
X14177862Y-18601844D01*
X14248856Y-18774089D01*
X14284975Y-18956504D01*
X14284975Y-18956514D01*
X14285041Y-18956848D01*
X14282070Y-19169643D01*
X14281994Y-19169977D01*
X14281994Y-19169989D01*
X14240798Y-19351316D01*
X14165019Y-19521516D01*
X14057628Y-19673754D01*
X13922707Y-19802237D01*
X13765408Y-19902061D01*
X13591710Y-19969435D01*
X13408238Y-20001785D01*
X13221974Y-19997884D01*
X13040011Y-19957877D01*
X12869289Y-19883290D01*
X12716306Y-19776964D01*
X12586885Y-19642946D01*
X12485965Y-19486348D01*
X12417381Y-19313125D01*
X12383748Y-19129876D01*
X12386350Y-18943591D01*
X12425084Y-18761360D01*
X12498479Y-18590118D01*
X12603735Y-18436396D01*
X12736846Y-18306043D01*
X12892738Y-18204030D01*
X13065477Y-18134239D01*
X13248479Y-18099330D01*
X13434782Y-18100631D01*
X13434782Y-18100631D01*
G37*
G36*
X7084782Y-16830631D02*
X7267284Y-16868093D01*
X7439029Y-16940288D01*
X7593483Y-17044468D01*
X7724762Y-17176667D01*
X7827862Y-17331844D01*
X7898856Y-17504089D01*
X7934975Y-17686504D01*
X7934975Y-17686514D01*
X7935041Y-17686848D01*
X7932070Y-17899643D01*
X7931994Y-17899977D01*
X7931994Y-17899989D01*
X7890798Y-18081316D01*
X7815019Y-18251516D01*
X7707628Y-18403754D01*
X7572707Y-18532237D01*
X7415408Y-18632061D01*
X7241710Y-18699435D01*
X7058238Y-18731785D01*
X6871974Y-18727884D01*
X6690011Y-18687877D01*
X6519289Y-18613290D01*
X6366306Y-18506964D01*
X6236885Y-18372946D01*
X6135965Y-18216348D01*
X6067381Y-18043125D01*
X6033748Y-17859876D01*
X6036350Y-17673591D01*
X6075084Y-17491360D01*
X6148479Y-17320118D01*
X6253735Y-17166396D01*
X6386846Y-17036043D01*
X6542738Y-16934030D01*
X6715477Y-16864239D01*
X6898479Y-16829330D01*
X7084782Y-16830631D01*
X7084782Y-16830631D01*
G37*
G36*
X5395000Y-18730000D02*
X3495000Y-18730000D01*
X3495000Y-16830000D01*
X5395000Y-16830000D01*
X5395000Y-18730000D01*
X5395000Y-18730000D01*
G37*
G36*
X21054782Y-15560631D02*
X21237284Y-15598093D01*
X21409029Y-15670288D01*
X21563483Y-15774468D01*
X21694762Y-15906667D01*
X21797862Y-16061844D01*
X21868856Y-16234089D01*
X21904975Y-16416504D01*
X21904975Y-16416514D01*
X21905041Y-16416848D01*
X21902070Y-16629643D01*
X21901994Y-16629977D01*
X21901994Y-16629989D01*
X21860798Y-16811316D01*
X21785019Y-16981516D01*
X21677628Y-17133754D01*
X21542707Y-17262237D01*
X21385408Y-17362061D01*
X21211710Y-17429435D01*
X21028238Y-17461785D01*
X20841974Y-17457884D01*
X20660011Y-17417877D01*
X20489289Y-17343290D01*
X20336306Y-17236964D01*
X20206885Y-17102946D01*
X20105965Y-16946348D01*
X20037381Y-16773125D01*
X20003748Y-16589876D01*
X20006350Y-16403591D01*
X20045084Y-16221360D01*
X20118479Y-16050118D01*
X20223735Y-15896396D01*
X20356846Y-15766043D01*
X20512738Y-15664030D01*
X20685477Y-15594239D01*
X20868479Y-15559330D01*
X21054782Y-15560631D01*
X21054782Y-15560631D01*
G37*
G36*
X14285000Y-17460000D02*
X12385000Y-17460000D01*
X12385000Y-15560000D01*
X14285000Y-15560000D01*
X14285000Y-17460000D01*
X14285000Y-17460000D01*
G37*
G36*
X29299279Y-12485564D02*
X29462570Y-12519083D01*
X29616236Y-12583678D01*
X29754433Y-12676892D01*
X29871893Y-12795176D01*
X29964140Y-12934018D01*
X30027661Y-13088132D01*
X30059971Y-13251309D01*
X30059971Y-13251319D01*
X30060037Y-13251653D01*
X30057378Y-13442049D01*
X30057302Y-13442383D01*
X30057302Y-13442395D01*
X30020451Y-13604599D01*
X29952649Y-13756883D01*
X29856562Y-13893095D01*
X29735843Y-14008054D01*
X29595102Y-14097370D01*
X29439688Y-14157653D01*
X29275529Y-14186598D01*
X29108872Y-14183107D01*
X28946062Y-14147311D01*
X28793315Y-14080577D01*
X28656429Y-13985439D01*
X28540634Y-13865530D01*
X28450337Y-13725417D01*
X28388972Y-13570428D01*
X28358880Y-13406467D01*
X28361208Y-13239791D01*
X28395864Y-13076744D01*
X28461534Y-12923527D01*
X28555710Y-12785986D01*
X28674810Y-12669354D01*
X28814292Y-12578079D01*
X28968848Y-12515635D01*
X29132586Y-12484400D01*
X29299279Y-12485564D01*
X29299279Y-12485564D01*
G37*
G36*
X36919279Y-12485564D02*
X37082570Y-12519083D01*
X37236236Y-12583678D01*
X37374433Y-12676892D01*
X37491893Y-12795176D01*
X37584140Y-12934018D01*
X37647661Y-13088132D01*
X37679971Y-13251309D01*
X37679971Y-13251319D01*
X37680037Y-13251653D01*
X37677378Y-13442049D01*
X37677302Y-13442383D01*
X37677302Y-13442395D01*
X37640451Y-13604599D01*
X37572649Y-13756883D01*
X37476562Y-13893095D01*
X37355843Y-14008054D01*
X37215102Y-14097370D01*
X37059688Y-14157653D01*
X36895529Y-14186598D01*
X36728872Y-14183107D01*
X36566062Y-14147311D01*
X36413315Y-14080577D01*
X36276429Y-13985439D01*
X36160634Y-13865530D01*
X36070337Y-13725417D01*
X36008972Y-13570428D01*
X35978880Y-13406467D01*
X35981208Y-13239791D01*
X36015864Y-13076744D01*
X36081534Y-12923527D01*
X36175710Y-12785986D01*
X36294810Y-12669354D01*
X36434292Y-12578079D01*
X36588848Y-12515635D01*
X36752586Y-12484400D01*
X36919279Y-12485564D01*
X36919279Y-12485564D01*
G37*
G36*
X45300000Y-14185000D02*
X43600000Y-14185000D01*
X43600000Y-12485000D01*
X45300000Y-12485000D01*
X45300000Y-14185000D01*
X45300000Y-14185000D01*
G37*
G36*
X12810286Y-10380698D02*
X13011998Y-10422104D01*
X13201821Y-10501898D01*
X13372534Y-10617045D01*
X13517631Y-10763159D01*
X13631583Y-10934670D01*
X13710050Y-11125046D01*
X13749979Y-11326698D01*
X13749979Y-11326703D01*
X13750046Y-11327042D01*
X13746761Y-11562237D01*
X13746684Y-11562575D01*
X13746684Y-11562583D01*
X13701144Y-11763034D01*
X13617389Y-11951149D01*
X13498693Y-12119411D01*
X13349570Y-12261419D01*
X13175714Y-12371751D01*
X12983732Y-12446217D01*
X12780947Y-12481972D01*
X12575076Y-12477661D01*
X12373958Y-12433442D01*
X12185268Y-12351005D01*
X12016181Y-12233486D01*
X11873137Y-12085360D01*
X11761594Y-11912278D01*
X11685790Y-11720822D01*
X11648618Y-11518284D01*
X11651493Y-11312390D01*
X11694304Y-11110977D01*
X11775425Y-10921710D01*
X11891760Y-10751807D01*
X12038883Y-10607733D01*
X12211185Y-10494982D01*
X12402107Y-10417844D01*
X12604372Y-10379260D01*
X12810286Y-10380698D01*
X12810286Y-10380698D01*
G37*
G36*
X11210000Y-12480000D02*
X9110000Y-12480000D01*
X9110000Y-10380000D01*
X11210000Y-10380000D01*
X11210000Y-12480000D01*
X11210000Y-12480000D01*
G37*
G36*
X45320354Y-1952029D02*
X45906276Y-2072302D01*
X46457672Y-2304088D01*
X46953551Y-2638561D01*
X47375020Y-3062984D01*
X47706025Y-3561185D01*
X47933953Y-4114183D01*
X48050065Y-4700588D01*
X48050065Y-4700598D01*
X48050131Y-4700932D01*
X48040591Y-5384116D01*
X48040515Y-5384450D01*
X48040515Y-5384462D01*
X47908079Y-5967387D01*
X47664794Y-6513813D01*
X47320010Y-7002576D01*
X46886851Y-7415066D01*
X46381833Y-7735561D01*
X45824174Y-7951863D01*
X45235128Y-8055727D01*
X44637123Y-8043202D01*
X44052933Y-7914759D01*
X43504827Y-7675297D01*
X43013669Y-7333933D01*
X42598166Y-6903667D01*
X42274153Y-6400898D01*
X42053964Y-5844764D01*
X41945988Y-5256449D01*
X41954340Y-4658373D01*
X42078698Y-4073311D01*
X42314331Y-3523540D01*
X42652258Y-3030011D01*
X43079611Y-2611514D01*
X43580109Y-2283998D01*
X44134691Y-2059932D01*
X44722230Y-1947853D01*
X45320354Y-1952029D01*
X45320354Y-1952029D01*
G37*
G36*
X5320354Y-1952029D02*
X5906276Y-2072302D01*
X6457672Y-2304088D01*
X6953551Y-2638561D01*
X7375020Y-3062984D01*
X7706025Y-3561185D01*
X7933953Y-4114183D01*
X8050065Y-4700588D01*
X8050065Y-4700598D01*
X8050131Y-4700932D01*
X8040591Y-5384116D01*
X8040515Y-5384450D01*
X8040515Y-5384462D01*
X7908079Y-5967387D01*
X7664794Y-6513813D01*
X7320010Y-7002576D01*
X6886851Y-7415066D01*
X6381833Y-7735561D01*
X5824174Y-7951863D01*
X5235128Y-8055727D01*
X4637123Y-8043202D01*
X4052933Y-7914759D01*
X3504827Y-7675297D01*
X3013669Y-7333933D01*
X2598166Y-6903667D01*
X2274153Y-6400898D01*
X2053964Y-5844764D01*
X1945988Y-5256449D01*
X1954340Y-4658373D01*
X2078698Y-4073311D01*
X2314331Y-3523540D01*
X2652258Y-3030011D01*
X3079611Y-2611514D01*
X3580109Y-2283998D01*
X4134691Y-2059932D01*
X4722230Y-1947853D01*
X5320354Y-1952029D01*
X5320354Y-1952029D01*
G37*
G36*
X23950000Y-6950000D02*
X23450000Y-6950000D01*
X23450000Y-5050000D01*
X23950000Y-5050000D01*
X23950000Y-6950000D01*
X23950000Y-6950000D01*
G37*
G36*
X24600000Y-6950000D02*
X24100000Y-6950000D01*
X24100000Y-5050000D01*
X24600000Y-5050000D01*
X24600000Y-6950000D01*
X24600000Y-6950000D01*
G37*
G36*
X25250000Y-6950000D02*
X24750000Y-6950000D01*
X24750000Y-5050000D01*
X25250000Y-5050000D01*
X25250000Y-6950000D01*
X25250000Y-6950000D01*
G37*
G36*
X25900000Y-6950000D02*
X25400000Y-6950000D01*
X25400000Y-5050000D01*
X25900000Y-5050000D01*
X25900000Y-6950000D01*
X25900000Y-6950000D01*
G37*
G36*
X26550000Y-6950000D02*
X26050000Y-6950000D01*
X26050000Y-5050000D01*
X26550000Y-5050000D01*
X26550000Y-6950000D01*
X26550000Y-6950000D01*
G37*
G36*
X21950000Y-3750000D02*
X21951980Y-3763930D01*
X21957761Y-3776756D01*
X21966888Y-3787464D01*
X21978636Y-3795206D01*
X21992076Y-3799368D01*
X22000000Y-3800000D01*
X23050000Y-3800000D01*
X23050000Y-6200000D01*
X20650000Y-6200000D01*
X20650000Y-3750000D01*
X20648020Y-3736070D01*
X20642239Y-3723244D01*
X20633112Y-3712536D01*
X20621364Y-3704794D01*
X20607924Y-3700632D01*
X20600000Y-3700000D01*
X20250000Y-3700000D01*
X20250000Y-1600000D01*
X21950000Y-1600000D01*
X21950000Y-3750000D01*
X21950000Y-3750000D01*
G37*
G36*
X29750000Y-3700000D02*
X29400000Y-3700000D01*
X29386070Y-3701980D01*
X29373244Y-3707761D01*
X29362536Y-3716888D01*
X29354794Y-3728636D01*
X29350632Y-3742076D01*
X29350000Y-3750000D01*
X29350000Y-6200000D01*
X26950000Y-6200000D01*
X26950000Y-3800000D01*
X28000000Y-3800000D01*
X28013930Y-3798020D01*
X28026756Y-3792239D01*
X28037464Y-3783112D01*
X28045206Y-3771364D01*
X28049368Y-3757924D01*
X28050000Y-3750000D01*
X28050000Y-1600000D01*
X29750000Y-1600000D01*
X29750000Y-3700000D01*
X29750000Y-3700000D01*
G37*
M02*
