G04 #@! TF.FileFunction,Legend,Bot*
%FSLAX46Y46*%
G04 Gerber Fmt 4.6, Leading zero omitted, Abs format (unit mm)*
G04 Created by KiCad (PCBNEW 4.0.2-stable) date 2016/04/14 22:54:03*
%MOMM*%
G01*
G04 APERTURE LIST*
%ADD10C,0.100000*%
%ADD11R,1.900000X1.900000*%
%ADD12C,1.900000*%
%ADD13R,1.700000X1.700000*%
%ADD14C,1.700000*%
%ADD15C,2.100000*%
%ADD16C,2.700000*%
%ADD17R,2.100000X2.100000*%
%ADD18C,6.100000*%
G04 APERTURE END LIST*
D10*
%LPC*%
D11*
X13335000Y-16510000D03*
D12*
X13335000Y-19050000D03*
X13335000Y-21590000D03*
X13335000Y-24130000D03*
X13335000Y-26670000D03*
X13335000Y-29210000D03*
X13335000Y-31750000D03*
X13335000Y-34290000D03*
X13335000Y-36830000D03*
X13335000Y-39370000D03*
X13335000Y-41910000D03*
X13335000Y-44450000D03*
X13335000Y-46990000D03*
X13335000Y-49530000D03*
X20955000Y-49530000D03*
X20955000Y-46990000D03*
X20955000Y-44450000D03*
X20955000Y-41910000D03*
X20955000Y-39370000D03*
X20955000Y-36830000D03*
X20955000Y-34290000D03*
X20955000Y-31750000D03*
X20955000Y-29210000D03*
X20955000Y-26670000D03*
X20955000Y-24130000D03*
X20955000Y-21590000D03*
X20955000Y-19050000D03*
X20955000Y-16510000D03*
D11*
X4445000Y-17780000D03*
D12*
X6985000Y-17780000D03*
D13*
X7620000Y-38100000D03*
D14*
X7620000Y-40640000D03*
X7620000Y-43180000D03*
X13375000Y-56515000D03*
X18375000Y-56515000D03*
X7620000Y-29250000D03*
X7620000Y-34250000D03*
X10200000Y-67945000D03*
X15200000Y-67945000D03*
X34330000Y-62230000D03*
X39330000Y-62230000D03*
D15*
X15085000Y-87630000D03*
X11585000Y-87630000D03*
X38580000Y-87630000D03*
X35080000Y-87630000D03*
D16*
X27750000Y-93000000D03*
X22250000Y-93000000D03*
X27200000Y-87500000D03*
X22800000Y-87500000D03*
D17*
X4445000Y-59055000D03*
D15*
X4445000Y-56515000D03*
X4445000Y-53975000D03*
X4445000Y-51435000D03*
X4445000Y-48895000D03*
X4445000Y-46355000D03*
D17*
X5080000Y-23495000D03*
D15*
X5080000Y-26035000D03*
D17*
X10160000Y-11430000D03*
D15*
X12700000Y-11430000D03*
D17*
X40640000Y-65405000D03*
D15*
X43180000Y-65405000D03*
D17*
X17780000Y-64135000D03*
D15*
X17780000Y-61595000D03*
D17*
X8890000Y-64135000D03*
D15*
X8890000Y-61595000D03*
D17*
X22225000Y-82550000D03*
D15*
X22225000Y-80010000D03*
D17*
X27940000Y-82550000D03*
D15*
X27940000Y-80010000D03*
D14*
X45085000Y-76835000D03*
X45085000Y-74295000D03*
X45085000Y-71755000D03*
D11*
X16510000Y-79375000D03*
D12*
X16510000Y-76835000D03*
X16510000Y-74295000D03*
X16510000Y-71755000D03*
X8890000Y-71755000D03*
X8890000Y-74295000D03*
X8890000Y-76835000D03*
X8890000Y-79375000D03*
D11*
X39370000Y-48895000D03*
D12*
X39370000Y-46355000D03*
X39370000Y-43815000D03*
X39370000Y-41275000D03*
X39370000Y-38735000D03*
X39370000Y-36195000D03*
X39370000Y-33655000D03*
X39370000Y-31115000D03*
X39370000Y-28575000D03*
X31750000Y-28575000D03*
X31750000Y-31115000D03*
X31750000Y-33655000D03*
X31750000Y-36195000D03*
X31750000Y-38735000D03*
X31750000Y-41275000D03*
X31750000Y-43815000D03*
X31750000Y-46355000D03*
X31750000Y-48895000D03*
D13*
X44450000Y-13335000D03*
D14*
X44450000Y-20955000D03*
X36830000Y-20955000D03*
X36830000Y-13335000D03*
X29210000Y-20955000D03*
X29210000Y-13335000D03*
D18*
X5000000Y-5000000D03*
X45000000Y-5000000D03*
X5000000Y-95000000D03*
X45000000Y-95000000D03*
M02*
