G04 #@! TF.FileFunction,Copper,L2,Bot,Signal*
%FSLAX46Y46*%
G04 Gerber Fmt 4.6, Leading zero omitted, Abs format (unit mm)*
G04 Created by KiCad (PCBNEW 4.0.2-stable) date 2016/04/14 22:54:03*
%MOMM*%
G01*
G04 APERTURE LIST*
%ADD10C,0.100000*%
%ADD11R,1.800000X1.800000*%
%ADD12C,1.800000*%
%ADD13R,1.600000X1.600000*%
%ADD14C,1.600000*%
%ADD15C,2.000000*%
%ADD16C,2.600000*%
%ADD17R,2.000000X2.000000*%
%ADD18C,6.000000*%
%ADD19C,0.600000*%
%ADD20C,0.800000*%
%ADD21C,1.500000*%
%ADD22C,0.254000*%
G04 APERTURE END LIST*
D10*
D11*
X13335000Y-16510000D03*
D12*
X13335000Y-19050000D03*
X13335000Y-21590000D03*
X13335000Y-24130000D03*
X13335000Y-26670000D03*
X13335000Y-29210000D03*
X13335000Y-31750000D03*
X13335000Y-34290000D03*
X13335000Y-36830000D03*
X13335000Y-39370000D03*
X13335000Y-41910000D03*
X13335000Y-44450000D03*
X13335000Y-46990000D03*
X13335000Y-49530000D03*
X20955000Y-49530000D03*
X20955000Y-46990000D03*
X20955000Y-44450000D03*
X20955000Y-41910000D03*
X20955000Y-39370000D03*
X20955000Y-36830000D03*
X20955000Y-34290000D03*
X20955000Y-31750000D03*
X20955000Y-29210000D03*
X20955000Y-26670000D03*
X20955000Y-24130000D03*
X20955000Y-21590000D03*
X20955000Y-19050000D03*
X20955000Y-16510000D03*
D11*
X4445000Y-17780000D03*
D12*
X6985000Y-17780000D03*
D13*
X7620000Y-38100000D03*
D14*
X7620000Y-40640000D03*
X7620000Y-43180000D03*
X13375000Y-56515000D03*
X18375000Y-56515000D03*
X7620000Y-29250000D03*
X7620000Y-34250000D03*
X10200000Y-67945000D03*
X15200000Y-67945000D03*
X34330000Y-62230000D03*
X39330000Y-62230000D03*
D15*
X15085000Y-87630000D03*
X11585000Y-87630000D03*
X38580000Y-87630000D03*
X35080000Y-87630000D03*
D16*
X27750000Y-93000000D03*
X22250000Y-93000000D03*
X27200000Y-87500000D03*
X22800000Y-87500000D03*
D17*
X4445000Y-59055000D03*
D15*
X4445000Y-56515000D03*
X4445000Y-53975000D03*
X4445000Y-51435000D03*
X4445000Y-48895000D03*
X4445000Y-46355000D03*
D17*
X5080000Y-23495000D03*
D15*
X5080000Y-26035000D03*
D17*
X10160000Y-11430000D03*
D15*
X12700000Y-11430000D03*
D17*
X40640000Y-65405000D03*
D15*
X43180000Y-65405000D03*
D17*
X17780000Y-64135000D03*
D15*
X17780000Y-61595000D03*
D17*
X8890000Y-64135000D03*
D15*
X8890000Y-61595000D03*
D17*
X22225000Y-82550000D03*
D15*
X22225000Y-80010000D03*
D17*
X27940000Y-82550000D03*
D15*
X27940000Y-80010000D03*
D14*
X45085000Y-76835000D03*
X45085000Y-74295000D03*
X45085000Y-71755000D03*
D11*
X16510000Y-79375000D03*
D12*
X16510000Y-76835000D03*
X16510000Y-74295000D03*
X16510000Y-71755000D03*
X8890000Y-71755000D03*
X8890000Y-74295000D03*
X8890000Y-76835000D03*
X8890000Y-79375000D03*
D11*
X39370000Y-48895000D03*
D12*
X39370000Y-46355000D03*
X39370000Y-43815000D03*
X39370000Y-41275000D03*
X39370000Y-38735000D03*
X39370000Y-36195000D03*
X39370000Y-33655000D03*
X39370000Y-31115000D03*
X39370000Y-28575000D03*
X31750000Y-28575000D03*
X31750000Y-31115000D03*
X31750000Y-33655000D03*
X31750000Y-36195000D03*
X31750000Y-38735000D03*
X31750000Y-41275000D03*
X31750000Y-43815000D03*
X31750000Y-46355000D03*
X31750000Y-48895000D03*
D13*
X44450000Y-13335000D03*
D14*
X44450000Y-20955000D03*
X36830000Y-20955000D03*
X36830000Y-13335000D03*
X29210000Y-20955000D03*
X29210000Y-13335000D03*
D18*
X5000000Y-5000000D03*
X45000000Y-5000000D03*
X5000000Y-95000000D03*
X45000000Y-95000000D03*
D19*
X15240000Y-12700000D03*
X15240000Y-10795000D03*
X17780000Y-10795000D03*
X16510000Y-40005000D03*
X16510000Y-37465000D03*
X10160000Y-83820000D03*
X5080000Y-88900000D03*
X5080000Y-86360000D03*
X5080000Y-83820000D03*
X5080000Y-81280000D03*
X7620000Y-81280000D03*
X7620000Y-83820000D03*
X7620000Y-86360000D03*
X7620000Y-88900000D03*
X7620000Y-91440000D03*
X17780000Y-96520000D03*
X15240000Y-96520000D03*
X12700000Y-96520000D03*
X10160000Y-96520000D03*
X10160000Y-93980000D03*
X12700000Y-93980000D03*
X15240000Y-93980000D03*
X17780000Y-93980000D03*
X40640000Y-91440000D03*
X38100000Y-91440000D03*
X35560000Y-91440000D03*
X33020000Y-91440000D03*
X33020000Y-93980000D03*
X35560000Y-93980000D03*
X38100000Y-93980000D03*
X38100000Y-96520000D03*
X35560000Y-96520000D03*
X33020000Y-96520000D03*
X43180000Y-88900000D03*
X45720000Y-88900000D03*
X45720000Y-86360000D03*
X43180000Y-86360000D03*
X40640000Y-83820000D03*
X43180000Y-83820000D03*
X45720000Y-83820000D03*
X45720000Y-81280000D03*
X43180000Y-81280000D03*
X40640000Y-81280000D03*
X38100000Y-81280000D03*
X38100000Y-78740000D03*
X40640000Y-78740000D03*
X43180000Y-78740000D03*
X43180000Y-76200000D03*
X40640000Y-76200000D03*
X38100000Y-76200000D03*
X35560000Y-76200000D03*
X33020000Y-76200000D03*
X33020000Y-78740000D03*
X35560000Y-78740000D03*
X30480000Y-78740000D03*
X10160000Y-45720000D03*
X25400000Y-45720000D03*
X25400000Y-48260000D03*
X25400000Y-50800000D03*
X22860000Y-50800000D03*
X22860000Y-48260000D03*
X22860000Y-45720000D03*
X22860000Y-43180000D03*
X43180000Y-58420000D03*
X43180000Y-60960000D03*
X22860000Y-58420000D03*
X27940000Y-58420000D03*
X25400000Y-58420000D03*
X38100000Y-66040000D03*
X35560000Y-66040000D03*
X33020000Y-66040000D03*
X30480000Y-66040000D03*
X27940000Y-66040000D03*
X25400000Y-66040000D03*
X25400000Y-68580000D03*
X27940000Y-68580000D03*
X30480000Y-68580000D03*
X33020000Y-68580000D03*
X35560000Y-68580000D03*
X38100000Y-68580000D03*
X38100000Y-71120000D03*
X35560000Y-71120000D03*
X33020000Y-71120000D03*
X30480000Y-71120000D03*
X27940000Y-71120000D03*
X25400000Y-71120000D03*
X10160000Y-33020000D03*
X45720000Y-38100000D03*
X45720000Y-35560000D03*
X45720000Y-30480000D03*
X45720000Y-33020000D03*
X43180000Y-33020000D03*
X43180000Y-35560000D03*
X27940000Y-25400000D03*
X30480000Y-25400000D03*
X33020000Y-25400000D03*
X33020000Y-22860000D03*
X22860000Y-40640000D03*
X25400000Y-40640000D03*
X22860000Y-38100000D03*
X17780000Y-5080000D03*
X15240000Y-5080000D03*
X12700000Y-5080000D03*
X10160000Y-5080000D03*
X5080000Y-10160000D03*
X5080000Y-12700000D03*
X5080000Y-15240000D03*
X7620000Y-15240000D03*
X7620000Y-12700000D03*
X7620000Y-10160000D03*
X33020000Y-15240000D03*
X40640000Y-15240000D03*
X40640000Y-17780000D03*
X38100000Y-17780000D03*
X35560000Y-17780000D03*
X33020000Y-17780000D03*
X30480000Y-17780000D03*
X40640000Y-5080000D03*
X38100000Y-5080000D03*
X35560000Y-5080000D03*
X33020000Y-5080000D03*
X30480000Y-7620000D03*
X33020000Y-7620000D03*
X35560000Y-7620000D03*
X38100000Y-7620000D03*
X40640000Y-7620000D03*
X40640000Y-10160000D03*
X38100000Y-10160000D03*
X35560000Y-10160000D03*
X33020000Y-10160000D03*
X30480000Y-10160000D03*
X32512000Y-54864000D03*
X18796000Y-50292000D03*
X32385000Y-56515000D03*
X17145000Y-50800000D03*
X9525000Y-53340000D03*
D20*
X30480000Y-10160000D02*
X18415000Y-10160000D01*
X15240000Y-10795000D02*
X15240000Y-12700000D01*
X18415000Y-10160000D02*
X17780000Y-10795000D01*
X13335000Y-34290000D02*
X16510000Y-37465000D01*
X10160000Y-93980000D02*
X7620000Y-91440000D01*
X5080000Y-86360000D02*
X5080000Y-88900000D01*
X5080000Y-81280000D02*
X5080000Y-83820000D01*
X7620000Y-83820000D02*
X7620000Y-81280000D01*
X7620000Y-88900000D02*
X7620000Y-86360000D01*
X22250000Y-93000000D02*
X18760000Y-93000000D01*
X12700000Y-96520000D02*
X15240000Y-96520000D01*
X10160000Y-93980000D02*
X10160000Y-96520000D01*
X15240000Y-93980000D02*
X12700000Y-93980000D01*
X18760000Y-93000000D02*
X17780000Y-93980000D01*
X27750000Y-93000000D02*
X29500000Y-93000000D01*
X35560000Y-91440000D02*
X38100000Y-91440000D01*
X33020000Y-93980000D02*
X33020000Y-91440000D01*
X38100000Y-93980000D02*
X35560000Y-93980000D01*
X35560000Y-96520000D02*
X38100000Y-96520000D01*
X29500000Y-93000000D02*
X33020000Y-96520000D01*
X30480000Y-71120000D02*
X30480000Y-78740000D01*
X45720000Y-86360000D02*
X45720000Y-88900000D01*
X40640000Y-83820000D02*
X43180000Y-86360000D01*
X45720000Y-83820000D02*
X43180000Y-83820000D01*
X43180000Y-81280000D02*
X45720000Y-81280000D01*
X38100000Y-81280000D02*
X40640000Y-81280000D01*
X40640000Y-78740000D02*
X38100000Y-78740000D01*
X43180000Y-76200000D02*
X43180000Y-78740000D01*
X38100000Y-76200000D02*
X40640000Y-76200000D01*
X33020000Y-76200000D02*
X35560000Y-76200000D01*
X35560000Y-78740000D02*
X33020000Y-78740000D01*
X7620000Y-40640000D02*
X10160000Y-40640000D01*
X10160000Y-40640000D02*
X10160000Y-45720000D01*
X22860000Y-40640000D02*
X22860000Y-43180000D01*
X25400000Y-48260000D02*
X25400000Y-45720000D01*
X22860000Y-50800000D02*
X25400000Y-50800000D01*
X22860000Y-45720000D02*
X22860000Y-48260000D01*
X39330000Y-62230000D02*
X41910000Y-62230000D01*
X41910000Y-62230000D02*
X43180000Y-60960000D01*
X25400000Y-58420000D02*
X27940000Y-58420000D01*
X15200000Y-67945000D02*
X22225000Y-67945000D01*
X33020000Y-66040000D02*
X35560000Y-66040000D01*
X27940000Y-66040000D02*
X30480000Y-66040000D01*
X25400000Y-68580000D02*
X25400000Y-66040000D01*
X30480000Y-68580000D02*
X27940000Y-68580000D01*
X35560000Y-68580000D02*
X33020000Y-68580000D01*
X38100000Y-71120000D02*
X38100000Y-68580000D01*
X33020000Y-71120000D02*
X35560000Y-71120000D01*
X27940000Y-71120000D02*
X30480000Y-71120000D01*
X22225000Y-67945000D02*
X25400000Y-71120000D01*
X38100000Y-66040000D02*
X38100000Y-63500000D01*
X38100000Y-63500000D02*
X38100000Y-66040000D01*
X7620000Y-34250000D02*
X8930000Y-34250000D01*
X8930000Y-34250000D02*
X10160000Y-33020000D01*
X39370000Y-36195000D02*
X42545000Y-36195000D01*
X45720000Y-30480000D02*
X45720000Y-35560000D01*
X43180000Y-33020000D02*
X45720000Y-33020000D01*
X42545000Y-36195000D02*
X43180000Y-35560000D01*
X29210000Y-13335000D02*
X29210000Y-16510000D01*
X29210000Y-16510000D02*
X33020000Y-20320000D01*
X33020000Y-25400000D02*
X30480000Y-25400000D01*
X33020000Y-20320000D02*
X33020000Y-22860000D01*
X22860000Y-40640000D02*
X25400000Y-40640000D01*
X17780000Y-5080000D02*
X15240000Y-5080000D01*
X12700000Y-5080000D02*
X10160000Y-5080000D01*
X5080000Y-12700000D02*
X5080000Y-10160000D01*
X7620000Y-15240000D02*
X5080000Y-15240000D01*
X7620000Y-10160000D02*
X7620000Y-12700000D01*
X40640000Y-15240000D02*
X33020000Y-15240000D01*
X38100000Y-17780000D02*
X40640000Y-17780000D01*
X33020000Y-17780000D02*
X35560000Y-17780000D01*
X29210000Y-16510000D02*
X30480000Y-17780000D01*
X29210000Y-13335000D02*
X29210000Y-11430000D01*
X35560000Y-5080000D02*
X38100000Y-5080000D01*
X30480000Y-5080000D02*
X33020000Y-5080000D01*
X30480000Y-7620000D02*
X30480000Y-5080000D01*
X35560000Y-7620000D02*
X33020000Y-7620000D01*
X40640000Y-7620000D02*
X38100000Y-7620000D01*
X38100000Y-10160000D02*
X40640000Y-10160000D01*
X33020000Y-10160000D02*
X35560000Y-10160000D01*
X29210000Y-11430000D02*
X30480000Y-10160000D01*
D21*
X20955000Y-36830000D02*
X19050000Y-36830000D01*
X14605000Y-13970000D02*
X10160000Y-13970000D01*
X15875000Y-15240000D02*
X14605000Y-13970000D01*
X15875000Y-33655000D02*
X15875000Y-15240000D01*
X19050000Y-36830000D02*
X15875000Y-33655000D01*
X12700000Y-60960000D02*
X14605000Y-59055000D01*
X14605000Y-59055000D02*
X20320000Y-59055000D01*
X20320000Y-59055000D02*
X23495000Y-62230000D01*
X23495000Y-62230000D02*
X34330000Y-62230000D01*
X5080000Y-26035000D02*
X6985000Y-26035000D01*
X10160000Y-22860000D02*
X10160000Y-13970000D01*
X10160000Y-13970000D02*
X10160000Y-11430000D01*
X6985000Y-26035000D02*
X10160000Y-22860000D01*
X4445000Y-56515000D02*
X8255000Y-56515000D01*
X12700000Y-65445000D02*
X10200000Y-67945000D01*
X12700000Y-60960000D02*
X12700000Y-65445000D01*
X8255000Y-56515000D02*
X12700000Y-60960000D01*
D20*
X4445000Y-51435000D02*
X9525000Y-51435000D01*
X35560000Y-34925000D02*
X31750000Y-31115000D01*
X35560000Y-50800000D02*
X35560000Y-34925000D01*
X33020000Y-53340000D02*
X35560000Y-50800000D01*
X11430000Y-53340000D02*
X33020000Y-53340000D01*
X9525000Y-51435000D02*
X11430000Y-53340000D01*
X31750000Y-33655000D02*
X32385000Y-33655000D01*
X32385000Y-33655000D02*
X34290000Y-35560000D01*
X9525000Y-48895000D02*
X4445000Y-48895000D01*
X12700000Y-52070000D02*
X9525000Y-48895000D01*
X31750000Y-52070000D02*
X12700000Y-52070000D01*
X34290000Y-49530000D02*
X31750000Y-52070000D01*
X34290000Y-35560000D02*
X34290000Y-49530000D01*
D21*
X8890000Y-76835000D02*
X10795000Y-76835000D01*
X27940000Y-77470000D02*
X27940000Y-80010000D01*
X26670000Y-76200000D02*
X27940000Y-77470000D01*
X20320000Y-76200000D02*
X26670000Y-76200000D01*
X19050000Y-77470000D02*
X20320000Y-76200000D01*
X19050000Y-81280000D02*
X19050000Y-77470000D01*
X17780000Y-82550000D02*
X19050000Y-81280000D01*
X15240000Y-82550000D02*
X17780000Y-82550000D01*
X12700000Y-80010000D02*
X15240000Y-82550000D01*
X12700000Y-78740000D02*
X12700000Y-80010000D01*
X10795000Y-76835000D02*
X12700000Y-78740000D01*
D20*
X13335000Y-41910000D02*
X16510000Y-41910000D01*
X39370000Y-52578000D02*
X39370000Y-48895000D01*
X37084000Y-54864000D02*
X39370000Y-52578000D01*
X32512000Y-54864000D02*
X37084000Y-54864000D01*
X18796000Y-50153998D02*
X18796000Y-50292000D01*
X18796000Y-44196000D02*
X18796000Y-50153998D01*
X16510000Y-41910000D02*
X18796000Y-44196000D01*
X13335000Y-44450000D02*
X15240000Y-44450000D01*
X40640000Y-46355000D02*
X39370000Y-46355000D01*
X41910000Y-47625000D02*
X40640000Y-46355000D01*
X41910000Y-53340000D02*
X41910000Y-47625000D01*
X38735000Y-56515000D02*
X41910000Y-53340000D01*
X32385000Y-56515000D02*
X38735000Y-56515000D01*
X17145000Y-46355000D02*
X17145000Y-50800000D01*
X15240000Y-44450000D02*
X17145000Y-46355000D01*
X41910000Y-43815000D02*
X39370000Y-43815000D01*
X43815000Y-45720000D02*
X41910000Y-43815000D01*
X43815000Y-53975000D02*
X43815000Y-45720000D01*
X39370000Y-58420000D02*
X43815000Y-53975000D01*
X31750000Y-58420000D02*
X39370000Y-58420000D01*
X27940000Y-54610000D02*
X31750000Y-58420000D01*
X10795000Y-54610000D02*
X27940000Y-54610000D01*
X9525000Y-53340000D02*
X10795000Y-54610000D01*
X20955000Y-29210000D02*
X22860000Y-29210000D01*
X25400000Y-38100000D02*
X31115000Y-43815000D01*
X25400000Y-31750000D02*
X25400000Y-38100000D01*
X22860000Y-29210000D02*
X25400000Y-31750000D01*
X31115000Y-43815000D02*
X31750000Y-43815000D01*
X20955000Y-26670000D02*
X22860000Y-26670000D01*
X26670000Y-36830000D02*
X31115000Y-41275000D01*
X26670000Y-30480000D02*
X26670000Y-36830000D01*
X22860000Y-26670000D02*
X26670000Y-30480000D01*
X31115000Y-41275000D02*
X31750000Y-41275000D01*
D21*
X39370000Y-33655000D02*
X38735000Y-33655000D01*
X38735000Y-33655000D02*
X36830000Y-31750000D01*
X36830000Y-31750000D02*
X36830000Y-20955000D01*
D22*
G36*
X41920194Y-2938249D02*
X41365632Y-4273782D01*
X41364370Y-5719874D01*
X41916600Y-7056372D01*
X42938249Y-8079806D01*
X44273782Y-8634368D01*
X45719874Y-8635630D01*
X47056372Y-8083400D01*
X47873000Y-7268196D01*
X47873000Y-92732860D01*
X47061751Y-91920194D01*
X45726218Y-91365632D01*
X44280126Y-91364370D01*
X42943628Y-91916600D01*
X41920194Y-92938249D01*
X41365632Y-94273782D01*
X41364370Y-95719874D01*
X41916600Y-97056372D01*
X42731804Y-97873000D01*
X7267140Y-97873000D01*
X8079806Y-97061751D01*
X8634368Y-95726218D01*
X8635552Y-94369459D01*
X21060146Y-94369459D01*
X21195504Y-94667455D01*
X21913880Y-94944066D01*
X22683427Y-94924710D01*
X23304496Y-94667455D01*
X23439854Y-94369459D01*
X26560146Y-94369459D01*
X26695504Y-94667455D01*
X27413880Y-94944066D01*
X28183427Y-94924710D01*
X28804496Y-94667455D01*
X28939854Y-94369459D01*
X27750000Y-93179605D01*
X26560146Y-94369459D01*
X23439854Y-94369459D01*
X22250000Y-93179605D01*
X21060146Y-94369459D01*
X8635552Y-94369459D01*
X8635630Y-94280126D01*
X8083400Y-92943628D01*
X7804140Y-92663880D01*
X20305934Y-92663880D01*
X20325290Y-93433427D01*
X20582545Y-94054496D01*
X20880541Y-94189854D01*
X22070395Y-93000000D01*
X22429605Y-93000000D01*
X23619459Y-94189854D01*
X23917455Y-94054496D01*
X24194066Y-93336120D01*
X24177158Y-92663880D01*
X25805934Y-92663880D01*
X25825290Y-93433427D01*
X26082545Y-94054496D01*
X26380541Y-94189854D01*
X27570395Y-93000000D01*
X27929605Y-93000000D01*
X29119459Y-94189854D01*
X29417455Y-94054496D01*
X29694066Y-93336120D01*
X29674710Y-92566573D01*
X29417455Y-91945504D01*
X29119459Y-91810146D01*
X27929605Y-93000000D01*
X27570395Y-93000000D01*
X26380541Y-91810146D01*
X26082545Y-91945504D01*
X25805934Y-92663880D01*
X24177158Y-92663880D01*
X24174710Y-92566573D01*
X23917455Y-91945504D01*
X23619459Y-91810146D01*
X22429605Y-93000000D01*
X22070395Y-93000000D01*
X20880541Y-91810146D01*
X20582545Y-91945504D01*
X20305934Y-92663880D01*
X7804140Y-92663880D01*
X7061751Y-91920194D01*
X6364190Y-91630541D01*
X21060146Y-91630541D01*
X22250000Y-92820395D01*
X23439854Y-91630541D01*
X26560146Y-91630541D01*
X27750000Y-92820395D01*
X28939854Y-91630541D01*
X28804496Y-91332545D01*
X28086120Y-91055934D01*
X27316573Y-91075290D01*
X26695504Y-91332545D01*
X26560146Y-91630541D01*
X23439854Y-91630541D01*
X23304496Y-91332545D01*
X22586120Y-91055934D01*
X21816573Y-91075290D01*
X21195504Y-91332545D01*
X21060146Y-91630541D01*
X6364190Y-91630541D01*
X5726218Y-91365632D01*
X4280126Y-91364370D01*
X2943628Y-91916600D01*
X2127000Y-92731804D01*
X2127000Y-87953795D01*
X9949716Y-87953795D01*
X10198106Y-88554943D01*
X10657637Y-89015278D01*
X11258352Y-89264716D01*
X11908795Y-89265284D01*
X12509943Y-89016894D01*
X12970278Y-88557363D01*
X13219716Y-87956648D01*
X13219718Y-87953795D01*
X13449716Y-87953795D01*
X13698106Y-88554943D01*
X14157637Y-89015278D01*
X14758352Y-89264716D01*
X15408795Y-89265284D01*
X16009943Y-89016894D01*
X16470278Y-88557363D01*
X16719716Y-87956648D01*
X16719780Y-87883207D01*
X20864665Y-87883207D01*
X21158630Y-88594658D01*
X21702479Y-89139457D01*
X22413416Y-89434663D01*
X23183207Y-89435335D01*
X23894658Y-89141370D01*
X24439457Y-88597521D01*
X24734663Y-87886584D01*
X24734665Y-87883207D01*
X25264665Y-87883207D01*
X25558630Y-88594658D01*
X26102479Y-89139457D01*
X26813416Y-89434663D01*
X27583207Y-89435335D01*
X28294658Y-89141370D01*
X28839457Y-88597521D01*
X29106754Y-87953795D01*
X33444716Y-87953795D01*
X33693106Y-88554943D01*
X34152637Y-89015278D01*
X34753352Y-89264716D01*
X35403795Y-89265284D01*
X36004943Y-89016894D01*
X36465278Y-88557363D01*
X36714716Y-87956648D01*
X36714718Y-87953795D01*
X36944716Y-87953795D01*
X37193106Y-88554943D01*
X37652637Y-89015278D01*
X38253352Y-89264716D01*
X38903795Y-89265284D01*
X39504943Y-89016894D01*
X39965278Y-88557363D01*
X40214716Y-87956648D01*
X40215284Y-87306205D01*
X39966894Y-86705057D01*
X39507363Y-86244722D01*
X38906648Y-85995284D01*
X38256205Y-85994716D01*
X37655057Y-86243106D01*
X37194722Y-86702637D01*
X36945284Y-87303352D01*
X36944716Y-87953795D01*
X36714718Y-87953795D01*
X36715284Y-87306205D01*
X36466894Y-86705057D01*
X36007363Y-86244722D01*
X35406648Y-85995284D01*
X34756205Y-85994716D01*
X34155057Y-86243106D01*
X33694722Y-86702637D01*
X33445284Y-87303352D01*
X33444716Y-87953795D01*
X29106754Y-87953795D01*
X29134663Y-87886584D01*
X29135335Y-87116793D01*
X28841370Y-86405342D01*
X28297521Y-85860543D01*
X27586584Y-85565337D01*
X26816793Y-85564665D01*
X26105342Y-85858630D01*
X25560543Y-86402479D01*
X25265337Y-87113416D01*
X25264665Y-87883207D01*
X24734665Y-87883207D01*
X24735335Y-87116793D01*
X24441370Y-86405342D01*
X23897521Y-85860543D01*
X23186584Y-85565337D01*
X22416793Y-85564665D01*
X21705342Y-85858630D01*
X21160543Y-86402479D01*
X20865337Y-87113416D01*
X20864665Y-87883207D01*
X16719780Y-87883207D01*
X16720284Y-87306205D01*
X16471894Y-86705057D01*
X16012363Y-86244722D01*
X15411648Y-85995284D01*
X14761205Y-85994716D01*
X14160057Y-86243106D01*
X13699722Y-86702637D01*
X13450284Y-87303352D01*
X13449716Y-87953795D01*
X13219718Y-87953795D01*
X13220284Y-87306205D01*
X12971894Y-86705057D01*
X12512363Y-86244722D01*
X11911648Y-85995284D01*
X11261205Y-85994716D01*
X10660057Y-86243106D01*
X10199722Y-86702637D01*
X9950284Y-87303352D01*
X9949716Y-87953795D01*
X2127000Y-87953795D01*
X2127000Y-72058991D01*
X7354735Y-72058991D01*
X7587932Y-72623371D01*
X7989182Y-73025323D01*
X7589449Y-73424357D01*
X7355267Y-73988330D01*
X7354735Y-74598991D01*
X7587932Y-75163371D01*
X7989182Y-75565323D01*
X7589449Y-75964357D01*
X7355267Y-76528330D01*
X7354735Y-77138991D01*
X7587932Y-77703371D01*
X7989182Y-78105323D01*
X7589449Y-78504357D01*
X7355267Y-79068330D01*
X7354735Y-79678991D01*
X7587932Y-80243371D01*
X8019357Y-80675551D01*
X8583330Y-80909733D01*
X9193991Y-80910265D01*
X9758371Y-80677068D01*
X10190551Y-80245643D01*
X10424733Y-79681670D01*
X10425265Y-79071009D01*
X10192068Y-78506629D01*
X9905940Y-78220000D01*
X10221314Y-78220000D01*
X11315000Y-79313686D01*
X11315000Y-80010000D01*
X11420427Y-80540017D01*
X11667463Y-80909733D01*
X11720657Y-80989343D01*
X14260657Y-83529343D01*
X14709983Y-83829573D01*
X15240000Y-83935000D01*
X17780000Y-83935000D01*
X18310017Y-83829573D01*
X18759343Y-83529343D01*
X20029343Y-82259343D01*
X20329573Y-81810017D01*
X20381293Y-81550000D01*
X20577560Y-81550000D01*
X20577560Y-83550000D01*
X20621838Y-83785317D01*
X20760910Y-84001441D01*
X20973110Y-84146431D01*
X21225000Y-84197440D01*
X23225000Y-84197440D01*
X23460317Y-84153162D01*
X23676441Y-84014090D01*
X23821431Y-83801890D01*
X23872440Y-83550000D01*
X23872440Y-81550000D01*
X23828162Y-81314683D01*
X23689090Y-81098559D01*
X23546439Y-81001090D01*
X23610278Y-80937363D01*
X23859716Y-80336648D01*
X23860284Y-79686205D01*
X23611894Y-79085057D01*
X23152363Y-78624722D01*
X22551648Y-78375284D01*
X21901205Y-78374716D01*
X21300057Y-78623106D01*
X20839722Y-79082637D01*
X20590284Y-79683352D01*
X20589716Y-80333795D01*
X20838106Y-80934943D01*
X20904621Y-81001574D01*
X20773559Y-81085910D01*
X20628569Y-81298110D01*
X20577560Y-81550000D01*
X20381293Y-81550000D01*
X20435000Y-81280000D01*
X20435000Y-78043686D01*
X20893686Y-77585000D01*
X26096314Y-77585000D01*
X26555000Y-78043686D01*
X26555000Y-79082359D01*
X26554722Y-79082637D01*
X26305284Y-79683352D01*
X26304716Y-80333795D01*
X26553106Y-80934943D01*
X26619621Y-81001574D01*
X26488559Y-81085910D01*
X26343569Y-81298110D01*
X26292560Y-81550000D01*
X26292560Y-83550000D01*
X26336838Y-83785317D01*
X26475910Y-84001441D01*
X26688110Y-84146431D01*
X26940000Y-84197440D01*
X28940000Y-84197440D01*
X29175317Y-84153162D01*
X29391441Y-84014090D01*
X29536431Y-83801890D01*
X29587440Y-83550000D01*
X29587440Y-81550000D01*
X29543162Y-81314683D01*
X29404090Y-81098559D01*
X29261439Y-81001090D01*
X29325278Y-80937363D01*
X29574716Y-80336648D01*
X29575284Y-79686205D01*
X29326894Y-79085057D01*
X29325000Y-79083160D01*
X29325000Y-77842745D01*
X44256861Y-77842745D01*
X44330995Y-78088864D01*
X44868223Y-78281965D01*
X45438454Y-78254778D01*
X45839005Y-78088864D01*
X45913139Y-77842745D01*
X45085000Y-77014605D01*
X44256861Y-77842745D01*
X29325000Y-77842745D01*
X29325000Y-77470000D01*
X29219573Y-76939983D01*
X29004580Y-76618223D01*
X43638035Y-76618223D01*
X43665222Y-77188454D01*
X43831136Y-77589005D01*
X44077255Y-77663139D01*
X44905395Y-76835000D01*
X45264605Y-76835000D01*
X46092745Y-77663139D01*
X46338864Y-77589005D01*
X46531965Y-77051777D01*
X46504778Y-76481546D01*
X46338864Y-76080995D01*
X46092745Y-76006861D01*
X45264605Y-76835000D01*
X44905395Y-76835000D01*
X44077255Y-76006861D01*
X43831136Y-76080995D01*
X43638035Y-76618223D01*
X29004580Y-76618223D01*
X28919343Y-76490657D01*
X27649343Y-75220657D01*
X27478944Y-75106800D01*
X27200017Y-74920427D01*
X26670000Y-74815000D01*
X20320000Y-74815000D01*
X19789983Y-74920427D01*
X19511056Y-75106800D01*
X19340657Y-75220657D01*
X18070657Y-76490657D01*
X18044665Y-76529557D01*
X17812068Y-75966629D01*
X17410818Y-75564677D01*
X17810551Y-75165643D01*
X18044733Y-74601670D01*
X18045265Y-73991009D01*
X17812068Y-73426629D01*
X17380643Y-72994449D01*
X17359806Y-72985797D01*
X17410554Y-72835159D01*
X16510000Y-71934605D01*
X15609446Y-72835159D01*
X15660035Y-72985327D01*
X15641629Y-72992932D01*
X15209449Y-73424357D01*
X14975267Y-73988330D01*
X14974735Y-74598991D01*
X15207932Y-75163371D01*
X15609182Y-75565323D01*
X15209449Y-75964357D01*
X14975267Y-76528330D01*
X14974735Y-77138991D01*
X15207932Y-77703371D01*
X15375880Y-77871613D01*
X15374683Y-77871838D01*
X15158559Y-78010910D01*
X15013569Y-78223110D01*
X14962560Y-78475000D01*
X14962560Y-80275000D01*
X14971570Y-80322884D01*
X14085000Y-79436314D01*
X14085000Y-78740000D01*
X13979573Y-78209983D01*
X13679343Y-77760657D01*
X11774343Y-75855657D01*
X11586655Y-75730248D01*
X11325017Y-75555427D01*
X10795000Y-75450000D01*
X9905696Y-75450000D01*
X10190551Y-75165643D01*
X10424733Y-74601670D01*
X10425265Y-73991009D01*
X10192068Y-73426629D01*
X9790818Y-73024677D01*
X10190551Y-72625643D01*
X10424733Y-72061670D01*
X10425209Y-71514336D01*
X14963542Y-71514336D01*
X14989161Y-72124460D01*
X15173357Y-72569148D01*
X15429841Y-72655554D01*
X16330395Y-71755000D01*
X16689605Y-71755000D01*
X17590159Y-72655554D01*
X17846643Y-72569148D01*
X18040534Y-72039187D01*
X43649752Y-72039187D01*
X43867757Y-72566800D01*
X44271077Y-72970824D01*
X44401215Y-73024862D01*
X44273200Y-73077757D01*
X43869176Y-73481077D01*
X43650250Y-74008309D01*
X43649752Y-74579187D01*
X43867757Y-75106800D01*
X44271077Y-75510824D01*
X44385768Y-75558448D01*
X44330995Y-75581136D01*
X44256861Y-75827255D01*
X45085000Y-76655395D01*
X45913139Y-75827255D01*
X45839005Y-75581136D01*
X45780746Y-75560195D01*
X45896800Y-75512243D01*
X46300824Y-75108923D01*
X46519750Y-74581691D01*
X46520248Y-74010813D01*
X46302243Y-73483200D01*
X45898923Y-73079176D01*
X45768785Y-73025138D01*
X45896800Y-72972243D01*
X46300824Y-72568923D01*
X46519750Y-72041691D01*
X46520248Y-71470813D01*
X46302243Y-70943200D01*
X45898923Y-70539176D01*
X45371691Y-70320250D01*
X44800813Y-70319752D01*
X44273200Y-70537757D01*
X43869176Y-70941077D01*
X43650250Y-71468309D01*
X43649752Y-72039187D01*
X18040534Y-72039187D01*
X18056458Y-71995664D01*
X18030839Y-71385540D01*
X17846643Y-70940852D01*
X17590159Y-70854446D01*
X16689605Y-71755000D01*
X16330395Y-71755000D01*
X15429841Y-70854446D01*
X15173357Y-70940852D01*
X14963542Y-71514336D01*
X10425209Y-71514336D01*
X10425265Y-71451009D01*
X10192068Y-70886629D01*
X9980650Y-70674841D01*
X15609446Y-70674841D01*
X16510000Y-71575395D01*
X17410554Y-70674841D01*
X17324148Y-70418357D01*
X16750664Y-70208542D01*
X16140540Y-70234161D01*
X15695852Y-70418357D01*
X15609446Y-70674841D01*
X9980650Y-70674841D01*
X9760643Y-70454449D01*
X9196670Y-70220267D01*
X8586009Y-70219735D01*
X8021629Y-70452932D01*
X7589449Y-70884357D01*
X7355267Y-71448330D01*
X7354735Y-72058991D01*
X2127000Y-72058991D01*
X2127000Y-63135000D01*
X7242560Y-63135000D01*
X7242560Y-65135000D01*
X7286838Y-65370317D01*
X7425910Y-65586441D01*
X7638110Y-65731431D01*
X7890000Y-65782440D01*
X9890000Y-65782440D01*
X10125317Y-65738162D01*
X10341441Y-65599090D01*
X10486431Y-65386890D01*
X10537440Y-65135000D01*
X10537440Y-63135000D01*
X10493162Y-62899683D01*
X10354090Y-62683559D01*
X10211439Y-62586090D01*
X10275278Y-62522363D01*
X10524716Y-61921648D01*
X10525284Y-61271205D01*
X10276894Y-60670057D01*
X9817363Y-60209722D01*
X9216648Y-59960284D01*
X8566205Y-59959716D01*
X7965057Y-60208106D01*
X7504722Y-60667637D01*
X7255284Y-61268352D01*
X7254716Y-61918795D01*
X7503106Y-62519943D01*
X7569621Y-62586574D01*
X7438559Y-62670910D01*
X7293569Y-62883110D01*
X7242560Y-63135000D01*
X2127000Y-63135000D01*
X2127000Y-58055000D01*
X2797560Y-58055000D01*
X2797560Y-60055000D01*
X2841838Y-60290317D01*
X2980910Y-60506441D01*
X3193110Y-60651431D01*
X3445000Y-60702440D01*
X5445000Y-60702440D01*
X5680317Y-60658162D01*
X5896441Y-60519090D01*
X6041431Y-60306890D01*
X6092440Y-60055000D01*
X6092440Y-58055000D01*
X6063275Y-57900000D01*
X7681314Y-57900000D01*
X11315000Y-61533686D01*
X11315000Y-64871314D01*
X9508098Y-66678216D01*
X9388200Y-66727757D01*
X8984176Y-67131077D01*
X8765250Y-67658309D01*
X8764752Y-68229187D01*
X8982757Y-68756800D01*
X9386077Y-69160824D01*
X9913309Y-69379750D01*
X10484187Y-69380248D01*
X11011800Y-69162243D01*
X11221663Y-68952745D01*
X14371861Y-68952745D01*
X14445995Y-69198864D01*
X14983223Y-69391965D01*
X15553454Y-69364778D01*
X15954005Y-69198864D01*
X16028139Y-68952745D01*
X15200000Y-68124605D01*
X14371861Y-68952745D01*
X11221663Y-68952745D01*
X11415824Y-68758923D01*
X11466284Y-68637402D01*
X12375463Y-67728223D01*
X13753035Y-67728223D01*
X13780222Y-68298454D01*
X13946136Y-68699005D01*
X14192255Y-68773139D01*
X15020395Y-67945000D01*
X15379605Y-67945000D01*
X16207745Y-68773139D01*
X16453864Y-68699005D01*
X16646965Y-68161777D01*
X16619778Y-67591546D01*
X16453864Y-67190995D01*
X16207745Y-67116861D01*
X15379605Y-67945000D01*
X15020395Y-67945000D01*
X14192255Y-67116861D01*
X13946136Y-67190995D01*
X13753035Y-67728223D01*
X12375463Y-67728223D01*
X13166431Y-66937255D01*
X14371861Y-66937255D01*
X15200000Y-67765395D01*
X16028139Y-66937255D01*
X15954005Y-66691136D01*
X15416777Y-66498035D01*
X14846546Y-66525222D01*
X14445995Y-66691136D01*
X14371861Y-66937255D01*
X13166431Y-66937255D01*
X13679343Y-66424343D01*
X13742419Y-66329943D01*
X13979573Y-65975017D01*
X14085000Y-65445000D01*
X14085000Y-61533686D01*
X15178686Y-60440000D01*
X16622757Y-60440000D01*
X16394722Y-60667637D01*
X16145284Y-61268352D01*
X16144716Y-61918795D01*
X16393106Y-62519943D01*
X16459621Y-62586574D01*
X16328559Y-62670910D01*
X16183569Y-62883110D01*
X16132560Y-63135000D01*
X16132560Y-65135000D01*
X16176838Y-65370317D01*
X16315910Y-65586441D01*
X16528110Y-65731431D01*
X16780000Y-65782440D01*
X18780000Y-65782440D01*
X19015317Y-65738162D01*
X19231441Y-65599090D01*
X19376431Y-65386890D01*
X19427440Y-65135000D01*
X19427440Y-64405000D01*
X38992560Y-64405000D01*
X38992560Y-66405000D01*
X39036838Y-66640317D01*
X39175910Y-66856441D01*
X39388110Y-67001431D01*
X39640000Y-67052440D01*
X41640000Y-67052440D01*
X41875317Y-67008162D01*
X42091441Y-66869090D01*
X42188910Y-66726439D01*
X42252637Y-66790278D01*
X42853352Y-67039716D01*
X43503795Y-67040284D01*
X44104943Y-66791894D01*
X44565278Y-66332363D01*
X44814716Y-65731648D01*
X44815284Y-65081205D01*
X44566894Y-64480057D01*
X44107363Y-64019722D01*
X43506648Y-63770284D01*
X42856205Y-63769716D01*
X42255057Y-64018106D01*
X42188426Y-64084621D01*
X42104090Y-63953559D01*
X41891890Y-63808569D01*
X41640000Y-63757560D01*
X39640000Y-63757560D01*
X39404683Y-63801838D01*
X39188559Y-63940910D01*
X39043569Y-64153110D01*
X38992560Y-64405000D01*
X19427440Y-64405000D01*
X19427440Y-63135000D01*
X19383162Y-62899683D01*
X19244090Y-62683559D01*
X19101439Y-62586090D01*
X19165278Y-62522363D01*
X19414716Y-61921648D01*
X19415284Y-61271205D01*
X19166894Y-60670057D01*
X18937239Y-60440000D01*
X19746314Y-60440000D01*
X22515657Y-63209343D01*
X22964983Y-63509573D01*
X23495000Y-63615000D01*
X33923498Y-63615000D01*
X34043309Y-63664750D01*
X34614187Y-63665248D01*
X35141800Y-63447243D01*
X35351663Y-63237745D01*
X38501861Y-63237745D01*
X38575995Y-63483864D01*
X39113223Y-63676965D01*
X39683454Y-63649778D01*
X40084005Y-63483864D01*
X40158139Y-63237745D01*
X39330000Y-62409605D01*
X38501861Y-63237745D01*
X35351663Y-63237745D01*
X35545824Y-63043923D01*
X35764750Y-62516691D01*
X35765189Y-62013223D01*
X37883035Y-62013223D01*
X37910222Y-62583454D01*
X38076136Y-62984005D01*
X38322255Y-63058139D01*
X39150395Y-62230000D01*
X39509605Y-62230000D01*
X40337745Y-63058139D01*
X40583864Y-62984005D01*
X40776965Y-62446777D01*
X40749778Y-61876546D01*
X40583864Y-61475995D01*
X40337745Y-61401861D01*
X39509605Y-62230000D01*
X39150395Y-62230000D01*
X38322255Y-61401861D01*
X38076136Y-61475995D01*
X37883035Y-62013223D01*
X35765189Y-62013223D01*
X35765248Y-61945813D01*
X35547243Y-61418200D01*
X35351640Y-61222255D01*
X38501861Y-61222255D01*
X39330000Y-62050395D01*
X40158139Y-61222255D01*
X40084005Y-60976136D01*
X39546777Y-60783035D01*
X38976546Y-60810222D01*
X38575995Y-60976136D01*
X38501861Y-61222255D01*
X35351640Y-61222255D01*
X35143923Y-61014176D01*
X34616691Y-60795250D01*
X34045813Y-60794752D01*
X33924203Y-60845000D01*
X24068686Y-60845000D01*
X21299343Y-58075657D01*
X21268428Y-58055000D01*
X20850017Y-57775427D01*
X20320000Y-57670000D01*
X19158784Y-57670000D01*
X19203139Y-57522745D01*
X18375000Y-56694605D01*
X17546861Y-57522745D01*
X17591216Y-57670000D01*
X14605000Y-57670000D01*
X14089066Y-57772626D01*
X14186800Y-57732243D01*
X14590824Y-57328923D01*
X14809750Y-56801691D01*
X14810248Y-56230813D01*
X14592243Y-55703200D01*
X14534144Y-55645000D01*
X17325392Y-55645000D01*
X17367253Y-55686861D01*
X17121136Y-55760995D01*
X16928035Y-56298223D01*
X16955222Y-56868454D01*
X17121136Y-57269005D01*
X17367255Y-57343139D01*
X18195395Y-56515000D01*
X18181252Y-56500858D01*
X18360858Y-56321252D01*
X18375000Y-56335395D01*
X18389142Y-56321252D01*
X18568748Y-56500858D01*
X18554605Y-56515000D01*
X19382745Y-57343139D01*
X19628864Y-57269005D01*
X19821965Y-56731777D01*
X19794778Y-56161546D01*
X19628864Y-55760995D01*
X19382747Y-55686861D01*
X19424608Y-55645000D01*
X27511288Y-55645000D01*
X31018142Y-59151853D01*
X31018144Y-59151856D01*
X31353923Y-59376215D01*
X31750000Y-59455001D01*
X31750005Y-59455000D01*
X39369995Y-59455000D01*
X39370000Y-59455001D01*
X39766077Y-59376215D01*
X40101856Y-59151856D01*
X44546853Y-54706858D01*
X44546856Y-54706856D01*
X44706505Y-54467923D01*
X44771215Y-54371078D01*
X44850000Y-53975000D01*
X44850000Y-45720005D01*
X44850001Y-45720000D01*
X44771215Y-45323923D01*
X44656484Y-45152215D01*
X44546856Y-44988144D01*
X44546853Y-44988142D01*
X42641856Y-43083144D01*
X42306077Y-42858785D01*
X41910000Y-42779999D01*
X41909995Y-42780000D01*
X40505730Y-42780000D01*
X40270818Y-42544677D01*
X40670551Y-42145643D01*
X40904733Y-41581670D01*
X40905265Y-40971009D01*
X40672068Y-40406629D01*
X40270818Y-40004677D01*
X40670551Y-39605643D01*
X40904733Y-39041670D01*
X40905265Y-38431009D01*
X40672068Y-37866629D01*
X40240643Y-37434449D01*
X40219806Y-37425797D01*
X40270554Y-37275159D01*
X39370000Y-36374605D01*
X38469446Y-37275159D01*
X38520035Y-37425327D01*
X38501629Y-37432932D01*
X38069449Y-37864357D01*
X37835267Y-38428330D01*
X37834735Y-39038991D01*
X38067932Y-39603371D01*
X38469182Y-40005323D01*
X38069449Y-40404357D01*
X37835267Y-40968330D01*
X37834735Y-41578991D01*
X38067932Y-42143371D01*
X38469182Y-42545323D01*
X38069449Y-42944357D01*
X37835267Y-43508330D01*
X37834735Y-44118991D01*
X38067932Y-44683371D01*
X38469182Y-45085323D01*
X38069449Y-45484357D01*
X37835267Y-46048330D01*
X37834735Y-46658991D01*
X38067932Y-47223371D01*
X38235880Y-47391613D01*
X38234683Y-47391838D01*
X38018559Y-47530910D01*
X37873569Y-47743110D01*
X37822560Y-47995000D01*
X37822560Y-49795000D01*
X37866838Y-50030317D01*
X38005910Y-50246441D01*
X38218110Y-50391431D01*
X38335000Y-50415102D01*
X38335000Y-52149289D01*
X36655288Y-53829000D01*
X33994712Y-53829000D01*
X36291853Y-51531858D01*
X36291856Y-51531856D01*
X36495445Y-51227162D01*
X36516215Y-51196078D01*
X36595000Y-50800000D01*
X36595000Y-35954336D01*
X37823542Y-35954336D01*
X37849161Y-36564460D01*
X38033357Y-37009148D01*
X38289841Y-37095554D01*
X39190395Y-36195000D01*
X39549605Y-36195000D01*
X40450159Y-37095554D01*
X40706643Y-37009148D01*
X40916458Y-36435664D01*
X40890839Y-35825540D01*
X40706643Y-35380852D01*
X40450159Y-35294446D01*
X39549605Y-36195000D01*
X39190395Y-36195000D01*
X38289841Y-35294446D01*
X38033357Y-35380852D01*
X37823542Y-35954336D01*
X36595000Y-35954336D01*
X36595000Y-34925005D01*
X36595001Y-34925000D01*
X36516215Y-34528923D01*
X36476580Y-34469605D01*
X36291856Y-34193144D01*
X36291853Y-34193142D01*
X33284938Y-31186226D01*
X33285265Y-30811009D01*
X33052068Y-30246629D01*
X32650818Y-29844677D01*
X33050551Y-29445643D01*
X33284733Y-28881670D01*
X33285265Y-28271009D01*
X33052068Y-27706629D01*
X32620643Y-27274449D01*
X32056670Y-27040267D01*
X31446009Y-27039735D01*
X30881629Y-27272932D01*
X30449449Y-27704357D01*
X30215267Y-28268330D01*
X30214735Y-28878991D01*
X30447932Y-29443371D01*
X30849182Y-29845323D01*
X30449449Y-30244357D01*
X30215267Y-30808330D01*
X30214735Y-31418991D01*
X30447932Y-31983371D01*
X30849182Y-32385323D01*
X30449449Y-32784357D01*
X30215267Y-33348330D01*
X30214735Y-33958991D01*
X30447932Y-34523371D01*
X30849182Y-34925323D01*
X30449449Y-35324357D01*
X30215267Y-35888330D01*
X30214735Y-36498991D01*
X30447932Y-37063371D01*
X30849182Y-37465323D01*
X30449449Y-37864357D01*
X30215267Y-38428330D01*
X30214846Y-38911135D01*
X27705000Y-36401288D01*
X27705000Y-30480005D01*
X27705001Y-30480000D01*
X27626215Y-30083923D01*
X27622505Y-30078371D01*
X27401856Y-29748144D01*
X27401853Y-29748142D01*
X23591856Y-25938144D01*
X23256077Y-25713785D01*
X22860000Y-25634999D01*
X22859995Y-25635000D01*
X22090730Y-25635000D01*
X21855818Y-25399677D01*
X22255551Y-25000643D01*
X22489733Y-24436670D01*
X22490265Y-23826009D01*
X22257068Y-23261629D01*
X21855818Y-22859677D01*
X22255551Y-22460643D01*
X22489733Y-21896670D01*
X22490265Y-21286009D01*
X22470919Y-21239187D01*
X27774752Y-21239187D01*
X27992757Y-21766800D01*
X28396077Y-22170824D01*
X28923309Y-22389750D01*
X29494187Y-22390248D01*
X30021800Y-22172243D01*
X30425824Y-21768923D01*
X30644750Y-21241691D01*
X30644752Y-21239187D01*
X35394752Y-21239187D01*
X35445000Y-21360797D01*
X35445000Y-31750000D01*
X35550427Y-32280017D01*
X35778026Y-32620643D01*
X35850657Y-32729343D01*
X37755657Y-34634343D01*
X38204983Y-34934573D01*
X38509753Y-34995196D01*
X38469446Y-35114841D01*
X39370000Y-36015395D01*
X40270554Y-35114841D01*
X40219965Y-34964673D01*
X40238371Y-34957068D01*
X40670551Y-34525643D01*
X40904733Y-33961670D01*
X40905265Y-33351009D01*
X40672068Y-32786629D01*
X40270818Y-32384677D01*
X40670551Y-31985643D01*
X40904733Y-31421670D01*
X40905265Y-30811009D01*
X40672068Y-30246629D01*
X40270818Y-29844677D01*
X40670551Y-29445643D01*
X40904733Y-28881670D01*
X40905265Y-28271009D01*
X40672068Y-27706629D01*
X40240643Y-27274449D01*
X39676670Y-27040267D01*
X39066009Y-27039735D01*
X38501629Y-27272932D01*
X38215000Y-27559060D01*
X38215000Y-21361502D01*
X38264750Y-21241691D01*
X38264752Y-21239187D01*
X43014752Y-21239187D01*
X43232757Y-21766800D01*
X43636077Y-22170824D01*
X44163309Y-22389750D01*
X44734187Y-22390248D01*
X45261800Y-22172243D01*
X45665824Y-21768923D01*
X45884750Y-21241691D01*
X45885248Y-20670813D01*
X45667243Y-20143200D01*
X45263923Y-19739176D01*
X44736691Y-19520250D01*
X44165813Y-19519752D01*
X43638200Y-19737757D01*
X43234176Y-20141077D01*
X43015250Y-20668309D01*
X43014752Y-21239187D01*
X38264752Y-21239187D01*
X38265248Y-20670813D01*
X38047243Y-20143200D01*
X37643923Y-19739176D01*
X37116691Y-19520250D01*
X36545813Y-19519752D01*
X36018200Y-19737757D01*
X35614176Y-20141077D01*
X35395250Y-20668309D01*
X35394752Y-21239187D01*
X30644752Y-21239187D01*
X30645248Y-20670813D01*
X30427243Y-20143200D01*
X30023923Y-19739176D01*
X29496691Y-19520250D01*
X28925813Y-19519752D01*
X28398200Y-19737757D01*
X27994176Y-20141077D01*
X27775250Y-20668309D01*
X27774752Y-21239187D01*
X22470919Y-21239187D01*
X22257068Y-20721629D01*
X21855818Y-20319677D01*
X22255551Y-19920643D01*
X22489733Y-19356670D01*
X22490265Y-18746009D01*
X22257068Y-18181629D01*
X21855818Y-17779677D01*
X22255551Y-17380643D01*
X22489733Y-16816670D01*
X22490265Y-16206009D01*
X22257068Y-15641629D01*
X21825643Y-15209449D01*
X21261670Y-14975267D01*
X20651009Y-14974735D01*
X20086629Y-15207932D01*
X19654449Y-15639357D01*
X19420267Y-16203330D01*
X19419735Y-16813991D01*
X19652932Y-17378371D01*
X20054182Y-17780323D01*
X19654449Y-18179357D01*
X19420267Y-18743330D01*
X19419735Y-19353991D01*
X19652932Y-19918371D01*
X20054182Y-20320323D01*
X19654449Y-20719357D01*
X19420267Y-21283330D01*
X19419735Y-21893991D01*
X19652932Y-22458371D01*
X20054182Y-22860323D01*
X19654449Y-23259357D01*
X19420267Y-23823330D01*
X19419735Y-24433991D01*
X19652932Y-24998371D01*
X20054182Y-25400323D01*
X19654449Y-25799357D01*
X19420267Y-26363330D01*
X19419735Y-26973991D01*
X19652932Y-27538371D01*
X20054182Y-27940323D01*
X19654449Y-28339357D01*
X19420267Y-28903330D01*
X19419735Y-29513991D01*
X19652932Y-30078371D01*
X20054182Y-30480323D01*
X19654449Y-30879357D01*
X19420267Y-31443330D01*
X19419735Y-32053991D01*
X19652932Y-32618371D01*
X20054182Y-33020323D01*
X19654449Y-33419357D01*
X19420267Y-33983330D01*
X19419735Y-34593991D01*
X19652932Y-35158371D01*
X19939060Y-35445000D01*
X19623686Y-35445000D01*
X17260000Y-33081314D01*
X17260000Y-15240000D01*
X17154573Y-14709983D01*
X16909193Y-14342745D01*
X28381861Y-14342745D01*
X28455995Y-14588864D01*
X28993223Y-14781965D01*
X29563454Y-14754778D01*
X29964005Y-14588864D01*
X30038139Y-14342745D01*
X36001861Y-14342745D01*
X36075995Y-14588864D01*
X36613223Y-14781965D01*
X37183454Y-14754778D01*
X37584005Y-14588864D01*
X37658139Y-14342745D01*
X36830000Y-13514605D01*
X36001861Y-14342745D01*
X30038139Y-14342745D01*
X29210000Y-13514605D01*
X28381861Y-14342745D01*
X16909193Y-14342745D01*
X16854343Y-14260657D01*
X15711909Y-13118223D01*
X27763035Y-13118223D01*
X27790222Y-13688454D01*
X27956136Y-14089005D01*
X28202255Y-14163139D01*
X29030395Y-13335000D01*
X29389605Y-13335000D01*
X30217745Y-14163139D01*
X30463864Y-14089005D01*
X30656965Y-13551777D01*
X30636295Y-13118223D01*
X35383035Y-13118223D01*
X35410222Y-13688454D01*
X35576136Y-14089005D01*
X35822255Y-14163139D01*
X36650395Y-13335000D01*
X37009605Y-13335000D01*
X37837745Y-14163139D01*
X38083864Y-14089005D01*
X38276965Y-13551777D01*
X38249778Y-12981546D01*
X38083864Y-12580995D01*
X37931165Y-12535000D01*
X43002560Y-12535000D01*
X43002560Y-14135000D01*
X43046838Y-14370317D01*
X43185910Y-14586441D01*
X43398110Y-14731431D01*
X43650000Y-14782440D01*
X45250000Y-14782440D01*
X45485317Y-14738162D01*
X45701441Y-14599090D01*
X45846431Y-14386890D01*
X45897440Y-14135000D01*
X45897440Y-12535000D01*
X45853162Y-12299683D01*
X45714090Y-12083559D01*
X45501890Y-11938569D01*
X45250000Y-11887560D01*
X43650000Y-11887560D01*
X43414683Y-11931838D01*
X43198559Y-12070910D01*
X43053569Y-12283110D01*
X43002560Y-12535000D01*
X37931165Y-12535000D01*
X37837745Y-12506861D01*
X37009605Y-13335000D01*
X36650395Y-13335000D01*
X35822255Y-12506861D01*
X35576136Y-12580995D01*
X35383035Y-13118223D01*
X30636295Y-13118223D01*
X30629778Y-12981546D01*
X30463864Y-12580995D01*
X30217745Y-12506861D01*
X29389605Y-13335000D01*
X29030395Y-13335000D01*
X28202255Y-12506861D01*
X27956136Y-12580995D01*
X27763035Y-13118223D01*
X15711909Y-13118223D01*
X15584343Y-12990657D01*
X15439820Y-12894090D01*
X15135017Y-12690427D01*
X14605000Y-12585000D01*
X13857243Y-12585000D01*
X14085278Y-12357363D01*
X14097779Y-12327255D01*
X28381861Y-12327255D01*
X29210000Y-13155395D01*
X30038139Y-12327255D01*
X36001861Y-12327255D01*
X36830000Y-13155395D01*
X37658139Y-12327255D01*
X37584005Y-12081136D01*
X37046777Y-11888035D01*
X36476546Y-11915222D01*
X36075995Y-12081136D01*
X36001861Y-12327255D01*
X30038139Y-12327255D01*
X29964005Y-12081136D01*
X29426777Y-11888035D01*
X28856546Y-11915222D01*
X28455995Y-12081136D01*
X28381861Y-12327255D01*
X14097779Y-12327255D01*
X14334716Y-11756648D01*
X14335284Y-11106205D01*
X14086894Y-10505057D01*
X13627363Y-10044722D01*
X13026648Y-9795284D01*
X12376205Y-9794716D01*
X11775057Y-10043106D01*
X11708426Y-10109621D01*
X11624090Y-9978559D01*
X11411890Y-9833569D01*
X11160000Y-9782560D01*
X9160000Y-9782560D01*
X8924683Y-9826838D01*
X8708559Y-9965910D01*
X8563569Y-10178110D01*
X8512560Y-10430000D01*
X8512560Y-12430000D01*
X8556838Y-12665317D01*
X8695910Y-12881441D01*
X8775000Y-12935481D01*
X8775000Y-22286314D01*
X6727440Y-24333874D01*
X6727440Y-22495000D01*
X6683162Y-22259683D01*
X6544090Y-22043559D01*
X6331890Y-21898569D01*
X6080000Y-21847560D01*
X4080000Y-21847560D01*
X3844683Y-21891838D01*
X3628559Y-22030910D01*
X3483569Y-22243110D01*
X3432560Y-22495000D01*
X3432560Y-24495000D01*
X3476838Y-24730317D01*
X3615910Y-24946441D01*
X3758561Y-25043910D01*
X3694722Y-25107637D01*
X3445284Y-25708352D01*
X3444716Y-26358795D01*
X3693106Y-26959943D01*
X4152637Y-27420278D01*
X4753352Y-27669716D01*
X5403795Y-27670284D01*
X6004943Y-27421894D01*
X6006840Y-27420000D01*
X6985000Y-27420000D01*
X7515017Y-27314573D01*
X7964343Y-27014343D01*
X11139343Y-23839343D01*
X11150043Y-23823330D01*
X11439573Y-23390017D01*
X11545000Y-22860000D01*
X11545000Y-15355000D01*
X11840694Y-15355000D01*
X11838569Y-15358110D01*
X11787560Y-15610000D01*
X11787560Y-17410000D01*
X11831838Y-17645317D01*
X11970910Y-17861441D01*
X12183110Y-18006431D01*
X12203534Y-18010567D01*
X12034449Y-18179357D01*
X11800267Y-18743330D01*
X11799735Y-19353991D01*
X12032932Y-19918371D01*
X12434182Y-20320323D01*
X12034449Y-20719357D01*
X11800267Y-21283330D01*
X11799735Y-21893991D01*
X12032932Y-22458371D01*
X12434182Y-22860323D01*
X12034449Y-23259357D01*
X11800267Y-23823330D01*
X11799735Y-24433991D01*
X12032932Y-24998371D01*
X12434182Y-25400323D01*
X12034449Y-25799357D01*
X11800267Y-26363330D01*
X11799735Y-26973991D01*
X12032932Y-27538371D01*
X12434182Y-27940323D01*
X12034449Y-28339357D01*
X11800267Y-28903330D01*
X11799735Y-29513991D01*
X12032932Y-30078371D01*
X12434182Y-30480323D01*
X12034449Y-30879357D01*
X11800267Y-31443330D01*
X11799735Y-32053991D01*
X12032932Y-32618371D01*
X12464357Y-33050551D01*
X12485194Y-33059203D01*
X12434446Y-33209841D01*
X13335000Y-34110395D01*
X14235554Y-33209841D01*
X14184965Y-33059673D01*
X14203371Y-33052068D01*
X14490000Y-32765940D01*
X14490000Y-33414659D01*
X14415159Y-33389446D01*
X13514605Y-34290000D01*
X14415159Y-35190554D01*
X14671643Y-35104148D01*
X14861971Y-34583928D01*
X14895657Y-34634343D01*
X18070657Y-37809343D01*
X18519983Y-38109573D01*
X19050000Y-38215000D01*
X20079659Y-38215000D01*
X20054446Y-38289841D01*
X20955000Y-39190395D01*
X21855554Y-38289841D01*
X21804965Y-38139673D01*
X21823371Y-38132068D01*
X22255551Y-37700643D01*
X22489733Y-37136670D01*
X22490265Y-36526009D01*
X22257068Y-35961629D01*
X21855818Y-35559677D01*
X22255551Y-35160643D01*
X22489733Y-34596670D01*
X22490265Y-33986009D01*
X22257068Y-33421629D01*
X21855818Y-33019677D01*
X22255551Y-32620643D01*
X22489733Y-32056670D01*
X22490265Y-31446009D01*
X22257068Y-30881629D01*
X21855818Y-30479677D01*
X22090906Y-30245000D01*
X22431288Y-30245000D01*
X24365000Y-32178711D01*
X24365000Y-38099995D01*
X24364999Y-38100000D01*
X24443785Y-38496077D01*
X24668144Y-38831856D01*
X30383142Y-44546853D01*
X30383144Y-44546856D01*
X30394722Y-44554592D01*
X30447932Y-44683371D01*
X30849182Y-45085323D01*
X30449449Y-45484357D01*
X30215267Y-46048330D01*
X30214735Y-46658991D01*
X30447932Y-47223371D01*
X30849182Y-47625323D01*
X30449449Y-48024357D01*
X30215267Y-48588330D01*
X30214735Y-49198991D01*
X30447932Y-49763371D01*
X30879357Y-50195551D01*
X31443330Y-50429733D01*
X31926135Y-50430154D01*
X31321288Y-51035000D01*
X21332238Y-51035000D01*
X21823371Y-50832068D01*
X22255551Y-50400643D01*
X22489733Y-49836670D01*
X22490265Y-49226009D01*
X22257068Y-48661629D01*
X21855818Y-48259677D01*
X22255551Y-47860643D01*
X22489733Y-47296670D01*
X22490265Y-46686009D01*
X22257068Y-46121629D01*
X21855818Y-45719677D01*
X22255551Y-45320643D01*
X22489733Y-44756670D01*
X22490265Y-44146009D01*
X22257068Y-43581629D01*
X21855818Y-43179677D01*
X22255551Y-42780643D01*
X22489733Y-42216670D01*
X22490265Y-41606009D01*
X22257068Y-41041629D01*
X21825643Y-40609449D01*
X21804806Y-40600797D01*
X21855554Y-40450159D01*
X20955000Y-39549605D01*
X20054446Y-40450159D01*
X20105035Y-40600327D01*
X20086629Y-40607932D01*
X19654449Y-41039357D01*
X19420267Y-41603330D01*
X19419735Y-42213991D01*
X19652932Y-42778371D01*
X20054182Y-43180323D01*
X19654449Y-43579357D01*
X19635435Y-43625148D01*
X19604838Y-43579357D01*
X19527856Y-43464144D01*
X19527853Y-43464142D01*
X17241856Y-41178144D01*
X16906077Y-40953785D01*
X16510000Y-40874999D01*
X16509995Y-40875000D01*
X14470730Y-40875000D01*
X14235818Y-40639677D01*
X14635551Y-40240643D01*
X14869733Y-39676670D01*
X14870209Y-39129336D01*
X19408542Y-39129336D01*
X19434161Y-39739460D01*
X19618357Y-40184148D01*
X19874841Y-40270554D01*
X20775395Y-39370000D01*
X21134605Y-39370000D01*
X22035159Y-40270554D01*
X22291643Y-40184148D01*
X22501458Y-39610664D01*
X22475839Y-39000540D01*
X22291643Y-38555852D01*
X22035159Y-38469446D01*
X21134605Y-39370000D01*
X20775395Y-39370000D01*
X19874841Y-38469446D01*
X19618357Y-38555852D01*
X19408542Y-39129336D01*
X14870209Y-39129336D01*
X14870265Y-39066009D01*
X14637068Y-38501629D01*
X14235818Y-38099677D01*
X14635551Y-37700643D01*
X14869733Y-37136670D01*
X14870265Y-36526009D01*
X14637068Y-35961629D01*
X14205643Y-35529449D01*
X14184806Y-35520797D01*
X14235554Y-35370159D01*
X13335000Y-34469605D01*
X12434446Y-35370159D01*
X12485035Y-35520327D01*
X12466629Y-35527932D01*
X12034449Y-35959357D01*
X11800267Y-36523330D01*
X11799735Y-37133991D01*
X12032932Y-37698371D01*
X12434182Y-38100323D01*
X12034449Y-38499357D01*
X11800267Y-39063330D01*
X11799735Y-39673991D01*
X12032932Y-40238371D01*
X12434182Y-40640323D01*
X12034449Y-41039357D01*
X11800267Y-41603330D01*
X11799735Y-42213991D01*
X12032932Y-42778371D01*
X12434182Y-43180323D01*
X12034449Y-43579357D01*
X11800267Y-44143330D01*
X11799735Y-44753991D01*
X12032932Y-45318371D01*
X12434182Y-45720323D01*
X12034449Y-46119357D01*
X11800267Y-46683330D01*
X11799735Y-47293991D01*
X12032932Y-47858371D01*
X12434182Y-48260323D01*
X12034449Y-48659357D01*
X11800267Y-49223330D01*
X11799846Y-49706135D01*
X10256856Y-48163144D01*
X9921077Y-47938785D01*
X9525000Y-47859999D01*
X9524995Y-47860000D01*
X5722029Y-47860000D01*
X5487241Y-47624801D01*
X5830278Y-47282363D01*
X6079716Y-46681648D01*
X6080284Y-46031205D01*
X5831894Y-45430057D01*
X5372363Y-44969722D01*
X4771648Y-44720284D01*
X4121205Y-44719716D01*
X3520057Y-44968106D01*
X3059722Y-45427637D01*
X2810284Y-46028352D01*
X2809716Y-46678795D01*
X3058106Y-47279943D01*
X3402759Y-47625199D01*
X3059722Y-47967637D01*
X2810284Y-48568352D01*
X2809716Y-49218795D01*
X3058106Y-49819943D01*
X3402759Y-50165199D01*
X3059722Y-50507637D01*
X2810284Y-51108352D01*
X2809716Y-51758795D01*
X3058106Y-52359943D01*
X3484978Y-52787562D01*
X3472073Y-52822468D01*
X4445000Y-53795395D01*
X5417927Y-52822468D01*
X5404836Y-52787062D01*
X5722453Y-52470000D01*
X8999892Y-52470000D01*
X8793144Y-52608144D01*
X8568785Y-52943923D01*
X8489999Y-53340000D01*
X8568785Y-53736077D01*
X8793144Y-54071856D01*
X10063142Y-55341853D01*
X10063144Y-55341856D01*
X10264429Y-55476349D01*
X10398922Y-55566215D01*
X10795000Y-55645001D01*
X10795005Y-55645000D01*
X12215351Y-55645000D01*
X12159176Y-55701077D01*
X11940250Y-56228309D01*
X11939752Y-56799187D01*
X12157757Y-57326800D01*
X12561077Y-57730824D01*
X13088309Y-57949750D01*
X13659187Y-57950248D01*
X14063148Y-57783335D01*
X13656572Y-58055000D01*
X13625657Y-58075657D01*
X12700000Y-59001314D01*
X9234343Y-55535657D01*
X9022917Y-55394387D01*
X8785017Y-55235427D01*
X8255000Y-55130000D01*
X5644020Y-55130000D01*
X5711814Y-55062206D01*
X5597534Y-54947926D01*
X5864387Y-54849264D01*
X6090908Y-54239539D01*
X6066856Y-53589540D01*
X5864387Y-53100736D01*
X5597532Y-53002073D01*
X4624605Y-53975000D01*
X4638748Y-53989143D01*
X4459143Y-54168748D01*
X4445000Y-54154605D01*
X3472073Y-55127532D01*
X3485164Y-55162938D01*
X3059722Y-55587637D01*
X2810284Y-56188352D01*
X2809716Y-56838795D01*
X3058106Y-57439943D01*
X3124621Y-57506574D01*
X2993559Y-57590910D01*
X2848569Y-57803110D01*
X2797560Y-58055000D01*
X2127000Y-58055000D01*
X2127000Y-53710461D01*
X2799092Y-53710461D01*
X2823144Y-54360460D01*
X3025613Y-54849264D01*
X3292468Y-54947927D01*
X4265395Y-53975000D01*
X3292468Y-53002073D01*
X3025613Y-53100736D01*
X2799092Y-53710461D01*
X2127000Y-53710461D01*
X2127000Y-43464187D01*
X6184752Y-43464187D01*
X6402757Y-43991800D01*
X6806077Y-44395824D01*
X7333309Y-44614750D01*
X7904187Y-44615248D01*
X8431800Y-44397243D01*
X8835824Y-43993923D01*
X9054750Y-43466691D01*
X9055248Y-42895813D01*
X8837243Y-42368200D01*
X8433923Y-41964176D01*
X8319232Y-41916552D01*
X8374005Y-41893864D01*
X8448139Y-41647745D01*
X7620000Y-40819605D01*
X6791861Y-41647745D01*
X6865995Y-41893864D01*
X6924254Y-41914805D01*
X6808200Y-41962757D01*
X6404176Y-42366077D01*
X6185250Y-42893309D01*
X6184752Y-43464187D01*
X2127000Y-43464187D01*
X2127000Y-40423223D01*
X6173035Y-40423223D01*
X6200222Y-40993454D01*
X6366136Y-41394005D01*
X6612255Y-41468139D01*
X7440395Y-40640000D01*
X7799605Y-40640000D01*
X8627745Y-41468139D01*
X8873864Y-41394005D01*
X9066965Y-40856777D01*
X9039778Y-40286546D01*
X8873864Y-39885995D01*
X8627745Y-39811861D01*
X7799605Y-40640000D01*
X7440395Y-40640000D01*
X6612255Y-39811861D01*
X6366136Y-39885995D01*
X6173035Y-40423223D01*
X2127000Y-40423223D01*
X2127000Y-37300000D01*
X6172560Y-37300000D01*
X6172560Y-38900000D01*
X6216838Y-39135317D01*
X6355910Y-39351441D01*
X6568110Y-39496431D01*
X6817557Y-39546945D01*
X6791861Y-39632255D01*
X7620000Y-40460395D01*
X8448139Y-39632255D01*
X8422453Y-39546978D01*
X8655317Y-39503162D01*
X8871441Y-39364090D01*
X9016431Y-39151890D01*
X9067440Y-38900000D01*
X9067440Y-37300000D01*
X9023162Y-37064683D01*
X8884090Y-36848559D01*
X8671890Y-36703569D01*
X8420000Y-36652560D01*
X6820000Y-36652560D01*
X6584683Y-36696838D01*
X6368559Y-36835910D01*
X6223569Y-37048110D01*
X6172560Y-37300000D01*
X2127000Y-37300000D01*
X2127000Y-35257745D01*
X6791861Y-35257745D01*
X6865995Y-35503864D01*
X7403223Y-35696965D01*
X7973454Y-35669778D01*
X8374005Y-35503864D01*
X8448139Y-35257745D01*
X7620000Y-34429605D01*
X6791861Y-35257745D01*
X2127000Y-35257745D01*
X2127000Y-34033223D01*
X6173035Y-34033223D01*
X6200222Y-34603454D01*
X6366136Y-35004005D01*
X6612255Y-35078139D01*
X7440395Y-34250000D01*
X7799605Y-34250000D01*
X8627745Y-35078139D01*
X8873864Y-35004005D01*
X9066965Y-34466777D01*
X9047063Y-34049336D01*
X11788542Y-34049336D01*
X11814161Y-34659460D01*
X11998357Y-35104148D01*
X12254841Y-35190554D01*
X13155395Y-34290000D01*
X12254841Y-33389446D01*
X11998357Y-33475852D01*
X11788542Y-34049336D01*
X9047063Y-34049336D01*
X9039778Y-33896546D01*
X8873864Y-33495995D01*
X8627745Y-33421861D01*
X7799605Y-34250000D01*
X7440395Y-34250000D01*
X6612255Y-33421861D01*
X6366136Y-33495995D01*
X6173035Y-34033223D01*
X2127000Y-34033223D01*
X2127000Y-33242255D01*
X6791861Y-33242255D01*
X7620000Y-34070395D01*
X8448139Y-33242255D01*
X8374005Y-32996136D01*
X7836777Y-32803035D01*
X7266546Y-32830222D01*
X6865995Y-32996136D01*
X6791861Y-33242255D01*
X2127000Y-33242255D01*
X2127000Y-29534187D01*
X6184752Y-29534187D01*
X6402757Y-30061800D01*
X6806077Y-30465824D01*
X7333309Y-30684750D01*
X7904187Y-30685248D01*
X8431800Y-30467243D01*
X8835824Y-30063923D01*
X9054750Y-29536691D01*
X9055248Y-28965813D01*
X8837243Y-28438200D01*
X8433923Y-28034176D01*
X7906691Y-27815250D01*
X7335813Y-27814752D01*
X6808200Y-28032757D01*
X6404176Y-28436077D01*
X6185250Y-28963309D01*
X6184752Y-29534187D01*
X2127000Y-29534187D01*
X2127000Y-16880000D01*
X2897560Y-16880000D01*
X2897560Y-18680000D01*
X2941838Y-18915317D01*
X3080910Y-19131441D01*
X3293110Y-19276431D01*
X3545000Y-19327440D01*
X5345000Y-19327440D01*
X5580317Y-19283162D01*
X5796441Y-19144090D01*
X5941431Y-18931890D01*
X5945567Y-18911466D01*
X6114357Y-19080551D01*
X6678330Y-19314733D01*
X7288991Y-19315265D01*
X7853371Y-19082068D01*
X8285551Y-18650643D01*
X8519733Y-18086670D01*
X8520265Y-17476009D01*
X8287068Y-16911629D01*
X7855643Y-16479449D01*
X7291670Y-16245267D01*
X6681009Y-16244735D01*
X6116629Y-16477932D01*
X5948387Y-16645880D01*
X5948162Y-16644683D01*
X5809090Y-16428559D01*
X5596890Y-16283569D01*
X5345000Y-16232560D01*
X3545000Y-16232560D01*
X3309683Y-16276838D01*
X3093559Y-16415910D01*
X2948569Y-16628110D01*
X2897560Y-16880000D01*
X2127000Y-16880000D01*
X2127000Y-7267140D01*
X2938249Y-8079806D01*
X4273782Y-8634368D01*
X5719874Y-8635630D01*
X7056372Y-8083400D01*
X8079806Y-7061751D01*
X8634368Y-5726218D01*
X8635630Y-4280126D01*
X8083400Y-2943628D01*
X7268196Y-2127000D01*
X42732860Y-2127000D01*
X41920194Y-2938249D01*
X41920194Y-2938249D01*
G37*
X41920194Y-2938249D02*
X41365632Y-4273782D01*
X41364370Y-5719874D01*
X41916600Y-7056372D01*
X42938249Y-8079806D01*
X44273782Y-8634368D01*
X45719874Y-8635630D01*
X47056372Y-8083400D01*
X47873000Y-7268196D01*
X47873000Y-92732860D01*
X47061751Y-91920194D01*
X45726218Y-91365632D01*
X44280126Y-91364370D01*
X42943628Y-91916600D01*
X41920194Y-92938249D01*
X41365632Y-94273782D01*
X41364370Y-95719874D01*
X41916600Y-97056372D01*
X42731804Y-97873000D01*
X7267140Y-97873000D01*
X8079806Y-97061751D01*
X8634368Y-95726218D01*
X8635552Y-94369459D01*
X21060146Y-94369459D01*
X21195504Y-94667455D01*
X21913880Y-94944066D01*
X22683427Y-94924710D01*
X23304496Y-94667455D01*
X23439854Y-94369459D01*
X26560146Y-94369459D01*
X26695504Y-94667455D01*
X27413880Y-94944066D01*
X28183427Y-94924710D01*
X28804496Y-94667455D01*
X28939854Y-94369459D01*
X27750000Y-93179605D01*
X26560146Y-94369459D01*
X23439854Y-94369459D01*
X22250000Y-93179605D01*
X21060146Y-94369459D01*
X8635552Y-94369459D01*
X8635630Y-94280126D01*
X8083400Y-92943628D01*
X7804140Y-92663880D01*
X20305934Y-92663880D01*
X20325290Y-93433427D01*
X20582545Y-94054496D01*
X20880541Y-94189854D01*
X22070395Y-93000000D01*
X22429605Y-93000000D01*
X23619459Y-94189854D01*
X23917455Y-94054496D01*
X24194066Y-93336120D01*
X24177158Y-92663880D01*
X25805934Y-92663880D01*
X25825290Y-93433427D01*
X26082545Y-94054496D01*
X26380541Y-94189854D01*
X27570395Y-93000000D01*
X27929605Y-93000000D01*
X29119459Y-94189854D01*
X29417455Y-94054496D01*
X29694066Y-93336120D01*
X29674710Y-92566573D01*
X29417455Y-91945504D01*
X29119459Y-91810146D01*
X27929605Y-93000000D01*
X27570395Y-93000000D01*
X26380541Y-91810146D01*
X26082545Y-91945504D01*
X25805934Y-92663880D01*
X24177158Y-92663880D01*
X24174710Y-92566573D01*
X23917455Y-91945504D01*
X23619459Y-91810146D01*
X22429605Y-93000000D01*
X22070395Y-93000000D01*
X20880541Y-91810146D01*
X20582545Y-91945504D01*
X20305934Y-92663880D01*
X7804140Y-92663880D01*
X7061751Y-91920194D01*
X6364190Y-91630541D01*
X21060146Y-91630541D01*
X22250000Y-92820395D01*
X23439854Y-91630541D01*
X26560146Y-91630541D01*
X27750000Y-92820395D01*
X28939854Y-91630541D01*
X28804496Y-91332545D01*
X28086120Y-91055934D01*
X27316573Y-91075290D01*
X26695504Y-91332545D01*
X26560146Y-91630541D01*
X23439854Y-91630541D01*
X23304496Y-91332545D01*
X22586120Y-91055934D01*
X21816573Y-91075290D01*
X21195504Y-91332545D01*
X21060146Y-91630541D01*
X6364190Y-91630541D01*
X5726218Y-91365632D01*
X4280126Y-91364370D01*
X2943628Y-91916600D01*
X2127000Y-92731804D01*
X2127000Y-87953795D01*
X9949716Y-87953795D01*
X10198106Y-88554943D01*
X10657637Y-89015278D01*
X11258352Y-89264716D01*
X11908795Y-89265284D01*
X12509943Y-89016894D01*
X12970278Y-88557363D01*
X13219716Y-87956648D01*
X13219718Y-87953795D01*
X13449716Y-87953795D01*
X13698106Y-88554943D01*
X14157637Y-89015278D01*
X14758352Y-89264716D01*
X15408795Y-89265284D01*
X16009943Y-89016894D01*
X16470278Y-88557363D01*
X16719716Y-87956648D01*
X16719780Y-87883207D01*
X20864665Y-87883207D01*
X21158630Y-88594658D01*
X21702479Y-89139457D01*
X22413416Y-89434663D01*
X23183207Y-89435335D01*
X23894658Y-89141370D01*
X24439457Y-88597521D01*
X24734663Y-87886584D01*
X24734665Y-87883207D01*
X25264665Y-87883207D01*
X25558630Y-88594658D01*
X26102479Y-89139457D01*
X26813416Y-89434663D01*
X27583207Y-89435335D01*
X28294658Y-89141370D01*
X28839457Y-88597521D01*
X29106754Y-87953795D01*
X33444716Y-87953795D01*
X33693106Y-88554943D01*
X34152637Y-89015278D01*
X34753352Y-89264716D01*
X35403795Y-89265284D01*
X36004943Y-89016894D01*
X36465278Y-88557363D01*
X36714716Y-87956648D01*
X36714718Y-87953795D01*
X36944716Y-87953795D01*
X37193106Y-88554943D01*
X37652637Y-89015278D01*
X38253352Y-89264716D01*
X38903795Y-89265284D01*
X39504943Y-89016894D01*
X39965278Y-88557363D01*
X40214716Y-87956648D01*
X40215284Y-87306205D01*
X39966894Y-86705057D01*
X39507363Y-86244722D01*
X38906648Y-85995284D01*
X38256205Y-85994716D01*
X37655057Y-86243106D01*
X37194722Y-86702637D01*
X36945284Y-87303352D01*
X36944716Y-87953795D01*
X36714718Y-87953795D01*
X36715284Y-87306205D01*
X36466894Y-86705057D01*
X36007363Y-86244722D01*
X35406648Y-85995284D01*
X34756205Y-85994716D01*
X34155057Y-86243106D01*
X33694722Y-86702637D01*
X33445284Y-87303352D01*
X33444716Y-87953795D01*
X29106754Y-87953795D01*
X29134663Y-87886584D01*
X29135335Y-87116793D01*
X28841370Y-86405342D01*
X28297521Y-85860543D01*
X27586584Y-85565337D01*
X26816793Y-85564665D01*
X26105342Y-85858630D01*
X25560543Y-86402479D01*
X25265337Y-87113416D01*
X25264665Y-87883207D01*
X24734665Y-87883207D01*
X24735335Y-87116793D01*
X24441370Y-86405342D01*
X23897521Y-85860543D01*
X23186584Y-85565337D01*
X22416793Y-85564665D01*
X21705342Y-85858630D01*
X21160543Y-86402479D01*
X20865337Y-87113416D01*
X20864665Y-87883207D01*
X16719780Y-87883207D01*
X16720284Y-87306205D01*
X16471894Y-86705057D01*
X16012363Y-86244722D01*
X15411648Y-85995284D01*
X14761205Y-85994716D01*
X14160057Y-86243106D01*
X13699722Y-86702637D01*
X13450284Y-87303352D01*
X13449716Y-87953795D01*
X13219718Y-87953795D01*
X13220284Y-87306205D01*
X12971894Y-86705057D01*
X12512363Y-86244722D01*
X11911648Y-85995284D01*
X11261205Y-85994716D01*
X10660057Y-86243106D01*
X10199722Y-86702637D01*
X9950284Y-87303352D01*
X9949716Y-87953795D01*
X2127000Y-87953795D01*
X2127000Y-72058991D01*
X7354735Y-72058991D01*
X7587932Y-72623371D01*
X7989182Y-73025323D01*
X7589449Y-73424357D01*
X7355267Y-73988330D01*
X7354735Y-74598991D01*
X7587932Y-75163371D01*
X7989182Y-75565323D01*
X7589449Y-75964357D01*
X7355267Y-76528330D01*
X7354735Y-77138991D01*
X7587932Y-77703371D01*
X7989182Y-78105323D01*
X7589449Y-78504357D01*
X7355267Y-79068330D01*
X7354735Y-79678991D01*
X7587932Y-80243371D01*
X8019357Y-80675551D01*
X8583330Y-80909733D01*
X9193991Y-80910265D01*
X9758371Y-80677068D01*
X10190551Y-80245643D01*
X10424733Y-79681670D01*
X10425265Y-79071009D01*
X10192068Y-78506629D01*
X9905940Y-78220000D01*
X10221314Y-78220000D01*
X11315000Y-79313686D01*
X11315000Y-80010000D01*
X11420427Y-80540017D01*
X11667463Y-80909733D01*
X11720657Y-80989343D01*
X14260657Y-83529343D01*
X14709983Y-83829573D01*
X15240000Y-83935000D01*
X17780000Y-83935000D01*
X18310017Y-83829573D01*
X18759343Y-83529343D01*
X20029343Y-82259343D01*
X20329573Y-81810017D01*
X20381293Y-81550000D01*
X20577560Y-81550000D01*
X20577560Y-83550000D01*
X20621838Y-83785317D01*
X20760910Y-84001441D01*
X20973110Y-84146431D01*
X21225000Y-84197440D01*
X23225000Y-84197440D01*
X23460317Y-84153162D01*
X23676441Y-84014090D01*
X23821431Y-83801890D01*
X23872440Y-83550000D01*
X23872440Y-81550000D01*
X23828162Y-81314683D01*
X23689090Y-81098559D01*
X23546439Y-81001090D01*
X23610278Y-80937363D01*
X23859716Y-80336648D01*
X23860284Y-79686205D01*
X23611894Y-79085057D01*
X23152363Y-78624722D01*
X22551648Y-78375284D01*
X21901205Y-78374716D01*
X21300057Y-78623106D01*
X20839722Y-79082637D01*
X20590284Y-79683352D01*
X20589716Y-80333795D01*
X20838106Y-80934943D01*
X20904621Y-81001574D01*
X20773559Y-81085910D01*
X20628569Y-81298110D01*
X20577560Y-81550000D01*
X20381293Y-81550000D01*
X20435000Y-81280000D01*
X20435000Y-78043686D01*
X20893686Y-77585000D01*
X26096314Y-77585000D01*
X26555000Y-78043686D01*
X26555000Y-79082359D01*
X26554722Y-79082637D01*
X26305284Y-79683352D01*
X26304716Y-80333795D01*
X26553106Y-80934943D01*
X26619621Y-81001574D01*
X26488559Y-81085910D01*
X26343569Y-81298110D01*
X26292560Y-81550000D01*
X26292560Y-83550000D01*
X26336838Y-83785317D01*
X26475910Y-84001441D01*
X26688110Y-84146431D01*
X26940000Y-84197440D01*
X28940000Y-84197440D01*
X29175317Y-84153162D01*
X29391441Y-84014090D01*
X29536431Y-83801890D01*
X29587440Y-83550000D01*
X29587440Y-81550000D01*
X29543162Y-81314683D01*
X29404090Y-81098559D01*
X29261439Y-81001090D01*
X29325278Y-80937363D01*
X29574716Y-80336648D01*
X29575284Y-79686205D01*
X29326894Y-79085057D01*
X29325000Y-79083160D01*
X29325000Y-77842745D01*
X44256861Y-77842745D01*
X44330995Y-78088864D01*
X44868223Y-78281965D01*
X45438454Y-78254778D01*
X45839005Y-78088864D01*
X45913139Y-77842745D01*
X45085000Y-77014605D01*
X44256861Y-77842745D01*
X29325000Y-77842745D01*
X29325000Y-77470000D01*
X29219573Y-76939983D01*
X29004580Y-76618223D01*
X43638035Y-76618223D01*
X43665222Y-77188454D01*
X43831136Y-77589005D01*
X44077255Y-77663139D01*
X44905395Y-76835000D01*
X45264605Y-76835000D01*
X46092745Y-77663139D01*
X46338864Y-77589005D01*
X46531965Y-77051777D01*
X46504778Y-76481546D01*
X46338864Y-76080995D01*
X46092745Y-76006861D01*
X45264605Y-76835000D01*
X44905395Y-76835000D01*
X44077255Y-76006861D01*
X43831136Y-76080995D01*
X43638035Y-76618223D01*
X29004580Y-76618223D01*
X28919343Y-76490657D01*
X27649343Y-75220657D01*
X27478944Y-75106800D01*
X27200017Y-74920427D01*
X26670000Y-74815000D01*
X20320000Y-74815000D01*
X19789983Y-74920427D01*
X19511056Y-75106800D01*
X19340657Y-75220657D01*
X18070657Y-76490657D01*
X18044665Y-76529557D01*
X17812068Y-75966629D01*
X17410818Y-75564677D01*
X17810551Y-75165643D01*
X18044733Y-74601670D01*
X18045265Y-73991009D01*
X17812068Y-73426629D01*
X17380643Y-72994449D01*
X17359806Y-72985797D01*
X17410554Y-72835159D01*
X16510000Y-71934605D01*
X15609446Y-72835159D01*
X15660035Y-72985327D01*
X15641629Y-72992932D01*
X15209449Y-73424357D01*
X14975267Y-73988330D01*
X14974735Y-74598991D01*
X15207932Y-75163371D01*
X15609182Y-75565323D01*
X15209449Y-75964357D01*
X14975267Y-76528330D01*
X14974735Y-77138991D01*
X15207932Y-77703371D01*
X15375880Y-77871613D01*
X15374683Y-77871838D01*
X15158559Y-78010910D01*
X15013569Y-78223110D01*
X14962560Y-78475000D01*
X14962560Y-80275000D01*
X14971570Y-80322884D01*
X14085000Y-79436314D01*
X14085000Y-78740000D01*
X13979573Y-78209983D01*
X13679343Y-77760657D01*
X11774343Y-75855657D01*
X11586655Y-75730248D01*
X11325017Y-75555427D01*
X10795000Y-75450000D01*
X9905696Y-75450000D01*
X10190551Y-75165643D01*
X10424733Y-74601670D01*
X10425265Y-73991009D01*
X10192068Y-73426629D01*
X9790818Y-73024677D01*
X10190551Y-72625643D01*
X10424733Y-72061670D01*
X10425209Y-71514336D01*
X14963542Y-71514336D01*
X14989161Y-72124460D01*
X15173357Y-72569148D01*
X15429841Y-72655554D01*
X16330395Y-71755000D01*
X16689605Y-71755000D01*
X17590159Y-72655554D01*
X17846643Y-72569148D01*
X18040534Y-72039187D01*
X43649752Y-72039187D01*
X43867757Y-72566800D01*
X44271077Y-72970824D01*
X44401215Y-73024862D01*
X44273200Y-73077757D01*
X43869176Y-73481077D01*
X43650250Y-74008309D01*
X43649752Y-74579187D01*
X43867757Y-75106800D01*
X44271077Y-75510824D01*
X44385768Y-75558448D01*
X44330995Y-75581136D01*
X44256861Y-75827255D01*
X45085000Y-76655395D01*
X45913139Y-75827255D01*
X45839005Y-75581136D01*
X45780746Y-75560195D01*
X45896800Y-75512243D01*
X46300824Y-75108923D01*
X46519750Y-74581691D01*
X46520248Y-74010813D01*
X46302243Y-73483200D01*
X45898923Y-73079176D01*
X45768785Y-73025138D01*
X45896800Y-72972243D01*
X46300824Y-72568923D01*
X46519750Y-72041691D01*
X46520248Y-71470813D01*
X46302243Y-70943200D01*
X45898923Y-70539176D01*
X45371691Y-70320250D01*
X44800813Y-70319752D01*
X44273200Y-70537757D01*
X43869176Y-70941077D01*
X43650250Y-71468309D01*
X43649752Y-72039187D01*
X18040534Y-72039187D01*
X18056458Y-71995664D01*
X18030839Y-71385540D01*
X17846643Y-70940852D01*
X17590159Y-70854446D01*
X16689605Y-71755000D01*
X16330395Y-71755000D01*
X15429841Y-70854446D01*
X15173357Y-70940852D01*
X14963542Y-71514336D01*
X10425209Y-71514336D01*
X10425265Y-71451009D01*
X10192068Y-70886629D01*
X9980650Y-70674841D01*
X15609446Y-70674841D01*
X16510000Y-71575395D01*
X17410554Y-70674841D01*
X17324148Y-70418357D01*
X16750664Y-70208542D01*
X16140540Y-70234161D01*
X15695852Y-70418357D01*
X15609446Y-70674841D01*
X9980650Y-70674841D01*
X9760643Y-70454449D01*
X9196670Y-70220267D01*
X8586009Y-70219735D01*
X8021629Y-70452932D01*
X7589449Y-70884357D01*
X7355267Y-71448330D01*
X7354735Y-72058991D01*
X2127000Y-72058991D01*
X2127000Y-63135000D01*
X7242560Y-63135000D01*
X7242560Y-65135000D01*
X7286838Y-65370317D01*
X7425910Y-65586441D01*
X7638110Y-65731431D01*
X7890000Y-65782440D01*
X9890000Y-65782440D01*
X10125317Y-65738162D01*
X10341441Y-65599090D01*
X10486431Y-65386890D01*
X10537440Y-65135000D01*
X10537440Y-63135000D01*
X10493162Y-62899683D01*
X10354090Y-62683559D01*
X10211439Y-62586090D01*
X10275278Y-62522363D01*
X10524716Y-61921648D01*
X10525284Y-61271205D01*
X10276894Y-60670057D01*
X9817363Y-60209722D01*
X9216648Y-59960284D01*
X8566205Y-59959716D01*
X7965057Y-60208106D01*
X7504722Y-60667637D01*
X7255284Y-61268352D01*
X7254716Y-61918795D01*
X7503106Y-62519943D01*
X7569621Y-62586574D01*
X7438559Y-62670910D01*
X7293569Y-62883110D01*
X7242560Y-63135000D01*
X2127000Y-63135000D01*
X2127000Y-58055000D01*
X2797560Y-58055000D01*
X2797560Y-60055000D01*
X2841838Y-60290317D01*
X2980910Y-60506441D01*
X3193110Y-60651431D01*
X3445000Y-60702440D01*
X5445000Y-60702440D01*
X5680317Y-60658162D01*
X5896441Y-60519090D01*
X6041431Y-60306890D01*
X6092440Y-60055000D01*
X6092440Y-58055000D01*
X6063275Y-57900000D01*
X7681314Y-57900000D01*
X11315000Y-61533686D01*
X11315000Y-64871314D01*
X9508098Y-66678216D01*
X9388200Y-66727757D01*
X8984176Y-67131077D01*
X8765250Y-67658309D01*
X8764752Y-68229187D01*
X8982757Y-68756800D01*
X9386077Y-69160824D01*
X9913309Y-69379750D01*
X10484187Y-69380248D01*
X11011800Y-69162243D01*
X11221663Y-68952745D01*
X14371861Y-68952745D01*
X14445995Y-69198864D01*
X14983223Y-69391965D01*
X15553454Y-69364778D01*
X15954005Y-69198864D01*
X16028139Y-68952745D01*
X15200000Y-68124605D01*
X14371861Y-68952745D01*
X11221663Y-68952745D01*
X11415824Y-68758923D01*
X11466284Y-68637402D01*
X12375463Y-67728223D01*
X13753035Y-67728223D01*
X13780222Y-68298454D01*
X13946136Y-68699005D01*
X14192255Y-68773139D01*
X15020395Y-67945000D01*
X15379605Y-67945000D01*
X16207745Y-68773139D01*
X16453864Y-68699005D01*
X16646965Y-68161777D01*
X16619778Y-67591546D01*
X16453864Y-67190995D01*
X16207745Y-67116861D01*
X15379605Y-67945000D01*
X15020395Y-67945000D01*
X14192255Y-67116861D01*
X13946136Y-67190995D01*
X13753035Y-67728223D01*
X12375463Y-67728223D01*
X13166431Y-66937255D01*
X14371861Y-66937255D01*
X15200000Y-67765395D01*
X16028139Y-66937255D01*
X15954005Y-66691136D01*
X15416777Y-66498035D01*
X14846546Y-66525222D01*
X14445995Y-66691136D01*
X14371861Y-66937255D01*
X13166431Y-66937255D01*
X13679343Y-66424343D01*
X13742419Y-66329943D01*
X13979573Y-65975017D01*
X14085000Y-65445000D01*
X14085000Y-61533686D01*
X15178686Y-60440000D01*
X16622757Y-60440000D01*
X16394722Y-60667637D01*
X16145284Y-61268352D01*
X16144716Y-61918795D01*
X16393106Y-62519943D01*
X16459621Y-62586574D01*
X16328559Y-62670910D01*
X16183569Y-62883110D01*
X16132560Y-63135000D01*
X16132560Y-65135000D01*
X16176838Y-65370317D01*
X16315910Y-65586441D01*
X16528110Y-65731431D01*
X16780000Y-65782440D01*
X18780000Y-65782440D01*
X19015317Y-65738162D01*
X19231441Y-65599090D01*
X19376431Y-65386890D01*
X19427440Y-65135000D01*
X19427440Y-64405000D01*
X38992560Y-64405000D01*
X38992560Y-66405000D01*
X39036838Y-66640317D01*
X39175910Y-66856441D01*
X39388110Y-67001431D01*
X39640000Y-67052440D01*
X41640000Y-67052440D01*
X41875317Y-67008162D01*
X42091441Y-66869090D01*
X42188910Y-66726439D01*
X42252637Y-66790278D01*
X42853352Y-67039716D01*
X43503795Y-67040284D01*
X44104943Y-66791894D01*
X44565278Y-66332363D01*
X44814716Y-65731648D01*
X44815284Y-65081205D01*
X44566894Y-64480057D01*
X44107363Y-64019722D01*
X43506648Y-63770284D01*
X42856205Y-63769716D01*
X42255057Y-64018106D01*
X42188426Y-64084621D01*
X42104090Y-63953559D01*
X41891890Y-63808569D01*
X41640000Y-63757560D01*
X39640000Y-63757560D01*
X39404683Y-63801838D01*
X39188559Y-63940910D01*
X39043569Y-64153110D01*
X38992560Y-64405000D01*
X19427440Y-64405000D01*
X19427440Y-63135000D01*
X19383162Y-62899683D01*
X19244090Y-62683559D01*
X19101439Y-62586090D01*
X19165278Y-62522363D01*
X19414716Y-61921648D01*
X19415284Y-61271205D01*
X19166894Y-60670057D01*
X18937239Y-60440000D01*
X19746314Y-60440000D01*
X22515657Y-63209343D01*
X22964983Y-63509573D01*
X23495000Y-63615000D01*
X33923498Y-63615000D01*
X34043309Y-63664750D01*
X34614187Y-63665248D01*
X35141800Y-63447243D01*
X35351663Y-63237745D01*
X38501861Y-63237745D01*
X38575995Y-63483864D01*
X39113223Y-63676965D01*
X39683454Y-63649778D01*
X40084005Y-63483864D01*
X40158139Y-63237745D01*
X39330000Y-62409605D01*
X38501861Y-63237745D01*
X35351663Y-63237745D01*
X35545824Y-63043923D01*
X35764750Y-62516691D01*
X35765189Y-62013223D01*
X37883035Y-62013223D01*
X37910222Y-62583454D01*
X38076136Y-62984005D01*
X38322255Y-63058139D01*
X39150395Y-62230000D01*
X39509605Y-62230000D01*
X40337745Y-63058139D01*
X40583864Y-62984005D01*
X40776965Y-62446777D01*
X40749778Y-61876546D01*
X40583864Y-61475995D01*
X40337745Y-61401861D01*
X39509605Y-62230000D01*
X39150395Y-62230000D01*
X38322255Y-61401861D01*
X38076136Y-61475995D01*
X37883035Y-62013223D01*
X35765189Y-62013223D01*
X35765248Y-61945813D01*
X35547243Y-61418200D01*
X35351640Y-61222255D01*
X38501861Y-61222255D01*
X39330000Y-62050395D01*
X40158139Y-61222255D01*
X40084005Y-60976136D01*
X39546777Y-60783035D01*
X38976546Y-60810222D01*
X38575995Y-60976136D01*
X38501861Y-61222255D01*
X35351640Y-61222255D01*
X35143923Y-61014176D01*
X34616691Y-60795250D01*
X34045813Y-60794752D01*
X33924203Y-60845000D01*
X24068686Y-60845000D01*
X21299343Y-58075657D01*
X21268428Y-58055000D01*
X20850017Y-57775427D01*
X20320000Y-57670000D01*
X19158784Y-57670000D01*
X19203139Y-57522745D01*
X18375000Y-56694605D01*
X17546861Y-57522745D01*
X17591216Y-57670000D01*
X14605000Y-57670000D01*
X14089066Y-57772626D01*
X14186800Y-57732243D01*
X14590824Y-57328923D01*
X14809750Y-56801691D01*
X14810248Y-56230813D01*
X14592243Y-55703200D01*
X14534144Y-55645000D01*
X17325392Y-55645000D01*
X17367253Y-55686861D01*
X17121136Y-55760995D01*
X16928035Y-56298223D01*
X16955222Y-56868454D01*
X17121136Y-57269005D01*
X17367255Y-57343139D01*
X18195395Y-56515000D01*
X18181252Y-56500858D01*
X18360858Y-56321252D01*
X18375000Y-56335395D01*
X18389142Y-56321252D01*
X18568748Y-56500858D01*
X18554605Y-56515000D01*
X19382745Y-57343139D01*
X19628864Y-57269005D01*
X19821965Y-56731777D01*
X19794778Y-56161546D01*
X19628864Y-55760995D01*
X19382747Y-55686861D01*
X19424608Y-55645000D01*
X27511288Y-55645000D01*
X31018142Y-59151853D01*
X31018144Y-59151856D01*
X31353923Y-59376215D01*
X31750000Y-59455001D01*
X31750005Y-59455000D01*
X39369995Y-59455000D01*
X39370000Y-59455001D01*
X39766077Y-59376215D01*
X40101856Y-59151856D01*
X44546853Y-54706858D01*
X44546856Y-54706856D01*
X44706505Y-54467923D01*
X44771215Y-54371078D01*
X44850000Y-53975000D01*
X44850000Y-45720005D01*
X44850001Y-45720000D01*
X44771215Y-45323923D01*
X44656484Y-45152215D01*
X44546856Y-44988144D01*
X44546853Y-44988142D01*
X42641856Y-43083144D01*
X42306077Y-42858785D01*
X41910000Y-42779999D01*
X41909995Y-42780000D01*
X40505730Y-42780000D01*
X40270818Y-42544677D01*
X40670551Y-42145643D01*
X40904733Y-41581670D01*
X40905265Y-40971009D01*
X40672068Y-40406629D01*
X40270818Y-40004677D01*
X40670551Y-39605643D01*
X40904733Y-39041670D01*
X40905265Y-38431009D01*
X40672068Y-37866629D01*
X40240643Y-37434449D01*
X40219806Y-37425797D01*
X40270554Y-37275159D01*
X39370000Y-36374605D01*
X38469446Y-37275159D01*
X38520035Y-37425327D01*
X38501629Y-37432932D01*
X38069449Y-37864357D01*
X37835267Y-38428330D01*
X37834735Y-39038991D01*
X38067932Y-39603371D01*
X38469182Y-40005323D01*
X38069449Y-40404357D01*
X37835267Y-40968330D01*
X37834735Y-41578991D01*
X38067932Y-42143371D01*
X38469182Y-42545323D01*
X38069449Y-42944357D01*
X37835267Y-43508330D01*
X37834735Y-44118991D01*
X38067932Y-44683371D01*
X38469182Y-45085323D01*
X38069449Y-45484357D01*
X37835267Y-46048330D01*
X37834735Y-46658991D01*
X38067932Y-47223371D01*
X38235880Y-47391613D01*
X38234683Y-47391838D01*
X38018559Y-47530910D01*
X37873569Y-47743110D01*
X37822560Y-47995000D01*
X37822560Y-49795000D01*
X37866838Y-50030317D01*
X38005910Y-50246441D01*
X38218110Y-50391431D01*
X38335000Y-50415102D01*
X38335000Y-52149289D01*
X36655288Y-53829000D01*
X33994712Y-53829000D01*
X36291853Y-51531858D01*
X36291856Y-51531856D01*
X36495445Y-51227162D01*
X36516215Y-51196078D01*
X36595000Y-50800000D01*
X36595000Y-35954336D01*
X37823542Y-35954336D01*
X37849161Y-36564460D01*
X38033357Y-37009148D01*
X38289841Y-37095554D01*
X39190395Y-36195000D01*
X39549605Y-36195000D01*
X40450159Y-37095554D01*
X40706643Y-37009148D01*
X40916458Y-36435664D01*
X40890839Y-35825540D01*
X40706643Y-35380852D01*
X40450159Y-35294446D01*
X39549605Y-36195000D01*
X39190395Y-36195000D01*
X38289841Y-35294446D01*
X38033357Y-35380852D01*
X37823542Y-35954336D01*
X36595000Y-35954336D01*
X36595000Y-34925005D01*
X36595001Y-34925000D01*
X36516215Y-34528923D01*
X36476580Y-34469605D01*
X36291856Y-34193144D01*
X36291853Y-34193142D01*
X33284938Y-31186226D01*
X33285265Y-30811009D01*
X33052068Y-30246629D01*
X32650818Y-29844677D01*
X33050551Y-29445643D01*
X33284733Y-28881670D01*
X33285265Y-28271009D01*
X33052068Y-27706629D01*
X32620643Y-27274449D01*
X32056670Y-27040267D01*
X31446009Y-27039735D01*
X30881629Y-27272932D01*
X30449449Y-27704357D01*
X30215267Y-28268330D01*
X30214735Y-28878991D01*
X30447932Y-29443371D01*
X30849182Y-29845323D01*
X30449449Y-30244357D01*
X30215267Y-30808330D01*
X30214735Y-31418991D01*
X30447932Y-31983371D01*
X30849182Y-32385323D01*
X30449449Y-32784357D01*
X30215267Y-33348330D01*
X30214735Y-33958991D01*
X30447932Y-34523371D01*
X30849182Y-34925323D01*
X30449449Y-35324357D01*
X30215267Y-35888330D01*
X30214735Y-36498991D01*
X30447932Y-37063371D01*
X30849182Y-37465323D01*
X30449449Y-37864357D01*
X30215267Y-38428330D01*
X30214846Y-38911135D01*
X27705000Y-36401288D01*
X27705000Y-30480005D01*
X27705001Y-30480000D01*
X27626215Y-30083923D01*
X27622505Y-30078371D01*
X27401856Y-29748144D01*
X27401853Y-29748142D01*
X23591856Y-25938144D01*
X23256077Y-25713785D01*
X22860000Y-25634999D01*
X22859995Y-25635000D01*
X22090730Y-25635000D01*
X21855818Y-25399677D01*
X22255551Y-25000643D01*
X22489733Y-24436670D01*
X22490265Y-23826009D01*
X22257068Y-23261629D01*
X21855818Y-22859677D01*
X22255551Y-22460643D01*
X22489733Y-21896670D01*
X22490265Y-21286009D01*
X22470919Y-21239187D01*
X27774752Y-21239187D01*
X27992757Y-21766800D01*
X28396077Y-22170824D01*
X28923309Y-22389750D01*
X29494187Y-22390248D01*
X30021800Y-22172243D01*
X30425824Y-21768923D01*
X30644750Y-21241691D01*
X30644752Y-21239187D01*
X35394752Y-21239187D01*
X35445000Y-21360797D01*
X35445000Y-31750000D01*
X35550427Y-32280017D01*
X35778026Y-32620643D01*
X35850657Y-32729343D01*
X37755657Y-34634343D01*
X38204983Y-34934573D01*
X38509753Y-34995196D01*
X38469446Y-35114841D01*
X39370000Y-36015395D01*
X40270554Y-35114841D01*
X40219965Y-34964673D01*
X40238371Y-34957068D01*
X40670551Y-34525643D01*
X40904733Y-33961670D01*
X40905265Y-33351009D01*
X40672068Y-32786629D01*
X40270818Y-32384677D01*
X40670551Y-31985643D01*
X40904733Y-31421670D01*
X40905265Y-30811009D01*
X40672068Y-30246629D01*
X40270818Y-29844677D01*
X40670551Y-29445643D01*
X40904733Y-28881670D01*
X40905265Y-28271009D01*
X40672068Y-27706629D01*
X40240643Y-27274449D01*
X39676670Y-27040267D01*
X39066009Y-27039735D01*
X38501629Y-27272932D01*
X38215000Y-27559060D01*
X38215000Y-21361502D01*
X38264750Y-21241691D01*
X38264752Y-21239187D01*
X43014752Y-21239187D01*
X43232757Y-21766800D01*
X43636077Y-22170824D01*
X44163309Y-22389750D01*
X44734187Y-22390248D01*
X45261800Y-22172243D01*
X45665824Y-21768923D01*
X45884750Y-21241691D01*
X45885248Y-20670813D01*
X45667243Y-20143200D01*
X45263923Y-19739176D01*
X44736691Y-19520250D01*
X44165813Y-19519752D01*
X43638200Y-19737757D01*
X43234176Y-20141077D01*
X43015250Y-20668309D01*
X43014752Y-21239187D01*
X38264752Y-21239187D01*
X38265248Y-20670813D01*
X38047243Y-20143200D01*
X37643923Y-19739176D01*
X37116691Y-19520250D01*
X36545813Y-19519752D01*
X36018200Y-19737757D01*
X35614176Y-20141077D01*
X35395250Y-20668309D01*
X35394752Y-21239187D01*
X30644752Y-21239187D01*
X30645248Y-20670813D01*
X30427243Y-20143200D01*
X30023923Y-19739176D01*
X29496691Y-19520250D01*
X28925813Y-19519752D01*
X28398200Y-19737757D01*
X27994176Y-20141077D01*
X27775250Y-20668309D01*
X27774752Y-21239187D01*
X22470919Y-21239187D01*
X22257068Y-20721629D01*
X21855818Y-20319677D01*
X22255551Y-19920643D01*
X22489733Y-19356670D01*
X22490265Y-18746009D01*
X22257068Y-18181629D01*
X21855818Y-17779677D01*
X22255551Y-17380643D01*
X22489733Y-16816670D01*
X22490265Y-16206009D01*
X22257068Y-15641629D01*
X21825643Y-15209449D01*
X21261670Y-14975267D01*
X20651009Y-14974735D01*
X20086629Y-15207932D01*
X19654449Y-15639357D01*
X19420267Y-16203330D01*
X19419735Y-16813991D01*
X19652932Y-17378371D01*
X20054182Y-17780323D01*
X19654449Y-18179357D01*
X19420267Y-18743330D01*
X19419735Y-19353991D01*
X19652932Y-19918371D01*
X20054182Y-20320323D01*
X19654449Y-20719357D01*
X19420267Y-21283330D01*
X19419735Y-21893991D01*
X19652932Y-22458371D01*
X20054182Y-22860323D01*
X19654449Y-23259357D01*
X19420267Y-23823330D01*
X19419735Y-24433991D01*
X19652932Y-24998371D01*
X20054182Y-25400323D01*
X19654449Y-25799357D01*
X19420267Y-26363330D01*
X19419735Y-26973991D01*
X19652932Y-27538371D01*
X20054182Y-27940323D01*
X19654449Y-28339357D01*
X19420267Y-28903330D01*
X19419735Y-29513991D01*
X19652932Y-30078371D01*
X20054182Y-30480323D01*
X19654449Y-30879357D01*
X19420267Y-31443330D01*
X19419735Y-32053991D01*
X19652932Y-32618371D01*
X20054182Y-33020323D01*
X19654449Y-33419357D01*
X19420267Y-33983330D01*
X19419735Y-34593991D01*
X19652932Y-35158371D01*
X19939060Y-35445000D01*
X19623686Y-35445000D01*
X17260000Y-33081314D01*
X17260000Y-15240000D01*
X17154573Y-14709983D01*
X16909193Y-14342745D01*
X28381861Y-14342745D01*
X28455995Y-14588864D01*
X28993223Y-14781965D01*
X29563454Y-14754778D01*
X29964005Y-14588864D01*
X30038139Y-14342745D01*
X36001861Y-14342745D01*
X36075995Y-14588864D01*
X36613223Y-14781965D01*
X37183454Y-14754778D01*
X37584005Y-14588864D01*
X37658139Y-14342745D01*
X36830000Y-13514605D01*
X36001861Y-14342745D01*
X30038139Y-14342745D01*
X29210000Y-13514605D01*
X28381861Y-14342745D01*
X16909193Y-14342745D01*
X16854343Y-14260657D01*
X15711909Y-13118223D01*
X27763035Y-13118223D01*
X27790222Y-13688454D01*
X27956136Y-14089005D01*
X28202255Y-14163139D01*
X29030395Y-13335000D01*
X29389605Y-13335000D01*
X30217745Y-14163139D01*
X30463864Y-14089005D01*
X30656965Y-13551777D01*
X30636295Y-13118223D01*
X35383035Y-13118223D01*
X35410222Y-13688454D01*
X35576136Y-14089005D01*
X35822255Y-14163139D01*
X36650395Y-13335000D01*
X37009605Y-13335000D01*
X37837745Y-14163139D01*
X38083864Y-14089005D01*
X38276965Y-13551777D01*
X38249778Y-12981546D01*
X38083864Y-12580995D01*
X37931165Y-12535000D01*
X43002560Y-12535000D01*
X43002560Y-14135000D01*
X43046838Y-14370317D01*
X43185910Y-14586441D01*
X43398110Y-14731431D01*
X43650000Y-14782440D01*
X45250000Y-14782440D01*
X45485317Y-14738162D01*
X45701441Y-14599090D01*
X45846431Y-14386890D01*
X45897440Y-14135000D01*
X45897440Y-12535000D01*
X45853162Y-12299683D01*
X45714090Y-12083559D01*
X45501890Y-11938569D01*
X45250000Y-11887560D01*
X43650000Y-11887560D01*
X43414683Y-11931838D01*
X43198559Y-12070910D01*
X43053569Y-12283110D01*
X43002560Y-12535000D01*
X37931165Y-12535000D01*
X37837745Y-12506861D01*
X37009605Y-13335000D01*
X36650395Y-13335000D01*
X35822255Y-12506861D01*
X35576136Y-12580995D01*
X35383035Y-13118223D01*
X30636295Y-13118223D01*
X30629778Y-12981546D01*
X30463864Y-12580995D01*
X30217745Y-12506861D01*
X29389605Y-13335000D01*
X29030395Y-13335000D01*
X28202255Y-12506861D01*
X27956136Y-12580995D01*
X27763035Y-13118223D01*
X15711909Y-13118223D01*
X15584343Y-12990657D01*
X15439820Y-12894090D01*
X15135017Y-12690427D01*
X14605000Y-12585000D01*
X13857243Y-12585000D01*
X14085278Y-12357363D01*
X14097779Y-12327255D01*
X28381861Y-12327255D01*
X29210000Y-13155395D01*
X30038139Y-12327255D01*
X36001861Y-12327255D01*
X36830000Y-13155395D01*
X37658139Y-12327255D01*
X37584005Y-12081136D01*
X37046777Y-11888035D01*
X36476546Y-11915222D01*
X36075995Y-12081136D01*
X36001861Y-12327255D01*
X30038139Y-12327255D01*
X29964005Y-12081136D01*
X29426777Y-11888035D01*
X28856546Y-11915222D01*
X28455995Y-12081136D01*
X28381861Y-12327255D01*
X14097779Y-12327255D01*
X14334716Y-11756648D01*
X14335284Y-11106205D01*
X14086894Y-10505057D01*
X13627363Y-10044722D01*
X13026648Y-9795284D01*
X12376205Y-9794716D01*
X11775057Y-10043106D01*
X11708426Y-10109621D01*
X11624090Y-9978559D01*
X11411890Y-9833569D01*
X11160000Y-9782560D01*
X9160000Y-9782560D01*
X8924683Y-9826838D01*
X8708559Y-9965910D01*
X8563569Y-10178110D01*
X8512560Y-10430000D01*
X8512560Y-12430000D01*
X8556838Y-12665317D01*
X8695910Y-12881441D01*
X8775000Y-12935481D01*
X8775000Y-22286314D01*
X6727440Y-24333874D01*
X6727440Y-22495000D01*
X6683162Y-22259683D01*
X6544090Y-22043559D01*
X6331890Y-21898569D01*
X6080000Y-21847560D01*
X4080000Y-21847560D01*
X3844683Y-21891838D01*
X3628559Y-22030910D01*
X3483569Y-22243110D01*
X3432560Y-22495000D01*
X3432560Y-24495000D01*
X3476838Y-24730317D01*
X3615910Y-24946441D01*
X3758561Y-25043910D01*
X3694722Y-25107637D01*
X3445284Y-25708352D01*
X3444716Y-26358795D01*
X3693106Y-26959943D01*
X4152637Y-27420278D01*
X4753352Y-27669716D01*
X5403795Y-27670284D01*
X6004943Y-27421894D01*
X6006840Y-27420000D01*
X6985000Y-27420000D01*
X7515017Y-27314573D01*
X7964343Y-27014343D01*
X11139343Y-23839343D01*
X11150043Y-23823330D01*
X11439573Y-23390017D01*
X11545000Y-22860000D01*
X11545000Y-15355000D01*
X11840694Y-15355000D01*
X11838569Y-15358110D01*
X11787560Y-15610000D01*
X11787560Y-17410000D01*
X11831838Y-17645317D01*
X11970910Y-17861441D01*
X12183110Y-18006431D01*
X12203534Y-18010567D01*
X12034449Y-18179357D01*
X11800267Y-18743330D01*
X11799735Y-19353991D01*
X12032932Y-19918371D01*
X12434182Y-20320323D01*
X12034449Y-20719357D01*
X11800267Y-21283330D01*
X11799735Y-21893991D01*
X12032932Y-22458371D01*
X12434182Y-22860323D01*
X12034449Y-23259357D01*
X11800267Y-23823330D01*
X11799735Y-24433991D01*
X12032932Y-24998371D01*
X12434182Y-25400323D01*
X12034449Y-25799357D01*
X11800267Y-26363330D01*
X11799735Y-26973991D01*
X12032932Y-27538371D01*
X12434182Y-27940323D01*
X12034449Y-28339357D01*
X11800267Y-28903330D01*
X11799735Y-29513991D01*
X12032932Y-30078371D01*
X12434182Y-30480323D01*
X12034449Y-30879357D01*
X11800267Y-31443330D01*
X11799735Y-32053991D01*
X12032932Y-32618371D01*
X12464357Y-33050551D01*
X12485194Y-33059203D01*
X12434446Y-33209841D01*
X13335000Y-34110395D01*
X14235554Y-33209841D01*
X14184965Y-33059673D01*
X14203371Y-33052068D01*
X14490000Y-32765940D01*
X14490000Y-33414659D01*
X14415159Y-33389446D01*
X13514605Y-34290000D01*
X14415159Y-35190554D01*
X14671643Y-35104148D01*
X14861971Y-34583928D01*
X14895657Y-34634343D01*
X18070657Y-37809343D01*
X18519983Y-38109573D01*
X19050000Y-38215000D01*
X20079659Y-38215000D01*
X20054446Y-38289841D01*
X20955000Y-39190395D01*
X21855554Y-38289841D01*
X21804965Y-38139673D01*
X21823371Y-38132068D01*
X22255551Y-37700643D01*
X22489733Y-37136670D01*
X22490265Y-36526009D01*
X22257068Y-35961629D01*
X21855818Y-35559677D01*
X22255551Y-35160643D01*
X22489733Y-34596670D01*
X22490265Y-33986009D01*
X22257068Y-33421629D01*
X21855818Y-33019677D01*
X22255551Y-32620643D01*
X22489733Y-32056670D01*
X22490265Y-31446009D01*
X22257068Y-30881629D01*
X21855818Y-30479677D01*
X22090906Y-30245000D01*
X22431288Y-30245000D01*
X24365000Y-32178711D01*
X24365000Y-38099995D01*
X24364999Y-38100000D01*
X24443785Y-38496077D01*
X24668144Y-38831856D01*
X30383142Y-44546853D01*
X30383144Y-44546856D01*
X30394722Y-44554592D01*
X30447932Y-44683371D01*
X30849182Y-45085323D01*
X30449449Y-45484357D01*
X30215267Y-46048330D01*
X30214735Y-46658991D01*
X30447932Y-47223371D01*
X30849182Y-47625323D01*
X30449449Y-48024357D01*
X30215267Y-48588330D01*
X30214735Y-49198991D01*
X30447932Y-49763371D01*
X30879357Y-50195551D01*
X31443330Y-50429733D01*
X31926135Y-50430154D01*
X31321288Y-51035000D01*
X21332238Y-51035000D01*
X21823371Y-50832068D01*
X22255551Y-50400643D01*
X22489733Y-49836670D01*
X22490265Y-49226009D01*
X22257068Y-48661629D01*
X21855818Y-48259677D01*
X22255551Y-47860643D01*
X22489733Y-47296670D01*
X22490265Y-46686009D01*
X22257068Y-46121629D01*
X21855818Y-45719677D01*
X22255551Y-45320643D01*
X22489733Y-44756670D01*
X22490265Y-44146009D01*
X22257068Y-43581629D01*
X21855818Y-43179677D01*
X22255551Y-42780643D01*
X22489733Y-42216670D01*
X22490265Y-41606009D01*
X22257068Y-41041629D01*
X21825643Y-40609449D01*
X21804806Y-40600797D01*
X21855554Y-40450159D01*
X20955000Y-39549605D01*
X20054446Y-40450159D01*
X20105035Y-40600327D01*
X20086629Y-40607932D01*
X19654449Y-41039357D01*
X19420267Y-41603330D01*
X19419735Y-42213991D01*
X19652932Y-42778371D01*
X20054182Y-43180323D01*
X19654449Y-43579357D01*
X19635435Y-43625148D01*
X19604838Y-43579357D01*
X19527856Y-43464144D01*
X19527853Y-43464142D01*
X17241856Y-41178144D01*
X16906077Y-40953785D01*
X16510000Y-40874999D01*
X16509995Y-40875000D01*
X14470730Y-40875000D01*
X14235818Y-40639677D01*
X14635551Y-40240643D01*
X14869733Y-39676670D01*
X14870209Y-39129336D01*
X19408542Y-39129336D01*
X19434161Y-39739460D01*
X19618357Y-40184148D01*
X19874841Y-40270554D01*
X20775395Y-39370000D01*
X21134605Y-39370000D01*
X22035159Y-40270554D01*
X22291643Y-40184148D01*
X22501458Y-39610664D01*
X22475839Y-39000540D01*
X22291643Y-38555852D01*
X22035159Y-38469446D01*
X21134605Y-39370000D01*
X20775395Y-39370000D01*
X19874841Y-38469446D01*
X19618357Y-38555852D01*
X19408542Y-39129336D01*
X14870209Y-39129336D01*
X14870265Y-39066009D01*
X14637068Y-38501629D01*
X14235818Y-38099677D01*
X14635551Y-37700643D01*
X14869733Y-37136670D01*
X14870265Y-36526009D01*
X14637068Y-35961629D01*
X14205643Y-35529449D01*
X14184806Y-35520797D01*
X14235554Y-35370159D01*
X13335000Y-34469605D01*
X12434446Y-35370159D01*
X12485035Y-35520327D01*
X12466629Y-35527932D01*
X12034449Y-35959357D01*
X11800267Y-36523330D01*
X11799735Y-37133991D01*
X12032932Y-37698371D01*
X12434182Y-38100323D01*
X12034449Y-38499357D01*
X11800267Y-39063330D01*
X11799735Y-39673991D01*
X12032932Y-40238371D01*
X12434182Y-40640323D01*
X12034449Y-41039357D01*
X11800267Y-41603330D01*
X11799735Y-42213991D01*
X12032932Y-42778371D01*
X12434182Y-43180323D01*
X12034449Y-43579357D01*
X11800267Y-44143330D01*
X11799735Y-44753991D01*
X12032932Y-45318371D01*
X12434182Y-45720323D01*
X12034449Y-46119357D01*
X11800267Y-46683330D01*
X11799735Y-47293991D01*
X12032932Y-47858371D01*
X12434182Y-48260323D01*
X12034449Y-48659357D01*
X11800267Y-49223330D01*
X11799846Y-49706135D01*
X10256856Y-48163144D01*
X9921077Y-47938785D01*
X9525000Y-47859999D01*
X9524995Y-47860000D01*
X5722029Y-47860000D01*
X5487241Y-47624801D01*
X5830278Y-47282363D01*
X6079716Y-46681648D01*
X6080284Y-46031205D01*
X5831894Y-45430057D01*
X5372363Y-44969722D01*
X4771648Y-44720284D01*
X4121205Y-44719716D01*
X3520057Y-44968106D01*
X3059722Y-45427637D01*
X2810284Y-46028352D01*
X2809716Y-46678795D01*
X3058106Y-47279943D01*
X3402759Y-47625199D01*
X3059722Y-47967637D01*
X2810284Y-48568352D01*
X2809716Y-49218795D01*
X3058106Y-49819943D01*
X3402759Y-50165199D01*
X3059722Y-50507637D01*
X2810284Y-51108352D01*
X2809716Y-51758795D01*
X3058106Y-52359943D01*
X3484978Y-52787562D01*
X3472073Y-52822468D01*
X4445000Y-53795395D01*
X5417927Y-52822468D01*
X5404836Y-52787062D01*
X5722453Y-52470000D01*
X8999892Y-52470000D01*
X8793144Y-52608144D01*
X8568785Y-52943923D01*
X8489999Y-53340000D01*
X8568785Y-53736077D01*
X8793144Y-54071856D01*
X10063142Y-55341853D01*
X10063144Y-55341856D01*
X10264429Y-55476349D01*
X10398922Y-55566215D01*
X10795000Y-55645001D01*
X10795005Y-55645000D01*
X12215351Y-55645000D01*
X12159176Y-55701077D01*
X11940250Y-56228309D01*
X11939752Y-56799187D01*
X12157757Y-57326800D01*
X12561077Y-57730824D01*
X13088309Y-57949750D01*
X13659187Y-57950248D01*
X14063148Y-57783335D01*
X13656572Y-58055000D01*
X13625657Y-58075657D01*
X12700000Y-59001314D01*
X9234343Y-55535657D01*
X9022917Y-55394387D01*
X8785017Y-55235427D01*
X8255000Y-55130000D01*
X5644020Y-55130000D01*
X5711814Y-55062206D01*
X5597534Y-54947926D01*
X5864387Y-54849264D01*
X6090908Y-54239539D01*
X6066856Y-53589540D01*
X5864387Y-53100736D01*
X5597532Y-53002073D01*
X4624605Y-53975000D01*
X4638748Y-53989143D01*
X4459143Y-54168748D01*
X4445000Y-54154605D01*
X3472073Y-55127532D01*
X3485164Y-55162938D01*
X3059722Y-55587637D01*
X2810284Y-56188352D01*
X2809716Y-56838795D01*
X3058106Y-57439943D01*
X3124621Y-57506574D01*
X2993559Y-57590910D01*
X2848569Y-57803110D01*
X2797560Y-58055000D01*
X2127000Y-58055000D01*
X2127000Y-53710461D01*
X2799092Y-53710461D01*
X2823144Y-54360460D01*
X3025613Y-54849264D01*
X3292468Y-54947927D01*
X4265395Y-53975000D01*
X3292468Y-53002073D01*
X3025613Y-53100736D01*
X2799092Y-53710461D01*
X2127000Y-53710461D01*
X2127000Y-43464187D01*
X6184752Y-43464187D01*
X6402757Y-43991800D01*
X6806077Y-44395824D01*
X7333309Y-44614750D01*
X7904187Y-44615248D01*
X8431800Y-44397243D01*
X8835824Y-43993923D01*
X9054750Y-43466691D01*
X9055248Y-42895813D01*
X8837243Y-42368200D01*
X8433923Y-41964176D01*
X8319232Y-41916552D01*
X8374005Y-41893864D01*
X8448139Y-41647745D01*
X7620000Y-40819605D01*
X6791861Y-41647745D01*
X6865995Y-41893864D01*
X6924254Y-41914805D01*
X6808200Y-41962757D01*
X6404176Y-42366077D01*
X6185250Y-42893309D01*
X6184752Y-43464187D01*
X2127000Y-43464187D01*
X2127000Y-40423223D01*
X6173035Y-40423223D01*
X6200222Y-40993454D01*
X6366136Y-41394005D01*
X6612255Y-41468139D01*
X7440395Y-40640000D01*
X7799605Y-40640000D01*
X8627745Y-41468139D01*
X8873864Y-41394005D01*
X9066965Y-40856777D01*
X9039778Y-40286546D01*
X8873864Y-39885995D01*
X8627745Y-39811861D01*
X7799605Y-40640000D01*
X7440395Y-40640000D01*
X6612255Y-39811861D01*
X6366136Y-39885995D01*
X6173035Y-40423223D01*
X2127000Y-40423223D01*
X2127000Y-37300000D01*
X6172560Y-37300000D01*
X6172560Y-38900000D01*
X6216838Y-39135317D01*
X6355910Y-39351441D01*
X6568110Y-39496431D01*
X6817557Y-39546945D01*
X6791861Y-39632255D01*
X7620000Y-40460395D01*
X8448139Y-39632255D01*
X8422453Y-39546978D01*
X8655317Y-39503162D01*
X8871441Y-39364090D01*
X9016431Y-39151890D01*
X9067440Y-38900000D01*
X9067440Y-37300000D01*
X9023162Y-37064683D01*
X8884090Y-36848559D01*
X8671890Y-36703569D01*
X8420000Y-36652560D01*
X6820000Y-36652560D01*
X6584683Y-36696838D01*
X6368559Y-36835910D01*
X6223569Y-37048110D01*
X6172560Y-37300000D01*
X2127000Y-37300000D01*
X2127000Y-35257745D01*
X6791861Y-35257745D01*
X6865995Y-35503864D01*
X7403223Y-35696965D01*
X7973454Y-35669778D01*
X8374005Y-35503864D01*
X8448139Y-35257745D01*
X7620000Y-34429605D01*
X6791861Y-35257745D01*
X2127000Y-35257745D01*
X2127000Y-34033223D01*
X6173035Y-34033223D01*
X6200222Y-34603454D01*
X6366136Y-35004005D01*
X6612255Y-35078139D01*
X7440395Y-34250000D01*
X7799605Y-34250000D01*
X8627745Y-35078139D01*
X8873864Y-35004005D01*
X9066965Y-34466777D01*
X9047063Y-34049336D01*
X11788542Y-34049336D01*
X11814161Y-34659460D01*
X11998357Y-35104148D01*
X12254841Y-35190554D01*
X13155395Y-34290000D01*
X12254841Y-33389446D01*
X11998357Y-33475852D01*
X11788542Y-34049336D01*
X9047063Y-34049336D01*
X9039778Y-33896546D01*
X8873864Y-33495995D01*
X8627745Y-33421861D01*
X7799605Y-34250000D01*
X7440395Y-34250000D01*
X6612255Y-33421861D01*
X6366136Y-33495995D01*
X6173035Y-34033223D01*
X2127000Y-34033223D01*
X2127000Y-33242255D01*
X6791861Y-33242255D01*
X7620000Y-34070395D01*
X8448139Y-33242255D01*
X8374005Y-32996136D01*
X7836777Y-32803035D01*
X7266546Y-32830222D01*
X6865995Y-32996136D01*
X6791861Y-33242255D01*
X2127000Y-33242255D01*
X2127000Y-29534187D01*
X6184752Y-29534187D01*
X6402757Y-30061800D01*
X6806077Y-30465824D01*
X7333309Y-30684750D01*
X7904187Y-30685248D01*
X8431800Y-30467243D01*
X8835824Y-30063923D01*
X9054750Y-29536691D01*
X9055248Y-28965813D01*
X8837243Y-28438200D01*
X8433923Y-28034176D01*
X7906691Y-27815250D01*
X7335813Y-27814752D01*
X6808200Y-28032757D01*
X6404176Y-28436077D01*
X6185250Y-28963309D01*
X6184752Y-29534187D01*
X2127000Y-29534187D01*
X2127000Y-16880000D01*
X2897560Y-16880000D01*
X2897560Y-18680000D01*
X2941838Y-18915317D01*
X3080910Y-19131441D01*
X3293110Y-19276431D01*
X3545000Y-19327440D01*
X5345000Y-19327440D01*
X5580317Y-19283162D01*
X5796441Y-19144090D01*
X5941431Y-18931890D01*
X5945567Y-18911466D01*
X6114357Y-19080551D01*
X6678330Y-19314733D01*
X7288991Y-19315265D01*
X7853371Y-19082068D01*
X8285551Y-18650643D01*
X8519733Y-18086670D01*
X8520265Y-17476009D01*
X8287068Y-16911629D01*
X7855643Y-16479449D01*
X7291670Y-16245267D01*
X6681009Y-16244735D01*
X6116629Y-16477932D01*
X5948387Y-16645880D01*
X5948162Y-16644683D01*
X5809090Y-16428559D01*
X5596890Y-16283569D01*
X5345000Y-16232560D01*
X3545000Y-16232560D01*
X3309683Y-16276838D01*
X3093559Y-16415910D01*
X2948569Y-16628110D01*
X2897560Y-16880000D01*
X2127000Y-16880000D01*
X2127000Y-7267140D01*
X2938249Y-8079806D01*
X4273782Y-8634368D01*
X5719874Y-8635630D01*
X7056372Y-8083400D01*
X8079806Y-7061751D01*
X8634368Y-5726218D01*
X8635630Y-4280126D01*
X8083400Y-2943628D01*
X7268196Y-2127000D01*
X42732860Y-2127000D01*
X41920194Y-2938249D01*
M02*
