G04 #@! TF.FileFunction,Copper,L1,Top,Signal*
%FSLAX46Y46*%
G04 Gerber Fmt 4.6, Leading zero omitted, Abs format (unit mm)*
G04 Created by KiCad (PCBNEW 4.0.2-stable) date 2016/04/14 22:54:03*
%MOMM*%
G01*
G04 APERTURE LIST*
%ADD10C,0.100000*%
%ADD11R,1.800000X1.800000*%
%ADD12C,1.800000*%
%ADD13R,1.600000X1.600000*%
%ADD14C,1.600000*%
%ADD15C,2.000000*%
%ADD16R,0.400000X1.800000*%
%ADD17R,2.300000X2.300000*%
%ADD18R,1.600000X2.000000*%
%ADD19C,2.600000*%
%ADD20R,2.000000X2.000000*%
%ADD21C,6.000000*%
%ADD22C,0.600000*%
%ADD23C,1.000000*%
%ADD24C,0.800000*%
%ADD25C,0.300000*%
%ADD26C,1.500000*%
%ADD27C,2.000000*%
%ADD28C,0.500000*%
%ADD29C,0.254000*%
G04 APERTURE END LIST*
D10*
D11*
X13335000Y-16510000D03*
D12*
X13335000Y-19050000D03*
X13335000Y-21590000D03*
X13335000Y-24130000D03*
X13335000Y-26670000D03*
X13335000Y-29210000D03*
X13335000Y-31750000D03*
X13335000Y-34290000D03*
X13335000Y-36830000D03*
X13335000Y-39370000D03*
X13335000Y-41910000D03*
X13335000Y-44450000D03*
X13335000Y-46990000D03*
X13335000Y-49530000D03*
X20955000Y-49530000D03*
X20955000Y-46990000D03*
X20955000Y-44450000D03*
X20955000Y-41910000D03*
X20955000Y-39370000D03*
X20955000Y-36830000D03*
X20955000Y-34290000D03*
X20955000Y-31750000D03*
X20955000Y-29210000D03*
X20955000Y-26670000D03*
X20955000Y-24130000D03*
X20955000Y-21590000D03*
X20955000Y-19050000D03*
X20955000Y-16510000D03*
D11*
X4445000Y-17780000D03*
D12*
X6985000Y-17780000D03*
D13*
X7620000Y-38100000D03*
D14*
X7620000Y-40640000D03*
X7620000Y-43180000D03*
X13375000Y-56515000D03*
X18375000Y-56515000D03*
X7620000Y-29250000D03*
X7620000Y-34250000D03*
X10200000Y-67945000D03*
X15200000Y-67945000D03*
X34330000Y-62230000D03*
X39330000Y-62230000D03*
D15*
X15085000Y-87630000D03*
X11585000Y-87630000D03*
X38580000Y-87630000D03*
X35080000Y-87630000D03*
D16*
X23700000Y-6000000D03*
X24350000Y-6000000D03*
X25000000Y-6000000D03*
X25650000Y-6000000D03*
X26300000Y-6000000D03*
D17*
X28150000Y-5000000D03*
X21850000Y-5000000D03*
D18*
X28900000Y-2650000D03*
X21100000Y-2650000D03*
D19*
X27750000Y-93000000D03*
X22250000Y-93000000D03*
X27200000Y-87500000D03*
X22800000Y-87500000D03*
D20*
X4445000Y-59055000D03*
D15*
X4445000Y-56515000D03*
X4445000Y-53975000D03*
X4445000Y-51435000D03*
X4445000Y-48895000D03*
X4445000Y-46355000D03*
D20*
X5080000Y-23495000D03*
D15*
X5080000Y-26035000D03*
D20*
X10160000Y-11430000D03*
D15*
X12700000Y-11430000D03*
D20*
X40640000Y-65405000D03*
D15*
X43180000Y-65405000D03*
D20*
X17780000Y-64135000D03*
D15*
X17780000Y-61595000D03*
D20*
X8890000Y-64135000D03*
D15*
X8890000Y-61595000D03*
D20*
X22225000Y-82550000D03*
D15*
X22225000Y-80010000D03*
D20*
X27940000Y-82550000D03*
D15*
X27940000Y-80010000D03*
D14*
X45085000Y-76835000D03*
X45085000Y-74295000D03*
X45085000Y-71755000D03*
D11*
X16510000Y-79375000D03*
D12*
X16510000Y-76835000D03*
X16510000Y-74295000D03*
X16510000Y-71755000D03*
X8890000Y-71755000D03*
X8890000Y-74295000D03*
X8890000Y-76835000D03*
X8890000Y-79375000D03*
D11*
X39370000Y-48895000D03*
D12*
X39370000Y-46355000D03*
X39370000Y-43815000D03*
X39370000Y-41275000D03*
X39370000Y-38735000D03*
X39370000Y-36195000D03*
X39370000Y-33655000D03*
X39370000Y-31115000D03*
X39370000Y-28575000D03*
X31750000Y-28575000D03*
X31750000Y-31115000D03*
X31750000Y-33655000D03*
X31750000Y-36195000D03*
X31750000Y-38735000D03*
X31750000Y-41275000D03*
X31750000Y-43815000D03*
X31750000Y-46355000D03*
X31750000Y-48895000D03*
D13*
X44450000Y-13335000D03*
D14*
X44450000Y-20955000D03*
X36830000Y-20955000D03*
X36830000Y-13335000D03*
X29210000Y-20955000D03*
X29210000Y-13335000D03*
D21*
X5000000Y-5000000D03*
X45000000Y-5000000D03*
X5000000Y-95000000D03*
X45000000Y-95000000D03*
D22*
X15240000Y-12700000D03*
X15240000Y-10795000D03*
X17780000Y-10795000D03*
X16510000Y-40005000D03*
X16510000Y-37465000D03*
X10160000Y-83820000D03*
X5080000Y-88900000D03*
X5080000Y-86360000D03*
X5080000Y-83820000D03*
X5080000Y-81280000D03*
X7620000Y-81280000D03*
X7620000Y-83820000D03*
X7620000Y-86360000D03*
X7620000Y-88900000D03*
X7620000Y-91440000D03*
X17780000Y-96520000D03*
X15240000Y-96520000D03*
X12700000Y-96520000D03*
X10160000Y-96520000D03*
X10160000Y-93980000D03*
X12700000Y-93980000D03*
X15240000Y-93980000D03*
X17780000Y-93980000D03*
X40640000Y-91440000D03*
X38100000Y-91440000D03*
X35560000Y-91440000D03*
X33020000Y-91440000D03*
X33020000Y-93980000D03*
X35560000Y-93980000D03*
X38100000Y-93980000D03*
X38100000Y-96520000D03*
X35560000Y-96520000D03*
X33020000Y-96520000D03*
X43180000Y-88900000D03*
X45720000Y-88900000D03*
X45720000Y-86360000D03*
X43180000Y-86360000D03*
X40640000Y-83820000D03*
X43180000Y-83820000D03*
X45720000Y-83820000D03*
X45720000Y-81280000D03*
X43180000Y-81280000D03*
X40640000Y-81280000D03*
X38100000Y-81280000D03*
X38100000Y-78740000D03*
X40640000Y-78740000D03*
X43180000Y-78740000D03*
X43180000Y-76200000D03*
X40640000Y-76200000D03*
X38100000Y-76200000D03*
X35560000Y-76200000D03*
X33020000Y-76200000D03*
X33020000Y-78740000D03*
X35560000Y-78740000D03*
X30480000Y-78740000D03*
X10160000Y-45720000D03*
X25400000Y-45720000D03*
X25400000Y-48260000D03*
X25400000Y-50800000D03*
X22860000Y-50800000D03*
X22860000Y-48260000D03*
X22860000Y-45720000D03*
X22860000Y-43180000D03*
X43180000Y-58420000D03*
X43180000Y-60960000D03*
X22860000Y-58420000D03*
X27940000Y-58420000D03*
X25400000Y-58420000D03*
X38100000Y-66040000D03*
X35560000Y-66040000D03*
X33020000Y-66040000D03*
X30480000Y-66040000D03*
X27940000Y-66040000D03*
X25400000Y-66040000D03*
X25400000Y-68580000D03*
X27940000Y-68580000D03*
X30480000Y-68580000D03*
X33020000Y-68580000D03*
X35560000Y-68580000D03*
X38100000Y-68580000D03*
X38100000Y-71120000D03*
X35560000Y-71120000D03*
X33020000Y-71120000D03*
X30480000Y-71120000D03*
X27940000Y-71120000D03*
X25400000Y-71120000D03*
X10160000Y-33020000D03*
X45720000Y-38100000D03*
X45720000Y-35560000D03*
X45720000Y-30480000D03*
X45720000Y-33020000D03*
X43180000Y-33020000D03*
X43180000Y-35560000D03*
X27940000Y-25400000D03*
X30480000Y-25400000D03*
X33020000Y-25400000D03*
X33020000Y-22860000D03*
X22860000Y-40640000D03*
X25400000Y-40640000D03*
X22860000Y-38100000D03*
X17780000Y-5080000D03*
X15240000Y-5080000D03*
X12700000Y-5080000D03*
X10160000Y-5080000D03*
X5080000Y-10160000D03*
X5080000Y-12700000D03*
X5080000Y-15240000D03*
X7620000Y-15240000D03*
X7620000Y-12700000D03*
X7620000Y-10160000D03*
X33020000Y-15240000D03*
X40640000Y-15240000D03*
X40640000Y-17780000D03*
X38100000Y-17780000D03*
X35560000Y-17780000D03*
X33020000Y-17780000D03*
X30480000Y-17780000D03*
X40640000Y-5080000D03*
X38100000Y-5080000D03*
X35560000Y-5080000D03*
X33020000Y-5080000D03*
X30480000Y-7620000D03*
X33020000Y-7620000D03*
X35560000Y-7620000D03*
X38100000Y-7620000D03*
X40640000Y-7620000D03*
X40640000Y-10160000D03*
X38100000Y-10160000D03*
X35560000Y-10160000D03*
X33020000Y-10160000D03*
X30480000Y-10160000D03*
X32512000Y-54864000D03*
X18796000Y-50292000D03*
X32385000Y-56515000D03*
X17145000Y-50800000D03*
X9525000Y-53340000D03*
D23*
X13335000Y-49530000D02*
X13335000Y-56475000D01*
X13335000Y-56475000D02*
X13375000Y-56515000D01*
D24*
X13335000Y-56475000D02*
X13375000Y-56515000D01*
X17780000Y-10795000D02*
X15240000Y-10795000D01*
X16510000Y-37465000D02*
X16510000Y-40005000D01*
X7620000Y-83820000D02*
X10160000Y-83820000D01*
X5080000Y-83820000D02*
X5080000Y-86360000D01*
X7620000Y-81280000D02*
X5080000Y-81280000D01*
X7620000Y-86360000D02*
X7620000Y-83820000D01*
X7620000Y-91440000D02*
X7620000Y-88900000D01*
X15240000Y-96520000D02*
X17780000Y-96520000D01*
X10160000Y-96520000D02*
X12700000Y-96520000D01*
X12700000Y-93980000D02*
X10160000Y-93980000D01*
X17780000Y-93980000D02*
X15240000Y-93980000D01*
X38100000Y-91440000D02*
X40640000Y-91440000D01*
X33020000Y-91440000D02*
X35560000Y-91440000D01*
X35560000Y-93980000D02*
X33020000Y-93980000D01*
X38100000Y-96520000D02*
X38100000Y-93980000D01*
X33020000Y-96520000D02*
X35560000Y-96520000D01*
X45720000Y-88900000D02*
X43180000Y-88900000D01*
X43180000Y-86360000D02*
X45720000Y-86360000D01*
X43180000Y-83820000D02*
X40640000Y-83820000D01*
X45720000Y-81280000D02*
X45720000Y-83820000D01*
X40640000Y-81280000D02*
X43180000Y-81280000D01*
X38100000Y-78740000D02*
X38100000Y-81280000D01*
X43180000Y-78740000D02*
X40640000Y-78740000D01*
X40640000Y-76200000D02*
X43180000Y-76200000D01*
X35560000Y-76200000D02*
X38100000Y-76200000D01*
X33020000Y-78740000D02*
X33020000Y-76200000D01*
X30480000Y-78740000D02*
X35560000Y-78740000D01*
X25400000Y-50800000D02*
X25400000Y-48260000D01*
X22860000Y-48260000D02*
X22860000Y-50800000D01*
X22860000Y-43180000D02*
X22860000Y-45720000D01*
X43180000Y-60960000D02*
X43180000Y-58420000D01*
X25400000Y-66040000D02*
X25400000Y-58420000D01*
X27940000Y-58420000D02*
X22860000Y-58420000D01*
X35560000Y-66040000D02*
X38100000Y-66040000D01*
X30480000Y-66040000D02*
X33020000Y-66040000D01*
X25400000Y-66040000D02*
X27940000Y-66040000D01*
X27940000Y-68580000D02*
X25400000Y-68580000D01*
X33020000Y-68580000D02*
X30480000Y-68580000D01*
X38100000Y-68580000D02*
X35560000Y-68580000D01*
X35560000Y-71120000D02*
X38100000Y-71120000D01*
X30480000Y-71120000D02*
X33020000Y-71120000D01*
X25400000Y-71120000D02*
X27940000Y-71120000D01*
X45720000Y-35560000D02*
X45720000Y-38100000D01*
X45720000Y-33020000D02*
X45720000Y-30480000D01*
X43180000Y-35560000D02*
X43180000Y-33020000D01*
X30480000Y-25400000D02*
X27940000Y-25400000D01*
X33020000Y-22860000D02*
X33020000Y-25400000D01*
X20955000Y-39370000D02*
X21590000Y-39370000D01*
X21590000Y-39370000D02*
X22860000Y-40640000D01*
X25400000Y-40640000D02*
X22860000Y-38100000D01*
X10160000Y-5080000D02*
X10160000Y-7620000D01*
X17860000Y-5000000D02*
X17780000Y-5080000D01*
X15240000Y-5080000D02*
X12700000Y-5080000D01*
X21850000Y-5000000D02*
X17860000Y-5000000D01*
X5080000Y-15240000D02*
X5080000Y-12700000D01*
X7620000Y-12700000D02*
X7620000Y-15240000D01*
X10160000Y-7620000D02*
X7620000Y-10160000D01*
X40640000Y-17780000D02*
X40640000Y-15240000D01*
X35560000Y-17780000D02*
X38100000Y-17780000D01*
X30480000Y-17780000D02*
X33020000Y-17780000D01*
X38100000Y-5080000D02*
X40640000Y-5080000D01*
X33020000Y-5080000D02*
X35560000Y-5080000D01*
X33020000Y-7620000D02*
X30480000Y-7620000D01*
X38100000Y-7620000D02*
X35560000Y-7620000D01*
X40640000Y-10160000D02*
X40640000Y-7620000D01*
X35560000Y-10160000D02*
X38100000Y-10160000D01*
X30480000Y-10160000D02*
X33020000Y-10160000D01*
D25*
X26300000Y-6000000D02*
X26300000Y-4180000D01*
X26300000Y-4180000D02*
X27120000Y-5000000D01*
X27120000Y-5000000D02*
X28150000Y-5000000D01*
D26*
X39370000Y-41275000D02*
X37465000Y-41275000D01*
X34330000Y-60920000D02*
X34330000Y-62230000D01*
X36195000Y-59055000D02*
X34330000Y-60920000D01*
X36195000Y-42545000D02*
X36195000Y-59055000D01*
X37465000Y-41275000D02*
X36195000Y-42545000D01*
D25*
X23700000Y-6000000D02*
X23700000Y-7415000D01*
D26*
X12065000Y-8890000D02*
X19050000Y-8890000D01*
X12065000Y-8890000D02*
X10160000Y-10795000D01*
D25*
X20320000Y-7620000D02*
X19050000Y-8890000D01*
X23495000Y-7620000D02*
X20320000Y-7620000D01*
X23700000Y-7415000D02*
X23495000Y-7620000D01*
D26*
X10160000Y-11430000D02*
X10160000Y-10795000D01*
D25*
X23700000Y-6780000D02*
X23700000Y-6000000D01*
D26*
X4445000Y-56515000D02*
X5715000Y-56515000D01*
X5080000Y-43180000D02*
X5080000Y-27940000D01*
X7620000Y-45720000D02*
X5080000Y-43180000D01*
X7620000Y-54610000D02*
X7620000Y-45720000D01*
X5715000Y-56515000D02*
X7620000Y-54610000D01*
X5080000Y-26035000D02*
X5080000Y-27940000D01*
X6390000Y-29250000D02*
X7620000Y-29250000D01*
X5080000Y-27940000D02*
X6390000Y-29250000D01*
X39370000Y-31115000D02*
X37465000Y-31115000D01*
X37465000Y-31115000D02*
X36830000Y-31750000D01*
X36830000Y-31750000D02*
X36830000Y-38735000D01*
X36830000Y-38735000D02*
X39370000Y-41275000D01*
X39370000Y-31115000D02*
X41275000Y-31115000D01*
X44450000Y-27940000D02*
X44450000Y-20955000D01*
X41275000Y-31115000D02*
X44450000Y-27940000D01*
X8890000Y-79375000D02*
X10795000Y-79375000D01*
X10795000Y-79375000D02*
X11430000Y-78740000D01*
X11430000Y-78740000D02*
X11430000Y-69175000D01*
X11430000Y-69175000D02*
X10200000Y-67945000D01*
D23*
X10200000Y-67945000D02*
X10200000Y-68620000D01*
D27*
X15085000Y-87630000D02*
X15085000Y-87150000D01*
X15085000Y-87150000D02*
X19685000Y-82550000D01*
X19685000Y-82550000D02*
X22225000Y-82550000D01*
X22800000Y-87500000D02*
X21720000Y-87500000D01*
X21720000Y-87500000D02*
X17780000Y-91440000D01*
X17780000Y-91440000D02*
X13970000Y-91440000D01*
X13970000Y-91440000D02*
X11585000Y-89055000D01*
X11585000Y-89055000D02*
X11585000Y-87630000D01*
D23*
X11585000Y-87630000D02*
X11585000Y-88420000D01*
D27*
X27940000Y-82550000D02*
X35560000Y-82550000D01*
X38580000Y-85570000D02*
X38580000Y-87630000D01*
X35560000Y-82550000D02*
X38580000Y-85570000D01*
X27200000Y-87500000D02*
X34950000Y-87500000D01*
X34950000Y-87500000D02*
X35080000Y-87630000D01*
D23*
X34950000Y-87500000D02*
X35080000Y-87630000D01*
D25*
X24350000Y-6000000D02*
X24350000Y-8670000D01*
D23*
X21590000Y-8890000D02*
X24130000Y-8890000D01*
X17780000Y-12700000D02*
X21590000Y-8890000D01*
X17780000Y-46990000D02*
X17780000Y-12700000D01*
X17780000Y-46990000D02*
X20320000Y-49530000D01*
D25*
X24350000Y-8670000D02*
X24130000Y-8890000D01*
D23*
X20955000Y-49530000D02*
X20320000Y-49530000D01*
X23876000Y-10160000D02*
X24638000Y-10160000D01*
X24638000Y-10160000D02*
X24765000Y-10033000D01*
D25*
X24130000Y-10160000D02*
X24384000Y-10160000D01*
D23*
X20320000Y-46990000D02*
X19050000Y-45720000D01*
X19050000Y-45720000D02*
X19050000Y-13970000D01*
X19050000Y-13970000D02*
X22860000Y-10160000D01*
X22860000Y-10160000D02*
X23876000Y-10160000D01*
X23876000Y-10160000D02*
X24130000Y-10160000D01*
D25*
X25000000Y-9544000D02*
X25000000Y-6000000D01*
X24384000Y-10160000D02*
X25000000Y-9544000D01*
D23*
X20955000Y-46990000D02*
X20320000Y-46990000D01*
D24*
X13335000Y-16510000D02*
X13970000Y-16510000D01*
X13970000Y-16510000D02*
X15240000Y-17780000D01*
X13335000Y-59055000D02*
X4445000Y-59055000D01*
X15240000Y-57150000D02*
X13335000Y-59055000D01*
X15240000Y-17780000D02*
X15240000Y-57150000D01*
D23*
X12700000Y-11430000D02*
X12700000Y-15875000D01*
X12700000Y-15875000D02*
X13335000Y-16510000D01*
X12700000Y-15875000D02*
X13335000Y-16510000D01*
D24*
X20955000Y-16510000D02*
X24130000Y-16510000D01*
X29845000Y-31115000D02*
X31750000Y-31115000D01*
X26670000Y-27940000D02*
X29845000Y-31115000D01*
X26670000Y-19050000D02*
X26670000Y-27940000D01*
X24130000Y-16510000D02*
X26670000Y-19050000D01*
X20955000Y-19050000D02*
X24130000Y-19050000D01*
X29845000Y-33655000D02*
X31750000Y-33655000D01*
X25400000Y-29210000D02*
X29845000Y-33655000D01*
X25400000Y-20320000D02*
X25400000Y-29210000D01*
X24130000Y-19050000D02*
X25400000Y-20320000D01*
D23*
X13335000Y-31750000D02*
X11430000Y-31750000D01*
X8890000Y-17780000D02*
X6985000Y-17780000D01*
X10160000Y-19050000D02*
X8890000Y-17780000D01*
X10160000Y-30480000D02*
X10160000Y-19050000D01*
X11430000Y-31750000D02*
X10160000Y-30480000D01*
X5080000Y-23495000D02*
X5080000Y-18415000D01*
X5080000Y-18415000D02*
X4445000Y-17780000D01*
X4445000Y-22860000D02*
X5080000Y-23495000D01*
D26*
X40640000Y-65405000D02*
X40640000Y-69850000D01*
X42545000Y-71755000D02*
X45085000Y-71755000D01*
X40640000Y-69850000D02*
X42545000Y-71755000D01*
X39370000Y-38735000D02*
X42545000Y-38735000D01*
X45720000Y-62865000D02*
X43180000Y-65405000D01*
X45720000Y-41910000D02*
X45720000Y-62865000D01*
X42545000Y-38735000D02*
X45720000Y-41910000D01*
X16510000Y-74295000D02*
X18415000Y-74295000D01*
X19050000Y-65405000D02*
X17780000Y-64135000D01*
X19050000Y-73660000D02*
X19050000Y-65405000D01*
X18415000Y-74295000D02*
X19050000Y-73660000D01*
X17780000Y-61595000D02*
X19685000Y-61595000D01*
X24765000Y-74295000D02*
X45085000Y-74295000D01*
X21590000Y-71120000D02*
X24765000Y-74295000D01*
X21590000Y-63500000D02*
X21590000Y-71120000D01*
X19685000Y-61595000D02*
X21590000Y-63500000D01*
X8890000Y-61595000D02*
X17780000Y-61595000D01*
X8890000Y-71755000D02*
X8890000Y-71120000D01*
X8890000Y-71120000D02*
X7620000Y-69850000D01*
X7620000Y-69850000D02*
X7620000Y-65405000D01*
X7620000Y-65405000D02*
X8890000Y-64135000D01*
D23*
X8890000Y-64135000D02*
X8255000Y-64135000D01*
D26*
X16510000Y-76835000D02*
X18415000Y-76835000D01*
X19050000Y-80010000D02*
X17145000Y-80010000D01*
X19050000Y-77470000D02*
X19050000Y-80010000D01*
X18415000Y-76835000D02*
X19050000Y-77470000D01*
X17145000Y-80010000D02*
X16510000Y-79375000D01*
X22225000Y-80010000D02*
X17145000Y-80010000D01*
X17145000Y-80010000D02*
X16510000Y-79375000D01*
D23*
X17145000Y-80010000D02*
X16510000Y-79375000D01*
D26*
X8890000Y-74295000D02*
X5715000Y-74295000D01*
X5715000Y-76835000D02*
X8890000Y-76835000D01*
X5080000Y-76200000D02*
X5715000Y-76835000D01*
X5080000Y-74930000D02*
X5080000Y-76200000D01*
X5715000Y-74295000D02*
X5080000Y-74930000D01*
X7620000Y-38100000D02*
X8890000Y-38100000D01*
X10160000Y-36830000D02*
X13335000Y-36830000D01*
X8890000Y-38100000D02*
X10160000Y-36830000D01*
X7620000Y-43180000D02*
X8890000Y-43180000D01*
X11430000Y-39370000D02*
X13335000Y-39370000D01*
X10160000Y-40640000D02*
X11430000Y-39370000D01*
X10160000Y-41910000D02*
X10160000Y-40640000D01*
X8890000Y-43180000D02*
X10160000Y-41910000D01*
D23*
X12700000Y-39370000D02*
X13335000Y-39370000D01*
D24*
X23368000Y-54864000D02*
X32512000Y-54864000D01*
X18796000Y-50292000D02*
X23368000Y-54864000D01*
X22860000Y-56515000D02*
X32385000Y-56515000D01*
X17145000Y-50800000D02*
X22860000Y-56515000D01*
X13335000Y-46990000D02*
X12065000Y-46990000D01*
X9525000Y-49530000D02*
X9525000Y-53340000D01*
X12065000Y-46990000D02*
X9525000Y-49530000D01*
X20955000Y-41910000D02*
X24130000Y-41910000D01*
X36195000Y-28575000D02*
X39370000Y-28575000D01*
X34290000Y-30480000D02*
X36195000Y-28575000D01*
X34290000Y-49530000D02*
X34290000Y-30480000D01*
X33020000Y-50800000D02*
X34290000Y-49530000D01*
X29210000Y-50800000D02*
X33020000Y-50800000D01*
X26670000Y-48260000D02*
X29210000Y-50800000D01*
X26670000Y-44450000D02*
X26670000Y-48260000D01*
X24130000Y-41910000D02*
X26670000Y-44450000D01*
X20955000Y-34290000D02*
X21590000Y-34290000D01*
X21590000Y-34290000D02*
X27940000Y-40640000D01*
X29845000Y-48895000D02*
X31750000Y-48895000D01*
X27940000Y-46990000D02*
X29845000Y-48895000D01*
X27940000Y-40640000D02*
X27940000Y-46990000D01*
X31750000Y-46355000D02*
X29845000Y-46355000D01*
X29210000Y-40005000D02*
X20955000Y-31750000D01*
X29210000Y-45720000D02*
X29210000Y-40005000D01*
X29845000Y-46355000D02*
X29210000Y-45720000D01*
X20955000Y-24130000D02*
X21590000Y-24130000D01*
X21590000Y-24130000D02*
X22860000Y-25400000D01*
X22860000Y-25400000D02*
X22860000Y-31750000D01*
X22860000Y-31750000D02*
X29845000Y-38735000D01*
X29845000Y-38735000D02*
X31750000Y-38735000D01*
X31750000Y-36195000D02*
X29845000Y-36195000D01*
X22860000Y-21590000D02*
X20955000Y-21590000D01*
X24130000Y-22860000D02*
X22860000Y-21590000D01*
X24130000Y-30480000D02*
X24130000Y-22860000D01*
X29845000Y-36195000D02*
X24130000Y-30480000D01*
D28*
X31750000Y-36195000D02*
X32385000Y-36195000D01*
D26*
X29210000Y-20955000D02*
X36830000Y-20955000D01*
D29*
G36*
X19665000Y-2364250D02*
X19823750Y-2523000D01*
X20973000Y-2523000D01*
X20973000Y-2503000D01*
X21227000Y-2503000D01*
X21227000Y-2523000D01*
X22376250Y-2523000D01*
X22535000Y-2364250D01*
X22535000Y-2127000D01*
X27465000Y-2127000D01*
X27465000Y-2364250D01*
X27623750Y-2523000D01*
X28773000Y-2523000D01*
X28773000Y-2503000D01*
X29027000Y-2503000D01*
X29027000Y-2523000D01*
X30176250Y-2523000D01*
X30335000Y-2364250D01*
X30335000Y-2127000D01*
X42732860Y-2127000D01*
X41920194Y-2938249D01*
X41365632Y-4273782D01*
X41364370Y-5719874D01*
X41916600Y-7056372D01*
X42938249Y-8079806D01*
X44273782Y-8634368D01*
X45719874Y-8635630D01*
X47056372Y-8083400D01*
X47873000Y-7268196D01*
X47873000Y-92732860D01*
X47061751Y-91920194D01*
X45726218Y-91365632D01*
X44280126Y-91364370D01*
X42943628Y-91916600D01*
X41920194Y-92938249D01*
X41365632Y-94273782D01*
X41364370Y-95719874D01*
X41916600Y-97056372D01*
X42731804Y-97873000D01*
X7267140Y-97873000D01*
X8079806Y-97061751D01*
X8634368Y-95726218D01*
X8635552Y-94369459D01*
X21060146Y-94369459D01*
X21195504Y-94667455D01*
X21913880Y-94944066D01*
X22683427Y-94924710D01*
X23304496Y-94667455D01*
X23439854Y-94369459D01*
X26560146Y-94369459D01*
X26695504Y-94667455D01*
X27413880Y-94944066D01*
X28183427Y-94924710D01*
X28804496Y-94667455D01*
X28939854Y-94369459D01*
X27750000Y-93179605D01*
X26560146Y-94369459D01*
X23439854Y-94369459D01*
X22250000Y-93179605D01*
X21060146Y-94369459D01*
X8635552Y-94369459D01*
X8635630Y-94280126D01*
X8083400Y-92943628D01*
X7061751Y-91920194D01*
X5726218Y-91365632D01*
X4280126Y-91364370D01*
X2943628Y-91916600D01*
X2127000Y-92731804D01*
X2127000Y-87953795D01*
X9949716Y-87953795D01*
X9950000Y-87954482D01*
X9950000Y-89054995D01*
X9949999Y-89055000D01*
X10074457Y-89680688D01*
X10428880Y-90211120D01*
X12813878Y-92596117D01*
X12813880Y-92596120D01*
X13344313Y-92950543D01*
X13970000Y-93075000D01*
X17779995Y-93075000D01*
X17780000Y-93075001D01*
X18405688Y-92950543D01*
X18834709Y-92663880D01*
X20305934Y-92663880D01*
X20325290Y-93433427D01*
X20582545Y-94054496D01*
X20880541Y-94189854D01*
X22070395Y-93000000D01*
X22429605Y-93000000D01*
X23619459Y-94189854D01*
X23917455Y-94054496D01*
X24194066Y-93336120D01*
X24177158Y-92663880D01*
X25805934Y-92663880D01*
X25825290Y-93433427D01*
X26082545Y-94054496D01*
X26380541Y-94189854D01*
X27570395Y-93000000D01*
X27929605Y-93000000D01*
X29119459Y-94189854D01*
X29417455Y-94054496D01*
X29694066Y-93336120D01*
X29674710Y-92566573D01*
X29417455Y-91945504D01*
X29119459Y-91810146D01*
X27929605Y-93000000D01*
X27570395Y-93000000D01*
X26380541Y-91810146D01*
X26082545Y-91945504D01*
X25805934Y-92663880D01*
X24177158Y-92663880D01*
X24174710Y-92566573D01*
X23917455Y-91945504D01*
X23619459Y-91810146D01*
X22429605Y-93000000D01*
X22070395Y-93000000D01*
X20880541Y-91810146D01*
X20582545Y-91945504D01*
X20305934Y-92663880D01*
X18834709Y-92663880D01*
X18936120Y-92596120D01*
X19901698Y-91630541D01*
X21060146Y-91630541D01*
X22250000Y-92820395D01*
X23439854Y-91630541D01*
X26560146Y-91630541D01*
X27750000Y-92820395D01*
X28939854Y-91630541D01*
X28804496Y-91332545D01*
X28086120Y-91055934D01*
X27316573Y-91075290D01*
X26695504Y-91332545D01*
X26560146Y-91630541D01*
X23439854Y-91630541D01*
X23304496Y-91332545D01*
X22586120Y-91055934D01*
X21816573Y-91075290D01*
X21195504Y-91332545D01*
X21060146Y-91630541D01*
X19901698Y-91630541D01*
X22190245Y-89341994D01*
X22413416Y-89434663D01*
X23183207Y-89435335D01*
X23894658Y-89141370D01*
X24439457Y-88597521D01*
X24734663Y-87886584D01*
X24734665Y-87883207D01*
X25264665Y-87883207D01*
X25558630Y-88594658D01*
X26102479Y-89139457D01*
X26813416Y-89434663D01*
X27583207Y-89435335D01*
X28294658Y-89141370D01*
X28301039Y-89135000D01*
X34440960Y-89135000D01*
X34753352Y-89264716D01*
X35403795Y-89265284D01*
X36004943Y-89016894D01*
X36465278Y-88557363D01*
X36714716Y-87956648D01*
X36715284Y-87306205D01*
X36466894Y-86705057D01*
X36007363Y-86244722D01*
X35876224Y-86190268D01*
X35575688Y-85989457D01*
X34950000Y-85864999D01*
X34949995Y-85865000D01*
X28301970Y-85865000D01*
X28297521Y-85860543D01*
X27586584Y-85565337D01*
X26816793Y-85564665D01*
X26105342Y-85858630D01*
X25560543Y-86402479D01*
X25265337Y-87113416D01*
X25264665Y-87883207D01*
X24734665Y-87883207D01*
X24735335Y-87116793D01*
X24441370Y-86405342D01*
X23897521Y-85860543D01*
X23186584Y-85565337D01*
X22416793Y-85564665D01*
X21705342Y-85858630D01*
X21693725Y-85870226D01*
X21094313Y-85989457D01*
X20563880Y-86343880D01*
X20563878Y-86343883D01*
X17102760Y-89805000D01*
X14647239Y-89805000D01*
X13220000Y-88377760D01*
X13220000Y-87631427D01*
X13220284Y-87306205D01*
X12971894Y-86705057D01*
X12512363Y-86244722D01*
X11911648Y-85995284D01*
X11261205Y-85994716D01*
X10660057Y-86243106D01*
X10199722Y-86702637D01*
X9950284Y-87303352D01*
X9949716Y-87953795D01*
X2127000Y-87953795D01*
X2127000Y-58055000D01*
X2797560Y-58055000D01*
X2797560Y-60055000D01*
X2841838Y-60290317D01*
X2980910Y-60506441D01*
X3193110Y-60651431D01*
X3445000Y-60702440D01*
X5445000Y-60702440D01*
X5680317Y-60658162D01*
X5896441Y-60519090D01*
X6041431Y-60306890D01*
X6085352Y-60090000D01*
X8250895Y-60090000D01*
X7965057Y-60208106D01*
X7504722Y-60667637D01*
X7255284Y-61268352D01*
X7254716Y-61918795D01*
X7503106Y-62519943D01*
X7569621Y-62586574D01*
X7438559Y-62670910D01*
X7293569Y-62883110D01*
X7242560Y-63135000D01*
X7242560Y-63646532D01*
X7206397Y-63700654D01*
X7166851Y-63899463D01*
X6640657Y-64425657D01*
X6340427Y-64874983D01*
X6235000Y-65405000D01*
X6235000Y-69850000D01*
X6340427Y-70380017D01*
X6537422Y-70674841D01*
X6640657Y-70829343D01*
X7355184Y-71543870D01*
X7354735Y-72058991D01*
X7587932Y-72623371D01*
X7874060Y-72910000D01*
X5715000Y-72910000D01*
X5184984Y-73015426D01*
X4735657Y-73315657D01*
X4100657Y-73950657D01*
X3800427Y-74399983D01*
X3695000Y-74930000D01*
X3695000Y-76200000D01*
X3800427Y-76730017D01*
X3990583Y-77014605D01*
X4100657Y-77179343D01*
X4735657Y-77814343D01*
X5184984Y-78114574D01*
X5715000Y-78220000D01*
X7874304Y-78220000D01*
X7589449Y-78504357D01*
X7355267Y-79068330D01*
X7354735Y-79678991D01*
X7587932Y-80243371D01*
X8019357Y-80675551D01*
X8583330Y-80909733D01*
X9193991Y-80910265D01*
X9557660Y-80760000D01*
X10795000Y-80760000D01*
X11325017Y-80654573D01*
X11774343Y-80354343D01*
X12409343Y-79719343D01*
X12709574Y-79270016D01*
X12815000Y-78740000D01*
X12815000Y-71514336D01*
X14963542Y-71514336D01*
X14989161Y-72124460D01*
X15173357Y-72569148D01*
X15429841Y-72655554D01*
X16330395Y-71755000D01*
X15429841Y-70854446D01*
X15173357Y-70940852D01*
X14963542Y-71514336D01*
X12815000Y-71514336D01*
X12815000Y-70674841D01*
X15609446Y-70674841D01*
X16510000Y-71575395D01*
X17410554Y-70674841D01*
X17324148Y-70418357D01*
X16750664Y-70208542D01*
X16140540Y-70234161D01*
X15695852Y-70418357D01*
X15609446Y-70674841D01*
X12815000Y-70674841D01*
X12815000Y-69175000D01*
X12812180Y-69160824D01*
X12770791Y-68952745D01*
X14371861Y-68952745D01*
X14445995Y-69198864D01*
X14983223Y-69391965D01*
X15553454Y-69364778D01*
X15954005Y-69198864D01*
X16028139Y-68952745D01*
X15200000Y-68124605D01*
X14371861Y-68952745D01*
X12770791Y-68952745D01*
X12709574Y-68644984D01*
X12409343Y-68195657D01*
X11941909Y-67728223D01*
X13753035Y-67728223D01*
X13780222Y-68298454D01*
X13946136Y-68699005D01*
X14192255Y-68773139D01*
X15020395Y-67945000D01*
X15379605Y-67945000D01*
X16207745Y-68773139D01*
X16453864Y-68699005D01*
X16646965Y-68161777D01*
X16619778Y-67591546D01*
X16453864Y-67190995D01*
X16207745Y-67116861D01*
X15379605Y-67945000D01*
X15020395Y-67945000D01*
X14192255Y-67116861D01*
X13946136Y-67190995D01*
X13753035Y-67728223D01*
X11941909Y-67728223D01*
X11466784Y-67253098D01*
X11417243Y-67133200D01*
X11221640Y-66937255D01*
X14371861Y-66937255D01*
X15200000Y-67765395D01*
X16028139Y-66937255D01*
X15954005Y-66691136D01*
X15416777Y-66498035D01*
X14846546Y-66525222D01*
X14445995Y-66691136D01*
X14371861Y-66937255D01*
X11221640Y-66937255D01*
X11013923Y-66729176D01*
X10486691Y-66510250D01*
X9915813Y-66509752D01*
X9388200Y-66727757D01*
X9005000Y-67110289D01*
X9005000Y-65978686D01*
X9201246Y-65782440D01*
X9890000Y-65782440D01*
X10125317Y-65738162D01*
X10341441Y-65599090D01*
X10486431Y-65386890D01*
X10537440Y-65135000D01*
X10537440Y-63135000D01*
X10508275Y-62980000D01*
X16163948Y-62980000D01*
X16132560Y-63135000D01*
X16132560Y-65135000D01*
X16176838Y-65370317D01*
X16315910Y-65586441D01*
X16528110Y-65731431D01*
X16780000Y-65782440D01*
X17468754Y-65782440D01*
X17665000Y-65978686D01*
X17665000Y-70879659D01*
X17590159Y-70854446D01*
X16689605Y-71755000D01*
X17590159Y-72655554D01*
X17665000Y-72630341D01*
X17665000Y-72910000D01*
X17385341Y-72910000D01*
X17410554Y-72835159D01*
X16510000Y-71934605D01*
X15609446Y-72835159D01*
X15660035Y-72985327D01*
X15641629Y-72992932D01*
X15209449Y-73424357D01*
X14975267Y-73988330D01*
X14974735Y-74598991D01*
X15207932Y-75163371D01*
X15609182Y-75565323D01*
X15209449Y-75964357D01*
X14975267Y-76528330D01*
X14974735Y-77138991D01*
X15207932Y-77703371D01*
X15375880Y-77871613D01*
X15374683Y-77871838D01*
X15158559Y-78010910D01*
X15013569Y-78223110D01*
X14962560Y-78475000D01*
X14962560Y-80275000D01*
X15006838Y-80510317D01*
X15145910Y-80726441D01*
X15358110Y-80871431D01*
X15610000Y-80922440D01*
X16098754Y-80922440D01*
X16165657Y-80989343D01*
X16614984Y-81289574D01*
X17145000Y-81395000D01*
X18527761Y-81395000D01*
X13928880Y-85993880D01*
X13574457Y-86524312D01*
X13449999Y-87150000D01*
X13450000Y-87150005D01*
X13450000Y-87628574D01*
X13449716Y-87953795D01*
X13698106Y-88554943D01*
X14157637Y-89015278D01*
X14758352Y-89264716D01*
X15408795Y-89265284D01*
X16009943Y-89016894D01*
X16470278Y-88557363D01*
X16719716Y-87956648D01*
X16719829Y-87827411D01*
X20362239Y-84185000D01*
X21163569Y-84185000D01*
X21225000Y-84197440D01*
X23225000Y-84197440D01*
X23460317Y-84153162D01*
X23676441Y-84014090D01*
X23821431Y-83801890D01*
X23872440Y-83550000D01*
X23872440Y-81550000D01*
X26292560Y-81550000D01*
X26292560Y-83550000D01*
X26336838Y-83785317D01*
X26475910Y-84001441D01*
X26688110Y-84146431D01*
X26940000Y-84197440D01*
X28940000Y-84197440D01*
X29006113Y-84185000D01*
X34882760Y-84185000D01*
X36945000Y-86247240D01*
X36945000Y-87628574D01*
X36944716Y-87953795D01*
X37193106Y-88554943D01*
X37652637Y-89015278D01*
X38253352Y-89264716D01*
X38903795Y-89265284D01*
X39504943Y-89016894D01*
X39965278Y-88557363D01*
X40214716Y-87956648D01*
X40215284Y-87306205D01*
X40215000Y-87305518D01*
X40215000Y-85570005D01*
X40215001Y-85570000D01*
X40090543Y-84944312D01*
X39736120Y-84413880D01*
X36716120Y-81393880D01*
X36185688Y-81039457D01*
X35560000Y-80914999D01*
X35559995Y-80915000D01*
X29334564Y-80915000D01*
X29574716Y-80336648D01*
X29575284Y-79686205D01*
X29326894Y-79085057D01*
X28867363Y-78624722D01*
X28266648Y-78375284D01*
X27616205Y-78374716D01*
X27015057Y-78623106D01*
X26554722Y-79082637D01*
X26305284Y-79683352D01*
X26304716Y-80333795D01*
X26553106Y-80934943D01*
X26619621Y-81001574D01*
X26488559Y-81085910D01*
X26343569Y-81298110D01*
X26292560Y-81550000D01*
X23872440Y-81550000D01*
X23828162Y-81314683D01*
X23689090Y-81098559D01*
X23546439Y-81001090D01*
X23610278Y-80937363D01*
X23859716Y-80336648D01*
X23860284Y-79686205D01*
X23611894Y-79085057D01*
X23152363Y-78624722D01*
X22551648Y-78375284D01*
X21901205Y-78374716D01*
X21300057Y-78623106D01*
X21298160Y-78625000D01*
X20435000Y-78625000D01*
X20435000Y-77842745D01*
X44256861Y-77842745D01*
X44330995Y-78088864D01*
X44868223Y-78281965D01*
X45438454Y-78254778D01*
X45839005Y-78088864D01*
X45913139Y-77842745D01*
X45085000Y-77014605D01*
X44256861Y-77842745D01*
X20435000Y-77842745D01*
X20435000Y-77470000D01*
X20414118Y-77365017D01*
X20329574Y-76939984D01*
X20114580Y-76618223D01*
X43638035Y-76618223D01*
X43665222Y-77188454D01*
X43831136Y-77589005D01*
X44077255Y-77663139D01*
X44905395Y-76835000D01*
X45264605Y-76835000D01*
X46092745Y-77663139D01*
X46338864Y-77589005D01*
X46531965Y-77051777D01*
X46504778Y-76481546D01*
X46338864Y-76080995D01*
X46092745Y-76006861D01*
X45264605Y-76835000D01*
X44905395Y-76835000D01*
X44077255Y-76006861D01*
X43831136Y-76080995D01*
X43638035Y-76618223D01*
X20114580Y-76618223D01*
X20029343Y-76490657D01*
X19394343Y-75855657D01*
X19206655Y-75730248D01*
X18959344Y-75565000D01*
X19394343Y-75274343D01*
X20029343Y-74639343D01*
X20329574Y-74190016D01*
X20435000Y-73660000D01*
X20435000Y-71836454D01*
X20500583Y-71934605D01*
X20610657Y-72099343D01*
X23785657Y-75274343D01*
X24234983Y-75574573D01*
X24765000Y-75680000D01*
X44301216Y-75680000D01*
X44256861Y-75827255D01*
X45085000Y-76655395D01*
X45913139Y-75827255D01*
X45839005Y-75581136D01*
X45780746Y-75560195D01*
X45896800Y-75512243D01*
X46300824Y-75108923D01*
X46519750Y-74581691D01*
X46520248Y-74010813D01*
X46302243Y-73483200D01*
X45898923Y-73079176D01*
X45768785Y-73025138D01*
X45896800Y-72972243D01*
X46300824Y-72568923D01*
X46519750Y-72041691D01*
X46520248Y-71470813D01*
X46302243Y-70943200D01*
X45898923Y-70539176D01*
X45371691Y-70320250D01*
X44800813Y-70319752D01*
X44679203Y-70370000D01*
X43118686Y-70370000D01*
X42025000Y-69276314D01*
X42025000Y-66911844D01*
X42091441Y-66869090D01*
X42188910Y-66726439D01*
X42252637Y-66790278D01*
X42853352Y-67039716D01*
X43503795Y-67040284D01*
X44104943Y-66791894D01*
X44565278Y-66332363D01*
X44814716Y-65731648D01*
X44814718Y-65728968D01*
X46699343Y-63844343D01*
X46749207Y-63769716D01*
X46999573Y-63395017D01*
X47105000Y-62865000D01*
X47105000Y-41910000D01*
X46999573Y-41379983D01*
X46699343Y-40930657D01*
X43524343Y-37755657D01*
X43438608Y-37698371D01*
X43075017Y-37455427D01*
X42545000Y-37350000D01*
X40245341Y-37350000D01*
X40270554Y-37275159D01*
X39370000Y-36374605D01*
X38469446Y-37275159D01*
X38520035Y-37425327D01*
X38501629Y-37432932D01*
X38215000Y-37719060D01*
X38215000Y-37070341D01*
X38289841Y-37095554D01*
X39190395Y-36195000D01*
X39549605Y-36195000D01*
X40450159Y-37095554D01*
X40706643Y-37009148D01*
X40916458Y-36435664D01*
X40890839Y-35825540D01*
X40706643Y-35380852D01*
X40450159Y-35294446D01*
X39549605Y-36195000D01*
X39190395Y-36195000D01*
X38289841Y-35294446D01*
X38215000Y-35319659D01*
X38215000Y-34670696D01*
X38499357Y-34955551D01*
X38520194Y-34964203D01*
X38469446Y-35114841D01*
X39370000Y-36015395D01*
X40270554Y-35114841D01*
X40219965Y-34964673D01*
X40238371Y-34957068D01*
X40670551Y-34525643D01*
X40904733Y-33961670D01*
X40905265Y-33351009D01*
X40672068Y-32786629D01*
X40385940Y-32500000D01*
X41275000Y-32500000D01*
X41805017Y-32394573D01*
X42254343Y-32094343D01*
X45429343Y-28919343D01*
X45562551Y-28719983D01*
X45729573Y-28470017D01*
X45835000Y-27940000D01*
X45835000Y-21361502D01*
X45884750Y-21241691D01*
X45885248Y-20670813D01*
X45667243Y-20143200D01*
X45263923Y-19739176D01*
X44736691Y-19520250D01*
X44165813Y-19519752D01*
X43638200Y-19737757D01*
X43234176Y-20141077D01*
X43015250Y-20668309D01*
X43014752Y-21239187D01*
X43065000Y-21360797D01*
X43065000Y-27366314D01*
X40701314Y-29730000D01*
X40385696Y-29730000D01*
X40670551Y-29445643D01*
X40904733Y-28881670D01*
X40905265Y-28271009D01*
X40672068Y-27706629D01*
X40240643Y-27274449D01*
X39676670Y-27040267D01*
X39066009Y-27039735D01*
X38501629Y-27272932D01*
X38234094Y-27540000D01*
X36195005Y-27540000D01*
X36195000Y-27539999D01*
X35798923Y-27618785D01*
X35463144Y-27843144D01*
X35463142Y-27843147D01*
X33558144Y-29748144D01*
X33333785Y-30083923D01*
X33254999Y-30480000D01*
X33255000Y-30480005D01*
X33255000Y-30737762D01*
X33052068Y-30246629D01*
X32650818Y-29844677D01*
X33050551Y-29445643D01*
X33284733Y-28881670D01*
X33285265Y-28271009D01*
X33052068Y-27706629D01*
X32620643Y-27274449D01*
X32056670Y-27040267D01*
X31446009Y-27039735D01*
X30881629Y-27272932D01*
X30449449Y-27704357D01*
X30215267Y-28268330D01*
X30214735Y-28878991D01*
X30447932Y-29443371D01*
X30849182Y-29845323D01*
X30614094Y-30080000D01*
X30273711Y-30080000D01*
X27705000Y-27511288D01*
X27705000Y-21239187D01*
X27774752Y-21239187D01*
X27992757Y-21766800D01*
X28396077Y-22170824D01*
X28923309Y-22389750D01*
X29494187Y-22390248D01*
X29615797Y-22340000D01*
X36423498Y-22340000D01*
X36543309Y-22389750D01*
X37114187Y-22390248D01*
X37641800Y-22172243D01*
X38045824Y-21768923D01*
X38264750Y-21241691D01*
X38265248Y-20670813D01*
X38047243Y-20143200D01*
X37643923Y-19739176D01*
X37116691Y-19520250D01*
X36545813Y-19519752D01*
X36424203Y-19570000D01*
X29616502Y-19570000D01*
X29496691Y-19520250D01*
X28925813Y-19519752D01*
X28398200Y-19737757D01*
X27994176Y-20141077D01*
X27775250Y-20668309D01*
X27774752Y-21239187D01*
X27705000Y-21239187D01*
X27705000Y-19050000D01*
X27626215Y-18653923D01*
X27626215Y-18653922D01*
X27531289Y-18511855D01*
X27401856Y-18318144D01*
X27401853Y-18318142D01*
X24861856Y-15778144D01*
X24526077Y-15553785D01*
X24130000Y-15474999D01*
X24129995Y-15475000D01*
X22090730Y-15475000D01*
X21825643Y-15209449D01*
X21261670Y-14975267D01*
X20651009Y-14974735D01*
X20185000Y-15167286D01*
X20185000Y-14440132D01*
X20282387Y-14342745D01*
X28381861Y-14342745D01*
X28455995Y-14588864D01*
X28993223Y-14781965D01*
X29563454Y-14754778D01*
X29964005Y-14588864D01*
X30038139Y-14342745D01*
X36001861Y-14342745D01*
X36075995Y-14588864D01*
X36613223Y-14781965D01*
X37183454Y-14754778D01*
X37584005Y-14588864D01*
X37658139Y-14342745D01*
X36830000Y-13514605D01*
X36001861Y-14342745D01*
X30038139Y-14342745D01*
X29210000Y-13514605D01*
X28381861Y-14342745D01*
X20282387Y-14342745D01*
X21506909Y-13118223D01*
X27763035Y-13118223D01*
X27790222Y-13688454D01*
X27956136Y-14089005D01*
X28202255Y-14163139D01*
X29030395Y-13335000D01*
X29389605Y-13335000D01*
X30217745Y-14163139D01*
X30463864Y-14089005D01*
X30656965Y-13551777D01*
X30636295Y-13118223D01*
X35383035Y-13118223D01*
X35410222Y-13688454D01*
X35576136Y-14089005D01*
X35822255Y-14163139D01*
X36650395Y-13335000D01*
X37009605Y-13335000D01*
X37837745Y-14163139D01*
X38083864Y-14089005D01*
X38276965Y-13551777D01*
X38249778Y-12981546D01*
X38083864Y-12580995D01*
X37931165Y-12535000D01*
X43002560Y-12535000D01*
X43002560Y-14135000D01*
X43046838Y-14370317D01*
X43185910Y-14586441D01*
X43398110Y-14731431D01*
X43650000Y-14782440D01*
X45250000Y-14782440D01*
X45485317Y-14738162D01*
X45701441Y-14599090D01*
X45846431Y-14386890D01*
X45897440Y-14135000D01*
X45897440Y-12535000D01*
X45853162Y-12299683D01*
X45714090Y-12083559D01*
X45501890Y-11938569D01*
X45250000Y-11887560D01*
X43650000Y-11887560D01*
X43414683Y-11931838D01*
X43198559Y-12070910D01*
X43053569Y-12283110D01*
X43002560Y-12535000D01*
X37931165Y-12535000D01*
X37837745Y-12506861D01*
X37009605Y-13335000D01*
X36650395Y-13335000D01*
X35822255Y-12506861D01*
X35576136Y-12580995D01*
X35383035Y-13118223D01*
X30636295Y-13118223D01*
X30629778Y-12981546D01*
X30463864Y-12580995D01*
X30217745Y-12506861D01*
X29389605Y-13335000D01*
X29030395Y-13335000D01*
X28202255Y-12506861D01*
X27956136Y-12580995D01*
X27763035Y-13118223D01*
X21506909Y-13118223D01*
X22297877Y-12327255D01*
X28381861Y-12327255D01*
X29210000Y-13155395D01*
X30038139Y-12327255D01*
X36001861Y-12327255D01*
X36830000Y-13155395D01*
X37658139Y-12327255D01*
X37584005Y-12081136D01*
X37046777Y-11888035D01*
X36476546Y-11915222D01*
X36075995Y-12081136D01*
X36001861Y-12327255D01*
X30038139Y-12327255D01*
X29964005Y-12081136D01*
X29426777Y-11888035D01*
X28856546Y-11915222D01*
X28455995Y-12081136D01*
X28381861Y-12327255D01*
X22297877Y-12327255D01*
X23330132Y-11295000D01*
X24638000Y-11295000D01*
X25072346Y-11208603D01*
X25440566Y-10962566D01*
X25567566Y-10835566D01*
X25813603Y-10467345D01*
X25900000Y-10033000D01*
X25813603Y-9598655D01*
X25783185Y-9553131D01*
X25785001Y-9544000D01*
X25785000Y-9543995D01*
X25785000Y-7547440D01*
X25850000Y-7547440D01*
X25955705Y-7527550D01*
X25973691Y-7535000D01*
X26041250Y-7535000D01*
X26070254Y-7505996D01*
X26085317Y-7503162D01*
X26301441Y-7364090D01*
X26400000Y-7219844D01*
X26400000Y-7376250D01*
X26558750Y-7535000D01*
X26626309Y-7535000D01*
X26859698Y-7438327D01*
X27038327Y-7259699D01*
X27135000Y-7026310D01*
X27135000Y-6785000D01*
X27864250Y-6785000D01*
X28023000Y-6626250D01*
X28023000Y-5127000D01*
X28277000Y-5127000D01*
X28277000Y-6626250D01*
X28435750Y-6785000D01*
X29426309Y-6785000D01*
X29659698Y-6688327D01*
X29838327Y-6509699D01*
X29935000Y-6276310D01*
X29935000Y-5285750D01*
X29776250Y-5127000D01*
X28277000Y-5127000D01*
X28023000Y-5127000D01*
X28003000Y-5127000D01*
X28003000Y-4873000D01*
X28023000Y-4873000D01*
X28023000Y-4853000D01*
X28277000Y-4853000D01*
X28277000Y-4873000D01*
X29776250Y-4873000D01*
X29935000Y-4714250D01*
X29935000Y-4239979D01*
X30059698Y-4188327D01*
X30238327Y-4009699D01*
X30335000Y-3776310D01*
X30335000Y-2935750D01*
X30176250Y-2777000D01*
X29027000Y-2777000D01*
X29027000Y-2797000D01*
X28773000Y-2797000D01*
X28773000Y-2777000D01*
X27623750Y-2777000D01*
X27465000Y-2935750D01*
X27465000Y-3215000D01*
X26873691Y-3215000D01*
X26640302Y-3311673D01*
X26461673Y-3490301D01*
X26365000Y-3723690D01*
X26365000Y-4714250D01*
X26400000Y-4749250D01*
X26400000Y-4782067D01*
X26314090Y-4648559D01*
X26101890Y-4503569D01*
X26074215Y-4497965D01*
X26041250Y-4465000D01*
X25973691Y-4465000D01*
X25953247Y-4473468D01*
X25850000Y-4452560D01*
X25450000Y-4452560D01*
X25320411Y-4476944D01*
X25200000Y-4452560D01*
X24800000Y-4452560D01*
X24670411Y-4476944D01*
X24550000Y-4452560D01*
X24150000Y-4452560D01*
X24020411Y-4476944D01*
X23900000Y-4452560D01*
X23635000Y-4452560D01*
X23635000Y-3723690D01*
X23538327Y-3490301D01*
X23359698Y-3311673D01*
X23126309Y-3215000D01*
X22535000Y-3215000D01*
X22535000Y-2935750D01*
X22376250Y-2777000D01*
X21227000Y-2777000D01*
X21227000Y-2797000D01*
X20973000Y-2797000D01*
X20973000Y-2777000D01*
X19823750Y-2777000D01*
X19665000Y-2935750D01*
X19665000Y-3776310D01*
X19761673Y-4009699D01*
X19940302Y-4188327D01*
X20065000Y-4239979D01*
X20065000Y-4714250D01*
X20223750Y-4873000D01*
X21723000Y-4873000D01*
X21723000Y-4853000D01*
X21977000Y-4853000D01*
X21977000Y-4873000D01*
X21997000Y-4873000D01*
X21997000Y-5127000D01*
X21977000Y-5127000D01*
X21977000Y-6626250D01*
X22135750Y-6785000D01*
X22852560Y-6785000D01*
X22852560Y-6835000D01*
X20320000Y-6835000D01*
X20019593Y-6894755D01*
X19764921Y-7064921D01*
X19279243Y-7550599D01*
X19050000Y-7505000D01*
X12065000Y-7505000D01*
X11534983Y-7610427D01*
X11085657Y-7910657D01*
X9213754Y-9782560D01*
X9160000Y-9782560D01*
X8924683Y-9826838D01*
X8708559Y-9965910D01*
X8563569Y-10178110D01*
X8512560Y-10430000D01*
X8512560Y-12430000D01*
X8556838Y-12665317D01*
X8695910Y-12881441D01*
X8908110Y-13026431D01*
X9160000Y-13077440D01*
X11160000Y-13077440D01*
X11395317Y-13033162D01*
X11565000Y-12923974D01*
X11565000Y-15875000D01*
X11651397Y-16309346D01*
X11785470Y-16510000D01*
X11787560Y-16513128D01*
X11787560Y-17410000D01*
X11831838Y-17645317D01*
X11970910Y-17861441D01*
X12183110Y-18006431D01*
X12203534Y-18010567D01*
X12034449Y-18179357D01*
X11800267Y-18743330D01*
X11799735Y-19353991D01*
X12032932Y-19918371D01*
X12434182Y-20320323D01*
X12034449Y-20719357D01*
X11800267Y-21283330D01*
X11799735Y-21893991D01*
X12032932Y-22458371D01*
X12434182Y-22860323D01*
X12034449Y-23259357D01*
X11800267Y-23823330D01*
X11799735Y-24433991D01*
X12032932Y-24998371D01*
X12434182Y-25400323D01*
X12034449Y-25799357D01*
X11800267Y-26363330D01*
X11799735Y-26973991D01*
X12032932Y-27538371D01*
X12434182Y-27940323D01*
X12034449Y-28339357D01*
X11800267Y-28903330D01*
X11799735Y-29513991D01*
X12032932Y-30078371D01*
X12434182Y-30480323D01*
X12299269Y-30615000D01*
X11900132Y-30615000D01*
X11295000Y-30009868D01*
X11295000Y-19050000D01*
X11208603Y-18615654D01*
X10962566Y-18247434D01*
X9692566Y-16977434D01*
X9594082Y-16911629D01*
X9324346Y-16731397D01*
X8890000Y-16645000D01*
X8020905Y-16645000D01*
X7855643Y-16479449D01*
X7291670Y-16245267D01*
X6681009Y-16244735D01*
X6116629Y-16477932D01*
X5948387Y-16645880D01*
X5948162Y-16644683D01*
X5809090Y-16428559D01*
X5596890Y-16283569D01*
X5345000Y-16232560D01*
X3545000Y-16232560D01*
X3309683Y-16276838D01*
X3093559Y-16415910D01*
X2948569Y-16628110D01*
X2897560Y-16880000D01*
X2897560Y-18680000D01*
X2941838Y-18915317D01*
X3080910Y-19131441D01*
X3293110Y-19276431D01*
X3545000Y-19327440D01*
X3945000Y-19327440D01*
X3945000Y-21855266D01*
X3908135Y-21879899D01*
X3844683Y-21891838D01*
X3628559Y-22030910D01*
X3483569Y-22243110D01*
X3468435Y-22317842D01*
X3396397Y-22425655D01*
X3310000Y-22860000D01*
X3396397Y-23294345D01*
X3432560Y-23348467D01*
X3432560Y-24495000D01*
X3476838Y-24730317D01*
X3615910Y-24946441D01*
X3758561Y-25043910D01*
X3694722Y-25107637D01*
X3445284Y-25708352D01*
X3444716Y-26358795D01*
X3693106Y-26959943D01*
X3695000Y-26961840D01*
X3695000Y-43180000D01*
X3800427Y-43710017D01*
X3990127Y-43993923D01*
X4100657Y-44159343D01*
X4661502Y-44720188D01*
X4121205Y-44719716D01*
X3520057Y-44968106D01*
X3059722Y-45427637D01*
X2810284Y-46028352D01*
X2809716Y-46678795D01*
X3058106Y-47279943D01*
X3402759Y-47625199D01*
X3059722Y-47967637D01*
X2810284Y-48568352D01*
X2809716Y-49218795D01*
X3058106Y-49819943D01*
X3402759Y-50165199D01*
X3059722Y-50507637D01*
X2810284Y-51108352D01*
X2809716Y-51758795D01*
X3058106Y-52359943D01*
X3484978Y-52787562D01*
X3472073Y-52822468D01*
X4445000Y-53795395D01*
X5417927Y-52822468D01*
X5404836Y-52787062D01*
X5830278Y-52362363D01*
X6079716Y-51761648D01*
X6080284Y-51111205D01*
X5831894Y-50510057D01*
X5487241Y-50164801D01*
X5830278Y-49822363D01*
X6079716Y-49221648D01*
X6080284Y-48571205D01*
X5831894Y-47970057D01*
X5487241Y-47624801D01*
X5830278Y-47282363D01*
X6079716Y-46681648D01*
X6080190Y-46138876D01*
X6235000Y-46293686D01*
X6235000Y-54036314D01*
X6088798Y-54182516D01*
X6066856Y-53589540D01*
X5864387Y-53100736D01*
X5597532Y-53002073D01*
X4624605Y-53975000D01*
X4638748Y-53989143D01*
X4459143Y-54168748D01*
X4445000Y-54154605D01*
X3472073Y-55127532D01*
X3485164Y-55162938D01*
X3059722Y-55587637D01*
X2810284Y-56188352D01*
X2809716Y-56838795D01*
X3058106Y-57439943D01*
X3124621Y-57506574D01*
X2993559Y-57590910D01*
X2848569Y-57803110D01*
X2797560Y-58055000D01*
X2127000Y-58055000D01*
X2127000Y-53710461D01*
X2799092Y-53710461D01*
X2823144Y-54360460D01*
X3025613Y-54849264D01*
X3292468Y-54947927D01*
X4265395Y-53975000D01*
X3292468Y-53002073D01*
X3025613Y-53100736D01*
X2799092Y-53710461D01*
X2127000Y-53710461D01*
X2127000Y-7267140D01*
X2938249Y-8079806D01*
X4273782Y-8634368D01*
X5719874Y-8635630D01*
X7056372Y-8083400D01*
X8079806Y-7061751D01*
X8634368Y-5726218D01*
X8634752Y-5285750D01*
X20065000Y-5285750D01*
X20065000Y-6276310D01*
X20161673Y-6509699D01*
X20340302Y-6688327D01*
X20573691Y-6785000D01*
X21564250Y-6785000D01*
X21723000Y-6626250D01*
X21723000Y-5127000D01*
X20223750Y-5127000D01*
X20065000Y-5285750D01*
X8634752Y-5285750D01*
X8635630Y-4280126D01*
X8083400Y-2943628D01*
X7268196Y-2127000D01*
X19665000Y-2127000D01*
X19665000Y-2364250D01*
X19665000Y-2364250D01*
G37*
X19665000Y-2364250D02*
X19823750Y-2523000D01*
X20973000Y-2523000D01*
X20973000Y-2503000D01*
X21227000Y-2503000D01*
X21227000Y-2523000D01*
X22376250Y-2523000D01*
X22535000Y-2364250D01*
X22535000Y-2127000D01*
X27465000Y-2127000D01*
X27465000Y-2364250D01*
X27623750Y-2523000D01*
X28773000Y-2523000D01*
X28773000Y-2503000D01*
X29027000Y-2503000D01*
X29027000Y-2523000D01*
X30176250Y-2523000D01*
X30335000Y-2364250D01*
X30335000Y-2127000D01*
X42732860Y-2127000D01*
X41920194Y-2938249D01*
X41365632Y-4273782D01*
X41364370Y-5719874D01*
X41916600Y-7056372D01*
X42938249Y-8079806D01*
X44273782Y-8634368D01*
X45719874Y-8635630D01*
X47056372Y-8083400D01*
X47873000Y-7268196D01*
X47873000Y-92732860D01*
X47061751Y-91920194D01*
X45726218Y-91365632D01*
X44280126Y-91364370D01*
X42943628Y-91916600D01*
X41920194Y-92938249D01*
X41365632Y-94273782D01*
X41364370Y-95719874D01*
X41916600Y-97056372D01*
X42731804Y-97873000D01*
X7267140Y-97873000D01*
X8079806Y-97061751D01*
X8634368Y-95726218D01*
X8635552Y-94369459D01*
X21060146Y-94369459D01*
X21195504Y-94667455D01*
X21913880Y-94944066D01*
X22683427Y-94924710D01*
X23304496Y-94667455D01*
X23439854Y-94369459D01*
X26560146Y-94369459D01*
X26695504Y-94667455D01*
X27413880Y-94944066D01*
X28183427Y-94924710D01*
X28804496Y-94667455D01*
X28939854Y-94369459D01*
X27750000Y-93179605D01*
X26560146Y-94369459D01*
X23439854Y-94369459D01*
X22250000Y-93179605D01*
X21060146Y-94369459D01*
X8635552Y-94369459D01*
X8635630Y-94280126D01*
X8083400Y-92943628D01*
X7061751Y-91920194D01*
X5726218Y-91365632D01*
X4280126Y-91364370D01*
X2943628Y-91916600D01*
X2127000Y-92731804D01*
X2127000Y-87953795D01*
X9949716Y-87953795D01*
X9950000Y-87954482D01*
X9950000Y-89054995D01*
X9949999Y-89055000D01*
X10074457Y-89680688D01*
X10428880Y-90211120D01*
X12813878Y-92596117D01*
X12813880Y-92596120D01*
X13344313Y-92950543D01*
X13970000Y-93075000D01*
X17779995Y-93075000D01*
X17780000Y-93075001D01*
X18405688Y-92950543D01*
X18834709Y-92663880D01*
X20305934Y-92663880D01*
X20325290Y-93433427D01*
X20582545Y-94054496D01*
X20880541Y-94189854D01*
X22070395Y-93000000D01*
X22429605Y-93000000D01*
X23619459Y-94189854D01*
X23917455Y-94054496D01*
X24194066Y-93336120D01*
X24177158Y-92663880D01*
X25805934Y-92663880D01*
X25825290Y-93433427D01*
X26082545Y-94054496D01*
X26380541Y-94189854D01*
X27570395Y-93000000D01*
X27929605Y-93000000D01*
X29119459Y-94189854D01*
X29417455Y-94054496D01*
X29694066Y-93336120D01*
X29674710Y-92566573D01*
X29417455Y-91945504D01*
X29119459Y-91810146D01*
X27929605Y-93000000D01*
X27570395Y-93000000D01*
X26380541Y-91810146D01*
X26082545Y-91945504D01*
X25805934Y-92663880D01*
X24177158Y-92663880D01*
X24174710Y-92566573D01*
X23917455Y-91945504D01*
X23619459Y-91810146D01*
X22429605Y-93000000D01*
X22070395Y-93000000D01*
X20880541Y-91810146D01*
X20582545Y-91945504D01*
X20305934Y-92663880D01*
X18834709Y-92663880D01*
X18936120Y-92596120D01*
X19901698Y-91630541D01*
X21060146Y-91630541D01*
X22250000Y-92820395D01*
X23439854Y-91630541D01*
X26560146Y-91630541D01*
X27750000Y-92820395D01*
X28939854Y-91630541D01*
X28804496Y-91332545D01*
X28086120Y-91055934D01*
X27316573Y-91075290D01*
X26695504Y-91332545D01*
X26560146Y-91630541D01*
X23439854Y-91630541D01*
X23304496Y-91332545D01*
X22586120Y-91055934D01*
X21816573Y-91075290D01*
X21195504Y-91332545D01*
X21060146Y-91630541D01*
X19901698Y-91630541D01*
X22190245Y-89341994D01*
X22413416Y-89434663D01*
X23183207Y-89435335D01*
X23894658Y-89141370D01*
X24439457Y-88597521D01*
X24734663Y-87886584D01*
X24734665Y-87883207D01*
X25264665Y-87883207D01*
X25558630Y-88594658D01*
X26102479Y-89139457D01*
X26813416Y-89434663D01*
X27583207Y-89435335D01*
X28294658Y-89141370D01*
X28301039Y-89135000D01*
X34440960Y-89135000D01*
X34753352Y-89264716D01*
X35403795Y-89265284D01*
X36004943Y-89016894D01*
X36465278Y-88557363D01*
X36714716Y-87956648D01*
X36715284Y-87306205D01*
X36466894Y-86705057D01*
X36007363Y-86244722D01*
X35876224Y-86190268D01*
X35575688Y-85989457D01*
X34950000Y-85864999D01*
X34949995Y-85865000D01*
X28301970Y-85865000D01*
X28297521Y-85860543D01*
X27586584Y-85565337D01*
X26816793Y-85564665D01*
X26105342Y-85858630D01*
X25560543Y-86402479D01*
X25265337Y-87113416D01*
X25264665Y-87883207D01*
X24734665Y-87883207D01*
X24735335Y-87116793D01*
X24441370Y-86405342D01*
X23897521Y-85860543D01*
X23186584Y-85565337D01*
X22416793Y-85564665D01*
X21705342Y-85858630D01*
X21693725Y-85870226D01*
X21094313Y-85989457D01*
X20563880Y-86343880D01*
X20563878Y-86343883D01*
X17102760Y-89805000D01*
X14647239Y-89805000D01*
X13220000Y-88377760D01*
X13220000Y-87631427D01*
X13220284Y-87306205D01*
X12971894Y-86705057D01*
X12512363Y-86244722D01*
X11911648Y-85995284D01*
X11261205Y-85994716D01*
X10660057Y-86243106D01*
X10199722Y-86702637D01*
X9950284Y-87303352D01*
X9949716Y-87953795D01*
X2127000Y-87953795D01*
X2127000Y-58055000D01*
X2797560Y-58055000D01*
X2797560Y-60055000D01*
X2841838Y-60290317D01*
X2980910Y-60506441D01*
X3193110Y-60651431D01*
X3445000Y-60702440D01*
X5445000Y-60702440D01*
X5680317Y-60658162D01*
X5896441Y-60519090D01*
X6041431Y-60306890D01*
X6085352Y-60090000D01*
X8250895Y-60090000D01*
X7965057Y-60208106D01*
X7504722Y-60667637D01*
X7255284Y-61268352D01*
X7254716Y-61918795D01*
X7503106Y-62519943D01*
X7569621Y-62586574D01*
X7438559Y-62670910D01*
X7293569Y-62883110D01*
X7242560Y-63135000D01*
X7242560Y-63646532D01*
X7206397Y-63700654D01*
X7166851Y-63899463D01*
X6640657Y-64425657D01*
X6340427Y-64874983D01*
X6235000Y-65405000D01*
X6235000Y-69850000D01*
X6340427Y-70380017D01*
X6537422Y-70674841D01*
X6640657Y-70829343D01*
X7355184Y-71543870D01*
X7354735Y-72058991D01*
X7587932Y-72623371D01*
X7874060Y-72910000D01*
X5715000Y-72910000D01*
X5184984Y-73015426D01*
X4735657Y-73315657D01*
X4100657Y-73950657D01*
X3800427Y-74399983D01*
X3695000Y-74930000D01*
X3695000Y-76200000D01*
X3800427Y-76730017D01*
X3990583Y-77014605D01*
X4100657Y-77179343D01*
X4735657Y-77814343D01*
X5184984Y-78114574D01*
X5715000Y-78220000D01*
X7874304Y-78220000D01*
X7589449Y-78504357D01*
X7355267Y-79068330D01*
X7354735Y-79678991D01*
X7587932Y-80243371D01*
X8019357Y-80675551D01*
X8583330Y-80909733D01*
X9193991Y-80910265D01*
X9557660Y-80760000D01*
X10795000Y-80760000D01*
X11325017Y-80654573D01*
X11774343Y-80354343D01*
X12409343Y-79719343D01*
X12709574Y-79270016D01*
X12815000Y-78740000D01*
X12815000Y-71514336D01*
X14963542Y-71514336D01*
X14989161Y-72124460D01*
X15173357Y-72569148D01*
X15429841Y-72655554D01*
X16330395Y-71755000D01*
X15429841Y-70854446D01*
X15173357Y-70940852D01*
X14963542Y-71514336D01*
X12815000Y-71514336D01*
X12815000Y-70674841D01*
X15609446Y-70674841D01*
X16510000Y-71575395D01*
X17410554Y-70674841D01*
X17324148Y-70418357D01*
X16750664Y-70208542D01*
X16140540Y-70234161D01*
X15695852Y-70418357D01*
X15609446Y-70674841D01*
X12815000Y-70674841D01*
X12815000Y-69175000D01*
X12812180Y-69160824D01*
X12770791Y-68952745D01*
X14371861Y-68952745D01*
X14445995Y-69198864D01*
X14983223Y-69391965D01*
X15553454Y-69364778D01*
X15954005Y-69198864D01*
X16028139Y-68952745D01*
X15200000Y-68124605D01*
X14371861Y-68952745D01*
X12770791Y-68952745D01*
X12709574Y-68644984D01*
X12409343Y-68195657D01*
X11941909Y-67728223D01*
X13753035Y-67728223D01*
X13780222Y-68298454D01*
X13946136Y-68699005D01*
X14192255Y-68773139D01*
X15020395Y-67945000D01*
X15379605Y-67945000D01*
X16207745Y-68773139D01*
X16453864Y-68699005D01*
X16646965Y-68161777D01*
X16619778Y-67591546D01*
X16453864Y-67190995D01*
X16207745Y-67116861D01*
X15379605Y-67945000D01*
X15020395Y-67945000D01*
X14192255Y-67116861D01*
X13946136Y-67190995D01*
X13753035Y-67728223D01*
X11941909Y-67728223D01*
X11466784Y-67253098D01*
X11417243Y-67133200D01*
X11221640Y-66937255D01*
X14371861Y-66937255D01*
X15200000Y-67765395D01*
X16028139Y-66937255D01*
X15954005Y-66691136D01*
X15416777Y-66498035D01*
X14846546Y-66525222D01*
X14445995Y-66691136D01*
X14371861Y-66937255D01*
X11221640Y-66937255D01*
X11013923Y-66729176D01*
X10486691Y-66510250D01*
X9915813Y-66509752D01*
X9388200Y-66727757D01*
X9005000Y-67110289D01*
X9005000Y-65978686D01*
X9201246Y-65782440D01*
X9890000Y-65782440D01*
X10125317Y-65738162D01*
X10341441Y-65599090D01*
X10486431Y-65386890D01*
X10537440Y-65135000D01*
X10537440Y-63135000D01*
X10508275Y-62980000D01*
X16163948Y-62980000D01*
X16132560Y-63135000D01*
X16132560Y-65135000D01*
X16176838Y-65370317D01*
X16315910Y-65586441D01*
X16528110Y-65731431D01*
X16780000Y-65782440D01*
X17468754Y-65782440D01*
X17665000Y-65978686D01*
X17665000Y-70879659D01*
X17590159Y-70854446D01*
X16689605Y-71755000D01*
X17590159Y-72655554D01*
X17665000Y-72630341D01*
X17665000Y-72910000D01*
X17385341Y-72910000D01*
X17410554Y-72835159D01*
X16510000Y-71934605D01*
X15609446Y-72835159D01*
X15660035Y-72985327D01*
X15641629Y-72992932D01*
X15209449Y-73424357D01*
X14975267Y-73988330D01*
X14974735Y-74598991D01*
X15207932Y-75163371D01*
X15609182Y-75565323D01*
X15209449Y-75964357D01*
X14975267Y-76528330D01*
X14974735Y-77138991D01*
X15207932Y-77703371D01*
X15375880Y-77871613D01*
X15374683Y-77871838D01*
X15158559Y-78010910D01*
X15013569Y-78223110D01*
X14962560Y-78475000D01*
X14962560Y-80275000D01*
X15006838Y-80510317D01*
X15145910Y-80726441D01*
X15358110Y-80871431D01*
X15610000Y-80922440D01*
X16098754Y-80922440D01*
X16165657Y-80989343D01*
X16614984Y-81289574D01*
X17145000Y-81395000D01*
X18527761Y-81395000D01*
X13928880Y-85993880D01*
X13574457Y-86524312D01*
X13449999Y-87150000D01*
X13450000Y-87150005D01*
X13450000Y-87628574D01*
X13449716Y-87953795D01*
X13698106Y-88554943D01*
X14157637Y-89015278D01*
X14758352Y-89264716D01*
X15408795Y-89265284D01*
X16009943Y-89016894D01*
X16470278Y-88557363D01*
X16719716Y-87956648D01*
X16719829Y-87827411D01*
X20362239Y-84185000D01*
X21163569Y-84185000D01*
X21225000Y-84197440D01*
X23225000Y-84197440D01*
X23460317Y-84153162D01*
X23676441Y-84014090D01*
X23821431Y-83801890D01*
X23872440Y-83550000D01*
X23872440Y-81550000D01*
X26292560Y-81550000D01*
X26292560Y-83550000D01*
X26336838Y-83785317D01*
X26475910Y-84001441D01*
X26688110Y-84146431D01*
X26940000Y-84197440D01*
X28940000Y-84197440D01*
X29006113Y-84185000D01*
X34882760Y-84185000D01*
X36945000Y-86247240D01*
X36945000Y-87628574D01*
X36944716Y-87953795D01*
X37193106Y-88554943D01*
X37652637Y-89015278D01*
X38253352Y-89264716D01*
X38903795Y-89265284D01*
X39504943Y-89016894D01*
X39965278Y-88557363D01*
X40214716Y-87956648D01*
X40215284Y-87306205D01*
X40215000Y-87305518D01*
X40215000Y-85570005D01*
X40215001Y-85570000D01*
X40090543Y-84944312D01*
X39736120Y-84413880D01*
X36716120Y-81393880D01*
X36185688Y-81039457D01*
X35560000Y-80914999D01*
X35559995Y-80915000D01*
X29334564Y-80915000D01*
X29574716Y-80336648D01*
X29575284Y-79686205D01*
X29326894Y-79085057D01*
X28867363Y-78624722D01*
X28266648Y-78375284D01*
X27616205Y-78374716D01*
X27015057Y-78623106D01*
X26554722Y-79082637D01*
X26305284Y-79683352D01*
X26304716Y-80333795D01*
X26553106Y-80934943D01*
X26619621Y-81001574D01*
X26488559Y-81085910D01*
X26343569Y-81298110D01*
X26292560Y-81550000D01*
X23872440Y-81550000D01*
X23828162Y-81314683D01*
X23689090Y-81098559D01*
X23546439Y-81001090D01*
X23610278Y-80937363D01*
X23859716Y-80336648D01*
X23860284Y-79686205D01*
X23611894Y-79085057D01*
X23152363Y-78624722D01*
X22551648Y-78375284D01*
X21901205Y-78374716D01*
X21300057Y-78623106D01*
X21298160Y-78625000D01*
X20435000Y-78625000D01*
X20435000Y-77842745D01*
X44256861Y-77842745D01*
X44330995Y-78088864D01*
X44868223Y-78281965D01*
X45438454Y-78254778D01*
X45839005Y-78088864D01*
X45913139Y-77842745D01*
X45085000Y-77014605D01*
X44256861Y-77842745D01*
X20435000Y-77842745D01*
X20435000Y-77470000D01*
X20414118Y-77365017D01*
X20329574Y-76939984D01*
X20114580Y-76618223D01*
X43638035Y-76618223D01*
X43665222Y-77188454D01*
X43831136Y-77589005D01*
X44077255Y-77663139D01*
X44905395Y-76835000D01*
X45264605Y-76835000D01*
X46092745Y-77663139D01*
X46338864Y-77589005D01*
X46531965Y-77051777D01*
X46504778Y-76481546D01*
X46338864Y-76080995D01*
X46092745Y-76006861D01*
X45264605Y-76835000D01*
X44905395Y-76835000D01*
X44077255Y-76006861D01*
X43831136Y-76080995D01*
X43638035Y-76618223D01*
X20114580Y-76618223D01*
X20029343Y-76490657D01*
X19394343Y-75855657D01*
X19206655Y-75730248D01*
X18959344Y-75565000D01*
X19394343Y-75274343D01*
X20029343Y-74639343D01*
X20329574Y-74190016D01*
X20435000Y-73660000D01*
X20435000Y-71836454D01*
X20500583Y-71934605D01*
X20610657Y-72099343D01*
X23785657Y-75274343D01*
X24234983Y-75574573D01*
X24765000Y-75680000D01*
X44301216Y-75680000D01*
X44256861Y-75827255D01*
X45085000Y-76655395D01*
X45913139Y-75827255D01*
X45839005Y-75581136D01*
X45780746Y-75560195D01*
X45896800Y-75512243D01*
X46300824Y-75108923D01*
X46519750Y-74581691D01*
X46520248Y-74010813D01*
X46302243Y-73483200D01*
X45898923Y-73079176D01*
X45768785Y-73025138D01*
X45896800Y-72972243D01*
X46300824Y-72568923D01*
X46519750Y-72041691D01*
X46520248Y-71470813D01*
X46302243Y-70943200D01*
X45898923Y-70539176D01*
X45371691Y-70320250D01*
X44800813Y-70319752D01*
X44679203Y-70370000D01*
X43118686Y-70370000D01*
X42025000Y-69276314D01*
X42025000Y-66911844D01*
X42091441Y-66869090D01*
X42188910Y-66726439D01*
X42252637Y-66790278D01*
X42853352Y-67039716D01*
X43503795Y-67040284D01*
X44104943Y-66791894D01*
X44565278Y-66332363D01*
X44814716Y-65731648D01*
X44814718Y-65728968D01*
X46699343Y-63844343D01*
X46749207Y-63769716D01*
X46999573Y-63395017D01*
X47105000Y-62865000D01*
X47105000Y-41910000D01*
X46999573Y-41379983D01*
X46699343Y-40930657D01*
X43524343Y-37755657D01*
X43438608Y-37698371D01*
X43075017Y-37455427D01*
X42545000Y-37350000D01*
X40245341Y-37350000D01*
X40270554Y-37275159D01*
X39370000Y-36374605D01*
X38469446Y-37275159D01*
X38520035Y-37425327D01*
X38501629Y-37432932D01*
X38215000Y-37719060D01*
X38215000Y-37070341D01*
X38289841Y-37095554D01*
X39190395Y-36195000D01*
X39549605Y-36195000D01*
X40450159Y-37095554D01*
X40706643Y-37009148D01*
X40916458Y-36435664D01*
X40890839Y-35825540D01*
X40706643Y-35380852D01*
X40450159Y-35294446D01*
X39549605Y-36195000D01*
X39190395Y-36195000D01*
X38289841Y-35294446D01*
X38215000Y-35319659D01*
X38215000Y-34670696D01*
X38499357Y-34955551D01*
X38520194Y-34964203D01*
X38469446Y-35114841D01*
X39370000Y-36015395D01*
X40270554Y-35114841D01*
X40219965Y-34964673D01*
X40238371Y-34957068D01*
X40670551Y-34525643D01*
X40904733Y-33961670D01*
X40905265Y-33351009D01*
X40672068Y-32786629D01*
X40385940Y-32500000D01*
X41275000Y-32500000D01*
X41805017Y-32394573D01*
X42254343Y-32094343D01*
X45429343Y-28919343D01*
X45562551Y-28719983D01*
X45729573Y-28470017D01*
X45835000Y-27940000D01*
X45835000Y-21361502D01*
X45884750Y-21241691D01*
X45885248Y-20670813D01*
X45667243Y-20143200D01*
X45263923Y-19739176D01*
X44736691Y-19520250D01*
X44165813Y-19519752D01*
X43638200Y-19737757D01*
X43234176Y-20141077D01*
X43015250Y-20668309D01*
X43014752Y-21239187D01*
X43065000Y-21360797D01*
X43065000Y-27366314D01*
X40701314Y-29730000D01*
X40385696Y-29730000D01*
X40670551Y-29445643D01*
X40904733Y-28881670D01*
X40905265Y-28271009D01*
X40672068Y-27706629D01*
X40240643Y-27274449D01*
X39676670Y-27040267D01*
X39066009Y-27039735D01*
X38501629Y-27272932D01*
X38234094Y-27540000D01*
X36195005Y-27540000D01*
X36195000Y-27539999D01*
X35798923Y-27618785D01*
X35463144Y-27843144D01*
X35463142Y-27843147D01*
X33558144Y-29748144D01*
X33333785Y-30083923D01*
X33254999Y-30480000D01*
X33255000Y-30480005D01*
X33255000Y-30737762D01*
X33052068Y-30246629D01*
X32650818Y-29844677D01*
X33050551Y-29445643D01*
X33284733Y-28881670D01*
X33285265Y-28271009D01*
X33052068Y-27706629D01*
X32620643Y-27274449D01*
X32056670Y-27040267D01*
X31446009Y-27039735D01*
X30881629Y-27272932D01*
X30449449Y-27704357D01*
X30215267Y-28268330D01*
X30214735Y-28878991D01*
X30447932Y-29443371D01*
X30849182Y-29845323D01*
X30614094Y-30080000D01*
X30273711Y-30080000D01*
X27705000Y-27511288D01*
X27705000Y-21239187D01*
X27774752Y-21239187D01*
X27992757Y-21766800D01*
X28396077Y-22170824D01*
X28923309Y-22389750D01*
X29494187Y-22390248D01*
X29615797Y-22340000D01*
X36423498Y-22340000D01*
X36543309Y-22389750D01*
X37114187Y-22390248D01*
X37641800Y-22172243D01*
X38045824Y-21768923D01*
X38264750Y-21241691D01*
X38265248Y-20670813D01*
X38047243Y-20143200D01*
X37643923Y-19739176D01*
X37116691Y-19520250D01*
X36545813Y-19519752D01*
X36424203Y-19570000D01*
X29616502Y-19570000D01*
X29496691Y-19520250D01*
X28925813Y-19519752D01*
X28398200Y-19737757D01*
X27994176Y-20141077D01*
X27775250Y-20668309D01*
X27774752Y-21239187D01*
X27705000Y-21239187D01*
X27705000Y-19050000D01*
X27626215Y-18653923D01*
X27626215Y-18653922D01*
X27531289Y-18511855D01*
X27401856Y-18318144D01*
X27401853Y-18318142D01*
X24861856Y-15778144D01*
X24526077Y-15553785D01*
X24130000Y-15474999D01*
X24129995Y-15475000D01*
X22090730Y-15475000D01*
X21825643Y-15209449D01*
X21261670Y-14975267D01*
X20651009Y-14974735D01*
X20185000Y-15167286D01*
X20185000Y-14440132D01*
X20282387Y-14342745D01*
X28381861Y-14342745D01*
X28455995Y-14588864D01*
X28993223Y-14781965D01*
X29563454Y-14754778D01*
X29964005Y-14588864D01*
X30038139Y-14342745D01*
X36001861Y-14342745D01*
X36075995Y-14588864D01*
X36613223Y-14781965D01*
X37183454Y-14754778D01*
X37584005Y-14588864D01*
X37658139Y-14342745D01*
X36830000Y-13514605D01*
X36001861Y-14342745D01*
X30038139Y-14342745D01*
X29210000Y-13514605D01*
X28381861Y-14342745D01*
X20282387Y-14342745D01*
X21506909Y-13118223D01*
X27763035Y-13118223D01*
X27790222Y-13688454D01*
X27956136Y-14089005D01*
X28202255Y-14163139D01*
X29030395Y-13335000D01*
X29389605Y-13335000D01*
X30217745Y-14163139D01*
X30463864Y-14089005D01*
X30656965Y-13551777D01*
X30636295Y-13118223D01*
X35383035Y-13118223D01*
X35410222Y-13688454D01*
X35576136Y-14089005D01*
X35822255Y-14163139D01*
X36650395Y-13335000D01*
X37009605Y-13335000D01*
X37837745Y-14163139D01*
X38083864Y-14089005D01*
X38276965Y-13551777D01*
X38249778Y-12981546D01*
X38083864Y-12580995D01*
X37931165Y-12535000D01*
X43002560Y-12535000D01*
X43002560Y-14135000D01*
X43046838Y-14370317D01*
X43185910Y-14586441D01*
X43398110Y-14731431D01*
X43650000Y-14782440D01*
X45250000Y-14782440D01*
X45485317Y-14738162D01*
X45701441Y-14599090D01*
X45846431Y-14386890D01*
X45897440Y-14135000D01*
X45897440Y-12535000D01*
X45853162Y-12299683D01*
X45714090Y-12083559D01*
X45501890Y-11938569D01*
X45250000Y-11887560D01*
X43650000Y-11887560D01*
X43414683Y-11931838D01*
X43198559Y-12070910D01*
X43053569Y-12283110D01*
X43002560Y-12535000D01*
X37931165Y-12535000D01*
X37837745Y-12506861D01*
X37009605Y-13335000D01*
X36650395Y-13335000D01*
X35822255Y-12506861D01*
X35576136Y-12580995D01*
X35383035Y-13118223D01*
X30636295Y-13118223D01*
X30629778Y-12981546D01*
X30463864Y-12580995D01*
X30217745Y-12506861D01*
X29389605Y-13335000D01*
X29030395Y-13335000D01*
X28202255Y-12506861D01*
X27956136Y-12580995D01*
X27763035Y-13118223D01*
X21506909Y-13118223D01*
X22297877Y-12327255D01*
X28381861Y-12327255D01*
X29210000Y-13155395D01*
X30038139Y-12327255D01*
X36001861Y-12327255D01*
X36830000Y-13155395D01*
X37658139Y-12327255D01*
X37584005Y-12081136D01*
X37046777Y-11888035D01*
X36476546Y-11915222D01*
X36075995Y-12081136D01*
X36001861Y-12327255D01*
X30038139Y-12327255D01*
X29964005Y-12081136D01*
X29426777Y-11888035D01*
X28856546Y-11915222D01*
X28455995Y-12081136D01*
X28381861Y-12327255D01*
X22297877Y-12327255D01*
X23330132Y-11295000D01*
X24638000Y-11295000D01*
X25072346Y-11208603D01*
X25440566Y-10962566D01*
X25567566Y-10835566D01*
X25813603Y-10467345D01*
X25900000Y-10033000D01*
X25813603Y-9598655D01*
X25783185Y-9553131D01*
X25785001Y-9544000D01*
X25785000Y-9543995D01*
X25785000Y-7547440D01*
X25850000Y-7547440D01*
X25955705Y-7527550D01*
X25973691Y-7535000D01*
X26041250Y-7535000D01*
X26070254Y-7505996D01*
X26085317Y-7503162D01*
X26301441Y-7364090D01*
X26400000Y-7219844D01*
X26400000Y-7376250D01*
X26558750Y-7535000D01*
X26626309Y-7535000D01*
X26859698Y-7438327D01*
X27038327Y-7259699D01*
X27135000Y-7026310D01*
X27135000Y-6785000D01*
X27864250Y-6785000D01*
X28023000Y-6626250D01*
X28023000Y-5127000D01*
X28277000Y-5127000D01*
X28277000Y-6626250D01*
X28435750Y-6785000D01*
X29426309Y-6785000D01*
X29659698Y-6688327D01*
X29838327Y-6509699D01*
X29935000Y-6276310D01*
X29935000Y-5285750D01*
X29776250Y-5127000D01*
X28277000Y-5127000D01*
X28023000Y-5127000D01*
X28003000Y-5127000D01*
X28003000Y-4873000D01*
X28023000Y-4873000D01*
X28023000Y-4853000D01*
X28277000Y-4853000D01*
X28277000Y-4873000D01*
X29776250Y-4873000D01*
X29935000Y-4714250D01*
X29935000Y-4239979D01*
X30059698Y-4188327D01*
X30238327Y-4009699D01*
X30335000Y-3776310D01*
X30335000Y-2935750D01*
X30176250Y-2777000D01*
X29027000Y-2777000D01*
X29027000Y-2797000D01*
X28773000Y-2797000D01*
X28773000Y-2777000D01*
X27623750Y-2777000D01*
X27465000Y-2935750D01*
X27465000Y-3215000D01*
X26873691Y-3215000D01*
X26640302Y-3311673D01*
X26461673Y-3490301D01*
X26365000Y-3723690D01*
X26365000Y-4714250D01*
X26400000Y-4749250D01*
X26400000Y-4782067D01*
X26314090Y-4648559D01*
X26101890Y-4503569D01*
X26074215Y-4497965D01*
X26041250Y-4465000D01*
X25973691Y-4465000D01*
X25953247Y-4473468D01*
X25850000Y-4452560D01*
X25450000Y-4452560D01*
X25320411Y-4476944D01*
X25200000Y-4452560D01*
X24800000Y-4452560D01*
X24670411Y-4476944D01*
X24550000Y-4452560D01*
X24150000Y-4452560D01*
X24020411Y-4476944D01*
X23900000Y-4452560D01*
X23635000Y-4452560D01*
X23635000Y-3723690D01*
X23538327Y-3490301D01*
X23359698Y-3311673D01*
X23126309Y-3215000D01*
X22535000Y-3215000D01*
X22535000Y-2935750D01*
X22376250Y-2777000D01*
X21227000Y-2777000D01*
X21227000Y-2797000D01*
X20973000Y-2797000D01*
X20973000Y-2777000D01*
X19823750Y-2777000D01*
X19665000Y-2935750D01*
X19665000Y-3776310D01*
X19761673Y-4009699D01*
X19940302Y-4188327D01*
X20065000Y-4239979D01*
X20065000Y-4714250D01*
X20223750Y-4873000D01*
X21723000Y-4873000D01*
X21723000Y-4853000D01*
X21977000Y-4853000D01*
X21977000Y-4873000D01*
X21997000Y-4873000D01*
X21997000Y-5127000D01*
X21977000Y-5127000D01*
X21977000Y-6626250D01*
X22135750Y-6785000D01*
X22852560Y-6785000D01*
X22852560Y-6835000D01*
X20320000Y-6835000D01*
X20019593Y-6894755D01*
X19764921Y-7064921D01*
X19279243Y-7550599D01*
X19050000Y-7505000D01*
X12065000Y-7505000D01*
X11534983Y-7610427D01*
X11085657Y-7910657D01*
X9213754Y-9782560D01*
X9160000Y-9782560D01*
X8924683Y-9826838D01*
X8708559Y-9965910D01*
X8563569Y-10178110D01*
X8512560Y-10430000D01*
X8512560Y-12430000D01*
X8556838Y-12665317D01*
X8695910Y-12881441D01*
X8908110Y-13026431D01*
X9160000Y-13077440D01*
X11160000Y-13077440D01*
X11395317Y-13033162D01*
X11565000Y-12923974D01*
X11565000Y-15875000D01*
X11651397Y-16309346D01*
X11785470Y-16510000D01*
X11787560Y-16513128D01*
X11787560Y-17410000D01*
X11831838Y-17645317D01*
X11970910Y-17861441D01*
X12183110Y-18006431D01*
X12203534Y-18010567D01*
X12034449Y-18179357D01*
X11800267Y-18743330D01*
X11799735Y-19353991D01*
X12032932Y-19918371D01*
X12434182Y-20320323D01*
X12034449Y-20719357D01*
X11800267Y-21283330D01*
X11799735Y-21893991D01*
X12032932Y-22458371D01*
X12434182Y-22860323D01*
X12034449Y-23259357D01*
X11800267Y-23823330D01*
X11799735Y-24433991D01*
X12032932Y-24998371D01*
X12434182Y-25400323D01*
X12034449Y-25799357D01*
X11800267Y-26363330D01*
X11799735Y-26973991D01*
X12032932Y-27538371D01*
X12434182Y-27940323D01*
X12034449Y-28339357D01*
X11800267Y-28903330D01*
X11799735Y-29513991D01*
X12032932Y-30078371D01*
X12434182Y-30480323D01*
X12299269Y-30615000D01*
X11900132Y-30615000D01*
X11295000Y-30009868D01*
X11295000Y-19050000D01*
X11208603Y-18615654D01*
X10962566Y-18247434D01*
X9692566Y-16977434D01*
X9594082Y-16911629D01*
X9324346Y-16731397D01*
X8890000Y-16645000D01*
X8020905Y-16645000D01*
X7855643Y-16479449D01*
X7291670Y-16245267D01*
X6681009Y-16244735D01*
X6116629Y-16477932D01*
X5948387Y-16645880D01*
X5948162Y-16644683D01*
X5809090Y-16428559D01*
X5596890Y-16283569D01*
X5345000Y-16232560D01*
X3545000Y-16232560D01*
X3309683Y-16276838D01*
X3093559Y-16415910D01*
X2948569Y-16628110D01*
X2897560Y-16880000D01*
X2897560Y-18680000D01*
X2941838Y-18915317D01*
X3080910Y-19131441D01*
X3293110Y-19276431D01*
X3545000Y-19327440D01*
X3945000Y-19327440D01*
X3945000Y-21855266D01*
X3908135Y-21879899D01*
X3844683Y-21891838D01*
X3628559Y-22030910D01*
X3483569Y-22243110D01*
X3468435Y-22317842D01*
X3396397Y-22425655D01*
X3310000Y-22860000D01*
X3396397Y-23294345D01*
X3432560Y-23348467D01*
X3432560Y-24495000D01*
X3476838Y-24730317D01*
X3615910Y-24946441D01*
X3758561Y-25043910D01*
X3694722Y-25107637D01*
X3445284Y-25708352D01*
X3444716Y-26358795D01*
X3693106Y-26959943D01*
X3695000Y-26961840D01*
X3695000Y-43180000D01*
X3800427Y-43710017D01*
X3990127Y-43993923D01*
X4100657Y-44159343D01*
X4661502Y-44720188D01*
X4121205Y-44719716D01*
X3520057Y-44968106D01*
X3059722Y-45427637D01*
X2810284Y-46028352D01*
X2809716Y-46678795D01*
X3058106Y-47279943D01*
X3402759Y-47625199D01*
X3059722Y-47967637D01*
X2810284Y-48568352D01*
X2809716Y-49218795D01*
X3058106Y-49819943D01*
X3402759Y-50165199D01*
X3059722Y-50507637D01*
X2810284Y-51108352D01*
X2809716Y-51758795D01*
X3058106Y-52359943D01*
X3484978Y-52787562D01*
X3472073Y-52822468D01*
X4445000Y-53795395D01*
X5417927Y-52822468D01*
X5404836Y-52787062D01*
X5830278Y-52362363D01*
X6079716Y-51761648D01*
X6080284Y-51111205D01*
X5831894Y-50510057D01*
X5487241Y-50164801D01*
X5830278Y-49822363D01*
X6079716Y-49221648D01*
X6080284Y-48571205D01*
X5831894Y-47970057D01*
X5487241Y-47624801D01*
X5830278Y-47282363D01*
X6079716Y-46681648D01*
X6080190Y-46138876D01*
X6235000Y-46293686D01*
X6235000Y-54036314D01*
X6088798Y-54182516D01*
X6066856Y-53589540D01*
X5864387Y-53100736D01*
X5597532Y-53002073D01*
X4624605Y-53975000D01*
X4638748Y-53989143D01*
X4459143Y-54168748D01*
X4445000Y-54154605D01*
X3472073Y-55127532D01*
X3485164Y-55162938D01*
X3059722Y-55587637D01*
X2810284Y-56188352D01*
X2809716Y-56838795D01*
X3058106Y-57439943D01*
X3124621Y-57506574D01*
X2993559Y-57590910D01*
X2848569Y-57803110D01*
X2797560Y-58055000D01*
X2127000Y-58055000D01*
X2127000Y-53710461D01*
X2799092Y-53710461D01*
X2823144Y-54360460D01*
X3025613Y-54849264D01*
X3292468Y-54947927D01*
X4265395Y-53975000D01*
X3292468Y-53002073D01*
X3025613Y-53100736D01*
X2799092Y-53710461D01*
X2127000Y-53710461D01*
X2127000Y-7267140D01*
X2938249Y-8079806D01*
X4273782Y-8634368D01*
X5719874Y-8635630D01*
X7056372Y-8083400D01*
X8079806Y-7061751D01*
X8634368Y-5726218D01*
X8634752Y-5285750D01*
X20065000Y-5285750D01*
X20065000Y-6276310D01*
X20161673Y-6509699D01*
X20340302Y-6688327D01*
X20573691Y-6785000D01*
X21564250Y-6785000D01*
X21723000Y-6626250D01*
X21723000Y-5127000D01*
X20223750Y-5127000D01*
X20065000Y-5285750D01*
X8634752Y-5285750D01*
X8635630Y-4280126D01*
X8083400Y-2943628D01*
X7268196Y-2127000D01*
X19665000Y-2127000D01*
X19665000Y-2364250D01*
G36*
X44335000Y-42483686D02*
X44335000Y-62291314D01*
X42856598Y-63769716D01*
X42255057Y-64018106D01*
X42188426Y-64084621D01*
X42104090Y-63953559D01*
X41891890Y-63808569D01*
X41640000Y-63757560D01*
X39640000Y-63757560D01*
X39404683Y-63801838D01*
X39188559Y-63940910D01*
X39043569Y-64153110D01*
X38992560Y-64405000D01*
X38992560Y-66405000D01*
X39036838Y-66640317D01*
X39175910Y-66856441D01*
X39255000Y-66910481D01*
X39255000Y-69850000D01*
X39360427Y-70380017D01*
X39557422Y-70674841D01*
X39660657Y-70829343D01*
X41565657Y-72734343D01*
X41828546Y-72910000D01*
X25338686Y-72910000D01*
X22975000Y-70546314D01*
X22975000Y-63500000D01*
X22869573Y-62969983D01*
X22569343Y-62520657D01*
X20664343Y-60615657D01*
X20519820Y-60519090D01*
X20215017Y-60315427D01*
X19685000Y-60210000D01*
X18707641Y-60210000D01*
X18707363Y-60209722D01*
X18106648Y-59960284D01*
X17456205Y-59959716D01*
X16855057Y-60208106D01*
X16853160Y-60210000D01*
X9817641Y-60210000D01*
X9817363Y-60209722D01*
X9529040Y-60090000D01*
X13334995Y-60090000D01*
X13335000Y-60090001D01*
X13731077Y-60011215D01*
X14066856Y-59786856D01*
X15971853Y-57881858D01*
X15971856Y-57881856D01*
X16196215Y-57546077D01*
X16200856Y-57522745D01*
X17546861Y-57522745D01*
X17620995Y-57768864D01*
X18158223Y-57961965D01*
X18728454Y-57934778D01*
X19129005Y-57768864D01*
X19203139Y-57522745D01*
X18375000Y-56694605D01*
X17546861Y-57522745D01*
X16200856Y-57522745D01*
X16213622Y-57458569D01*
X16275001Y-57150000D01*
X16275000Y-57149995D01*
X16275000Y-56298223D01*
X16928035Y-56298223D01*
X16955222Y-56868454D01*
X17121136Y-57269005D01*
X17367255Y-57343139D01*
X18195395Y-56515000D01*
X18554605Y-56515000D01*
X19382745Y-57343139D01*
X19628864Y-57269005D01*
X19821965Y-56731777D01*
X19794778Y-56161546D01*
X19628864Y-55760995D01*
X19382745Y-55686861D01*
X18554605Y-56515000D01*
X18195395Y-56515000D01*
X17367255Y-55686861D01*
X17121136Y-55760995D01*
X16928035Y-56298223D01*
X16275000Y-56298223D01*
X16275000Y-55507255D01*
X17546861Y-55507255D01*
X18375000Y-56335395D01*
X19203139Y-55507255D01*
X19129005Y-55261136D01*
X18591777Y-55068035D01*
X18021546Y-55095222D01*
X17620995Y-55261136D01*
X17546861Y-55507255D01*
X16275000Y-55507255D01*
X16275000Y-51325108D01*
X16413144Y-51531856D01*
X22128142Y-57246853D01*
X22128144Y-57246856D01*
X22250967Y-57328923D01*
X22463923Y-57471215D01*
X22860000Y-57550001D01*
X22860005Y-57550000D01*
X32385000Y-57550000D01*
X32781077Y-57471215D01*
X33116856Y-57246856D01*
X33341215Y-56911077D01*
X33420000Y-56515000D01*
X33341215Y-56118923D01*
X33116856Y-55783144D01*
X33040207Y-55731929D01*
X33243856Y-55595856D01*
X33468215Y-55260077D01*
X33547000Y-54864000D01*
X33468215Y-54467923D01*
X33243856Y-54132144D01*
X32908077Y-53907785D01*
X32512000Y-53829000D01*
X23796711Y-53829000D01*
X21032780Y-51065068D01*
X21258991Y-51065265D01*
X21823371Y-50832068D01*
X22255551Y-50400643D01*
X22489733Y-49836670D01*
X22490265Y-49226009D01*
X22257068Y-48661629D01*
X21855818Y-48259677D01*
X22255551Y-47860643D01*
X22489733Y-47296670D01*
X22490265Y-46686009D01*
X22257068Y-46121629D01*
X21855818Y-45719677D01*
X22255551Y-45320643D01*
X22489733Y-44756670D01*
X22490265Y-44146009D01*
X22257068Y-43581629D01*
X21855818Y-43179677D01*
X22090906Y-42945000D01*
X23701288Y-42945000D01*
X25635000Y-44878711D01*
X25635000Y-48259995D01*
X25634999Y-48260000D01*
X25713785Y-48656077D01*
X25938144Y-48991856D01*
X28478142Y-51531853D01*
X28478144Y-51531856D01*
X28679429Y-51666349D01*
X28813922Y-51756215D01*
X29210000Y-51835000D01*
X33019995Y-51835000D01*
X33020000Y-51835001D01*
X33416077Y-51756215D01*
X33751856Y-51531856D01*
X34810000Y-50473711D01*
X34810000Y-58481314D01*
X33350657Y-59940657D01*
X33050427Y-60389983D01*
X32945000Y-60920000D01*
X32945000Y-61823498D01*
X32895250Y-61943309D01*
X32894752Y-62514187D01*
X33112757Y-63041800D01*
X33516077Y-63445824D01*
X34043309Y-63664750D01*
X34614187Y-63665248D01*
X35141800Y-63447243D01*
X35351663Y-63237745D01*
X38501861Y-63237745D01*
X38575995Y-63483864D01*
X39113223Y-63676965D01*
X39683454Y-63649778D01*
X40084005Y-63483864D01*
X40158139Y-63237745D01*
X39330000Y-62409605D01*
X38501861Y-63237745D01*
X35351663Y-63237745D01*
X35545824Y-63043923D01*
X35764750Y-62516691D01*
X35765189Y-62013223D01*
X37883035Y-62013223D01*
X37910222Y-62583454D01*
X38076136Y-62984005D01*
X38322255Y-63058139D01*
X39150395Y-62230000D01*
X39509605Y-62230000D01*
X40337745Y-63058139D01*
X40583864Y-62984005D01*
X40776965Y-62446777D01*
X40749778Y-61876546D01*
X40583864Y-61475995D01*
X40337745Y-61401861D01*
X39509605Y-62230000D01*
X39150395Y-62230000D01*
X38322255Y-61401861D01*
X38076136Y-61475995D01*
X37883035Y-62013223D01*
X35765189Y-62013223D01*
X35765248Y-61945813D01*
X35715000Y-61824203D01*
X35715000Y-61493686D01*
X35986431Y-61222255D01*
X38501861Y-61222255D01*
X39330000Y-62050395D01*
X40158139Y-61222255D01*
X40084005Y-60976136D01*
X39546777Y-60783035D01*
X38976546Y-60810222D01*
X38575995Y-60976136D01*
X38501861Y-61222255D01*
X35986431Y-61222255D01*
X37174343Y-60034343D01*
X37236942Y-59940657D01*
X37474573Y-59585017D01*
X37580000Y-59055000D01*
X37580000Y-43118686D01*
X38038686Y-42660000D01*
X38354304Y-42660000D01*
X38069449Y-42944357D01*
X37835267Y-43508330D01*
X37834735Y-44118991D01*
X38067932Y-44683371D01*
X38469182Y-45085323D01*
X38069449Y-45484357D01*
X37835267Y-46048330D01*
X37834735Y-46658991D01*
X38067932Y-47223371D01*
X38235880Y-47391613D01*
X38234683Y-47391838D01*
X38018559Y-47530910D01*
X37873569Y-47743110D01*
X37822560Y-47995000D01*
X37822560Y-49795000D01*
X37866838Y-50030317D01*
X38005910Y-50246441D01*
X38218110Y-50391431D01*
X38470000Y-50442440D01*
X40270000Y-50442440D01*
X40505317Y-50398162D01*
X40721441Y-50259090D01*
X40866431Y-50046890D01*
X40917440Y-49795000D01*
X40917440Y-47995000D01*
X40873162Y-47759683D01*
X40734090Y-47543559D01*
X40521890Y-47398569D01*
X40501466Y-47394433D01*
X40670551Y-47225643D01*
X40904733Y-46661670D01*
X40905265Y-46051009D01*
X40672068Y-45486629D01*
X40270818Y-45084677D01*
X40670551Y-44685643D01*
X40904733Y-44121670D01*
X40905265Y-43511009D01*
X40672068Y-42946629D01*
X40270818Y-42544677D01*
X40670551Y-42145643D01*
X40904733Y-41581670D01*
X40905265Y-40971009D01*
X40672068Y-40406629D01*
X40385940Y-40120000D01*
X41971314Y-40120000D01*
X44335000Y-42483686D01*
X44335000Y-42483686D01*
G37*
X44335000Y-42483686D02*
X44335000Y-62291314D01*
X42856598Y-63769716D01*
X42255057Y-64018106D01*
X42188426Y-64084621D01*
X42104090Y-63953559D01*
X41891890Y-63808569D01*
X41640000Y-63757560D01*
X39640000Y-63757560D01*
X39404683Y-63801838D01*
X39188559Y-63940910D01*
X39043569Y-64153110D01*
X38992560Y-64405000D01*
X38992560Y-66405000D01*
X39036838Y-66640317D01*
X39175910Y-66856441D01*
X39255000Y-66910481D01*
X39255000Y-69850000D01*
X39360427Y-70380017D01*
X39557422Y-70674841D01*
X39660657Y-70829343D01*
X41565657Y-72734343D01*
X41828546Y-72910000D01*
X25338686Y-72910000D01*
X22975000Y-70546314D01*
X22975000Y-63500000D01*
X22869573Y-62969983D01*
X22569343Y-62520657D01*
X20664343Y-60615657D01*
X20519820Y-60519090D01*
X20215017Y-60315427D01*
X19685000Y-60210000D01*
X18707641Y-60210000D01*
X18707363Y-60209722D01*
X18106648Y-59960284D01*
X17456205Y-59959716D01*
X16855057Y-60208106D01*
X16853160Y-60210000D01*
X9817641Y-60210000D01*
X9817363Y-60209722D01*
X9529040Y-60090000D01*
X13334995Y-60090000D01*
X13335000Y-60090001D01*
X13731077Y-60011215D01*
X14066856Y-59786856D01*
X15971853Y-57881858D01*
X15971856Y-57881856D01*
X16196215Y-57546077D01*
X16200856Y-57522745D01*
X17546861Y-57522745D01*
X17620995Y-57768864D01*
X18158223Y-57961965D01*
X18728454Y-57934778D01*
X19129005Y-57768864D01*
X19203139Y-57522745D01*
X18375000Y-56694605D01*
X17546861Y-57522745D01*
X16200856Y-57522745D01*
X16213622Y-57458569D01*
X16275001Y-57150000D01*
X16275000Y-57149995D01*
X16275000Y-56298223D01*
X16928035Y-56298223D01*
X16955222Y-56868454D01*
X17121136Y-57269005D01*
X17367255Y-57343139D01*
X18195395Y-56515000D01*
X18554605Y-56515000D01*
X19382745Y-57343139D01*
X19628864Y-57269005D01*
X19821965Y-56731777D01*
X19794778Y-56161546D01*
X19628864Y-55760995D01*
X19382745Y-55686861D01*
X18554605Y-56515000D01*
X18195395Y-56515000D01*
X17367255Y-55686861D01*
X17121136Y-55760995D01*
X16928035Y-56298223D01*
X16275000Y-56298223D01*
X16275000Y-55507255D01*
X17546861Y-55507255D01*
X18375000Y-56335395D01*
X19203139Y-55507255D01*
X19129005Y-55261136D01*
X18591777Y-55068035D01*
X18021546Y-55095222D01*
X17620995Y-55261136D01*
X17546861Y-55507255D01*
X16275000Y-55507255D01*
X16275000Y-51325108D01*
X16413144Y-51531856D01*
X22128142Y-57246853D01*
X22128144Y-57246856D01*
X22250967Y-57328923D01*
X22463923Y-57471215D01*
X22860000Y-57550001D01*
X22860005Y-57550000D01*
X32385000Y-57550000D01*
X32781077Y-57471215D01*
X33116856Y-57246856D01*
X33341215Y-56911077D01*
X33420000Y-56515000D01*
X33341215Y-56118923D01*
X33116856Y-55783144D01*
X33040207Y-55731929D01*
X33243856Y-55595856D01*
X33468215Y-55260077D01*
X33547000Y-54864000D01*
X33468215Y-54467923D01*
X33243856Y-54132144D01*
X32908077Y-53907785D01*
X32512000Y-53829000D01*
X23796711Y-53829000D01*
X21032780Y-51065068D01*
X21258991Y-51065265D01*
X21823371Y-50832068D01*
X22255551Y-50400643D01*
X22489733Y-49836670D01*
X22490265Y-49226009D01*
X22257068Y-48661629D01*
X21855818Y-48259677D01*
X22255551Y-47860643D01*
X22489733Y-47296670D01*
X22490265Y-46686009D01*
X22257068Y-46121629D01*
X21855818Y-45719677D01*
X22255551Y-45320643D01*
X22489733Y-44756670D01*
X22490265Y-44146009D01*
X22257068Y-43581629D01*
X21855818Y-43179677D01*
X22090906Y-42945000D01*
X23701288Y-42945000D01*
X25635000Y-44878711D01*
X25635000Y-48259995D01*
X25634999Y-48260000D01*
X25713785Y-48656077D01*
X25938144Y-48991856D01*
X28478142Y-51531853D01*
X28478144Y-51531856D01*
X28679429Y-51666349D01*
X28813922Y-51756215D01*
X29210000Y-51835000D01*
X33019995Y-51835000D01*
X33020000Y-51835001D01*
X33416077Y-51756215D01*
X33751856Y-51531856D01*
X34810000Y-50473711D01*
X34810000Y-58481314D01*
X33350657Y-59940657D01*
X33050427Y-60389983D01*
X32945000Y-60920000D01*
X32945000Y-61823498D01*
X32895250Y-61943309D01*
X32894752Y-62514187D01*
X33112757Y-63041800D01*
X33516077Y-63445824D01*
X34043309Y-63664750D01*
X34614187Y-63665248D01*
X35141800Y-63447243D01*
X35351663Y-63237745D01*
X38501861Y-63237745D01*
X38575995Y-63483864D01*
X39113223Y-63676965D01*
X39683454Y-63649778D01*
X40084005Y-63483864D01*
X40158139Y-63237745D01*
X39330000Y-62409605D01*
X38501861Y-63237745D01*
X35351663Y-63237745D01*
X35545824Y-63043923D01*
X35764750Y-62516691D01*
X35765189Y-62013223D01*
X37883035Y-62013223D01*
X37910222Y-62583454D01*
X38076136Y-62984005D01*
X38322255Y-63058139D01*
X39150395Y-62230000D01*
X39509605Y-62230000D01*
X40337745Y-63058139D01*
X40583864Y-62984005D01*
X40776965Y-62446777D01*
X40749778Y-61876546D01*
X40583864Y-61475995D01*
X40337745Y-61401861D01*
X39509605Y-62230000D01*
X39150395Y-62230000D01*
X38322255Y-61401861D01*
X38076136Y-61475995D01*
X37883035Y-62013223D01*
X35765189Y-62013223D01*
X35765248Y-61945813D01*
X35715000Y-61824203D01*
X35715000Y-61493686D01*
X35986431Y-61222255D01*
X38501861Y-61222255D01*
X39330000Y-62050395D01*
X40158139Y-61222255D01*
X40084005Y-60976136D01*
X39546777Y-60783035D01*
X38976546Y-60810222D01*
X38575995Y-60976136D01*
X38501861Y-61222255D01*
X35986431Y-61222255D01*
X37174343Y-60034343D01*
X37236942Y-59940657D01*
X37474573Y-59585017D01*
X37580000Y-59055000D01*
X37580000Y-43118686D01*
X38038686Y-42660000D01*
X38354304Y-42660000D01*
X38069449Y-42944357D01*
X37835267Y-43508330D01*
X37834735Y-44118991D01*
X38067932Y-44683371D01*
X38469182Y-45085323D01*
X38069449Y-45484357D01*
X37835267Y-46048330D01*
X37834735Y-46658991D01*
X38067932Y-47223371D01*
X38235880Y-47391613D01*
X38234683Y-47391838D01*
X38018559Y-47530910D01*
X37873569Y-47743110D01*
X37822560Y-47995000D01*
X37822560Y-49795000D01*
X37866838Y-50030317D01*
X38005910Y-50246441D01*
X38218110Y-50391431D01*
X38470000Y-50442440D01*
X40270000Y-50442440D01*
X40505317Y-50398162D01*
X40721441Y-50259090D01*
X40866431Y-50046890D01*
X40917440Y-49795000D01*
X40917440Y-47995000D01*
X40873162Y-47759683D01*
X40734090Y-47543559D01*
X40521890Y-47398569D01*
X40501466Y-47394433D01*
X40670551Y-47225643D01*
X40904733Y-46661670D01*
X40905265Y-46051009D01*
X40672068Y-45486629D01*
X40270818Y-45084677D01*
X40670551Y-44685643D01*
X40904733Y-44121670D01*
X40905265Y-43511009D01*
X40672068Y-42946629D01*
X40270818Y-42544677D01*
X40670551Y-42145643D01*
X40904733Y-41581670D01*
X40905265Y-40971009D01*
X40672068Y-40406629D01*
X40385940Y-40120000D01*
X41971314Y-40120000D01*
X44335000Y-42483686D01*
G36*
X16977434Y-11897434D02*
X16731397Y-12265654D01*
X16645000Y-12700000D01*
X16645000Y-46990000D01*
X16731397Y-47424346D01*
X16886897Y-47657068D01*
X16977434Y-47792566D01*
X18500622Y-49315754D01*
X18399923Y-49335785D01*
X18064144Y-49560144D01*
X17839785Y-49895923D01*
X17813896Y-50026075D01*
X17541077Y-49843785D01*
X17145000Y-49764999D01*
X16748923Y-49843785D01*
X16413144Y-50068144D01*
X16275000Y-50274892D01*
X16275000Y-17780005D01*
X16275001Y-17780000D01*
X16196215Y-17383922D01*
X16101289Y-17241856D01*
X15971856Y-17048144D01*
X15971853Y-17048142D01*
X14882440Y-15958728D01*
X14882440Y-15610000D01*
X14838162Y-15374683D01*
X14699090Y-15158559D01*
X14486890Y-15013569D01*
X14235000Y-14962560D01*
X13835000Y-14962560D01*
X13835000Y-12607204D01*
X14085278Y-12357363D01*
X14334716Y-11756648D01*
X14335284Y-11106205D01*
X14086894Y-10505057D01*
X13857239Y-10275000D01*
X18599868Y-10275000D01*
X16977434Y-11897434D01*
X16977434Y-11897434D01*
G37*
X16977434Y-11897434D02*
X16731397Y-12265654D01*
X16645000Y-12700000D01*
X16645000Y-46990000D01*
X16731397Y-47424346D01*
X16886897Y-47657068D01*
X16977434Y-47792566D01*
X18500622Y-49315754D01*
X18399923Y-49335785D01*
X18064144Y-49560144D01*
X17839785Y-49895923D01*
X17813896Y-50026075D01*
X17541077Y-49843785D01*
X17145000Y-49764999D01*
X16748923Y-49843785D01*
X16413144Y-50068144D01*
X16275000Y-50274892D01*
X16275000Y-17780005D01*
X16275001Y-17780000D01*
X16196215Y-17383922D01*
X16101289Y-17241856D01*
X15971856Y-17048144D01*
X15971853Y-17048142D01*
X14882440Y-15958728D01*
X14882440Y-15610000D01*
X14838162Y-15374683D01*
X14699090Y-15158559D01*
X14486890Y-15013569D01*
X14235000Y-14962560D01*
X13835000Y-14962560D01*
X13835000Y-12607204D01*
X14085278Y-12357363D01*
X14334716Y-11756648D01*
X14335284Y-11106205D01*
X14086894Y-10505057D01*
X13857239Y-10275000D01*
X18599868Y-10275000D01*
X16977434Y-11897434D01*
G36*
X12034449Y-41039357D02*
X11800267Y-41603330D01*
X11799735Y-42213991D01*
X12032932Y-42778371D01*
X12434182Y-43180323D01*
X12034449Y-43579357D01*
X11800267Y-44143330D01*
X11799735Y-44753991D01*
X12032932Y-45318371D01*
X12434182Y-45720323D01*
X12199094Y-45955000D01*
X12065000Y-45955000D01*
X11668922Y-46033785D01*
X11540855Y-46119357D01*
X11333144Y-46258144D01*
X11333142Y-46258147D01*
X9005000Y-48586288D01*
X9005000Y-45720000D01*
X8899573Y-45189983D01*
X8599343Y-44740657D01*
X8423686Y-44565000D01*
X8890000Y-44565000D01*
X9420017Y-44459573D01*
X9869343Y-44159343D01*
X11139343Y-42889343D01*
X11292585Y-42660000D01*
X11439573Y-42440017D01*
X11545000Y-41910000D01*
X11545000Y-41213686D01*
X12003686Y-40755000D01*
X12319304Y-40755000D01*
X12034449Y-41039357D01*
X12034449Y-41039357D01*
G37*
X12034449Y-41039357D02*
X11800267Y-41603330D01*
X11799735Y-42213991D01*
X12032932Y-42778371D01*
X12434182Y-43180323D01*
X12034449Y-43579357D01*
X11800267Y-44143330D01*
X11799735Y-44753991D01*
X12032932Y-45318371D01*
X12434182Y-45720323D01*
X12199094Y-45955000D01*
X12065000Y-45955000D01*
X11668922Y-46033785D01*
X11540855Y-46119357D01*
X11333144Y-46258144D01*
X11333142Y-46258147D01*
X9005000Y-48586288D01*
X9005000Y-45720000D01*
X8899573Y-45189983D01*
X8599343Y-44740657D01*
X8423686Y-44565000D01*
X8890000Y-44565000D01*
X9420017Y-44459573D01*
X9869343Y-44159343D01*
X11139343Y-42889343D01*
X11292585Y-42660000D01*
X11439573Y-42440017D01*
X11545000Y-41910000D01*
X11545000Y-41213686D01*
X12003686Y-40755000D01*
X12319304Y-40755000D01*
X12034449Y-41039357D01*
G36*
X26905000Y-41068711D02*
X26905000Y-43221289D01*
X24861856Y-41178144D01*
X24526077Y-40953785D01*
X24130000Y-40874999D01*
X24129995Y-40875000D01*
X22090730Y-40875000D01*
X21825643Y-40609449D01*
X21804806Y-40600797D01*
X21855554Y-40450159D01*
X20955000Y-39549605D01*
X20940858Y-39563748D01*
X20761253Y-39384143D01*
X20775395Y-39370000D01*
X21134605Y-39370000D01*
X22035159Y-40270554D01*
X22291643Y-40184148D01*
X22501458Y-39610664D01*
X22475839Y-39000540D01*
X22291643Y-38555852D01*
X22035159Y-38469446D01*
X21134605Y-39370000D01*
X20775395Y-39370000D01*
X20761253Y-39355858D01*
X20940858Y-39176253D01*
X20955000Y-39190395D01*
X21855554Y-38289841D01*
X21804965Y-38139673D01*
X21823371Y-38132068D01*
X22255551Y-37700643D01*
X22489733Y-37136670D01*
X22490154Y-36653865D01*
X26905000Y-41068711D01*
X26905000Y-41068711D01*
G37*
X26905000Y-41068711D02*
X26905000Y-43221289D01*
X24861856Y-41178144D01*
X24526077Y-40953785D01*
X24130000Y-40874999D01*
X24129995Y-40875000D01*
X22090730Y-40875000D01*
X21825643Y-40609449D01*
X21804806Y-40600797D01*
X21855554Y-40450159D01*
X20955000Y-39549605D01*
X20940858Y-39563748D01*
X20761253Y-39384143D01*
X20775395Y-39370000D01*
X21134605Y-39370000D01*
X22035159Y-40270554D01*
X22291643Y-40184148D01*
X22501458Y-39610664D01*
X22475839Y-39000540D01*
X22291643Y-38555852D01*
X22035159Y-38469446D01*
X21134605Y-39370000D01*
X20775395Y-39370000D01*
X20761253Y-39355858D01*
X20940858Y-39176253D01*
X20955000Y-39190395D01*
X21855554Y-38289841D01*
X21804965Y-38139673D01*
X21823371Y-38132068D01*
X22255551Y-37700643D01*
X22489733Y-37136670D01*
X22490154Y-36653865D01*
X26905000Y-41068711D01*
G36*
X9180657Y-39660657D02*
X8933650Y-40030330D01*
X8873864Y-39885995D01*
X8627745Y-39811861D01*
X7799605Y-40640000D01*
X7813748Y-40654142D01*
X7634142Y-40833748D01*
X7620000Y-40819605D01*
X6791861Y-41647745D01*
X6865995Y-41893864D01*
X6924254Y-41914805D01*
X6808200Y-41962757D01*
X6465000Y-42305359D01*
X6465000Y-41423784D01*
X6612255Y-41468139D01*
X7440395Y-40640000D01*
X6612255Y-39811861D01*
X6465000Y-39856216D01*
X6465000Y-39425979D01*
X6568110Y-39496431D01*
X6817557Y-39546945D01*
X6791861Y-39632255D01*
X7620000Y-40460395D01*
X8448139Y-39632255D01*
X8422453Y-39546978D01*
X8655317Y-39503162D01*
X8683542Y-39485000D01*
X8890000Y-39485000D01*
X9420017Y-39379573D01*
X9545759Y-39295555D01*
X9180657Y-39660657D01*
X9180657Y-39660657D01*
G37*
X9180657Y-39660657D02*
X8933650Y-40030330D01*
X8873864Y-39885995D01*
X8627745Y-39811861D01*
X7799605Y-40640000D01*
X7813748Y-40654142D01*
X7634142Y-40833748D01*
X7620000Y-40819605D01*
X6791861Y-41647745D01*
X6865995Y-41893864D01*
X6924254Y-41914805D01*
X6808200Y-41962757D01*
X6465000Y-42305359D01*
X6465000Y-41423784D01*
X6612255Y-41468139D01*
X7440395Y-40640000D01*
X6612255Y-39811861D01*
X6465000Y-39856216D01*
X6465000Y-39425979D01*
X6568110Y-39496431D01*
X6817557Y-39546945D01*
X6791861Y-39632255D01*
X7620000Y-40460395D01*
X8448139Y-39632255D01*
X8422453Y-39546978D01*
X8655317Y-39503162D01*
X8683542Y-39485000D01*
X8890000Y-39485000D01*
X9420017Y-39379573D01*
X9545759Y-39295555D01*
X9180657Y-39660657D01*
G36*
X9025000Y-30480000D02*
X9111397Y-30914346D01*
X9133506Y-30947434D01*
X9357434Y-31282566D01*
X10627434Y-32552566D01*
X10995654Y-32798603D01*
X11430000Y-32885000D01*
X12299095Y-32885000D01*
X12464357Y-33050551D01*
X12485194Y-33059203D01*
X12434446Y-33209841D01*
X13335000Y-34110395D01*
X13349143Y-34096253D01*
X13528748Y-34275858D01*
X13514605Y-34290000D01*
X13528748Y-34304143D01*
X13349143Y-34483748D01*
X13335000Y-34469605D01*
X12434446Y-35370159D01*
X12459659Y-35445000D01*
X10160000Y-35445000D01*
X9629983Y-35550427D01*
X9240249Y-35810839D01*
X9180657Y-35850657D01*
X8378754Y-36652560D01*
X6820000Y-36652560D01*
X6584683Y-36696838D01*
X6465000Y-36773852D01*
X6465000Y-35257745D01*
X6791861Y-35257745D01*
X6865995Y-35503864D01*
X7403223Y-35696965D01*
X7973454Y-35669778D01*
X8374005Y-35503864D01*
X8448139Y-35257745D01*
X7620000Y-34429605D01*
X6791861Y-35257745D01*
X6465000Y-35257745D01*
X6465000Y-35033784D01*
X6612255Y-35078139D01*
X7440395Y-34250000D01*
X7799605Y-34250000D01*
X8627745Y-35078139D01*
X8873864Y-35004005D01*
X9066965Y-34466777D01*
X9047063Y-34049336D01*
X11788542Y-34049336D01*
X11814161Y-34659460D01*
X11998357Y-35104148D01*
X12254841Y-35190554D01*
X13155395Y-34290000D01*
X12254841Y-33389446D01*
X11998357Y-33475852D01*
X11788542Y-34049336D01*
X9047063Y-34049336D01*
X9039778Y-33896546D01*
X8873864Y-33495995D01*
X8627745Y-33421861D01*
X7799605Y-34250000D01*
X7440395Y-34250000D01*
X6612255Y-33421861D01*
X6465000Y-33466216D01*
X6465000Y-33242255D01*
X6791861Y-33242255D01*
X7620000Y-34070395D01*
X8448139Y-33242255D01*
X8374005Y-32996136D01*
X7836777Y-32803035D01*
X7266546Y-32830222D01*
X6865995Y-32996136D01*
X6791861Y-33242255D01*
X6465000Y-33242255D01*
X6465000Y-30635000D01*
X7213498Y-30635000D01*
X7333309Y-30684750D01*
X7904187Y-30685248D01*
X8431800Y-30467243D01*
X8835824Y-30063923D01*
X9025000Y-29608337D01*
X9025000Y-30480000D01*
X9025000Y-30480000D01*
G37*
X9025000Y-30480000D02*
X9111397Y-30914346D01*
X9133506Y-30947434D01*
X9357434Y-31282566D01*
X10627434Y-32552566D01*
X10995654Y-32798603D01*
X11430000Y-32885000D01*
X12299095Y-32885000D01*
X12464357Y-33050551D01*
X12485194Y-33059203D01*
X12434446Y-33209841D01*
X13335000Y-34110395D01*
X13349143Y-34096253D01*
X13528748Y-34275858D01*
X13514605Y-34290000D01*
X13528748Y-34304143D01*
X13349143Y-34483748D01*
X13335000Y-34469605D01*
X12434446Y-35370159D01*
X12459659Y-35445000D01*
X10160000Y-35445000D01*
X9629983Y-35550427D01*
X9240249Y-35810839D01*
X9180657Y-35850657D01*
X8378754Y-36652560D01*
X6820000Y-36652560D01*
X6584683Y-36696838D01*
X6465000Y-36773852D01*
X6465000Y-35257745D01*
X6791861Y-35257745D01*
X6865995Y-35503864D01*
X7403223Y-35696965D01*
X7973454Y-35669778D01*
X8374005Y-35503864D01*
X8448139Y-35257745D01*
X7620000Y-34429605D01*
X6791861Y-35257745D01*
X6465000Y-35257745D01*
X6465000Y-35033784D01*
X6612255Y-35078139D01*
X7440395Y-34250000D01*
X7799605Y-34250000D01*
X8627745Y-35078139D01*
X8873864Y-35004005D01*
X9066965Y-34466777D01*
X9047063Y-34049336D01*
X11788542Y-34049336D01*
X11814161Y-34659460D01*
X11998357Y-35104148D01*
X12254841Y-35190554D01*
X13155395Y-34290000D01*
X12254841Y-33389446D01*
X11998357Y-33475852D01*
X11788542Y-34049336D01*
X9047063Y-34049336D01*
X9039778Y-33896546D01*
X8873864Y-33495995D01*
X8627745Y-33421861D01*
X7799605Y-34250000D01*
X7440395Y-34250000D01*
X6612255Y-33421861D01*
X6465000Y-33466216D01*
X6465000Y-33242255D01*
X6791861Y-33242255D01*
X7620000Y-34070395D01*
X8448139Y-33242255D01*
X8374005Y-32996136D01*
X7836777Y-32803035D01*
X7266546Y-32830222D01*
X6865995Y-32996136D01*
X6791861Y-33242255D01*
X6465000Y-33242255D01*
X6465000Y-30635000D01*
X7213498Y-30635000D01*
X7333309Y-30684750D01*
X7904187Y-30685248D01*
X8431800Y-30467243D01*
X8835824Y-30063923D01*
X9025000Y-29608337D01*
X9025000Y-30480000D01*
M02*
